<svg width="122" height="47" viewBox="0 0 122 47" fill="none" xmlns="http://www.w3.org/2000/svg">
<rect x="1.44043" y="8.17676" width="113.526" height="30" fill="white"/>
<rect x="1.44043" y="8.17676" width="113.526" height="30" stroke="#282727"/>
<g clip-path="url(#clip0_2302_22359)">
<path d="M16.3653 12.1768H32.0373V34.1768H16.3607L16.3653 12.1768Z" fill="white"/>
<path d="M8.53125 12.1768H16.365V34.1768H8.53125V12.1768ZM32.037 12.1768H39.8707V34.1768H32.0416L32.037 12.1768ZM18.7132 22.8101L18.0996 23.0118L20.9323 25.4868C21.1491 26.1147 20.8585 26.3026 20.6739 26.6326L23.7465 26.2476L23.6727 29.3184L24.314 29.3047L24.171 26.2522L27.2482 26.6188C27.059 26.2201 26.8883 26.0093 27.0636 25.3722L29.8917 23.0347L29.3981 22.8513C28.9921 22.5397 29.5734 21.3572 29.6564 20.6101C29.6564 20.6101 28.0094 21.1738 27.9033 20.8759L27.4788 20.0738L25.9748 21.7147C25.8134 21.7559 25.7442 21.6918 25.7026 21.5543L26.3947 18.1259L25.2967 18.7401C25.2044 18.7813 25.1121 18.7447 25.0568 18.6393L23.9957 16.5309L22.9069 18.7218C22.8238 18.7997 22.7408 18.8088 22.6762 18.7538L21.6197 18.1718L22.2518 21.568C22.201 21.7055 22.0811 21.7422 21.9427 21.6688L20.5032 20.0509C20.3187 20.3488 20.1895 20.8347 19.9404 20.9447C19.6913 21.0501 18.8562 20.7384 18.298 20.6238C18.4918 21.3022 19.0823 22.4388 18.7132 22.8101Z" fill="#D52B1E"/>
</g>
<g filter="url(#filter0_d_2302_22359)">
<path d="M57.5058 27.2878C57.6198 27.2878 57.7188 27.3328 57.8028 27.4228L58.6398 28.3318C58.1118 28.9678 57.4638 29.4598 56.6958 29.8078C55.9278 30.1498 55.0098 30.3208 53.9418 30.3208C52.9938 30.3208 52.1358 30.1588 51.3678 29.8348C50.6058 29.5048 49.9548 29.0488 49.4148 28.4668C48.8748 27.8788 48.4578 27.1798 48.1638 26.3698C47.8758 25.5598 47.7318 24.6688 47.7318 23.6968C47.7318 22.7248 47.8848 21.8338 48.1908 21.0238C48.5028 20.2078 48.9378 19.5088 49.4958 18.9268C50.0598 18.3388 50.7318 17.8828 51.5118 17.5588C52.2978 17.2348 53.1618 17.0728 54.1038 17.0728C55.0398 17.0728 55.8648 17.2258 56.5788 17.5318C57.2988 17.8318 57.9228 18.2338 58.4508 18.7378L57.7578 19.7188C57.7098 19.7848 57.6528 19.8418 57.5868 19.8898C57.5208 19.9378 57.4308 19.9618 57.3168 19.9618C57.1968 19.9618 57.0588 19.9078 56.9028 19.7998C56.7528 19.6858 56.5578 19.5628 56.3178 19.4308C56.0838 19.2928 55.7868 19.1698 55.4268 19.0618C55.0728 18.9478 54.6288 18.8908 54.0948 18.8908C53.4768 18.8908 52.9098 18.9988 52.3938 19.2148C51.8778 19.4308 51.4338 19.7458 51.0618 20.1598C50.6898 20.5738 50.3988 21.0778 50.1888 21.6718C49.9848 22.2658 49.8828 22.9408 49.8828 23.6968C49.8828 24.4588 49.9908 25.1398 50.2068 25.7398C50.4228 26.3338 50.7198 26.8378 51.0978 27.2518C51.4758 27.6598 51.9198 27.9718 52.4298 28.1878C52.9398 28.4038 53.4888 28.5118 54.0768 28.5118C54.4368 28.5118 54.7578 28.4938 55.0398 28.4578C55.3278 28.4158 55.5918 28.3528 55.8318 28.2688C56.0718 28.1788 56.2968 28.0678 56.5068 27.9358C56.7228 27.8038 56.9358 27.6418 57.1458 27.4498C57.2658 27.3418 57.3858 27.2878 57.5058 27.2878ZM65.0039 26.1628C64.3139 26.1868 63.7319 26.2438 63.2579 26.3338C62.7839 26.4178 62.3999 26.5288 62.1059 26.6668C61.8119 26.7988 61.5989 26.9578 61.4669 27.1438C61.3409 27.3298 61.2779 27.5338 61.2779 27.7558C61.2779 27.9718 61.3109 28.1578 61.3769 28.3138C61.4489 28.4638 61.5449 28.5898 61.6649 28.6918C61.7909 28.7878 61.9349 28.8598 62.0969 28.9078C62.2649 28.9498 62.4479 28.9708 62.6459 28.9708C63.1499 28.9708 63.5819 28.8778 63.9419 28.6918C64.3079 28.4998 64.6619 28.2238 65.0039 27.8638V26.1628ZM59.8739 22.2748C60.9119 21.3088 62.1479 20.8258 63.5819 20.8258C64.1099 20.8258 64.5779 20.9128 64.9859 21.0868C65.3999 21.2548 65.7449 21.4948 66.0209 21.8068C66.3029 22.1188 66.5159 22.4908 66.6599 22.9228C66.8099 23.3488 66.8849 23.8228 66.8849 24.3448V30.1768H66.0209C65.8349 30.1768 65.6939 30.1498 65.5979 30.0958C65.5019 30.0358 65.4209 29.9188 65.3549 29.7448L65.1659 28.9978C64.9319 29.2078 64.7009 29.3968 64.4729 29.5648C64.2449 29.7268 64.0079 29.8648 63.7619 29.9788C63.5219 30.0928 63.2609 30.1768 62.9789 30.2308C62.7029 30.2908 62.3969 30.3208 62.0609 30.3208C61.6889 30.3208 61.3409 30.2698 61.0169 30.1678C60.6989 30.0658 60.4229 29.9128 60.1889 29.7088C59.9549 29.4988 59.7689 29.2408 59.6309 28.9348C59.4989 28.6288 59.4329 28.2688 59.4329 27.8548C59.4329 27.5008 59.5259 27.1558 59.7119 26.8198C59.9039 26.4838 60.2159 26.1838 60.6479 25.9198C61.0859 25.6498 61.6589 25.4278 62.3669 25.2538C63.0809 25.0798 63.9599 24.9808 65.0039 24.9568V24.3448C65.0039 23.6848 64.8629 23.1928 64.5809 22.8688C64.2989 22.5448 63.8849 22.3828 63.3389 22.3828C62.9669 22.3828 62.6549 22.4308 62.4029 22.5268C62.1509 22.6168 61.9319 22.7158 61.7459 22.8238C61.5599 22.9318 61.3949 23.0338 61.2509 23.1298C61.1069 23.2198 60.9539 23.2648 60.7919 23.2648C60.6599 23.2648 60.5459 23.2318 60.4499 23.1658C60.3599 23.0938 60.2849 23.0068 60.2249 22.9048L59.8739 22.2748ZM70.9607 22.2118C71.1587 22.0078 71.3627 21.8248 71.5727 21.6628C71.7887 21.4948 72.0167 21.3508 72.2567 21.2308C72.4967 21.1108 72.7517 21.0178 73.0217 20.9518C73.2917 20.8858 73.5857 20.8528 73.9037 20.8528C74.4077 20.8528 74.8487 20.9368 75.2267 21.1048C75.6107 21.2728 75.9317 21.5098 76.1897 21.8158C76.4537 22.1218 76.6517 22.4908 76.7837 22.9228C76.9157 23.3488 76.9817 23.8198 76.9817 24.3358V30.1768H75.0557V24.3358C75.0557 23.7178 74.9117 23.2378 74.6237 22.8958C74.3417 22.5538 73.9097 22.3828 73.3277 22.3828C72.8957 22.3828 72.4937 22.4818 72.1217 22.6798C71.7557 22.8778 71.4107 23.1478 71.0867 23.4898V30.1768H69.1517V20.9968H70.3217C70.5857 20.9968 70.7537 21.1198 70.8257 21.3658L70.9607 22.2118ZM84.1465 26.1628C83.4565 26.1868 82.8745 26.2438 82.4005 26.3338C81.9265 26.4178 81.5425 26.5288 81.2485 26.6668C80.9545 26.7988 80.7415 26.9578 80.6095 27.1438C80.4835 27.3298 80.4205 27.5338 80.4205 27.7558C80.4205 27.9718 80.4535 28.1578 80.5195 28.3138C80.5915 28.4638 80.6875 28.5898 80.8075 28.6918C80.9335 28.7878 81.0775 28.8598 81.2395 28.9078C81.4075 28.9498 81.5905 28.9708 81.7885 28.9708C82.2925 28.9708 82.7245 28.8778 83.0845 28.6918C83.4505 28.4998 83.8045 28.2238 84.1465 27.8638V26.1628ZM79.0165 22.2748C80.0545 21.3088 81.2905 20.8258 82.7245 20.8258C83.2525 20.8258 83.7205 20.9128 84.1285 21.0868C84.5425 21.2548 84.8875 21.4948 85.1635 21.8068C85.4455 22.1188 85.6585 22.4908 85.8025 22.9228C85.9525 23.3488 86.0275 23.8228 86.0275 24.3448V30.1768H85.1635C84.9775 30.1768 84.8365 30.1498 84.7405 30.0958C84.6445 30.0358 84.5635 29.9188 84.4975 29.7448L84.3085 28.9978C84.0745 29.2078 83.8435 29.3968 83.6155 29.5648C83.3875 29.7268 83.1505 29.8648 82.9045 29.9788C82.6645 30.0928 82.4035 30.1768 82.1215 30.2308C81.8455 30.2908 81.5395 30.3208 81.2035 30.3208C80.8315 30.3208 80.4835 30.2698 80.1595 30.1678C79.8415 30.0658 79.5655 29.9128 79.3315 29.7088C79.0975 29.4988 78.9115 29.2408 78.7735 28.9348C78.6415 28.6288 78.5755 28.2688 78.5755 27.8548C78.5755 27.5008 78.6685 27.1558 78.8545 26.8198C79.0465 26.4838 79.3585 26.1838 79.7905 25.9198C80.2285 25.6498 80.8015 25.4278 81.5095 25.2538C82.2235 25.0798 83.1025 24.9808 84.1465 24.9568V24.3448C84.1465 23.6848 84.0055 23.1928 83.7235 22.8688C83.4415 22.5448 83.0275 22.3828 82.4815 22.3828C82.1095 22.3828 81.7975 22.4308 81.5455 22.5268C81.2935 22.6168 81.0745 22.7158 80.8885 22.8238C80.7025 22.9318 80.5375 23.0338 80.3935 23.1298C80.2495 23.2198 80.0965 23.2648 79.9345 23.2648C79.8025 23.2648 79.6885 23.2318 79.5925 23.1658C79.5025 23.0938 79.4275 23.0068 79.3675 22.9048L79.0165 22.2748ZM94.1532 23.2558C93.8832 22.9078 93.5862 22.6648 93.2622 22.5268C92.9382 22.3888 92.5872 22.3198 92.2092 22.3198C91.4532 22.3198 90.8622 22.5988 90.4362 23.1568C90.0102 23.7088 89.7972 24.5278 89.7972 25.6138C89.7972 26.1778 89.8452 26.6608 89.9412 27.0628C90.0372 27.4588 90.1752 27.7828 90.3552 28.0348C90.5352 28.2868 90.7542 28.4698 91.0122 28.5838C91.2702 28.6978 91.5612 28.7548 91.8852 28.7548C92.3772 28.7548 92.8002 28.6498 93.1542 28.4398C93.5142 28.2238 93.8472 27.9208 94.1532 27.5308V23.2558ZM96.0882 16.8568V30.1768H94.9182C94.6602 30.1768 94.4952 30.0538 94.4232 29.8078L94.2522 28.8088C93.8682 29.2588 93.4302 29.6218 92.9382 29.8978C92.4522 30.1738 91.8852 30.3118 91.2372 30.3118C90.7212 30.3118 90.2532 30.2098 89.8332 30.0058C89.4132 29.7958 89.0532 29.4928 88.7532 29.0968C88.4532 28.7008 88.2192 28.2118 88.0512 27.6298C87.8892 27.0418 87.8082 26.3698 87.8082 25.6138C87.8082 24.9298 87.8982 24.2968 88.0782 23.7148C88.2642 23.1328 88.5282 22.6288 88.8702 22.2028C89.2122 21.7708 89.6262 21.4348 90.1122 21.1948C90.6042 20.9488 91.1532 20.8258 91.7592 20.8258C92.2992 20.8258 92.7582 20.9128 93.1362 21.0868C93.5142 21.2548 93.8532 21.4918 94.1532 21.7978V16.8568H96.0882ZM103.359 26.1628C102.669 26.1868 102.087 26.2438 101.613 26.3338C101.139 26.4178 100.755 26.5288 100.461 26.6668C100.167 26.7988 99.9544 26.9578 99.8224 27.1438C99.6964 27.3298 99.6334 27.5338 99.6334 27.7558C99.6334 27.9718 99.6664 28.1578 99.7324 28.3138C99.8044 28.4638 99.9004 28.5898 100.02 28.6918C100.146 28.7878 100.29 28.8598 100.452 28.9078C100.62 28.9498 100.803 28.9708 101.001 28.9708C101.505 28.9708 101.937 28.8778 102.297 28.6918C102.663 28.4998 103.017 28.2238 103.359 27.8638V26.1628ZM98.2294 22.2748C99.2674 21.3088 100.503 20.8258 101.937 20.8258C102.465 20.8258 102.933 20.9128 103.341 21.0868C103.755 21.2548 104.1 21.4948 104.376 21.8068C104.658 22.1188 104.871 22.4908 105.015 22.9228C105.165 23.3488 105.24 23.8228 105.24 24.3448V30.1768H104.376C104.19 30.1768 104.049 30.1498 103.953 30.0958C103.857 30.0358 103.776 29.9188 103.71 29.7448L103.521 28.9978C103.287 29.2078 103.056 29.3968 102.828 29.5648C102.6 29.7268 102.363 29.8648 102.117 29.9788C101.877 30.0928 101.616 30.1768 101.334 30.2308C101.058 30.2908 100.752 30.3208 100.416 30.3208C100.044 30.3208 99.6964 30.2698 99.3724 30.1678C99.0544 30.0658 98.7784 29.9128 98.5444 29.7088C98.3104 29.4988 98.1244 29.2408 97.9864 28.9348C97.8544 28.6288 97.7884 28.2688 97.7884 27.8548C97.7884 27.5008 97.8814 27.1558 98.0674 26.8198C98.2594 26.4838 98.5714 26.1838 99.0034 25.9198C99.4414 25.6498 100.014 25.4278 100.722 25.2538C101.436 25.0798 102.315 24.9808 103.359 24.9568V24.3448C103.359 23.6848 103.218 23.1928 102.936 22.8688C102.654 22.5448 102.24 22.3828 101.694 22.3828C101.322 22.3828 101.01 22.4308 100.758 22.5268C100.506 22.6168 100.287 22.7158 100.101 22.8238C99.9154 22.9318 99.7504 23.0338 99.6064 23.1298C99.4624 23.2198 99.3094 23.2648 99.1474 23.2648C99.0154 23.2648 98.9014 23.2318 98.8054 23.1658C98.7154 23.0938 98.6404 23.0068 98.5804 22.9048L98.2294 22.2748Z" fill="#282727"/>
</g>
<defs>
<filter id="filter0_d_2302_22359" x="31.7318" y="0.85675" width="89.5085" height="45.464" filterUnits="userSpaceOnUse" color-interpolation-filters="sRGB">
<feFlood flood-opacity="0" result="BackgroundImageFix"/>
<feColorMatrix in="SourceAlpha" type="matrix" values="0 0 0 0 0 0 0 0 0 0 0 0 0 0 0 0 0 0 127 0" result="hardAlpha"/>
<feOffset/>
<feGaussianBlur stdDeviation="8"/>
<feComposite in2="hardAlpha" operator="out"/>
<feColorMatrix type="matrix" values="0 0 0 0 0 0 0 0 0 0 0 0 0 0 0 0 0 0 0.08 0"/>
<feBlend mode="normal" in2="BackgroundImageFix" result="effect1_dropShadow_2302_22359"/>
<feBlend mode="normal" in="SourceGraphic" in2="effect1_dropShadow_2302_22359" result="shape"/>
</filter>
<clipPath id="clip0_2302_22359">
<rect width="29.5263" height="22" fill="white" transform="translate(9.44043 12.1768)"/>
</clipPath>
</defs>
</svg>
