<svg width="115" height="47" viewBox="0 0 115 47" fill="none" xmlns="http://www.w3.org/2000/svg">
<rect x="1.40918" y="8.44238" width="107" height="29" fill="white"/>
<rect x="1.40918" y="8.44238" width="107" height="29" stroke="#282727"/>
<g clip-path="url(#clip0_2302_22360)">
<path d="M8.90918 11.9424H38.4355V33.9424H8.90918V11.9424Z" fill="white"/>
<path d="M8.90918 11.9424H18.7497V33.9424H8.90918V11.9424Z" fill="#002654"/>
<path d="M28.595 11.9424H38.4355V33.9424H28.595V11.9424Z" fill="#CE1126"/>
</g>
<g filter="url(#filter0_d_2302_22360)">
<path d="M50.0895 18.6834V22.8324H55.1565V24.5334H50.0895V29.9424H47.9745V16.9824H56.0565V18.6834H50.0895ZM58.881 22.4634C59.169 21.8814 59.517 21.4254 59.925 21.0954C60.333 20.7594 60.822 20.5914 61.392 20.5914C61.59 20.5914 61.776 20.6154 61.95 20.6634C62.124 20.7054 62.28 20.7714 62.418 20.8614L62.283 22.3194C62.259 22.4214 62.22 22.4934 62.166 22.5354C62.118 22.5714 62.052 22.5894 61.968 22.5894C61.878 22.5894 61.749 22.5744 61.581 22.5444C61.413 22.5084 61.236 22.4904 61.05 22.4904C60.78 22.4904 60.54 22.5294 60.33 22.6074C60.126 22.6854 59.94 22.7994 59.772 22.9494C59.61 23.0994 59.466 23.2824 59.34 23.4984C59.214 23.7144 59.097 23.9604 58.989 24.2364V29.9424H57.054V20.7624H58.179C58.383 20.7624 58.524 20.8014 58.602 20.8794C58.68 20.9514 58.734 21.0804 58.764 21.2664L58.881 22.4634ZM68.4629 25.9284C67.7729 25.9524 67.1909 26.0094 66.7169 26.0994C66.2429 26.1834 65.8589 26.2944 65.5649 26.4324C65.2709 26.5644 65.0579 26.7234 64.9259 26.9094C64.7999 27.0954 64.7369 27.2994 64.7369 27.5214C64.7369 27.7374 64.7699 27.9234 64.8359 28.0794C64.9079 28.2294 65.0039 28.3554 65.1239 28.4574C65.2499 28.5534 65.3939 28.6254 65.5559 28.6734C65.7239 28.7154 65.9069 28.7364 66.1049 28.7364C66.6089 28.7364 67.0409 28.6434 67.4009 28.4574C67.7669 28.2654 68.1209 27.9894 68.4629 27.6294V25.9284ZM63.3329 22.0404C64.3709 21.0744 65.6069 20.5914 67.0409 20.5914C67.5689 20.5914 68.0369 20.6784 68.4449 20.8524C68.8589 21.0204 69.2039 21.2604 69.4799 21.5724C69.7619 21.8844 69.9749 22.2564 70.1189 22.6884C70.2689 23.1144 70.3439 23.5884 70.3439 24.1104V29.9424H69.4799C69.2939 29.9424 69.1529 29.9154 69.0569 29.8614C68.9609 29.8014 68.8799 29.6844 68.8139 29.5104L68.6249 28.7634C68.3909 28.9734 68.1599 29.1624 67.9319 29.3304C67.7039 29.4924 67.4669 29.6304 67.2209 29.7444C66.9809 29.8584 66.7199 29.9424 66.4379 29.9964C66.1619 30.0564 65.8559 30.0864 65.5199 30.0864C65.1479 30.0864 64.7999 30.0354 64.4759 29.9334C64.1579 29.8314 63.8819 29.6784 63.6479 29.4744C63.4139 29.2644 63.2279 29.0064 63.0899 28.7004C62.9579 28.3944 62.8919 28.0344 62.8919 27.6204C62.8919 27.2664 62.9849 26.9214 63.1709 26.5854C63.3629 26.2494 63.6749 25.9494 64.1069 25.6854C64.5449 25.4154 65.1179 25.1934 65.8259 25.0194C66.5399 24.8454 67.4189 24.7464 68.4629 24.7224V24.1104C68.4629 23.4504 68.3219 22.9584 68.0399 22.6344C67.7579 22.3104 67.3439 22.1484 66.7979 22.1484C66.4259 22.1484 66.1139 22.1964 65.8619 22.2924C65.6099 22.3824 65.3909 22.4814 65.2049 22.5894C65.0189 22.6974 64.8539 22.7994 64.7099 22.8954C64.5659 22.9854 64.4129 23.0304 64.2509 23.0304C64.1189 23.0304 64.0049 22.9974 63.9089 22.9314C63.8189 22.8594 63.7439 22.7724 63.6839 22.6704L63.3329 22.0404ZM74.4196 21.9774C74.6176 21.7734 74.8216 21.5904 75.0316 21.4284C75.2476 21.2604 75.4756 21.1164 75.7156 20.9964C75.9556 20.8764 76.2106 20.7834 76.4806 20.7174C76.7506 20.6514 77.0446 20.6184 77.3626 20.6184C77.8666 20.6184 78.3076 20.7024 78.6856 20.8704C79.0696 21.0384 79.3906 21.2754 79.6486 21.5814C79.9126 21.8874 80.1106 22.2564 80.2426 22.6884C80.3746 23.1144 80.4406 23.5854 80.4406 24.1014V29.9424H78.5146V24.1014C78.5146 23.4834 78.3706 23.0034 78.0826 22.6614C77.8006 22.3194 77.3686 22.1484 76.7866 22.1484C76.3546 22.1484 75.9526 22.2474 75.5806 22.4454C75.2146 22.6434 74.8696 22.9134 74.5456 23.2554V29.9424H72.6106V20.7624H73.7806C74.0446 20.7624 74.2126 20.8854 74.2846 21.1314L74.4196 21.9774ZM89.1895 22.5624C89.1295 22.6404 89.0725 22.7004 89.0185 22.7424C88.9645 22.7844 88.8865 22.8054 88.7845 22.8054C88.6825 22.8054 88.5745 22.7694 88.4605 22.6974C88.3525 22.6254 88.2205 22.5474 88.0645 22.4634C87.9145 22.3734 87.7315 22.2924 87.5155 22.2204C87.2995 22.1484 87.0295 22.1124 86.7055 22.1124C86.2855 22.1124 85.9165 22.1874 85.5985 22.3374C85.2865 22.4874 85.0225 22.7034 84.8065 22.9854C84.5965 23.2614 84.4375 23.6004 84.3295 24.0024C84.2275 24.3984 84.1765 24.8454 84.1765 25.3434C84.1765 25.8594 84.2335 26.3184 84.3475 26.7204C84.4615 27.1224 84.6235 27.4614 84.8335 27.7374C85.0495 28.0134 85.3075 28.2234 85.6075 28.3674C85.9135 28.5114 86.2555 28.5834 86.6335 28.5834C87.0055 28.5834 87.3085 28.5384 87.5425 28.4484C87.7765 28.3584 87.9715 28.2594 88.1275 28.1514C88.2835 28.0434 88.4155 27.9444 88.5235 27.8544C88.6375 27.7644 88.7575 27.7194 88.8835 27.7194C89.0395 27.7194 89.1595 27.7794 89.2435 27.8994L89.7925 28.6104C89.5705 28.8804 89.3245 29.1084 89.0545 29.2944C88.7845 29.4804 88.4995 29.6334 88.1995 29.7534C87.8995 29.8674 87.5875 29.9484 87.2635 29.9964C86.9395 30.0504 86.6125 30.0774 86.2825 30.0774C85.7125 30.0774 85.1785 29.9724 84.6805 29.7624C84.1885 29.5464 83.7565 29.2374 83.3845 28.8354C83.0185 28.4274 82.7275 27.9324 82.5115 27.3504C82.3015 26.7624 82.1965 26.0934 82.1965 25.3434C82.1965 24.6654 82.2925 24.0384 82.4845 23.4624C82.6765 22.8804 82.9555 22.3794 83.3215 21.9594C83.6935 21.5394 84.1525 21.2124 84.6985 20.9784C85.2445 20.7384 85.8745 20.6184 86.5885 20.6184C87.2545 20.6184 87.8395 20.7264 88.3435 20.9424C88.8535 21.1584 89.3065 21.4644 89.7025 21.8604L89.1895 22.5624ZM97.2117 24.3174C97.2117 23.9934 97.1637 23.6934 97.0677 23.4174C96.9777 23.1354 96.8427 22.8924 96.6627 22.6884C96.4827 22.4784 96.2577 22.3164 95.9877 22.2024C95.7237 22.0824 95.4177 22.0224 95.0697 22.0224C94.3677 22.0224 93.8157 22.2234 93.4137 22.6254C93.0117 23.0274 92.7567 23.5914 92.6487 24.3174H97.2117ZM92.5947 25.5054C92.6187 26.0274 92.6997 26.4804 92.8377 26.8644C92.9757 27.2424 93.1587 27.5574 93.3867 27.8094C93.6207 28.0614 93.8967 28.2504 94.2147 28.3764C94.5387 28.4964 94.8987 28.5564 95.2947 28.5564C95.6727 28.5564 95.9997 28.5144 96.2757 28.4304C96.5517 28.3404 96.7917 28.2444 96.9957 28.1424C97.1997 28.0344 97.3737 27.9384 97.5177 27.8544C97.6617 27.7644 97.7937 27.7194 97.9137 27.7194C98.0697 27.7194 98.1897 27.7794 98.2737 27.8994L98.8227 28.6104C98.5947 28.8804 98.3367 29.1084 98.0487 29.2944C97.7607 29.4804 97.4547 29.6334 97.1307 29.7534C96.8067 29.8674 96.4737 29.9484 96.1317 29.9964C95.7897 30.0504 95.4567 30.0774 95.1327 30.0774C94.4967 30.0774 93.9057 29.9724 93.3597 29.7624C92.8197 29.5464 92.3487 29.2314 91.9467 28.8174C91.5507 28.4034 91.2387 27.8904 91.0107 27.2784C90.7887 26.6664 90.6777 25.9614 90.6777 25.1634C90.6777 24.5274 90.7767 23.9334 90.9747 23.3814C91.1787 22.8294 91.4667 22.3494 91.8387 21.9414C92.2167 21.5334 92.6727 21.2124 93.2067 20.9784C93.7467 20.7384 94.3557 20.6184 95.0337 20.6184C95.5977 20.6184 96.1197 20.7114 96.5997 20.8974C97.0797 21.0774 97.4937 21.3444 97.8417 21.6984C98.1897 22.0524 98.4597 22.4874 98.6517 23.0034C98.8497 23.5134 98.9487 24.0954 98.9487 24.7494C98.9487 25.0494 98.9157 25.2504 98.8497 25.3524C98.7837 25.4544 98.6637 25.5054 98.4897 25.5054H92.5947Z" fill="#282727"/>
</g>
<defs>
<filter id="filter0_d_2302_22360" x="31.9745" y="0.982361" width="82.9742" height="45.104" filterUnits="userSpaceOnUse" color-interpolation-filters="sRGB">
<feFlood flood-opacity="0" result="BackgroundImageFix"/>
<feColorMatrix in="SourceAlpha" type="matrix" values="0 0 0 0 0 0 0 0 0 0 0 0 0 0 0 0 0 0 127 0" result="hardAlpha"/>
<feOffset/>
<feGaussianBlur stdDeviation="8"/>
<feComposite in2="hardAlpha" operator="out"/>
<feColorMatrix type="matrix" values="0 0 0 0 0 0 0 0 0 0 0 0 0 0 0 0 0 0 0.08 0"/>
<feBlend mode="normal" in2="BackgroundImageFix" result="effect1_dropShadow_2302_22360"/>
<feBlend mode="normal" in="SourceGraphic" in2="effect1_dropShadow_2302_22360" result="shape"/>
</filter>
<clipPath id="clip0_2302_22360">
<rect width="29.5263" height="22" fill="white" transform="translate(8.90918 11.9424)"/>
</clipPath>
</defs>
</svg>
