<svg width="49" height="56" viewBox="0 0 49 56" fill="none" xmlns="http://www.w3.org/2000/svg">
<path fill-rule="evenodd" clip-rule="evenodd" d="M8.06476 12.805C7.49289 13.3272 6.94539 13.8756 6.42414 14.4494C6.13726 14.7662 5.85789 15.0906 5.58789 15.4216C2.16226 19.6197 0.106323 24.9794 0.106323 30.8153C0.106323 33.2144 0.454136 35.5328 1.10101 37.7237C1.24726 38.2197 1.76945 38.5037 2.26539 38.3566C2.76226 38.2103 3.04539 37.6881 2.89914 37.1922C2.44257 35.6472 2.1482 34.0328 2.03382 32.3697H11.8748C11.9957 35.2272 12.5263 37.9797 13.4085 40.5709C10.9598 41.5684 8.67507 42.8884 6.60789 44.4766C5.71164 43.3066 4.92789 42.0466 4.27257 40.7116C4.04382 40.2475 3.48226 40.0553 3.01726 40.2831C2.5532 40.5119 2.36101 41.0734 2.58976 41.5384C6.55914 49.6197 14.8738 55.1875 24.4785 55.1875H24.5095C37.6485 55.1706 48.3651 44.7362 48.8348 31.7059C48.861 31.6197 48.8751 31.5278 48.8751 31.4322C48.8751 31.3534 48.8657 31.2775 48.847 31.2053C48.8498 31.0759 48.8507 30.9456 48.8507 30.8153C48.8507 26.6444 47.7998 22.7172 45.9501 19.2831C45.7054 18.8275 45.1363 18.6569 44.6807 18.9016C44.2251 19.1472 44.0545 19.7162 44.3001 20.1719C45.9595 23.2534 46.9213 26.7653 46.9729 30.4947H37.1516C37.1141 28.6909 36.9145 26.9266 36.5648 25.2166C36.6454 24.9541 36.6876 24.6784 36.6876 24.3944V15.1666C36.6876 15.145 36.6866 15.1234 36.6857 15.1019L39.1438 13.7612C40.1488 14.6266 41.077 15.5791 41.916 16.6075C42.2432 17.0087 42.8348 17.0678 43.2351 16.7406C43.6363 16.4144 43.6963 15.8228 43.3691 15.4216C42.6088 14.4906 41.781 13.6159 40.8941 12.8069L42.2929 12.0437C42.5938 11.8787 42.7813 11.5637 42.7813 11.2206C42.7813 10.8775 42.5938 10.5616 42.2929 10.3975L24.9304 0.926865C24.6501 0.774053 24.3126 0.774053 24.0323 0.926865L6.66976 10.3975C6.36882 10.5616 6.18132 10.8775 6.18132 11.2206C6.18132 11.5637 6.36882 11.8787 6.66976 12.0437L8.06476 12.805ZM14.0704 42.3259C11.8185 43.2484 9.7157 44.4606 7.80976 45.9175C11.3685 49.8428 16.2932 52.5072 21.8301 53.1578C18.4795 50.2103 15.8048 46.5119 14.0704 42.3259ZM34.926 42.3494C33.1926 46.5222 30.5245 50.2103 27.1832 53.1512C32.6929 52.4903 37.5941 49.8334 41.1398 45.9259C39.247 44.4775 37.1601 43.2709 34.926 42.3494ZM25.4404 40.3037V52.1762C28.7873 49.3703 31.4573 45.7825 33.1673 41.6941C30.726 40.8794 28.1329 40.3975 25.4404 40.3037ZM23.5654 40.3019C20.872 40.3891 18.276 40.8644 15.831 41.6744C17.5401 45.7703 20.2129 49.3656 23.5654 52.1762V40.3019ZM46.9223 32.3697H37.131C37.0101 35.2366 36.4766 37.9975 35.5888 40.5944C38.0198 41.5919 40.2885 42.9053 42.3426 44.485C44.9526 41.0809 46.612 36.9091 46.9223 32.3697ZM35.2541 32.3697H25.4404V38.4278C28.3654 38.5234 31.1826 39.0475 33.831 39.9391C34.6438 37.5466 35.1351 35.0069 35.2541 32.3697ZM23.5654 38.4259V32.3697H13.7516C13.8707 34.9984 14.3591 37.5316 15.1682 39.9184C17.8195 39.0325 20.6395 38.515 23.5654 38.4259ZM34.9748 26.9837C34.9654 26.9875 26.4482 30.4947 26.4482 30.4947H35.2757C35.2495 29.3041 35.1482 28.1322 34.9748 26.9837ZM10.4376 14.0987V24.25C10.4376 24.7675 10.0176 25.1875 9.50008 25.1875C8.98257 25.1875 8.56257 24.7675 8.56257 24.25V14.9219C8.30664 15.1787 8.05632 15.4412 7.81351 15.7094C7.5482 16.0019 7.29039 16.3009 7.04007 16.6075C3.94164 20.4053 2.05726 25.2325 1.9832 30.4947H11.8541C11.8916 28.6947 12.0913 26.9341 12.4391 25.2269C12.3566 24.9616 12.3126 24.6812 12.3126 24.3934V15.1666C12.3126 15.1516 12.3126 15.1366 12.3135 15.1216L10.4376 14.0987ZM14.031 26.9847C13.8585 28.1331 13.7563 29.3041 13.7301 30.4947H22.5791C22.5791 30.4947 14.0395 26.9884 14.031 26.9847ZM34.8126 16.1237L31.9804 17.6687C31.5257 17.9162 30.9557 17.7484 30.7082 17.2947C30.4607 16.84 30.6285 16.27 31.0823 16.0225L39.8863 11.2206L24.4813 2.8178L9.07633 11.2206L24.4813 19.6234L27.8198 17.8019C28.2745 17.5544 28.8445 17.7222 29.092 18.1759C29.3395 18.6306 29.1716 19.2006 28.7179 19.4481L24.9304 21.5144C24.6501 21.6662 24.3126 21.6662 24.0323 21.5144L14.1876 16.1444V24.3934C14.1876 24.7741 14.4173 25.1162 14.7688 25.2606L24.5151 29.2628L34.2323 25.2616C34.5829 25.1172 34.8126 24.775 34.8126 24.3944V16.1237Z" fill="#7DBBFF"/>
</svg>
