<svg width="90" height="46" viewBox="0 0 90 46" fill="none" xmlns="http://www.w3.org/2000/svg">
<path d="M87.9988 32.7085H87.9312C85.3612 32.0061 82.9265 30.7575 80.6946 29.1968C77.3131 26.7776 74.2697 23.8121 71.7673 20.2224C71.3615 19.6761 71.1586 19.0518 71.2262 18.3495C71.2939 16.4766 71.2939 14.6036 71.3615 12.7307C71.4291 11.248 71.1586 9.68724 71.0234 8.20451C70.9557 7.50217 70.8205 6.79983 70.6176 6.09749C70.4823 5.78533 70.347 5.39514 69.9413 5.39514C69.5355 5.39514 69.4002 5.7073 69.2649 6.01945C69.062 6.72179 68.8592 7.50217 68.6563 8.20451C68.521 8.75078 68.3857 9.29705 68.1828 9.84332C67.9799 9.6092 68.0476 9.45313 67.9799 9.21901C67.7094 7.3461 67.5065 5.47318 67.236 3.67831C67.1007 2.81989 66.8978 2.50773 66.5597 2.58577C66.0186 2.66381 66.0186 3.21008 65.951 3.60027C65.5452 5.62926 65.2071 7.73628 64.8689 9.76528C64.8013 9.99939 64.8689 10.2335 64.5984 10.3115C64.3955 9.21901 64.1926 8.04844 63.8544 6.95591C63.7192 6.48768 63.5839 6.01945 63.1105 6.09749C62.7047 6.17553 62.7047 6.64375 62.6371 7.03394C62.3665 9.14097 62.0284 11.326 61.8255 13.4331C61.7579 13.9013 61.6226 14.0574 61.2168 14.0574C60.6081 13.9793 59.9318 13.9013 59.3231 13.9793C58.4439 14.0574 57.6323 14.1354 56.7531 14.0574C54.6566 13.9793 52.4924 13.7452 50.3958 13.9013C49.5166 13.9793 48.7726 13.7452 48.0963 13.199C47.2848 12.5746 47.2171 12.5746 46.4732 13.277C45.8645 13.8233 45.2558 14.1354 44.5119 14.2135C43.4974 14.3695 42.4829 14.2915 41.5361 14.2915C38.9661 14.2915 36.3961 14.2915 33.8261 14.2915C33.2174 14.2915 33.1498 14.2915 33.1498 13.5891C33.1498 11.7943 33.1498 9.99939 32.9469 8.28256C32.8793 7.58021 32.8116 6.87787 32.744 6.09749C32.6764 5.7073 32.5411 5.39514 32.203 5.31711C31.7972 5.23907 31.6619 5.55122 31.459 5.86337C31.2561 6.40964 30.9856 6.95591 30.7827 7.50218C30.7151 7.65825 30.7151 7.89236 30.4445 8.04844C30.3769 7.89236 30.3093 7.81432 30.3093 7.73629C30.2417 6.40964 29.8359 5.08299 29.5653 3.75634C29.4977 3.36615 29.3624 2.97596 28.9567 2.89793C28.5509 2.89793 28.4156 3.28812 28.2803 3.67831C28.0775 4.38065 27.8746 5.08299 27.6717 5.7073C27.3335 6.72179 27.063 7.73629 26.7248 8.75078C26.6572 8.75078 26.5896 8.75078 26.5219 8.75078C26.4543 8.04844 26.319 7.42414 26.2514 6.72179C26.1838 6.3316 26.1161 5.94141 26.0485 5.55122C25.9809 5.31711 25.778 5.08299 25.5751 5.08299C25.3046 5.08299 25.1693 5.23907 25.034 5.55122C24.9664 5.7073 24.9664 5.78534 24.8988 5.94141C24.493 7.3461 24.1548 8.67274 23.749 10.0774C23.4785 11.0919 23.3433 12.1064 23.3433 13.199C23.3433 14.9938 23.3433 16.7887 23.3433 18.5055C23.3433 18.9738 23.2756 19.364 23.0051 19.7542C22.1259 21.0808 21.179 22.2514 20.0969 23.3439C16.3772 27.1678 12.0488 29.8991 7.51752 32.3183C6.43542 32.8646 5.28569 33.4108 4.13595 33.801C3.5949 33.9571 3.05384 34.2692 2.98621 35.0496C2.85095 36.2982 2.85095 37.4688 2.98621 38.7174C3.05384 39.5758 3.32438 39.8099 4.13595 39.8099C6.50305 39.8099 8.87015 39.888 11.2372 39.888C12.1841 39.888 13.1309 39.888 14.0778 39.8099C16.3772 39.6539 18.6767 39.4978 20.9085 39.4978C21.5172 39.4978 21.5172 39.4978 21.5172 40.2001C21.5172 41.2146 21.5172 42.2291 21.5172 43.2436C21.5172 44.024 21.7877 44.4142 22.464 44.5703C22.9375 44.7263 23.4785 44.8044 24.0196 44.8044C26.4543 44.8044 28.9567 44.8044 31.3914 44.8044C32.0677 44.8044 32.6764 44.8044 33.3527 44.6483C33.8937 44.4922 34.1643 44.1801 34.2319 43.4777C34.2995 42.7754 34.4348 42.1511 34.5024 41.4487C34.5701 40.2782 34.7053 39.1856 34.6377 38.0151C34.5701 37.3127 34.2319 36.8445 33.6909 36.6884C33.2851 36.6104 33.1498 36.4543 33.1498 35.9861C33.2174 34.1132 33.0145 32.3183 33.0145 30.4454C33.0145 27.9482 33.2174 25.529 33.1498 23.0318C33.0822 21.471 33.1498 21.471 34.5701 21.393C37.0048 21.2369 39.4395 21.393 41.8742 21.2369C43.4974 21.0808 45.0529 21.1588 46.6761 21.1588C49.6519 21.1588 52.6953 21.1588 55.671 21.1588C56.5503 21.1588 57.4295 21.1588 58.3087 21.0028C59.3231 20.8467 60.3376 21.0028 61.2844 20.9247C61.6226 20.9247 61.6902 21.0808 61.6902 21.393C61.6902 21.6271 61.6902 21.8612 61.6902 22.0953C61.6902 23.9682 61.8255 25.7631 61.8931 27.636C61.8931 28.4164 61.8931 29.1187 61.9608 29.8991C62.0284 31.694 62.096 33.4889 62.2313 35.2837C62.2313 35.6739 62.1636 35.83 61.7579 35.908C60.811 36.1422 60.5405 36.5323 60.4729 37.7029C60.4729 38.4833 60.4729 39.1856 60.5405 39.966C60.6081 41.2927 60.6758 42.6974 60.8787 44.024C61.0139 44.6483 61.2168 44.9605 61.7579 45.0385C62.4342 45.1165 63.0429 45.1946 63.7192 45.1946C66.1539 45.1165 68.5886 44.8824 71.0234 44.9605C71.2939 44.9605 71.5644 44.8824 71.7673 44.8824C72.8494 44.6483 73.1199 44.4142 73.3228 43.1656C73.3905 42.9315 73.3905 42.6974 73.3905 42.4632C73.5257 41.3707 73.4581 40.2782 73.5257 39.1856C73.5257 38.4833 73.5934 38.4833 74.1344 38.4053C74.3373 38.4053 74.4726 38.4053 74.6754 38.4053C75.487 38.4833 76.2986 38.5613 77.1778 38.5613C79.1391 38.5613 81.1004 38.6394 82.9941 38.6394C84.4144 38.6394 85.767 38.6394 87.1872 38.9515C87.5254 39.0296 87.9312 39.0296 88.2694 38.9515C88.878 38.8735 89.0809 38.5613 89.1486 37.859C89.2838 36.7665 89.2162 35.6739 89.2838 34.5814C89.4867 33.2547 89.3515 33.1767 87.9988 32.7085Z" fill="#E9F4A6"/>
<path d="M23.6814 6.17656C24.0196 5.16207 24.2901 4.14757 24.6283 3.13308C24.8312 2.43073 25.0341 1.80643 25.237 1.10409C25.3722 0.713898 25.4398 0.323708 25.9133 0.323708C26.3191 0.323708 26.4543 0.713897 26.5219 1.18213C26.7925 2.50877 27.1306 3.75739 27.2659 5.16207C27.2659 5.24011 27.3335 5.31814 27.4012 5.47422C27.6041 5.39618 27.6717 5.08403 27.7393 4.92796C27.9422 4.38169 28.2127 3.83542 28.4156 3.28916C28.5509 2.97701 28.7538 2.66485 29.1596 2.74289C29.4977 2.82093 29.633 3.13308 29.7006 3.52327C29.7682 4.22561 29.8359 4.92796 29.9035 5.70834C30.0388 7.50321 30.1064 9.22005 30.1064 11.0149C30.1064 11.6392 30.1064 11.7173 30.7827 11.7173C33.3527 11.7173 35.9227 11.7173 38.4927 11.7173C39.5072 11.7173 40.5216 11.7173 41.4685 11.6392C42.2124 11.5612 42.8211 11.249 43.4298 10.7028C44.2414 10.0004 44.309 10.0004 45.0529 10.6247C45.7969 11.171 46.4732 11.4051 47.3524 11.3271C49.449 11.171 51.6132 11.4051 53.7097 11.4832C54.589 11.4832 55.4005 11.4832 56.2797 11.4051C56.8884 11.3271 57.5647 11.4051 58.1734 11.4832C58.5792 11.4832 58.7145 11.3271 58.7821 10.8588C59.0526 8.67378 59.3232 6.56676 59.5937 4.45973C59.6613 4.06954 59.6613 3.60131 60.0671 3.52327C60.5405 3.44523 60.6758 3.9915 60.811 4.38169C61.1492 5.47423 61.2845 6.64479 61.555 7.73733C61.8255 7.65929 61.7579 7.42518 61.8255 7.19106C62.1637 5.16207 62.5018 3.05504 62.9076 1.02605C62.9752 0.635861 62.9752 0.0115541 63.5163 0.0115541C63.8545 -0.066484 64.0573 0.24567 64.1926 1.10409C64.4631 2.977 64.666 4.84992 64.9366 6.64479C64.9366 6.80087 64.9365 7.03498 65.1394 7.2691C65.41 6.72283 65.4776 6.17657 65.6129 5.6303C65.8158 4.92796 66.0187 4.14757 66.2215 3.44523C66.3568 3.05504 66.4921 2.74289 66.8979 2.82093C67.3037 2.82093 67.4389 3.13308 67.5742 3.52327C67.7771 4.22561 67.9123 4.92796 67.98 5.6303C68.1152 7.11302 68.3858 8.67378 68.3181 10.1565C68.2505 12.0294 68.2505 13.9023 68.1829 15.7753C68.1829 16.4776 68.3181 17.1019 68.7239 17.6482C71.2263 21.2379 74.2697 24.2034 77.6512 26.6225C79.8831 28.2613 82.3178 29.51 84.8878 30.1343H84.9554C86.3081 30.6025 86.4433 30.6805 86.3757 32.3193C86.3081 33.4119 86.3757 34.5044 86.2404 35.5969C86.1728 36.2993 85.9699 36.6114 85.3612 36.6895C85.0231 36.7675 84.6173 36.7675 84.2791 36.6895C82.9265 36.3773 81.5062 36.3773 80.086 36.3773C78.1247 36.3773 76.1634 36.3773 74.2697 36.2993C73.4581 36.2993 72.6465 36.2212 71.7673 36.1432C71.5644 36.1432 71.4292 36.1432 71.2263 36.1432C70.6176 36.2212 70.6176 36.2212 70.6176 36.9236C70.6176 38.0161 70.6852 39.1086 70.4823 40.2012C70.4823 40.4353 70.4147 40.6694 70.4147 40.9035C70.2118 42.0741 69.9413 42.3862 68.8592 42.6204C68.5886 42.6984 68.3858 42.6984 68.1152 42.6984C65.6805 42.6203 63.2458 42.8545 60.811 42.9325C60.1347 42.9325 59.526 42.8545 58.8497 42.7764C58.3087 42.6984 58.0382 42.3862 57.9705 41.7619C57.7676 40.4353 57.7 39.1086 57.6324 37.704C57.5647 36.9236 57.5647 36.2212 57.5647 35.4408C57.5647 34.2703 57.9029 33.8801 58.8497 33.646C59.1879 33.5679 59.3232 33.4119 59.3232 33.0217C59.2555 31.2268 59.1203 29.4319 59.0526 27.637C59.0526 26.8567 58.985 26.1543 58.985 25.3739C58.9174 23.501 58.7821 21.7061 58.7821 19.8332C58.7821 19.5991 58.7821 19.365 58.7821 19.1309C58.7821 18.8187 58.6468 18.6627 58.3763 18.6627C57.3618 18.7407 56.3474 18.5846 55.4005 18.7407C54.5213 18.8187 53.6421 18.8968 52.7629 18.8968C49.7871 18.8968 46.7437 18.8968 43.7679 18.8968C42.1448 18.8968 40.5216 18.8187 38.9661 18.9748C36.5314 19.2089 34.0967 18.9748 31.6619 19.1309C30.2417 19.2089 30.2417 19.2089 30.2417 20.7697C30.3093 23.2669 30.1064 25.6861 30.1064 28.1833C30.1064 30.0562 30.3093 31.8511 30.2417 33.724C30.2417 34.1922 30.3769 34.3483 30.7827 34.4264C31.3914 34.5824 31.6619 34.9726 31.7296 35.753C31.8648 36.9236 31.6619 38.0161 31.5943 39.1867C31.5943 39.889 31.3914 40.5133 31.3238 41.2157C31.2561 41.84 30.9856 42.2302 30.4446 42.3862C29.7683 42.5423 29.1596 42.5423 28.4833 42.5423C26.0485 42.5423 23.5462 42.5423 21.1114 42.5423C20.5704 42.5423 20.097 42.4643 19.5559 42.3082C18.8796 42.0741 18.6767 41.7619 18.6091 40.9816C18.6091 39.9671 18.6091 38.9526 18.6091 37.9381C18.6091 37.2357 18.6091 37.2357 18.0004 37.2357C15.7009 37.2357 13.4015 37.3918 11.1696 37.5479C10.2228 37.6259 9.27596 37.6259 8.32912 37.6259C5.96202 37.6259 3.59492 37.6259 1.22782 37.5479C0.48388 37.5479 0.213357 37.3138 0.078094 36.4553C-0.0571687 35.2067 0.0104626 34.0362 0.078094 32.7876C0.145725 32.0072 0.686774 31.695 1.22782 31.5389C2.37756 31.1488 3.52729 30.6805 4.60939 30.0562C9.14069 27.637 13.4691 24.9057 17.1888 21.0818C18.2709 19.9893 19.2178 18.8187 20.097 17.4921C20.3675 17.1019 20.4351 16.7117 20.4351 16.2435C20.4351 14.4486 20.4351 12.6537 20.4351 10.9369C20.4351 9.84435 20.5704 8.82986 20.8409 7.81536C21.2467 6.41068 21.5849 5.08403 21.9906 3.67935C22.0583 3.52327 22.0583 3.44523 22.1259 3.28916C22.1935 2.97701 22.3964 2.82093 22.667 2.82093C22.9375 2.82093 23.0727 3.05504 23.1404 3.28916C23.208 3.67935 23.2756 4.06954 23.3433 4.45973C23.4109 5.16207 23.5462 5.78638 23.6138 6.48872C23.5462 6.17657 23.6138 6.17656 23.6814 6.17656ZM64.1926 41.2937C65.5452 41.2937 66.8979 41.2937 68.1829 41.2937C69.1297 41.2937 69.3326 41.1376 69.4002 40.0451C69.4679 38.4063 69.5355 36.8455 69.5355 35.2067C69.5355 34.3483 69.4002 34.2703 68.6563 34.2703C66.0863 34.2703 63.4487 34.5824 60.8787 34.5044C60.4053 34.5044 59.9318 34.5044 59.4584 34.5824C58.7821 34.6605 58.7821 34.7385 58.7821 35.5189C58.7821 37.0796 58.8497 38.6404 58.985 40.2792C59.0526 40.9035 59.1879 41.1376 59.7966 41.2157C60.1347 41.2937 60.4729 41.2937 60.811 41.2937C61.8931 41.3717 63.1105 41.4498 64.1926 41.2937ZM68.2505 18.6627C68.0476 20.5356 68.0476 22.1744 69.1297 23.5791C69.3326 23.8912 69.5355 24.2034 69.7384 24.5155C71.2939 26.7786 73.2552 28.5735 75.2841 30.2903C77.5836 32.1632 80.0183 33.802 82.7236 34.6605C83.3999 34.8946 84.0762 35.1287 84.8202 35.2067C85.3612 35.2067 85.4965 35.1287 85.4965 34.5044C85.5641 33.724 85.4965 32.9436 85.5641 32.1633C85.6318 31.617 85.3612 31.4609 84.9554 31.3048C81.7768 30.4464 78.8686 28.8076 76.1634 26.7786C73.2552 24.5155 70.6176 21.9403 68.2505 18.6627ZM20.2322 18.8968C17.7299 22.0963 14.8217 24.5936 11.8459 26.8567C9.07306 28.9637 6.02965 30.4464 2.91861 31.9291C2.30993 32.2413 1.43071 32.1633 1.16019 32.9436C0.889664 33.646 0.957293 34.5044 0.957293 35.2848C0.957293 36.0652 1.02492 36.0652 1.63361 35.9871C1.76887 35.9871 1.90414 35.9091 2.0394 35.9091C3.59492 35.4408 5.08281 34.8165 6.5707 34.1142C9.47885 32.7095 11.9812 30.6805 14.4159 28.4955C15.6333 27.4029 16.783 26.2324 17.7975 24.8277C18.5415 23.8132 19.2178 22.7206 20.0293 21.8622C20.1646 21.7061 20.2322 21.5501 20.2322 21.316C20.2322 20.4575 20.2322 19.6772 20.2322 18.8968ZM26.5219 41.0596C27.6717 41.0596 28.6185 41.0596 29.5654 41.0596C29.9035 41.0596 30.174 40.9816 30.174 40.5914C30.3769 39.1867 30.5122 37.704 30.4446 36.2993C30.3769 35.2848 30.3093 35.2848 29.4301 35.2848C27.2659 35.2848 25.1017 35.4408 22.9375 35.5189C22.0583 35.5969 21.1114 35.5189 20.2322 35.675C19.8941 35.753 19.7588 35.831 19.7588 36.2212C19.7588 37.5479 19.7588 38.9526 19.6912 40.2792C19.6912 40.5914 19.7588 40.7474 20.0293 40.7474C20.2322 40.7474 20.4351 40.8255 20.638 40.8255C22.667 40.9035 24.6959 40.9816 26.5219 41.0596ZM50.8016 14.6047C53.7098 14.7608 55.8063 14.5266 57.9029 14.6047C58.6468 14.6827 58.6468 14.6047 58.6468 13.6682C58.6468 12.6537 58.6468 12.6537 57.7676 12.5757C57.4971 12.5757 57.2266 12.5757 57.0237 12.5757C53.845 12.6537 50.5987 12.7318 47.42 12.8098C46.4732 12.8098 45.6616 12.6537 44.9177 11.9514C44.5119 11.5612 44.1737 11.5612 43.7679 11.9514C43.6327 12.1075 43.4974 12.1855 43.3622 12.3416C42.9564 12.8098 42.4829 12.9659 41.9419 12.9659C41.4685 12.9659 40.9951 13.0439 40.5893 13.0439C37.5459 13.0439 34.5024 13.0439 31.459 13.0439C31.0532 13.0439 30.6475 13.122 30.2417 13.2C29.9711 13.2 29.9035 13.4341 29.9035 13.6682C29.8359 14.6047 29.9035 14.6827 30.7151 14.6827C30.918 14.6827 31.1209 14.6827 31.3238 14.6827C34.1643 14.6047 37.0724 14.4486 39.913 14.4486C41.6714 14.3706 43.4298 14.5266 45.1206 14.6047C47.3524 14.6827 49.449 14.6047 50.8016 14.6047ZM30.1064 17.5701C31.5943 17.336 33.0822 17.4141 34.5024 17.336C38.7632 17.258 43.0916 17.1019 47.42 17.336C50.8692 17.5701 54.3184 17.4141 57.7 17.336C57.8353 17.336 57.9705 17.336 58.1058 17.336C58.6468 17.258 58.7145 17.0239 58.6468 16.2435C58.6468 15.6192 58.2411 15.7753 57.9705 15.7753C55.7387 15.6972 53.5069 15.8533 51.275 15.6972C50.1253 15.6192 48.9756 15.7753 47.8258 15.7753C43.3622 15.7753 38.8309 15.9313 34.3672 16.0094C33.2851 16.0094 32.203 16.0094 31.1209 16.0094C29.9711 16.0874 29.9711 15.8533 30.1064 17.5701ZM28.5509 5.70834C28.2804 6.48872 28.0775 7.11302 27.8069 7.73733C27.5364 8.36163 26.9954 8.36163 26.6572 7.73733C26.4543 7.42517 26.3867 7.03498 26.3191 6.64479C26.1162 5.55226 25.9133 4.45973 25.7104 3.21112C25.4398 4.14758 25.1693 4.92796 24.9664 5.70834C24.6959 6.56676 24.4254 7.42517 24.0196 8.20555C23.8843 8.43967 23.7491 8.67379 23.4109 8.67379C23.0728 8.59575 23.0051 8.36163 22.9375 8.04948C22.8699 7.73733 22.8022 7.42518 22.7346 7.11303C22.5993 6.6448 22.667 6.09853 22.3288 5.70834C22.0583 6.2546 21.923 6.80087 21.7878 7.42517C21.5849 8.20555 21.2467 8.98594 21.3143 9.9224C21.382 10.4687 21.382 11.0149 21.382 11.5612C21.382 12.1075 21.5849 12.2635 21.9906 12.1855C22.667 12.1075 23.3433 12.1075 24.0196 12.0294C25.5075 11.9514 26.9954 11.9514 28.4833 11.9514C29.0919 11.9514 29.0919 11.9514 29.0919 11.249C29.1596 10.0785 29.0243 8.98593 28.8214 7.81536C28.7538 7.11302 28.889 6.48872 28.5509 5.70834ZM21.3143 31.695C21.3143 32.3193 21.3143 32.8656 21.3143 33.4899C21.3143 34.1922 21.3143 34.1922 21.923 34.1922C24.1548 34.1922 26.3867 33.8801 28.6185 33.9581C28.9567 33.9581 29.0243 33.724 29.0243 33.4119C29.0243 32.1632 29.0243 30.9146 29.0243 29.666C29.0243 29.2758 28.889 29.1198 28.5509 29.1198C28.348 29.1198 28.1451 29.1198 27.9422 29.1198C26.6572 29.1198 25.4398 29.1978 24.1548 29.1198C23.3433 29.0417 22.5317 28.9637 21.6525 29.1198C21.3143 29.1978 21.1791 29.2758 21.2467 29.666C21.3143 30.3684 21.3143 30.9927 21.3143 31.695ZM63.7868 33.1777C64.7337 33.3338 65.6805 33.0217 66.695 33.0217C67.1008 33.0217 67.1684 32.8656 67.1684 32.3974C67.236 31.3829 67.0331 30.3684 67.0331 29.3539C67.0331 28.6515 67.0331 28.6515 66.4245 28.6515C64.5308 28.7296 62.6371 28.8076 60.811 28.8076C60.4729 28.8076 60.27 28.8857 60.3376 29.3539C60.4053 30.3684 60.4729 31.3829 60.4729 32.3974C60.4729 32.7876 60.6082 33.0217 61.0139 33.0217C61.8932 33.0217 62.84 33.2558 63.7868 33.1777ZM63.4487 15.3851C64.4631 15.307 65.4776 15.307 66.4245 15.307C67.1008 15.307 67.1008 15.307 67.1008 14.5266C67.1008 14.0584 67.1008 13.5121 67.1008 13.0439C67.1008 12.4196 67.0331 12.3416 66.4245 12.3416C64.5308 12.3416 62.6371 12.3416 60.7434 12.4196C59.5937 12.4976 59.5937 12.5757 59.6613 13.9023C59.6613 14.2145 59.7289 14.5266 59.7289 14.7608C59.7289 15.229 59.8642 15.3851 60.27 15.3851C61.3521 15.3851 62.4342 15.4631 63.4487 15.3851ZM21.382 15.6192C21.9907 15.4631 22.4641 15.6192 23.0051 15.6192C24.5606 15.6192 26.1838 15.6192 27.7393 15.6192C29.3625 15.6192 29.1596 16.0094 29.1596 13.9023C29.1596 13.2 29.1596 13.2 28.5509 13.2C26.7248 13.2 24.9664 13.2 23.1404 13.2C22.5993 13.2 21.7878 12.8878 21.5172 13.3561C21.1114 13.9804 21.382 14.8388 21.382 15.6192ZM61.8931 25.8422C63.3134 25.9202 64.7337 25.608 66.1539 25.6861C66.2892 25.6861 66.4244 25.608 66.5597 25.608C66.8979 25.608 66.9655 25.3739 66.9655 25.0618C67.0331 23.3449 66.8302 23.1889 65.41 23.3449C64.666 23.423 63.9221 23.501 63.1781 23.423C62.2989 23.2669 61.4197 23.423 60.5405 23.3449C60.1347 23.3449 59.9995 23.501 60.0671 23.9693C60.0671 24.4375 60.1347 24.9837 60.1347 25.452C60.1347 25.8422 60.27 25.9982 60.6082 25.9202C61.0816 25.9202 61.4874 25.8422 61.8931 25.8422ZM25.3046 23.9693C24.2901 23.9693 23.4109 23.9693 22.5317 23.9693C21.2467 23.9693 21.2467 23.9693 21.3143 25.452C21.3143 26.3104 21.382 26.2324 21.9906 26.2324C24.0196 26.2324 26.0485 26.2324 28.0775 26.0763C29.2948 25.9982 29.2272 26.0763 29.0919 24.7496C29.0243 24.2034 28.8891 24.0473 28.4833 24.1253C27.3335 24.0473 26.2514 24.0473 25.3046 23.9693ZM25.237 20.8477C26.3191 20.8477 27.4688 20.8477 28.5509 20.8477C29.0243 20.8477 29.1596 20.6916 29.1596 20.1454C29.1596 19.9893 29.1596 19.9113 29.1596 19.7552C29.1596 19.0528 29.1596 19.0528 28.5509 19.0528C26.5219 19.1309 24.5606 18.8968 22.5317 18.8968C21.3143 18.8968 21.3143 18.9748 21.382 20.3795C21.382 20.7697 21.5172 20.8477 21.8554 20.8477C23.0051 20.7697 24.0872 20.8477 25.237 20.8477ZM59.9318 18.5846C59.9318 18.9748 59.9318 19.443 59.9318 19.9113C59.8642 20.4575 60.1347 20.5356 60.5405 20.5356C62.2989 20.5356 64.0573 20.4575 65.8834 20.3795C67.236 20.3015 67.0331 20.6917 67.1008 18.8968C67.1008 18.4285 66.9655 18.2725 66.5597 18.2725C64.3279 18.5066 62.1637 18.2725 59.9318 18.5846ZM18.4738 26.1543C18.4062 26.0763 18.3386 26.0763 18.3386 25.9982C17.7975 26.6225 17.3241 27.1688 16.783 27.7931C16.5801 28.0272 16.6478 28.2613 16.6478 28.5735C16.6478 29.666 16.6478 30.7586 16.6478 31.8511C16.6478 32.9436 16.6478 34.0362 16.6478 35.1287C16.6478 35.3628 16.5801 35.5969 16.8507 35.753C17.4593 36.0652 18.0004 35.675 18.0004 34.9726C18.068 33.1777 18.2033 31.4609 18.3386 29.666C18.4062 28.4174 18.4062 27.2468 18.4738 26.1543ZM15.9715 28.6515C15.4304 29.1978 15.0246 29.588 14.5512 29.9001C14.0101 30.2903 13.8749 30.7586 13.8749 31.4609C13.9425 32.4754 13.8749 33.4899 13.8749 34.5044C13.8749 36.2212 13.672 35.9091 15.2275 35.831C15.2951 35.831 15.3628 35.831 15.3628 35.753C15.7009 35.675 15.8362 35.5969 15.8362 35.1287C16.0391 33.0997 15.9715 30.9927 15.9715 28.6515ZM20.1646 23.6571C19.8264 23.8132 19.7588 24.1253 19.6236 24.2814C19.1501 24.7496 19.0149 25.3739 19.0149 26.1543C19.0149 27.559 18.8796 28.8856 18.812 30.2903C18.812 31.695 18.6091 33.1777 18.6767 34.6605C19.0149 34.5824 19.353 34.3483 19.6912 34.3483C19.8941 34.3483 20.0293 34.1922 20.0293 33.9581C20.0293 33.724 20.0293 33.4899 20.0293 33.2558C20.0293 31.2268 20.0293 29.1978 20.1646 27.1688C20.2322 25.9982 20.1646 24.9057 20.1646 23.6571ZM69.6031 32.9436C69.6031 32.6315 69.6031 32.3193 69.6031 32.0072C69.5355 30.1343 69.4679 28.3394 69.4002 26.4665C69.4002 25.608 68.9268 24.7496 68.1829 24.2034C68.1829 26.7786 68.1829 29.3539 68.3181 31.9291C68.3858 33.1777 68.1829 32.9436 69.3326 33.0217C69.4002 33.0217 69.4679 33.0217 69.6031 32.9436ZM70.1442 26.8567C70.2794 28.5735 70.2794 30.2123 70.3471 31.7731C70.3471 32.7095 70.4147 33.646 70.4823 34.5824C70.55 35.1287 70.7529 35.2067 71.1586 35.2067C71.6321 35.2067 71.6321 34.8946 71.6321 34.5044C71.5644 32.7876 71.6321 30.9927 71.5644 29.2758C71.4968 28.0272 70.8205 27.637 70.1442 26.8567ZM13.1986 31.1488C12.5899 31.617 12.1165 32.0072 11.5754 32.3193C11.2373 32.5534 11.102 32.8656 11.102 33.2558C11.1696 34.0362 11.1696 34.8946 11.2373 35.675C11.2373 35.831 11.3049 36.0652 11.4402 36.0652C11.9812 36.1432 12.4546 36.1432 12.9957 35.9871C13.1309 35.9091 13.1986 35.753 13.1986 35.5969C13.1986 34.1142 13.1986 32.7095 13.1986 31.1488ZM62.1637 11.0149C62.9076 11.0149 63.5839 11.0149 64.3279 10.8588C63.9221 8.51771 63.7192 6.17656 63.3134 3.83542C62.9753 6.2546 62.5695 8.59575 62.1637 11.0149ZM72.4436 29.4319C72.376 29.51 72.376 29.51 72.376 29.51C72.2407 31.2268 72.4436 33.0217 72.376 34.7385C72.376 35.0507 72.5113 35.1287 72.7142 35.1287C72.9171 35.1287 73.1876 35.1287 73.3905 35.2067C73.7286 35.2848 73.8639 35.0507 73.8639 34.6605C73.7963 33.4119 73.9315 32.2413 73.7286 30.9927C73.661 30.7586 73.7286 30.5244 73.5257 30.3684C73.1876 30.0562 72.9171 29.588 72.4436 29.4319ZM24.6283 21.8622C23.6814 21.8622 22.8022 21.8622 21.8554 21.8622C21.5172 21.8622 21.382 22.0183 21.382 22.4085C21.382 22.7987 21.5849 22.7987 21.8554 22.7987C24.0872 22.7987 26.3191 22.9548 28.5509 23.0328C28.889 23.0328 29.0243 22.9548 29.0243 22.5646C29.0243 22.1744 28.889 22.0183 28.5509 22.0183C27.1983 21.8622 25.9133 21.8622 24.6283 21.8622ZM67.0331 16.3996C66.8302 16.3996 66.695 16.3215 66.5597 16.3996C64.7337 16.5556 62.9752 16.4776 61.1492 16.4776C60.811 16.4776 60.4729 16.6337 60.1347 16.6337C59.7966 16.6337 59.7289 16.7897 59.7966 17.1799C59.7966 17.5701 59.9995 17.5701 60.27 17.5701C62.2989 17.5701 64.2602 17.5701 66.2892 17.5701C66.8979 17.414 67.1008 17.336 67.0331 16.3996ZM28.0775 17.8042C28.348 17.8042 28.6185 17.8042 28.8214 17.8042C29.0243 17.8042 29.0919 17.6482 29.0919 17.414C29.0919 17.1799 29.0919 16.9458 28.8214 16.9458C28.6185 16.9458 28.4833 16.9458 28.2804 16.9458C26.3867 16.9458 24.4254 16.9458 22.5317 16.9458C22.2612 16.9458 21.9906 16.9458 21.7878 16.9458C21.5849 16.9458 21.382 17.0239 21.382 17.336C21.382 17.6482 21.5849 17.6482 21.7878 17.6482C23.8843 17.6482 25.9809 17.6482 28.0775 17.8042ZM25.778 28.0272C25.778 27.9492 25.778 27.9492 25.778 28.0272C25.9809 27.9492 26.1838 27.9492 26.3867 27.9492C26.9954 27.9492 27.604 27.9492 28.2127 28.0272C28.4156 28.0272 28.5509 28.0272 28.7538 28.0272C29.0919 28.0272 29.0919 27.7931 29.1596 27.559C29.2272 27.1688 28.9567 27.2468 28.7538 27.2468C26.4543 27.2468 24.0872 27.2468 21.7878 27.2468C21.7201 27.2468 21.6525 27.2468 21.5849 27.2468C21.4496 27.2468 21.3143 27.4029 21.3143 27.559C21.3143 27.7151 21.3143 27.9492 21.5172 28.0272C21.6525 28.0272 21.7201 28.0272 21.8554 28.0272C23.1404 28.0272 24.4254 28.0272 25.778 28.0272ZM10.4257 33.1777C9.74937 33.5679 9.20832 34.0362 8.66727 34.2703C8.05859 34.5044 7.99096 35.0507 7.99096 35.675C7.99096 36.1432 8.19386 36.2212 8.53201 36.2212C9.07306 36.2212 9.54647 36.1432 10.0875 36.1432C10.4933 36.1432 10.6286 35.9091 10.6286 35.4408C10.6286 34.7385 10.4257 34.0362 10.4257 33.1777ZM63.5163 27.7151C64.125 27.7151 64.8013 27.7151 65.41 27.7151C65.8158 27.7151 66.2892 27.637 66.695 27.637C67.0331 27.637 67.0331 27.4029 67.0331 27.0908C67.0331 26.7786 66.9655 26.6225 66.695 26.7006C66.2216 26.7006 65.7481 26.7006 65.3423 26.7786C63.7868 26.9347 62.1637 27.0127 60.5405 27.0127C60.4053 27.0127 60.2024 27.0127 60.2024 27.1688C60.1347 27.4029 60.2024 27.637 60.4729 27.7151C60.6758 27.7931 60.8787 27.7151 61.0816 27.7151C61.8931 27.7151 62.7047 27.7151 63.5163 27.7151ZM74.6078 31.3829C74.6078 32.5534 74.6078 33.646 74.6078 34.7385C74.6078 34.8946 74.6078 35.1287 74.8107 35.1287C75.2842 35.2067 75.6899 35.2067 76.1634 35.1287C76.2986 35.1287 76.2986 34.8946 76.2986 34.7385C76.4339 33.4899 76.3663 32.3193 75.1489 31.7731C75.0136 31.695 74.8784 31.5389 74.6078 31.3829ZM63.4487 22.3305C64.4631 22.3305 65.4776 22.2524 66.4245 22.3305C66.695 22.3305 66.9655 22.3304 66.8979 21.8622C66.8979 21.472 66.6273 21.5501 66.4245 21.5501C64.8689 21.5501 63.2458 21.5501 61.6903 21.5501C61.1492 21.5501 60.6758 21.6281 60.1347 21.7061C59.9995 21.7061 59.8642 21.8622 59.9318 22.0183C59.9318 22.1744 59.9995 22.2524 60.1347 22.2524C60.3376 22.2524 60.5405 22.2524 60.7434 22.2524C61.6902 22.3304 62.5695 22.3305 63.4487 22.3305ZM66.6273 6.02049C66.0863 7.58125 65.8834 9.22005 65.5452 10.8588C65.8158 11.093 66.0863 11.0149 66.3568 11.0149C67.0331 11.093 67.0331 11.093 67.0331 10.3126C66.9655 8.9079 66.9655 7.42518 66.6273 6.02049ZM60.4052 6.80087C59.9995 8.20556 59.7966 9.61024 59.6613 11.093C60.2024 11.171 60.6758 11.171 61.2168 11.093C60.9463 9.61024 60.6758 8.20556 60.4052 6.80087ZM77.2455 33.3338C77.1778 33.646 77.1102 33.8801 77.0426 34.1922C76.9749 34.9726 77.2455 35.2848 77.8541 35.2848C78.3952 35.2848 78.9362 35.2848 79.4773 35.2848C79.6126 35.2848 79.8831 35.4408 79.9507 35.0507C79.1391 34.5044 78.1923 33.9581 77.2455 33.3338ZM5.28571 35.9871C5.28571 36.0652 5.2857 36.1432 5.35333 36.2212C5.75912 36.2212 6.16491 36.2212 6.5707 36.2212C7.38227 36.2212 7.38228 36.2212 7.17939 35.1287C6.5707 35.3628 5.96202 35.675 5.28571 35.9871Z" fill="#282727"/>
</svg>
