<svg width="363" height="298" viewBox="0 0 363 298" fill="none" xmlns="http://www.w3.org/2000/svg">
<path d="M207.736 142.727C205.3 138.968 201.787 135.985 197.059 134.672C197.134 136.088 196.838 137.525 196.737 139.129C199.413 140.388 201.541 141.857 203.335 144.056C204.626 143.801 206.093 143.358 207.736 142.727Z" fill="#7DBBFF"/>
<path d="M182.959 175.582C182.042 175.814 181.107 175.693 180.19 175.925C178.337 176.037 176.484 176.148 174.632 176.26C174.651 176.613 174.475 176.8 174.493 177.153C174.55 178.212 174.606 179.271 174.662 180.329C177.821 180.316 180.962 179.95 184.102 179.584C183.656 178.195 183.21 176.806 182.959 175.582Z" fill="#7DBBFF"/>
<path d="M155.935 174.423C155.369 174.28 154.803 174.137 154.609 173.972C152.735 173.73 151.037 173.3 149.144 172.705C149.024 173.953 149.276 175.179 148.961 176.261C150.093 176.548 151.42 176.999 152.57 177.639C154.092 178.257 155.79 178.686 157.293 178.95C158.425 179.237 159.733 179.335 160.865 179.622C162.739 179.863 164.612 180.105 166.486 180.347C166.411 178.933 166.336 177.52 166.261 176.106C162.884 175.601 159.507 175.095 155.935 174.423Z" fill="#7DBBFF"/>
<path d="M156.269 199.517C156.816 199.307 157.168 198.932 157.715 198.722C156.201 194.738 154.882 190.92 154.285 186.705C152.783 186.441 151.476 186.342 150.15 185.891C149.955 185.725 149.955 185.725 149.584 185.748C150.237 191.023 151.807 196.066 153.554 200.921C154.823 200.313 155.546 199.915 156.269 199.517Z" fill="#7DBBFF"/>
<path d="M171.043 219.411C168.859 216.882 166.852 214.164 164.844 211.446C163.441 209.579 162.214 207.524 160.987 205.469C159.716 206.077 158.816 206.664 157.544 207.273C157.368 207.461 157.368 207.461 156.997 207.483C158.028 209.372 159.06 211.262 160.464 213.129C162.49 216.2 164.692 219.084 167.071 221.779C168.714 221.148 169.79 220.374 171.043 219.411Z" fill="#7DBBFF"/>
<path d="M189.751 236.623C185.082 232.996 180.394 229.014 176.254 224.821C175 225.785 174.117 226.726 172.668 227.524C177.003 231.883 181.691 235.865 186.751 239.825C187.634 238.883 188.692 237.753 189.751 236.623Z" fill="#7DBBFF"/>
<path d="M209.455 249C207.542 248.05 205.433 246.935 203.52 245.986C201.021 244.539 198.522 243.092 196.199 241.458C195.142 242.586 194.26 243.526 193.202 244.655C198.024 247.736 203.021 250.629 208 253.169C208.296 251.731 208.964 250.271 209.455 249Z" fill="#7DBBFF"/>
<path d="M258.885 261.178C253.306 261.159 247.883 260.6 242.637 259.853C242.341 261.288 242.046 262.722 241.555 263.992C247.562 265.047 253.531 265.396 259.482 265.392C259.406 263.98 258.961 262.59 258.885 261.178Z" fill="#7DBBFF"/>
<path d="M282.538 258.839C277.779 260.187 272.807 261.017 267.622 261.329C267.252 261.351 267.057 261.186 266.881 261.373C266.957 262.784 267.207 264.008 267.477 265.584C272.838 265.084 278.375 264.397 283.504 263.027C283.234 261.451 282.983 260.227 282.538 258.839Z" fill="#7DBBFF"/>
<path d="M298.074 258.015C297.628 256.627 297.007 255.426 296.756 254.203C296.21 254.413 295.489 254.81 294.748 254.855C293.11 255.484 291.843 256.091 290.381 256.532C290.826 257.921 290.901 259.331 291.346 260.719C293.354 260.068 295.538 259.229 297.352 258.412C297.528 258.225 297.898 258.202 298.074 258.015Z" fill="#7DBBFF"/>
<path d="M234.718 258.056C228.686 256.646 222.636 254.883 216.549 252.413C216.058 253.683 215.567 254.954 215.095 256.578C220.988 258.882 227.057 260.999 233.459 262.386C234.126 260.928 234.422 259.492 234.718 258.056Z" fill="#7DBBFF"/>
<path d="M130.19 170.004C133.82 171.736 137.254 173.303 141.041 174.493C140.966 173.079 141.067 171.477 141.363 170.041C137.947 168.828 134.512 167.261 131.449 165.673C130.782 167.131 130.486 168.568 130.19 170.004Z" fill="#7DBBFF"/>
<path d="M108.933 156.294C110.104 157.289 111.276 158.283 112.623 159.09C115.923 161.555 119.595 163.997 123.247 166.085C123.544 164.647 124.212 163.186 124.703 161.914C120.27 159.162 116.208 156.389 112.303 153.072C111.05 154.036 109.991 155.165 108.933 156.294Z" fill="#7DBBFF"/>
<path d="M88.5313 134.91C91.1261 138.128 93.7209 141.346 96.6874 144.542C98.6777 146.908 100.649 148.921 102.992 150.911C104.051 149.781 104.933 148.84 106.186 147.877C105.405 147.214 104.624 146.55 103.824 145.533C99.8817 141.508 96.1154 137.295 92.5254 132.894C91.2528 133.503 89.9803 134.113 88.5313 134.91Z" fill="#7DBBFF"/>
<path d="M72.9947 107.604C74.2966 111.072 75.7747 114.353 77.2528 117.634C79.316 121.412 81.5555 125.002 83.7949 128.592C85.066 127.983 86.5133 127.186 87.9794 126.743C83.5382 120.271 80.0158 113.566 77.2358 106.816C75.7508 106.906 74.2847 107.349 72.9947 107.604Z" fill="#7DBBFF"/>
<path d="M66.6946 76.4342C66.756 84.5758 67.9295 92.6505 70.3909 100.471C71.6789 100.216 73.3375 99.9392 74.6066 99.3316C72.3587 92.0298 71.204 84.3081 71.1613 76.5196C69.6787 76.6088 68.196 76.698 66.6946 76.4342Z" fill="#7DBBFF"/>
<path d="M71.7435 45.8795C71.1789 45.7366 70.6142 45.5938 70.244 45.6161C68.7684 52.7786 67.4873 60.1063 66.9465 67.3894C66.7896 67.9294 67.0028 68.4471 66.8459 68.9871C68.3266 68.898 69.8261 69.1614 71.3068 69.0723C71.4893 65.5244 71.8664 62.1417 72.4191 58.5716C73.1287 54.4615 73.8384 50.3514 74.7425 46.4064C73.6132 46.1207 72.6784 46.0001 71.7435 45.8795Z" fill="#7DBBFF"/>
<path d="M78.692 19.3107C75.8575 25.3124 73.6059 31.8092 71.8997 38.0965C72.4639 38.2392 72.8337 38.217 73.3979 38.3597C74.332 38.4802 75.0905 38.788 76.0245 38.9085C77.7307 32.6212 80.0198 26.829 82.4845 20.8495C81.5317 20.3767 80.209 19.9262 78.692 19.3107Z" fill="#7DBBFF"/>
<path d="M88.9639 1.93626C88.7885 2.12342 88.4376 2.49774 88.2621 2.68489C86.0188 5.82206 83.9696 9.12414 82.1146 12.5911C83.261 13.2285 84.5828 13.6788 86.0988 14.2939C87.2895 12.2797 88.286 10.1005 89.6521 7.89915C90.686 6.42414 91.72 4.94914 92.754 3.47414C91.4321 3.0239 90.1103 2.57366 88.9639 1.93626Z" fill="#7DBBFF"/>
<path d="M193.445 177.531C198.002 176.019 202.347 173.991 205.683 170.433C204.73 169.96 204.147 169.465 203.194 168.992C202.63 168.85 202.241 168.519 201.853 168.189C200.43 169.335 199.006 170.481 197.389 171.462C195.226 172.652 193.044 173.491 190.843 173.976C190.862 174.329 191.251 174.659 191.27 175.011C191.696 176.046 191.928 176.915 191.984 177.972C192.529 177.762 193.075 177.553 193.445 177.531Z" fill="#7DBBFF"/>
<path d="M206.877 152.729C207.416 155.882 207.215 159.079 206.059 161.802C207.013 162.276 207.773 162.584 208.727 163.057C209.116 163.388 209.681 163.531 210.07 163.861C212.049 159.142 212.175 154.533 210.801 149.662C209.338 150.104 207.875 150.546 206.783 150.965C206.82 151.671 206.663 152.211 206.877 152.729Z" fill="#7DBBFF"/>
<path d="M173.117 135.477C173.563 136.865 173.989 137.901 174.435 139.29C174.435 139.29 174.435 139.29 174.454 139.642C178.804 137.611 183.405 136.804 188.627 137.197C188.747 135.952 188.848 134.353 188.772 132.942C183.18 132.571 178.014 133.236 173.117 135.477Z" fill="#7DBBFF"/>
<path d="M163.115 141.998C160.817 144.078 158.907 146.488 157.19 149.062C158.355 150.051 159.501 150.688 160.665 151.677C161.191 151.116 161.348 150.577 161.874 150.016C163.083 148.355 164.486 146.858 166.414 144.801C166.59 144.613 166.941 144.239 167.31 144.217C167.06 142.997 166.828 142.128 166.578 140.907C166.559 140.556 166.346 140.039 166.328 139.687C165.063 140.293 163.992 141.063 163.115 141.998Z" fill="#7DBBFF"/>
<path d="M150.712 165.333C152.037 165.784 153.537 166.048 155.037 166.311C155.452 163.633 156.431 161.097 157.411 158.561C156.243 157.57 154.9 156.766 153.557 155.963C152.578 158.498 151.793 161.199 151.008 163.9C151.026 164.253 150.869 164.793 150.712 165.333Z" fill="#7DBBFF"/>
<path d="M362.45 244C361.715 242.9 360.665 243.2 359.51 243.5C359.405 240.9 359.51 238.4 359.09 235.8C360.98 236.1 361.715 235.8 362.24 234.7C362.555 233.9 362.45 233 361.715 232.5C360.875 231.9 360.035 232 358.565 233C357.935 231.2 357.305 229.4 356.675 227.5C357.83 227.5 358.67 227.1 358.88 226C358.985 225.4 358.67 224.6 358.04 224.3C356.99 223.8 356.15 224.2 355.31 224.9C354.26 223 353 221.4 351.74 219.7C353.21 219 353.735 218.3 353.63 217.3C353.525 216.5 352.895 215.9 352.055 215.7C350.69 215.5 350.06 216.2 349.535 217.3C348.17 216.2 346.805 215.1 345.335 214C346.28 213.4 346.91 212.7 346.49 211.7C346.28 211 345.44 210.4 344.705 210.4C343.34 210.4 342.815 211.2 342.5 212.3C340.61 211.4 338.825 210.6 336.83 210C337.04 209.6 337.25 209.2 337.355 208.9C337.67 207.8 336.83 206.8 335.78 206.8C334.835 206.8 333.995 207.4 333.785 208.3C333.68 208.6 333.89 209 333.47 209.3C331.685 208.9 329.795 208.8 327.8 208.5C328.325 207.5 328.22 206.6 327.38 205.9C326.75 205.4 326.015 205.4 325.28 205.7C324.02 206.3 324.02 207.4 324.335 208.6C322.235 208.7 320.345 209 318.245 209.4C318.35 208.4 318.14 207.6 317.09 207.3C316.565 207.1 316.04 207.3 315.62 207.7C314.885 208.5 315.305 209.3 315.83 210C314.15 210.7 312.365 211.1 310.79 211.9C310.475 212.1 310.265 212 310.055 211.7C309.95 211.5 309.74 211.3 309.53 211.1C309.005 210.8 308.375 210.7 307.745 211.1C307.115 211.5 306.905 212.2 307.115 212.8C307.535 213.7 307.01 214 306.38 214.4C305.225 215.2 304.07 216.1 303.02 217C302.6 217.4 302.39 217.5 301.76 217.1C301.025 216.6 300.08 216.8 299.45 217.5C298.925 218.1 298.925 218.8 299.66 219.5C299.975 219.8 300.08 220.1 299.765 220.4C298.82 221.5 298.085 222.7 297.35 223.9C297.14 224.3 296.93 224.5 296.3 224.3C295.355 224 294.515 224.4 294.2 225.1C293.885 225.8 294.095 226.4 295.04 227C295.355 227.2 295.46 227.4 295.355 227.7C294.515 229.3 294.095 231.1 293.57 232.9C293.255 232.8 292.94 232.6 292.625 232.5C291.68 232.3 290.735 232.8 290.525 233.8C290.315 234.7 290.945 235.4 291.995 235.6C292.205 235.6 292.31 235.6 292.52 235.6C292.835 235.6 293.045 235.8 292.94 236.1C292.625 237.5 292.625 238.9 292.52 240.3C292.52 240.7 292.415 241 291.89 240.9C291.68 240.9 291.47 240.9 291.26 241C290.525 241.2 290.105 241.9 290.105 242.5C290.21 243.2 290.735 243.7 291.575 243.8C291.89 243.8 292.31 243.6 292.625 243.9C292.73 245.9 293.15 247.8 293.57 249.8C293.045 249.7 292.73 249.8 292.31 250C291.575 250.3 291.26 251.1 291.575 251.8C291.785 252.5 292.52 252.9 293.255 252.7C293.465 252.7 293.78 252.5 293.99 252.4C294.305 252.2 294.41 252.4 294.515 252.6C295.04 254.1 295.88 255.6 296.615 257.1C295.145 257.8 294.725 258.7 295.355 259.6C295.88 260.5 296.825 260.5 298.4 259.6C299.45 261.1 300.71 262.3 301.865 263.7C301.025 264.1 300.5 264.7 300.605 265.6C300.71 266.2 301.13 266.6 301.76 266.7C302.81 267 303.44 266.4 303.86 265.5C305.75 267.2 307.64 268.6 309.845 269.6C310.37 269.8 310.265 270.1 310.16 270.5C309.635 271.6 309.215 272.8 308.69 273.9C308.585 274.2 308.48 274.6 308.9 274.8C309.32 275 309.635 274.8 309.845 274.4C309.95 274.2 310.055 274 310.16 273.8C311 271.7 312.05 269.6 313.1 267.5C316.67 259.7 320.135 251.9 323.915 244.2C324.125 243.8 324.125 243.4 324.65 243.2C324.65 243.4 324.65 243.6 324.65 243.7C324.44 246.3 324.23 249 323.915 251.6C323.705 253.3 323.6 255 323.39 256.8C322.97 259.8 322.76 262.8 322.445 265.9C322.235 268.3 322.025 270.8 321.815 273.2C321.71 274.5 321.71 275.8 321.71 277.1C321.71 277.6 321.815 278 322.34 278C322.97 278 323.18 277.6 323.285 277.1C323.285 276.8 323.285 276.5 323.285 276.2C323.285 275.7 323.39 275.1 323.39 274.6C323.39 274.2 323.6 274 324.02 274C324.86 274 325.805 274.1 326.75 274.1C326.435 275.2 326.645 275.9 327.59 276.5C328.115 276.8 328.64 276.9 329.27 276.5C330.215 275.9 330.005 275 329.69 274.1C330.95 273.9 332.21 273.7 333.47 273.5C334.415 273.3 334.31 273.3 334.625 274.2C334.94 275.3 335.99 275.7 337.04 275.3C338.09 274.9 338.405 274.1 337.985 273C337.88 272.8 337.67 272.7 337.775 272.3C339.35 271.8 340.925 271 342.605 270.2C342.605 271.5 343.13 272.2 344.39 272.3C345.02 272.4 345.86 271.9 346.175 271.3C346.7 270.1 345.86 269.5 344.81 268.8C347.12 267.6 348.8 265.9 350.585 264.4C351.425 265.5 351.95 265.8 352.79 265.6C353.525 265.4 354.05 264.8 354.05 264C354.05 262.9 353.315 262.6 352.265 262.3C353.63 260.3 354.89 258.4 355.94 256.3C356.15 256.4 356.255 256.5 356.36 256.6C357.305 257.2 358.04 257.3 358.775 256.8C359.51 256.3 359.72 255.6 359.51 254.9C359.3 254 358.67 253.5 357.725 253.5C356.99 253.5 357.2 253.1 357.305 252.7C357.83 251.2 358.25 249.7 358.565 248.2C358.775 247.5 358.67 246.7 359.195 245.9C360.245 246.5 361.295 246.7 362.135 245.7C362.765 245.3 362.87 244.6 362.45 244Z" fill="#D5F8B2"/>
<path d="M354.05 231.7C354.365 234.3 354.365 236.9 354.47 239.4C355.52 239.1 356.57 238.8 357.41 239.9C357.83 240.5 357.725 241.2 357.305 241.7C356.465 242.7 355.415 242.6 354.365 241.9C353.945 242.7 353.945 243.5 353.735 244.2C353.42 245.7 353 247.2 352.475 248.7C352.37 249.1 352.16 249.5 352.895 249.5C353.84 249.5 354.47 250 354.68 250.9C354.89 251.7 354.68 252.3 353.945 252.8C353.21 253.3 352.475 253.2 351.53 252.6C351.425 252.5 351.32 252.5 351.11 252.3C350.06 254.4 348.8 256.4 347.435 258.3C348.38 258.6 349.22 258.9 349.22 260C349.22 260.8 348.695 261.4 347.96 261.6C347.12 261.8 346.595 261.6 345.755 260.4C343.97 261.9 342.395 263.6 339.98 264.8C341.03 265.5 341.87 266.1 341.345 267.3C341.135 267.9 340.295 268.3 339.56 268.2C338.405 268.1 337.775 267.3 337.775 266.1C335.99 266.9 334.52 267.7 332.945 268.2C332.84 268.6 333.05 268.7 333.155 268.9C333.68 269.9 333.26 270.8 332.21 271.2C331.055 271.6 330.11 271.1 329.795 270.1C329.48 269.2 329.48 269.2 328.64 269.4C327.38 269.6 326.225 269.8 324.86 270C325.07 270.9 325.385 271.8 324.44 272.4C323.915 272.7 323.39 272.7 322.76 272.4C321.815 271.9 321.605 271.1 321.92 270C320.975 270 320.03 270 319.19 269.9C318.77 269.9 318.56 270 318.56 270.5C318.56 271 318.56 271.6 318.455 272.1C318.455 272.4 318.455 272.7 318.455 273C318.35 273.5 318.14 273.9 317.51 273.9C316.985 273.9 316.88 273.4 316.88 273C316.88 271.7 316.88 270.4 316.985 269.1C317.195 266.7 317.3 264.2 317.615 261.8C317.93 258.8 318.14 255.8 318.56 252.7C318.77 251 318.98 249.3 319.085 247.5C319.295 244.9 319.61 242.2 319.82 239.6C319.82 239.4 319.82 239.3 319.82 239.1C319.295 239.3 319.19 239.7 319.085 240.1C315.305 247.8 311.735 255.6 308.27 263.4C307.325 265.5 306.275 267.5 305.33 269.7C305.225 269.9 305.12 270.1 305.015 270.3C304.805 270.7 304.49 270.9 304.07 270.7C303.65 270.5 303.65 270.2 303.86 269.8C304.28 268.7 304.805 267.5 305.33 266.4C305.54 266 305.54 265.7 305.015 265.5C302.81 264.5 300.815 263.1 299.03 261.4C298.61 262.3 297.98 262.9 296.93 262.6C296.3 262.4 295.985 262.1 295.775 261.5C295.565 260.6 296.09 260.1 297.035 259.6C295.88 258.1 294.515 256.9 293.57 255.5C292.1 256.5 291.05 256.5 290.525 255.5C290 254.5 290.315 253.7 291.785 253C291.155 251.5 290.315 250.1 289.685 248.5C289.58 248.3 289.475 248.2 289.16 248.3C288.95 248.4 288.74 248.6 288.425 248.6C287.69 248.7 286.955 248.3 286.745 247.7C286.43 247 286.85 246.2 287.48 245.9C287.795 245.7 288.215 245.7 288.74 245.7C288.32 243.7 287.9 241.8 287.795 239.8C287.375 239.5 287.06 239.8 286.745 239.7C286.01 239.6 285.38 239.1 285.275 238.4C285.17 237.7 285.695 237.1 286.43 236.9C286.64 236.8 286.85 236.8 287.06 236.8C287.585 236.8 287.69 236.6 287.69 236.2C287.795 234.8 287.795 233.4 288.11 232C288.215 231.7 288.005 231.5 287.69 231.5C287.48 231.5 287.375 231.5 287.165 231.5C286.115 231.4 285.59 230.6 285.695 229.7C285.905 228.7 286.745 228.2 287.795 228.4C288.11 228.5 288.32 228.6 288.74 228.8C289.265 227 289.79 225.3 290.525 223.6C290.735 223.3 290.525 223.1 290.21 222.9C289.265 222.3 289.055 221.7 289.37 221C289.685 220.3 290.525 219.9 291.47 220.2C292.1 220.4 292.31 220.2 292.52 219.8C293.255 218.6 294.095 217.4 294.935 216.3C295.25 215.9 295.145 215.7 294.83 215.4C294.095 214.7 294.095 214 294.62 213.4C295.145 212.8 296.09 212.5 296.93 213C297.455 213.4 297.77 213.2 298.19 212.9C299.24 211.9 300.395 211.1 301.55 210.3C302.18 209.9 302.6 209.5 302.285 208.7C301.97 208.1 302.285 207.4 302.915 207C303.44 206.6 304.07 206.7 304.7 207C304.91 207.1 305.12 207.3 305.225 207.6C305.435 207.9 305.645 208 305.96 207.8C307.535 207 309.215 206.6 311 205.9C310.58 205.1 310.16 204.4 310.79 203.6C311.21 203.2 311.63 203 312.26 203.2C313.31 203.5 313.52 204.3 313.415 205.3C315.515 204.9 317.405 204.6 319.505 204.5C319.085 203.3 319.19 202.3 320.45 201.6C321.185 201.2 321.92 201.2 322.55 201.8C323.39 202.5 323.495 203.4 322.97 204.4C324.965 204.7 326.855 204.8 328.64 205.2C329.06 204.9 328.85 204.6 328.955 204.2C329.27 203.3 330.11 202.6 330.95 202.7C332.105 202.7 332.84 203.8 332.525 204.8C332.42 205.2 332.21 205.5 332 205.9C333.995 206.4 335.78 207.2 337.67 208.2C337.985 207.1 338.51 206.2 339.875 206.3C340.61 206.3 341.45 206.9 341.66 207.6C342.08 208.7 341.45 209.4 340.505 209.9C341.87 211 343.235 212.1 344.705 213.2C345.23 212.1 345.86 211.4 347.225 211.6C348.065 211.7 348.59 212.4 348.8 213.2C348.905 214.2 348.38 214.8 346.91 215.6C348.17 217.3 349.535 218.9 350.48 220.8C351.32 220.1 352.16 219.7 353.21 220.2C353.84 220.5 354.155 221.3 354.05 221.9C353.84 223 353 223.4 351.845 223.4C352.475 225.3 353.105 227.1 353.735 228.9C355.205 227.9 356.045 227.8 356.885 228.4C357.62 228.9 357.725 229.8 357.41 230.6C356.78 231.7 355.94 232 354.05 231.7ZM317.93 232.7C312.89 228.3 307.325 224.6 301.97 220.6C300.185 222.1 297.98 225.8 297.455 228.1C304.175 229.8 311.105 231.3 317.93 232.7ZM321.185 240C321.185 243.8 320.555 247.5 320.135 251.2C319.715 255.2 319.295 259.2 318.98 263.1C318.875 263.9 319.085 264 319.82 264C321.5 263.8 323.285 263.7 324.965 263.3C325.91 263.1 326.015 262.9 325.805 262C325.28 259.5 324.65 257 324.02 254.5C322.97 250.1 322.445 245.5 321.605 241.1C321.605 240.7 321.605 240.4 321.185 240ZM324.125 232.8C330.95 231.2 337.145 228.1 343.76 226.1C342.815 223.7 341.24 221.3 339.77 220C334.1 223.9 329.165 228.4 324.125 232.8ZM323.285 236.8C326.75 244.6 330.32 252.2 333.365 260.1C334.94 259.3 336.095 258.3 337.355 257.3C338.195 256.7 338.09 256.7 337.46 255.8C335.78 253.3 334.1 250.8 332.42 248.4C329.9 244.8 327.485 241.1 324.545 237.7C324.23 237.3 323.915 236.9 323.285 236.8ZM322.235 231.1C325.805 225.7 329.27 220.2 333.26 215C330.95 213.8 328.64 213.1 326.225 212.7C325.28 212.5 325.175 212.6 325.07 213.5C324.545 216.5 324.02 219.5 323.495 222.5C323.18 225.4 322.655 228.3 322.235 231.1ZM318.77 231.6C318.56 230.8 318.035 230.1 317.615 229.4C315.2 225.3 312.47 221.4 310.055 217.3C309.74 216.7 309.425 216.2 309.11 215.6C308.9 215.3 308.69 215.1 308.27 215.3C306.38 216.6 304.49 217.8 302.915 219.5C308.27 223.5 313.52 227.6 318.77 231.6ZM322.55 238.6C322.34 239 322.445 239.2 322.445 239.5C322.655 240.7 322.97 241.9 323.18 243.1C324.335 248.6 325.49 254.2 326.645 259.7C326.75 260.4 326.96 261.1 327.065 261.8C327.17 262.4 327.485 262.6 328.115 262.3C328.85 262 329.585 261.8 330.32 261.5C332.21 260.8 332.21 260.8 331.475 259C329.06 253.1 326.54 247.2 323.915 241.4C323.6 240.5 323.285 239.5 322.55 238.6ZM317.3 234.2C317.3 234.1 317.3 234 317.3 233.9C317.09 233.8 316.985 233.8 316.775 233.7C314.36 233.2 311.84 232.6 309.425 232.1C305.435 231.2 301.445 230.4 297.56 229.5C296.93 229.4 296.825 229.5 296.615 230C296.3 231.3 295.88 232.7 295.775 234.1C295.565 235.7 295.67 235.7 297.455 235.5C302.495 234.9 307.535 234.6 312.68 234.3C314.15 234.4 315.725 234.3 317.3 234.2ZM326.96 237.4C332.315 241.7 337.88 245.6 343.235 249.9C343.76 249.5 343.865 249 344.075 248.5C344.495 247.3 344.915 246.1 345.335 244.9C345.755 243.7 345.755 243.7 344.495 243.3C339.875 241.7 335.36 240.2 330.74 238.6C329.48 238.1 328.22 237.8 326.96 237.4ZM319.505 230.1C318.245 224.4 317.51 218.6 316.565 212.8C314.15 213.2 312.05 213.9 309.845 214.6C312.785 220 316.04 225.1 319.505 230.1ZM328.01 240.3C331.895 245.3 334.835 250.9 338.825 255.9C339.98 254.9 340.82 253.6 341.66 252.5C342.815 251 342.815 250.9 341.345 249.8C337.67 247 333.89 244.2 330.11 241.5C329.48 241 328.955 240.5 328.01 240.3ZM316.775 241.2C316.775 241.1 316.67 241.1 316.67 241C316.46 241.2 316.145 241.5 315.935 241.7C313.52 244.2 311.315 247 309.11 249.6C307.535 251.5 305.855 253.3 304.175 255.2C303.965 255.5 303.545 255.7 303.965 256.1C305.33 257.4 306.59 258.7 308.165 259.8C311.105 253.6 313.94 247.4 316.775 241.2ZM321.08 230.8C321.395 229.2 321.605 227.8 321.815 226.4C322.55 222 323.285 217.6 324.02 213.2C324.125 212.6 324.02 212.4 323.39 212.4C321.71 212.3 320.135 212.3 318.455 212.5C317.825 212.5 317.825 212.8 317.93 213.3C318.56 218.2 319.4 223.1 320.345 228C320.45 228.9 320.555 229.8 321.08 230.8ZM297.455 246.9C299.66 246.1 317.195 237.3 317.93 236.6C317.72 236.6 317.51 236.6 317.405 236.7C313.31 237.8 309.32 238.8 305.225 239.9C302.495 240.6 299.765 241.4 297.035 242.1C296.615 242.2 296.09 242.2 296.3 242.7C296.615 244.1 296.72 245.6 297.455 246.9ZM324.125 230.7C329.06 226.9 333.68 222.8 338.825 219.2C337.985 218.1 336.935 217.3 335.885 216.6C334.31 215.6 334.625 215.1 333.26 217C330.74 220.4 328.43 224 326.12 227.5C325.385 228.6 324.755 229.7 324.125 230.7ZM326.33 235.9C326.96 236.4 327.485 236.5 328.01 236.7C332.525 238.1 337.04 239.4 341.45 241C342.605 241.4 343.76 241.7 344.81 242.1C345.86 242.4 345.965 242.4 346.07 241.4C346.175 240.6 346.175 239.8 346.175 239C346.28 238.3 346.07 238 345.335 237.9C343.025 237.5 340.61 237.3 338.195 237C336.095 236.8 334.1 236.5 332 236.3C330.215 236.1 328.43 236 326.33 235.9ZM326.015 234.7C328.22 234.9 330.215 235 332.21 235.2C335.465 235.4 338.615 235.7 341.765 236.2C343.025 236.4 344.285 236.5 345.545 236.7C345.965 236.8 346.175 236.6 346.175 236.2C346.07 235.5 346.07 234.8 345.965 234.1C345.44 232.1 345.965 232.2 343.655 232.4C339.35 232.8 334.94 233.4 330.635 234C329.165 234.2 327.695 234.2 326.015 234.7ZM316.04 235.7C316.04 235.6 316.04 235.5 316.04 235.4C315.095 235.5 314.255 235.5 313.31 235.6C308.27 235.9 303.23 236.4 298.295 236.9C297.455 237 296.3 236.8 295.775 237.4C295.25 238.1 295.775 239.1 295.88 240C295.88 240.1 295.88 240.3 295.88 240.4C295.985 240.7 296.09 241 296.51 240.8C296.72 240.7 296.93 240.7 297.14 240.6C302.075 239.2 307.01 237.9 311.945 236.7C313.31 236.5 314.675 236.1 316.04 235.7ZM327.905 233.1C333.68 232.1 339.455 232 345.23 231.2C345.02 230 344.6 228.9 344.285 227.8C344.18 227.3 343.865 227.2 343.445 227.4C343.235 227.5 343.025 227.5 342.815 227.6C337.985 229.3 333.26 231.1 328.43 232.7C328.22 232.7 328.115 232.8 327.905 233.1ZM314.465 241.9C314.36 241.8 314.36 241.8 314.255 241.7C314.15 241.8 314.045 241.8 313.94 241.9C310.685 244.2 307.535 246.7 304.49 249.2C303.335 250.1 302.285 251 301.235 252C301.025 252.2 300.605 252.4 300.92 252.8C301.55 253.5 301.97 254.3 302.81 255C306.905 250.7 310.37 246 314.465 241.9ZM299.87 251.1C301.025 250.5 301.97 249.6 302.915 248.8C306.065 246.2 309.425 243.9 312.68 241.3C312.89 241.2 313.1 241.1 313.1 240.6C312.26 241 311.525 241.3 310.79 241.7C307.325 243.3 303.965 244.9 300.71 246.8C299.87 247.3 298.505 247.4 298.4 248.4C298.4 249.3 299.24 250.1 299.765 250.9C299.66 251 299.765 251 299.87 251.1ZM352.685 230.5C351.215 232.3 349.325 233.2 347.855 234.8C349.535 236.3 351.215 237.6 352.895 239.1C353.315 237.2 353.21 233.6 352.685 230.5ZM352.79 241.8C351.11 242.4 349.535 242.9 347.96 243.4C347.435 243.6 347.645 243.9 347.75 244.2C348.38 245.4 349.01 246.6 349.745 247.8C350.06 248.3 350.27 248.9 350.795 249.4C351.845 247.2 352.79 243.6 352.79 241.8ZM330.11 206.7C330.53 208.6 330.95 210.4 331.475 212.1C333.05 211.5 336.41 209.6 337.04 209C334.94 207.9 332.735 207.3 330.11 206.7ZM349.955 250.6C349.01 248.5 348.065 246.6 346.805 244.5C346.07 246.9 345.335 248.9 344.18 251.1C346.175 251.2 347.96 250.9 349.955 250.6ZM337.985 216.3C340.085 215.5 342.185 215.2 344.075 214.4C342.92 213.1 339.98 210.8 338.825 210.5C338.93 212.4 338.3 214.2 337.985 216.3ZM344.6 259.3C343.445 259.2 342.395 259 341.45 258.9C340.715 258.8 340.085 258.8 339.35 258.8C338.93 258.8 338.615 258.9 338.615 259.3C338.615 260.8 338.51 262.3 338.825 263.9C341.135 262.7 342.815 261.1 344.6 259.3ZM347.645 236.3C347.645 238.4 347.435 240.4 347.12 242.5C349.01 241.7 350.795 241.4 352.475 240.5C351.005 239 349.535 237.6 347.645 236.3ZM349.325 221.3C348.275 219.2 347.015 217.4 345.44 215.7C344.705 217.5 344.075 219.1 343.76 221C345.545 221.3 347.33 221.2 349.325 221.3ZM346.385 227.5C348.38 227.9 350.375 228.3 352.37 228.8C351.845 226.7 351.215 225 350.27 223.1C349.01 224.6 347.75 226 346.385 227.5ZM324.65 210.7C325.91 209.2 327.065 207.8 328.325 206.3C326.225 206 324.23 205.6 322.13 205.8C322.97 207.5 323.495 209.1 324.65 210.7ZM298.4 214.8C300.08 215.3 301.655 215.5 303.23 215.8C303.545 215.9 303.86 215.8 303.86 215.4C303.965 213.9 303.65 212.4 303.65 210.7C301.655 211.9 299.975 213.1 298.4 214.8ZM351.74 229.9C349.955 229.1 348.17 228.9 346.49 228.6C346.07 228.5 345.965 228.8 346.07 229.1C346.28 229.8 346.49 230.6 346.7 231.3C346.91 232 346.805 232.9 347.33 233.7C348.905 232.6 350.27 231.4 351.74 229.9ZM344.285 252.2C345.23 254 345.65 255.6 346.385 257.4C347.75 255.5 348.905 253.8 349.955 251.7C347.96 251.9 346.28 252.2 344.285 252.2ZM317.72 210.6C318.455 208.9 319.085 207.5 319.715 205.9C317.615 205.8 315.83 206.3 314.045 206.6C315.305 207.9 316.46 209.2 317.72 210.6ZM298.82 221.2C298.4 219.5 297.77 218 297.035 216.4C295.46 217.9 293.99 220.1 293.78 221C295.46 221.1 297.035 221.1 298.82 221.2ZM343.025 252.9C341.975 254.6 340.82 255.9 339.455 257.4C341.45 257.7 343.13 257.9 345.02 258.2C344.495 256.3 343.76 254.7 343.025 252.9ZM293.885 241.5C292.205 240.7 290.735 240.1 289.16 239.3C289.16 241.3 289.58 243.2 290.105 245.2C291.575 244.1 292.625 242.8 293.885 241.5ZM338.51 217.2C339.77 218.5 340.925 219.7 342.185 221C342.815 219.2 343.655 217.6 344.075 215.7C342.185 216.2 340.4 216.7 338.51 217.2ZM306.065 209.3C307.01 209.9 307.745 210.4 308.48 210.8C309.215 211.2 309.74 212 310.79 212.2C310.895 210.5 311.315 209 311.63 207.3C309.635 207.7 307.955 208.3 306.065 209.3ZM294.935 227.9C294.41 226.6 292.835 224.3 292.205 223.7C291.05 226 290.42 228.1 290.525 229.2C291.995 228.8 293.36 228.4 294.935 227.9ZM331.58 267.3C333.575 266.7 335.36 266.1 337.04 264.9C335.675 264.2 334.415 263.5 333.26 262.8C332.84 262.5 332.525 262.6 332.42 263.1C332.105 264.5 331.895 265.7 331.58 267.3ZM289.265 236.8C290.84 236 292.31 235.2 293.885 234.4C292.415 233.4 291.26 232.2 289.685 231.3C289.475 233.3 289.16 234.9 289.265 236.8ZM294.725 242.3C293.15 243.6 291.995 244.9 290.63 246.4C292.415 246.8 294.095 247.1 295.88 247.3C295.355 245.6 295.04 244.1 294.725 242.3ZM295.985 248.2C294.2 247.9 292.625 247.6 291.05 247.5C291.26 248.9 292.52 251.4 293.36 252.1C294.305 250.9 295.25 249.7 295.985 248.2ZM316.565 211.5C315.305 210.2 314.045 208.9 312.785 207.6C312.26 209.1 312.155 210.8 311.735 212.5C313.52 212.1 315.095 211.7 316.565 211.5ZM296.09 227C296.93 225.3 297.56 223.9 298.505 222.4C297.245 222.4 296.09 222.3 294.935 222.3C294.41 222.3 293.885 222.4 293.255 222.5C294.2 223.9 295.04 225.3 296.09 227ZM325.28 211.3C326.96 211.7 328.43 212 330.11 212.4C329.795 210.6 329.585 209 329.06 207.3C327.8 208.7 326.54 210 325.28 211.3ZM332.63 213.4C333.47 213.8 334.205 214.2 334.835 214.5C335.57 214.9 336.095 215.5 337.04 215.8C337.04 214 337.565 212.5 337.565 210.7C335.78 211.7 334.31 212.5 332.63 213.4ZM298.19 215.9C298.715 217.5 299.24 219 299.765 220.7C300.5 220 301.025 219.4 301.55 218.8C302.18 218.2 302.915 217.8 303.335 216.9C301.655 216.6 299.975 216.1 298.19 215.9ZM343.13 222.6C343.97 224 344.6 225.3 345.23 226.7C346.28 225.8 348.17 223.6 348.59 222.7C346.805 222.7 345.02 222.7 343.13 222.6ZM299.555 254.3C297.875 254.1 296.405 254.5 294.725 254.5C295.88 256.2 297.035 257.4 298.505 258.7C298.925 257.1 299.345 255.8 299.555 254.3ZM304.91 263.7C304.805 261.9 304.595 260.5 304.28 258.9C302.915 259.4 301.655 259.8 300.185 260.3C301.55 261.7 303.02 262.8 304.91 263.7ZM289.685 237.9C291.155 238.7 292.625 239.6 294.305 240.3C294.2 238.6 294.095 237.2 293.99 235.6C292.52 236.4 291.05 236.9 289.685 237.9ZM329.795 267.8C328.325 266.7 327.485 265.5 326.12 264.7C325.49 266.1 324.755 267.2 324.23 268.7C326.12 268.6 327.8 268.3 329.795 267.8ZM321.185 206.6C320.45 208.2 319.82 209.7 319.085 211.2C320.66 211.2 322.025 211.3 323.495 211.3C322.97 209.6 322.13 208.2 321.185 206.6ZM305.33 210.6C305.435 212.3 305.435 213.8 305.54 215.5C307.01 214.7 308.27 213.9 309.845 213.3C308.27 212.3 307.01 211.4 305.33 210.6ZM290.63 230.6C291.89 231.7 293.045 232.6 294.305 233.6C294.62 232 294.935 230.6 295.355 229C293.675 229.6 292.205 229.8 290.63 230.6ZM337.46 263.8C337.355 262.2 337.25 260.7 337.145 259.1C335.885 260 334.73 260.7 333.575 261.5C334.73 262.6 336.095 263.1 337.46 263.8ZM300.71 255C300.29 256.4 299.87 257.7 299.45 259.3C301.025 258.8 302.285 258.6 303.65 258C302.705 256.9 301.865 256 300.71 255ZM294.41 252.9C296.09 253.1 297.455 253 299.135 253C298.295 251.7 297.665 250.6 296.825 249.4C296.09 250.6 295.355 251.6 294.41 252.9ZM330.53 267C330.845 265.5 331.37 264.2 331.37 262.7C330.005 263.2 328.745 263.6 327.485 264.1C328.325 265.3 329.27 266.1 330.53 267ZM320.135 265.4C321.185 266.5 321.92 267.6 322.97 268.5C323.6 267.2 324.23 266.1 324.965 264.7C323.285 265.1 321.92 265.4 320.135 265.4ZM322.865 234.3C322.97 233.5 322.34 232.7 321.5 232.6C320.66 232.5 319.82 233.1 319.715 233.9C319.715 234.6 320.45 235.5 321.185 235.6C322.13 235.7 322.76 235.2 322.865 234.3ZM305.435 259.6C305.645 261.2 305.855 262.6 305.96 264.1C306.485 263.8 306.485 263.3 306.695 263C307.64 261 307.64 261 305.435 259.6ZM321.5 268.7C320.555 267.6 319.82 266.8 318.98 265.9C318.875 266.3 318.77 266.6 318.77 266.9C318.455 268.5 318.56 268.6 320.24 268.7C320.555 268.7 320.87 268.7 321.5 268.7Z" fill="black"/>
</svg>
