<svg width="44" height="44" viewBox="0 0 44 44" fill="none" xmlns="http://www.w3.org/2000/svg">
<rect width="44" height="44" fill="#282727"/>
<path d="M32.666 20.3974L32.5411 19.9116H22.2139V24.2979H28.3908C28.0461 25.6364 27.2626 26.8206 26.1653 27.661C25.0681 28.5015 23.7207 28.9497 22.3388 28.934C20.5354 28.9192 18.8027 28.231 17.4805 27.0046C16.8306 26.364 16.3133 25.6014 15.9584 24.7607C15.6036 23.9199 15.418 23.0174 15.4123 22.1047C15.4333 20.2718 16.159 18.5172 17.4389 17.2049C18.7424 15.97 20.4738 15.2884 22.2694 15.3032C23.8072 15.3151 25.2879 15.8876 26.4336 16.9134L29.4873 13.7763C27.4746 11.9807 24.8695 10.992 22.1722 11.0002C20.6884 10.9914 19.2174 11.2749 17.8432 11.8346C16.469 12.3943 15.2185 13.2192 14.1631 14.2622C12.1555 16.3474 11.0236 19.1229 11.0004 22.0174C10.9771 24.912 12.0643 27.7052 14.0381 29.8224C15.1317 30.9119 16.4315 31.7726 17.8614 32.3541C19.2914 32.9357 20.8229 33.2264 22.3665 33.2093C23.7663 33.2197 25.1537 32.9458 26.4446 32.4042C27.7353 31.8626 28.9027 31.0646 29.876 30.0584C31.7859 27.9584 32.819 25.2066 32.7632 22.3685C32.7782 21.71 32.7457 21.0513 32.666 20.3974Z" fill="white"/>
</svg>
