<svg width="55" height="56" viewBox="0 0 55 56" fill="none" xmlns="http://www.w3.org/2000/svg">
<path fill-rule="evenodd" clip-rule="evenodd" d="M39.1109 49.2072L45.7428 54.9588C46.1347 55.2972 46.7262 55.255 47.0656 54.8641L50.4603 50.9491C50.7997 50.5581 50.7575 49.9656 50.3666 49.6263L43.7338 43.8756L46.9381 40.1791C47.1791 39.9025 47.2353 39.5097 47.0834 39.1759C46.9306 38.8422 46.5978 38.6275 46.2303 38.6275L33.3734 38.6247C33.1016 38.6247 32.8428 38.7428 32.6647 38.9481C32.4866 39.1534 32.4059 39.4263 32.4453 39.6953L34.2697 52.4228C34.3213 52.7856 34.5809 53.0856 34.9334 53.1888C35.285 53.2928 35.6656 53.1813 35.9056 52.9038L39.1109 49.2072ZM39.6303 47.1766C39.2394 46.8372 38.6478 46.8794 38.3084 47.2713L35.8344 50.1241L34.4544 40.4997L44.1772 40.5025L41.7031 43.3553C41.3638 43.7472 41.4059 44.3388 41.7969 44.6781L48.4297 50.4288L46.2631 52.9272L39.6303 47.1766ZM0.3125 29.875V43.9375C0.3125 44.6838 0.60875 45.3991 1.13656 45.9259C1.66344 46.4538 2.37875 46.75 3.125 46.75C9.55437 46.75 30.3125 46.75 30.3125 46.75C30.83 46.75 31.25 46.33 31.25 45.8125C31.25 45.295 30.83 44.875 30.3125 44.875C30.3125 44.875 9.55437 44.875 3.125 44.875C2.87656 44.875 2.6375 44.7766 2.46219 44.6003C2.28594 44.425 2.1875 44.1859 2.1875 43.9375V29.875C2.1875 29.3575 1.7675 28.9375 1.25 28.9375C0.7325 28.9375 0.3125 29.3575 0.3125 29.875ZM0.3125 3.625V26.125C0.3125 26.6425 0.7325 27.0625 1.25 27.0625C1.7675 27.0625 2.1875 26.6425 2.1875 26.125V9.25H25.625C26.1425 9.25 26.5625 8.83 26.5625 8.3125C26.5625 7.795 26.1425 7.375 25.625 7.375H2.1875V3.625C2.1875 3.1075 2.6075 2.6875 3.125 2.6875H51.4062C51.9238 2.6875 52.3438 3.1075 52.3438 3.625V7.375H29.375C28.8575 7.375 28.4375 7.795 28.4375 8.3125C28.4375 8.83 28.8575 9.25 29.375 9.25H52.3438V43.9375C52.3438 44.455 51.9238 44.875 51.4062 44.875H49.0625C48.545 44.875 48.125 45.295 48.125 45.8125C48.125 46.33 48.545 46.75 49.0625 46.75H51.4062C52.9597 46.75 54.2188 45.4909 54.2188 43.9375V3.625C54.2188 2.07156 52.9597 0.8125 51.4062 0.8125H3.125C1.57156 0.8125 0.3125 2.07156 0.3125 3.625ZM17.1875 25.6563C17.1875 25.1388 16.7675 24.7188 16.25 24.7188H5.9375C5.42 24.7188 5 25.1388 5 25.6563V35.9688C5 36.4863 5.42 36.9063 5.9375 36.9063H16.25C16.7675 36.9063 17.1875 36.4863 17.1875 35.9688V25.6563ZM20 35.5H47.1875C47.705 35.5 48.125 35.08 48.125 34.5625C48.125 34.045 47.705 33.625 47.1875 33.625H20C19.4825 33.625 19.0625 34.045 19.0625 34.5625C19.0625 35.08 19.4825 35.5 20 35.5ZM15.3125 26.5938V35.0313H6.875V26.5938H15.3125ZM20 31.75H47.1875C47.705 31.75 48.125 31.33 48.125 30.8125C48.125 30.295 47.705 29.875 47.1875 29.875H20C19.4825 29.875 19.0625 30.295 19.0625 30.8125C19.0625 31.33 19.4825 31.75 20 31.75ZM20 28H47.1875C47.705 28 48.125 27.58 48.125 27.0625C48.125 26.545 47.705 26.125 47.1875 26.125H20C19.4825 26.125 19.0625 26.545 19.0625 27.0625C19.0625 27.58 19.4825 28 20 28ZM17.1875 11.125C17.1875 10.6075 16.7675 10.1875 16.25 10.1875H5.9375C5.42 10.1875 5 10.6075 5 11.125V21.4375C5 21.955 5.42 22.375 5.9375 22.375H16.25C16.7675 22.375 17.1875 21.955 17.1875 21.4375V11.125ZM20 21.4375H47.1875C47.705 21.4375 48.125 21.0175 48.125 20.5C48.125 19.9825 47.705 19.5625 47.1875 19.5625H20C19.4825 19.5625 19.0625 19.9825 19.0625 20.5C19.0625 21.0175 19.4825 21.4375 20 21.4375ZM15.3125 12.0625V20.5H6.875V12.0625H15.3125ZM8.06 16.7153L10.4037 19.2597C10.6044 19.4772 10.895 19.5878 11.1894 19.5578C11.4828 19.5278 11.7453 19.3609 11.8972 19.1069L14.7097 14.4194C14.9759 13.9759 14.8325 13.3994 14.3881 13.1341C13.9447 12.8678 13.3681 13.0113 13.1028 13.4556L10.9344 17.0678L9.44 15.445C9.08938 15.0644 8.495 15.04 8.11531 15.3906C7.73469 15.7413 7.71031 16.3347 8.06 16.7153ZM20 17.6875H47.1875C47.705 17.6875 48.125 17.2675 48.125 16.75C48.125 16.2325 47.705 15.8125 47.1875 15.8125H20C19.4825 15.8125 19.0625 16.2325 19.0625 16.75C19.0625 17.2675 19.4825 17.6875 20 17.6875ZM20 13.9375H47.1875C47.705 13.9375 48.125 13.5175 48.125 13C48.125 12.4825 47.705 12.0625 47.1875 12.0625H20C19.4825 12.0625 19.0625 12.4825 19.0625 13C19.0625 13.5175 19.4825 13.9375 20 13.9375ZM5 4.09375C5.5175 4.09375 5.9375 4.51375 5.9375 5.03125C5.9375 5.54875 5.5175 5.96875 5 5.96875C4.4825 5.96875 4.0625 5.54875 4.0625 5.03125C4.0625 4.51375 4.4825 4.09375 5 4.09375ZM8.75 4.09375C9.2675 4.09375 9.6875 4.51375 9.6875 5.03125C9.6875 5.54875 9.2675 5.96875 8.75 5.96875C8.2325 5.96875 7.8125 5.54875 7.8125 5.03125C7.8125 4.51375 8.2325 4.09375 8.75 4.09375ZM12.5 4.09375C13.0175 4.09375 13.4375 4.51375 13.4375 5.03125C13.4375 5.54875 13.0175 5.96875 12.5 5.96875C11.9825 5.96875 11.5625 5.54875 11.5625 5.03125C11.5625 4.51375 11.9825 4.09375 12.5 4.09375Z" fill="#7DBBFF"/>
</svg>
