<svg width="50" height="56" viewBox="0 0 50 56" fill="none" xmlns="http://www.w3.org/2000/svg">
<path fill-rule="evenodd" clip-rule="evenodd" d="M4.75 38.2722V52.375C4.75 53.9284 6.00906 55.1875 7.5625 55.1875H39.4375C39.955 55.1875 40.375 54.7675 40.375 54.25C40.375 53.7325 39.955 53.3125 39.4375 53.3125H7.5625C7.045 53.3125 6.625 52.8925 6.625 52.375V47.6875H33.8125C34.33 47.6875 34.75 47.2675 34.75 46.75C34.75 46.2325 34.33 45.8125 33.8125 45.8125H6.625V38.9884C7.3 39.1591 8.00781 39.25 8.73531 39.25H16C16.0206 39.25 16.0412 39.2491 16.0609 39.2481C16.24 39.4525 16.4266 39.6522 16.6206 39.8463C21.1394 44.365 28.3441 44.5769 33.115 40.4838L34.0675 41.4363C33.7759 41.9538 33.6184 42.5425 33.6184 43.1472C33.6184 44.0716 33.9859 44.9584 34.6394 45.6119C36.9428 47.9163 40.9094 51.8819 43.2128 54.1853C43.8662 54.8388 44.7531 55.2063 45.6775 55.2063C46.6019 55.2063 47.4887 54.8388 48.1422 54.1853C48.7956 53.5319 49.1631 52.645 49.1631 51.7206C49.1631 50.7963 48.7956 49.9094 48.1422 49.2559L39.5687 40.6825C38.9153 40.0291 38.0284 39.6616 37.1041 39.6616C36.4994 39.6616 35.9106 39.8191 35.3931 40.1106L34.4453 39.1628C34.5409 39.1956 35.1456 39.2134 35.4719 39.2134C41.0069 39.2134 45.6306 35.2834 46.7031 30.0634C46.8072 29.5572 46.48 29.0613 45.9737 28.9563C45.4666 28.8522 44.9706 29.1794 44.8666 29.6866C43.9862 33.9691 40.2466 37.2138 35.7334 37.3347C38.4203 32.6894 37.7772 26.6378 33.8031 22.6638C29.0612 17.9219 21.3625 17.9219 16.6206 22.6638C12.6353 26.6491 11.9997 32.7241 14.7137 37.375H8.73531C4.9825 37.375 1.9375 34.2934 1.9375 30.5406C1.9375 26.8169 4.93844 23.7878 8.65187 23.7438C9.1 23.7381 9.48156 23.4156 9.56219 22.9741C9.86406 21.3184 10.5025 19.7791 11.4025 18.4291C11.6894 17.9988 11.5731 17.4166 11.1428 17.1288C10.7125 16.8419 10.1303 16.9581 9.8425 17.3884C8.93594 18.7478 8.26 20.2741 7.87094 21.9109C3.49 22.345 0.0625 26.0453 0.0625 30.5406C0.0625 33.8903 1.96656 36.8172 4.75 38.2722ZM38.2431 42.0081L46.8166 50.5816C47.1184 50.8834 47.2881 51.2931 47.2881 51.7206C47.2881 52.1481 47.1184 52.5578 46.8166 52.8597C46.5147 53.1616 46.105 53.3313 45.6775 53.3313C45.25 53.3313 44.8403 53.1616 44.5384 52.8597L35.965 44.2863C35.6631 43.9844 35.4934 43.5747 35.4934 43.1472C35.4934 42.7206 35.6631 42.3109 35.965 42.0081C36.2678 41.7063 36.6775 41.5366 37.1041 41.5366C37.5316 41.5366 37.9412 41.7063 38.2431 42.0081ZM23.5 48.625C24.535 48.625 25.375 49.465 25.375 50.5C25.375 51.535 24.535 52.375 23.5 52.375C22.465 52.375 21.625 51.535 21.625 50.5C21.625 49.465 22.465 48.625 23.5 48.625ZM17.9462 23.9894C21.9569 19.9797 28.4678 19.9797 32.4775 23.9894C36.4872 27.9991 36.4872 34.5109 32.4775 38.5206C28.4678 42.5303 21.9559 42.5303 17.9462 38.5206C13.9366 34.5109 13.9366 28 17.9462 23.9894ZM39.4375 0.8125H25.375C24.8575 0.8125 24.4375 1.2325 24.4375 1.75C24.4375 2.2675 24.8575 2.6875 25.375 2.6875H33.9025L33.0775 6.26219C32.98 6.68781 32.6012 6.98875 32.1644 6.98875H14.8356C14.3987 6.98875 14.02 6.68781 13.9225 6.26219L13.0975 2.6875H21.625C22.1425 2.6875 22.5625 2.2675 22.5625 1.75C22.5625 1.2325 22.1425 0.8125 21.625 0.8125H7.5625C6.00906 0.8125 4.75 2.07156 4.75 3.625V19.5625C4.75 20.08 5.17 20.5 5.6875 20.5C6.205 20.5 6.625 20.08 6.625 19.5625V3.625C6.625 3.1075 7.045 2.6875 7.5625 2.6875H11.1728L12.0953 6.68406C12.3897 7.96 13.5259 8.86375 14.8356 8.86375C18.5922 8.86375 28.4078 8.86375 32.1644 8.86375C33.4741 8.86375 34.6103 7.96 34.9047 6.68406L35.8272 2.6875H39.4375C39.6859 2.6875 39.925 2.78594 40.1003 2.96219C40.2766 3.1375 40.375 3.37656 40.375 3.625V17.3819C38.8881 16.6769 37.225 16.2822 35.4719 16.2822C34.5081 16.2822 33.5725 16.4013 32.6781 16.6253C30.1103 13.2822 26.0725 11.125 21.5341 11.125C17.8984 11.125 14.5834 12.5097 12.0878 14.7794C11.7053 15.1281 11.6772 15.7216 12.025 16.1041C12.3737 16.4866 12.9672 16.5147 13.3497 16.1669C15.5116 14.2 18.3841 13 21.5341 13C25.6759 13 29.3378 15.0747 31.5362 18.2397C31.7697 18.5763 32.1962 18.7225 32.5881 18.5988C33.4984 18.3119 34.4669 18.1572 35.4719 18.1572C40.2625 18.1572 44.2375 21.6766 44.9491 26.2684C45.0278 26.7803 45.5078 27.1309 46.0187 27.0513C46.5306 26.9725 46.8812 26.4925 46.8016 25.9816C46.3272 22.9206 44.6416 20.2591 42.25 18.5022V3.625C42.25 2.87875 41.9537 2.16344 41.4259 1.63656C40.8991 1.10875 40.1837 0.8125 39.4375 0.8125Z" fill="#7DBBFF"/>
</svg>
