<svg width="231" height="371" viewBox="0 0 231 371" fill="none" xmlns="http://www.w3.org/2000/svg">
<path d="M142.178 210.912C141.008 206.801 138.878 203.152 135.518 200.772C135.317 202.116 134.83 203.39 134.461 204.867C136.268 206.697 137.62 208.59 138.585 211.086C139.614 211.161 140.812 211.104 142.178 210.912Z" fill="#7DBBFF"/>
<path d="M118.133 234.921C117.4 234.915 116.716 234.577 115.983 234.571C114.566 234.227 113.149 233.883 111.733 233.539C111.683 233.872 111.517 234.003 111.467 234.336C111.318 235.333 111.17 236.331 111.021 237.329C113.405 238.08 115.838 238.498 118.272 238.917C118.186 237.518 118.101 236.119 118.133 234.921Z" fill="#7DBBFF"/>
<path d="M97.8974 226.933C97.4947 226.663 97.0921 226.392 96.9744 226.19C95.599 225.51 94.391 224.697 93.0654 223.683C92.7485 224.818 92.7166 226.023 92.2821 226.956C93.0875 227.498 94.0105 228.242 94.766 229.118C95.8066 230.063 97.0146 230.876 98.105 231.487C98.9103 232.029 99.8831 232.438 100.688 232.98C102.064 233.66 103.439 234.34 104.815 235.02C105.014 233.683 105.213 232.346 105.413 231.008C102.947 229.717 100.481 228.426 97.8974 226.933Z" fill="#7DBBFF"/>
<path d="M93.8938 250.224C94.3451 250.16 94.6791 249.896 95.1304 249.832C94.7067 245.755 94.4004 241.879 94.7123 237.807C93.6247 237.197 92.6545 236.789 91.7339 236.047C91.6166 235.846 91.6166 235.846 91.3323 235.777C90.8713 240.849 91.1459 245.928 91.5876 250.873C92.6572 250.615 93.2755 250.419 93.8938 250.224Z" fill="#7DBBFF"/>
<path d="M101.833 272.445C100.634 269.548 99.6025 266.517 98.5714 263.487C97.8446 261.4 97.286 259.179 96.7273 256.958C95.6503 257.219 94.8596 257.548 93.7826 257.808C93.6145 257.941 93.6145 257.941 93.3282 257.872C93.7687 259.89 94.2092 261.908 94.936 263.996C95.9171 267.362 97.0664 270.594 98.3838 273.694C99.747 273.503 100.706 273.04 101.833 272.445Z" fill="#7DBBFF"/>
<path d="M113.213 293.232C110.308 288.689 107.453 283.808 105.056 278.863C103.921 279.462 103.074 280.13 101.821 280.525C104.337 285.673 107.192 290.554 110.335 295.504C111.181 294.836 112.197 294.034 113.213 293.232Z" fill="#7DBBFF"/>
<path d="M126.091 309.782C124.809 308.428 123.408 306.871 122.126 305.517C120.489 303.556 118.852 301.594 117.383 299.5C116.374 300.298 115.532 300.963 114.522 301.762C117.628 305.818 120.902 309.741 124.226 313.329C124.713 312.056 125.486 310.852 126.091 309.782Z" fill="#7DBBFF"/>
<path d="M161.463 333.843C157.253 332.476 153.26 330.643 149.433 328.678C148.95 329.942 148.468 331.206 147.868 332.269C152.213 334.705 156.658 336.474 161.152 337.911C161.35 336.578 161.265 335.176 161.463 333.843Z" fill="#7DBBFF"/>
<path d="M179.727 337.825C175.902 337.928 172.01 337.499 168.05 336.537C167.767 336.469 167.651 336.268 167.485 336.4C167.287 337.728 167.255 338.924 167.174 340.452C171.3 341.282 175.592 341.98 179.7 341.945C179.781 340.417 179.812 339.221 179.727 337.825Z" fill="#7DBBFF"/>
<path d="M191.54 341.156C191.455 339.762 191.204 338.5 191.235 337.306C190.787 337.369 190.173 337.563 189.608 337.426C188.264 337.614 187.201 337.871 186.023 337.929C186.108 339.322 185.91 340.648 185.995 342.042C187.622 341.922 189.415 341.67 190.926 341.35C191.091 341.219 191.374 341.288 191.54 341.156Z" fill="#7DBBFF"/>
<path d="M143.699 324.676C139.385 321.896 135.12 318.782 130.955 314.999C130.353 316.066 129.75 317.133 129.098 318.534C133.146 322.115 137.36 325.564 141.96 328.413C142.73 327.213 143.215 325.945 143.699 324.676Z" fill="#7DBBFF"/>
<path d="M79.1252 216.234C81.5638 218.733 83.8844 221.03 86.5406 223.062C86.7402 221.723 87.1076 220.251 87.5928 218.981C85.2222 217.019 82.9016 214.721 80.8665 212.493C80.0957 213.694 79.6105 214.964 79.1252 216.234Z" fill="#7DBBFF"/>
<path d="M65.3291 198.016C66.0404 199.233 66.7517 200.451 67.6318 201.535C69.6974 204.649 72.0503 207.831 74.4534 210.678C74.9416 209.403 75.7171 208.197 76.3238 207.124C73.4464 203.466 70.8564 199.877 68.4854 195.819C67.3542 196.416 66.3416 197.216 65.3291 198.016Z" fill="#7DBBFF"/>
<path d="M53.4665 172.876C54.8583 176.525 56.2502 180.174 57.9296 183.893C59.0157 186.596 60.152 188.963 61.576 191.4C62.5895 190.599 63.4341 189.932 64.5663 189.335C64.0916 188.523 63.617 187.71 63.1926 186.562C60.9198 181.828 58.816 176.96 56.8811 171.96C55.7992 172.221 54.7173 172.482 53.4665 172.876Z" fill="#7DBBFF"/>
<path d="M46.2936 143.526C46.6516 147.084 47.1775 150.51 47.7035 153.935C48.5832 157.967 49.6309 161.867 50.6786 165.766C51.754 165.506 52.9974 165.113 54.1908 165.055C51.9955 157.927 50.5399 150.804 49.6559 143.82C48.5125 143.543 47.3191 143.601 46.2936 143.526Z" fill="#7DBBFF"/>
<path d="M46.6911 112.993C45.2666 120.583 44.6935 128.38 45.1385 136.251C46.1565 136.326 47.4583 136.469 48.526 136.211C48.1485 128.873 48.672 121.41 50.0469 114.153C48.9117 113.877 47.7766 113.601 46.6911 112.993Z" fill="#7DBBFF"/>
<path d="M55.495 85.9522C55.0963 85.6839 54.6976 85.4155 54.4154 85.347C52.0179 91.6276 49.7368 98.1081 48.0202 104.726C47.8051 105.188 47.8722 105.719 47.6571 106.182C48.786 106.456 49.8656 107.061 50.9945 107.335C51.7699 104.092 52.6618 101.049 53.7194 97.8741C54.9922 94.237 56.2649 90.5999 57.6541 87.1627C56.8567 86.626 56.1759 86.2891 55.495 85.9522Z" fill="#7DBBFF"/>
<path d="M65.0661 63.1569C61.8641 68.0203 59.0102 73.4809 56.6029 78.879C57.0002 79.1463 57.2815 79.2146 57.6789 79.482C58.3575 79.8176 58.8709 80.284 59.5496 80.6196C61.9569 75.2215 64.7125 70.4207 67.6332 65.489C67.0037 64.8235 66.093 64.0897 65.0661 63.1569Z" fill="#7DBBFF"/>
<path d="M75.6069 49.7259C75.4421 49.8564 75.1124 50.1173 74.9476 50.2477C72.7068 52.6012 70.5817 55.1532 68.5725 57.9037C69.3162 58.7658 70.2248 59.4973 71.2492 60.4274C72.5011 58.8565 73.6371 57.0871 75.0538 55.3858C76.0918 54.2742 77.1298 53.1627 78.1678 52.0511C77.2592 51.3195 76.3506 50.588 75.6069 49.7259Z" fill="#7DBBFF"/>
<path d="M125.65 239.586C129.338 239.285 132.96 238.454 136.099 235.968C135.469 235.303 135.121 234.706 134.492 234.04C134.094 233.773 133.862 233.374 133.63 232.976C132.357 233.693 131.085 234.41 129.696 234.927C127.861 235.508 126.075 235.758 124.338 235.678C124.288 236.008 124.521 236.406 124.471 236.736C124.605 237.794 124.623 238.653 124.476 239.643C124.922 239.581 125.369 239.518 125.65 239.586Z" fill="#7DBBFF"/>
<path d="M139.98 220.063C139.818 223.12 139.09 226.039 137.729 228.289C138.362 228.958 138.878 229.428 139.512 230.098C139.745 230.498 140.145 230.767 140.378 231.168C142.718 227.264 143.644 223.017 143.487 218.162C142.306 218.22 141.125 218.277 140.227 218.403C140.128 219.067 139.913 219.53 139.98 220.063Z" fill="#7DBBFF"/>
<path d="M117.261 195.429C117.346 196.825 117.481 197.889 117.566 199.285C117.566 199.285 117.566 199.285 117.517 199.617C121.156 198.782 124.765 199.142 128.624 200.767C128.939 199.64 129.302 198.181 129.5 196.854C125.358 195.161 121.35 194.531 117.261 195.429Z" fill="#7DBBFF"/>
<path d="M108.654 198.754C106.564 200.117 104.706 201.876 102.963 203.833C103.656 205.021 104.399 205.881 105.092 207.069C105.586 206.678 105.799 206.22 106.292 205.83C107.493 204.591 108.809 203.55 110.619 202.119C110.783 201.989 111.112 201.729 111.392 201.797C111.423 200.615 111.406 199.761 111.437 198.578C111.486 198.25 111.419 197.724 111.468 197.396C110.415 197.651 109.477 198.103 108.654 198.754Z" fill="#7DBBFF"/>
<path d="M95.355 217.193C96.2703 217.931 97.3517 218.537 98.4331 219.143C99.2277 216.758 100.422 214.642 101.616 212.525C100.916 211.324 100.05 210.254 99.1838 209.185C97.9899 211.301 96.9126 213.618 95.8353 215.934C95.7859 216.266 95.5705 216.729 95.355 217.193Z" fill="#7DBBFF"/>
<path d="M79.0754 46.7544C78.5609 45.446 77.977 44.1205 77.2183 42.9886C76.8042 42.414 76.3183 42.2947 75.6912 42.6134C75.1334 42.9492 74.5877 43.2091 74.0874 43.6378C73.9126 43.8313 73.7139 44.1765 73.4602 43.9566C73.1945 43.8125 73.1156 43.3991 73.0941 43.0786C73.0486 42.9098 73.1539 42.6993 73.1899 42.4717C73.2522 41.6202 73.3719 40.8616 73.4342 40.0101C73.5445 38.8552 73.1424 38.2048 72.1371 37.7215C71.9983 37.6874 71.8714 37.5774 71.7326 37.5433C71.3855 37.458 71.3521 37.2134 71.4694 36.927C71.7854 36.2954 71.9626 35.6298 72.2092 34.9811C72.4558 34.3325 72.8292 33.7939 73.6287 33.7539C74.4282 33.7139 75.1822 33.5051 76.0056 33.3134C76.2258 33.2887 76.5275 33.2051 76.7716 33.0287C77.26 32.6759 77.2169 32.0349 76.6975 31.6709C76.2356 31.3998 75.8191 31.2975 75.3332 31.1782C74.9862 31.0929 74.5577 31.0664 74.2466 30.7536C74.5961 30.3667 74.8762 29.9627 75.1443 29.6345C75.4818 29.3234 75.7619 28.9194 75.9032 28.4813C76.1617 27.7569 75.8291 27.1235 75.0536 27.0118C74.4049 27.0101 73.8137 27.1012 73.2559 27.437C73.0118 27.6134 72.6982 27.7728 72.3391 27.7634C72.3775 27.0636 72.4853 26.3809 72.5236 25.6811C72.538 25.133 72.6338 24.5262 72.0331 24.221C71.5017 23.9328 71.1977 24.4886 70.9176 24.8925C70.4508 25.5659 70.0534 26.2563 69.5985 26.8537C69.5291 26.8367 69.3903 26.8026 69.4022 26.7267C69.1725 26.3551 68.9308 26.0593 68.701 25.6876C68.4713 25.316 68.2295 25.0202 67.9064 24.7832C67.387 24.4192 67.0735 24.5786 66.9082 25.1684C66.8484 25.5477 66.8699 25.8682 66.8794 26.2645C66.9799 26.9984 67.0109 27.7153 67.0874 28.6009C66.3024 28.0928 65.9697 27.4595 66.1828 26.5662C66.3026 25.8076 66.4223 25.0491 66.5421 24.2905C66.82 22.0735 67.0978 19.8565 67.5145 17.6737C67.7396 16.7046 67.9527 15.8113 68.4435 14.9863C68.7356 14.5064 69.109 13.9678 68.9272 13.2927C68.8602 12.8034 68.9775 12.517 69.1882 12.096C69.6455 11.0263 70.0334 9.9396 70.0167 8.6747C70.0001 7.4098 69.7632 6.16961 69.445 4.98822C69.2297 4.06851 68.6863 3.85622 68.0807 4.49544C67.3817 5.26933 66.7521 6.06028 66.0411 6.91003C65.062 8.08791 64.8225 9.60509 64.942 11.1317C65.021 11.5451 64.9731 11.8485 64.7049 12.1766C64.3435 12.6394 64.1663 13.3051 64.4295 13.9214C64.7262 14.7823 64.6065 15.5409 64.4867 16.2995C64.4029 16.8305 64.3191 17.3615 64.2472 17.8166C64.0053 19.806 63.7059 21.7025 62.9781 23.5725C62.2622 25.3667 62.1016 27.2973 61.7903 29.2696C61.7304 29.6489 61.6011 30.0111 61.4144 30.2804C60.8542 31.0884 60.3634 31.9135 60.0689 32.8655C59.7744 33.8176 59.7001 34.745 60.3439 35.6911C60.6885 36.2486 60.7555 36.7379 60.6477 37.4206C60.5879 37.7999 60.54 38.1033 60.5495 38.4997C60.5063 40.1438 60.1854 41.7198 59.2517 43.0665C58.8663 43.681 58.6077 44.4055 58.3611 45.0541C58.1504 45.4752 57.9972 45.9891 58.1336 46.4954C58.3609 47.3393 58.1717 48.0808 57.8437 48.7883C57.4918 49.6474 57.4175 50.5748 57.482 51.5362C57.537 52.1013 57.5106 52.7253 57.288 53.2222C56.9456 54.4777 56.3949 55.682 55.9137 56.9034C55.5378 57.9143 55.0231 58.891 54.9248 59.9701C54.8505 60.8975 54.58 61.6978 54.3094 62.4981C53.1817 65.5307 51.6615 68.3093 50.4764 71.249C50.3471 71.6113 50.1963 71.653 49.9067 71.6606C49.258 71.6589 48.9085 72.0458 48.8127 72.6527C48.645 73.7147 48.408 74.7597 48.2403 75.8217C48.1086 76.6562 48.2929 76.8591 49.0205 77.2742C49.6787 77.6723 50.4423 77.8599 51.1244 78.1063C53.0321 78.8113 54.9278 79.5922 56.8354 80.2973C58.8819 81.0364 60.859 81.7585 62.8935 82.5735C63.8413 82.9639 64.8705 83.2956 65.8543 83.4585C66.6992 83.5872 66.9434 83.4108 67.2953 82.5517C67.5659 81.7513 67.8245 81.0268 68.095 80.2265C68.3656 79.4261 68.2651 78.6923 67.7242 78.0078C67.5399 77.8049 67.5639 77.6532 67.5998 77.4256C67.7315 76.5912 67.8633 75.7567 68.0644 74.9393C68.4667 73.3045 68.9384 71.6868 69.2832 69.9591C69.5922 68.459 70.0399 66.993 70.3369 65.5687C70.3728 65.3411 70.4781 65.1306 70.6409 65.013C71.2226 64.5255 71.4812 63.801 71.6009 63.0424C72.1015 60.3285 72.4632 57.5806 72.7554 54.8155C72.8153 54.4362 72.8752 54.0569 73.2127 53.7459C74.132 52.9473 74.9937 52.0558 75.9249 51.1813C76.9495 50.1722 77.9741 49.1631 78.9292 48.1369C79.0011 47.6818 79.2118 47.2607 79.0754 46.7544Z" fill="#D5F8B2"/>
<path d="M71.8659 27.7003C71.7774 26.8906 71.7583 26.0979 71.6579 25.3641C71.6483 24.9678 71.6268 24.6473 71.6867 24.2681C71.7825 23.6612 72.1654 23.5189 72.6846 23.8829C73.0077 24.1199 73.3187 24.4327 73.479 24.7873C73.7087 25.1589 73.9504 25.4546 74.1801 25.8262C74.2495 25.8433 74.3189 25.8604 74.3763 25.9533C74.7736 25.2629 75.2403 24.5896 75.6951 23.9922C75.9751 23.5882 76.2671 23.1084 76.8103 23.3207C77.4109 23.6259 77.3152 24.2327 77.3007 24.7807C77.2624 25.4804 77.236 26.1043 77.1163 26.8629C77.5327 26.9652 77.7887 26.7129 78.0329 26.5365C78.5905 26.2007 79.1815 26.1096 79.8301 26.1113C80.548 26.1301 80.9499 26.7805 80.6795 27.5808C80.5382 28.0188 80.1888 28.4058 79.9208 28.7339C79.5833 29.0449 79.3727 29.4659 79.0233 29.8529C79.4037 30.1827 79.7627 30.1921 80.1097 30.2774C80.5954 30.3967 81.0812 30.5161 81.4737 30.7701C82.0049 31.0582 82.0479 31.6992 81.5477 32.1278C81.3036 32.3042 81.0834 32.3289 80.7819 32.4124C80.0401 32.5453 79.2048 32.8129 78.4056 32.8529C77.6063 32.8929 77.2449 33.3557 76.9864 34.0801C76.7398 34.7287 76.5627 35.3943 76.2467 36.0258C76.1295 36.3122 76.1629 36.5568 76.5099 36.6421C76.6487 36.6762 76.7755 36.7861 76.9143 36.8202C77.9194 37.3036 78.3213 37.9539 78.2111 39.1087C78.1608 39.8843 78.0291 40.7187 77.9668 41.5702C77.9309 41.7977 77.9069 41.9494 77.871 42.177C77.8925 42.4974 77.9715 42.9108 78.2371 43.0549C78.5027 43.1989 78.7014 42.8538 78.8641 42.7362C79.3643 42.3075 79.9099 42.0476 80.4675 41.7118C81.0251 41.3761 81.5923 41.4366 81.9943 42.0869C82.7527 43.2188 83.4059 44.5613 83.8509 45.8525C84.0567 46.3759 83.7766 46.7798 83.4966 47.1838C82.5297 48.2857 81.5748 49.3118 80.4931 50.228C79.5621 51.1024 78.7005 51.9938 77.7815 52.7923C77.444 53.1034 77.3148 53.4656 77.3243 53.8619C77.0321 56.6268 76.6705 59.3745 76.1701 62.0882C76.0504 62.8468 75.7918 63.5712 75.2103 64.0586C75.0475 64.1763 74.9422 64.3868 74.9063 64.6143C74.5975 66.1143 74.1618 67.5044 73.853 69.0044C73.5202 70.6562 73.0486 72.2738 72.6344 73.9843C72.4333 74.8016 72.3016 75.636 72.1699 76.4704C72.134 76.698 72.1101 76.8497 72.2943 77.0525C72.8471 77.6611 72.9355 78.4708 72.665 79.2711C72.3945 80.0714 72.1241 80.8717 71.8655 81.5961C71.5137 82.4552 71.2696 82.6316 70.4248 82.5028C69.4293 82.4158 68.4123 82.0084 67.4647 81.6179C65.4307 80.803 63.4541 80.081 61.4081 79.3419C59.5009 78.6369 57.5937 77.9319 55.6985 77.151C55.0165 76.9047 54.2532 76.7171 53.5951 76.3191C52.8677 75.9039 52.6954 75.6252 52.8151 74.8667C52.9827 73.8047 53.1503 72.7428 53.3874 71.6979C53.4951 71.0152 53.902 70.7212 54.4811 70.7059C54.7706 70.6982 54.9334 70.5806 55.0507 70.2943C56.2475 67.2789 57.7673 64.5005 58.8828 61.544C59.1532 60.7437 59.4237 59.9434 59.498 59.0161C59.6082 57.8613 60.0414 56.9434 60.4866 55.9497C60.9677 54.7284 61.5063 53.6 61.8606 52.2687C62.0258 51.6789 62.1096 51.1479 62.0546 50.5829C61.9207 49.6044 62.0643 48.6942 62.4162 47.8351C62.6747 47.1107 62.8638 46.3692 62.706 45.5424C62.5696 45.0362 62.7228 44.5222 62.9334 44.1012C63.18 43.4526 63.4385 42.7282 63.8238 42.1137C64.7573 40.7672 65.0661 39.2671 65.1213 37.5472C65.1118 37.1509 65.1597 36.8475 65.2195 36.4682C65.3153 35.8614 65.2603 35.2963 64.9158 34.7389C64.3415 33.8098 64.3464 32.8655 64.6408 31.9135C64.9353 30.9615 65.4259 30.1365 65.986 29.3286C66.1846 28.9834 66.3019 28.6971 66.3618 28.3178C66.5917 26.4044 66.7642 24.3981 67.5493 22.6211C68.3344 20.8441 68.5763 18.8549 68.8181 16.8657C68.9019 16.3347 68.9858 15.8037 69.0576 15.3486C69.2587 14.5313 69.309 13.7557 69.0004 12.9707C68.8066 12.3715 68.9144 11.6888 69.2757 11.226C69.5438 10.8979 69.5917 10.5945 69.5128 10.1812C69.3358 8.56177 69.6327 7.13761 70.6116 5.95981C71.241 5.16892 71.9518 4.31923 72.6507 3.54539C73.2562 2.90622 73.7419 3.02558 74.0147 4.03813C74.3209 5.29529 74.5696 6.45955 74.5863 7.72436C74.6029 8.98917 74.2151 10.0758 73.7579 11.1454C73.5593 11.4906 73.43 11.8528 73.497 12.342C73.6094 13 73.3054 13.5557 73.0134 14.0355C72.5228 14.8605 72.3097 15.7537 72.0847 16.7227C71.5987 18.8884 71.3903 21.1222 71.1125 23.339C70.9927 24.0976 70.9424 24.8731 70.7533 25.6146C70.7484 26.559 71.081 27.1923 71.8659 27.7003ZM59.2317 65.7271C59.9736 65.5942 60.4953 65.486 61.0744 65.4707C61.4453 65.4043 61.7349 65.3966 61.6799 64.8315C61.6704 64.4352 61.9959 64.2 62.2974 64.1165C62.5989 64.033 62.9005 63.9495 63.202 63.866C64.5469 63.5661 65.9612 63.2832 67.3181 62.9075C67.1388 61.7603 67.3135 61.5668 68.2181 61.3163C68.3688 61.2745 68.4382 61.2916 68.589 61.2498C70.6064 60.8 72.6477 60.1984 74.7105 59.9173C75.0815 59.8509 75.2442 59.7332 75.3041 59.354C75.4238 58.5954 75.6009 57.9298 75.6513 57.1542C75.8477 54.9962 76.0441 52.8382 76.2286 50.7561C76.437 48.5222 76.6574 46.2125 76.727 43.9446C76.7629 43.717 76.8682 43.5065 76.5332 43.3454C76.3346 43.6905 76.1359 44.0357 75.9372 44.3809C74.9559 46.0308 73.9746 47.6808 72.8785 49.145C71.0715 51.4588 69.2645 53.7727 67.2853 55.8078C65.4688 57.7254 63.5709 59.7017 61.3405 61.0447C61.2591 61.1036 61.1777 61.1624 61.0844 61.297C60.6487 62.6871 59.9235 64.0848 59.2317 65.7271ZM61.5728 58.6592C61.9198 58.7445 62.0131 58.6098 62.1759 58.4922C63.2337 57.7278 64.1527 56.9292 65.0262 55.9619C66.6561 54.3137 68.0897 52.5385 69.5927 50.7803C72.2373 47.7267 74.5014 44.3433 76.4999 40.8158C76.8039 40.2601 76.8997 39.6533 76.938 38.9535C76.9764 38.2538 76.919 38.1609 76.2824 38.0833C76.0049 38.0151 75.8541 38.0568 75.6674 38.3261C75.4687 38.6713 75.2821 38.9406 75.014 39.2687C71.6681 43.5683 68.138 47.6651 64.2968 51.449C64.1221 51.6424 64.0048 51.9288 63.8995 52.1393C63.7558 53.0495 63.4039 53.9086 63.0521 54.7677C62.6284 56.0819 62.1473 57.3032 61.5728 58.6592ZM71.7079 78.4844C69.2001 77.4742 66.8191 76.574 64.3687 75.6568C62.4615 74.9518 60.6357 74.188 58.7285 73.483C57.7115 73.0755 56.7519 72.7609 55.7229 72.4293C55.3185 72.2512 55.0864 72.3517 55.0145 72.8068C54.9187 73.4137 54.811 74.0963 54.6458 74.6861C54.574 75.1412 54.7008 75.2512 55.0358 75.4123C57.1512 76.1685 59.312 77.0934 61.4394 77.7736C64.0405 78.6491 66.6178 79.6764 69.2309 80.476C69.6473 80.5783 70.1211 80.7735 70.5255 80.9517C70.7911 81.0957 70.9538 80.9781 71.0711 80.6918C71.2602 79.9503 71.5188 79.2258 71.7079 78.4844ZM66.5161 41.0417C68.5838 39.8163 70.3979 38.3709 72.2933 36.8668C71.451 36.2658 71.5133 35.4144 71.645 34.58C71.7049 34.2007 71.8342 33.8385 71.3723 33.5674C70.4032 32.8566 70.2119 31.7852 70.5303 30.6815C70.5901 30.3022 70.7314 29.8642 70.7912 29.4849C70.9444 28.971 70.7027 28.6752 70.3917 28.3624C70.0806 28.0496 69.8819 28.3948 69.7192 28.5124C68.2905 29.3432 67.2303 30.5799 66.4117 32.1122C66.0144 32.8026 65.976 33.5023 66.4354 34.2455C66.8948 34.9888 66.9713 35.8743 66.8396 36.7087C66.7917 37.0121 66.8132 37.3326 66.7534 37.7118C66.7365 38.732 66.7771 39.8451 66.5161 41.0417ZM69.0125 62.2206C69.5628 63.3014 69.4335 63.6636 68.5744 64.0829C68.4236 64.1246 68.2728 64.1664 68.0407 64.2669C67.519 64.3751 66.9853 64.5592 66.3942 64.6503C65.9539 64.6997 65.7098 64.8762 65.626 65.4071C65.401 66.3762 65.0252 67.387 64.8001 68.356C64.3285 69.9736 63.9264 71.6083 63.5361 73.1671C63.4882 73.4706 63.371 73.7569 63.7873 73.8592C64.6081 74.1397 65.4289 74.4201 66.2377 74.7765C66.5727 74.9376 66.8169 74.7612 66.8767 74.3819C67.8797 70.7674 69.0096 67.2628 69.8738 63.6142C70.027 63.1003 70.319 62.6205 70.2066 61.9625C69.8931 62.1218 69.5222 62.1883 69.0125 62.2206ZM63.9117 49.7784C67.8797 46.1045 71.1322 41.9395 74.593 37.8258C74.246 37.7405 73.9684 37.6723 73.7602 37.6212C73.4946 37.4771 73.2625 37.5776 73.0184 37.7541C72.0515 38.856 70.9243 39.6034 69.7731 40.5025C68.3898 41.5021 67.064 42.5947 65.5084 43.3156C64.812 43.6173 64.2495 44.8974 64.4768 45.7411C64.6586 46.4162 64.5748 46.9472 64.4096 47.5369C64.3019 48.2196 63.9859 48.8511 63.9117 49.7784ZM74.4735 36.2993C74.6697 36.4263 74.8779 36.4775 75.0861 36.5286C75.3637 36.5968 75.5264 36.4792 75.5743 36.1758C75.6605 35.1726 76.0818 34.3306 76.4336 33.4715C76.5749 33.0334 76.5534 32.713 76.3356 32.2655C75.4767 30.3998 73.6724 29.9564 72.2006 30.1464C72.0499 30.1881 71.9805 30.1711 71.9565 30.3228C71.6526 30.8785 71.796 32.2532 72.3727 32.7101C73.1456 33.294 73.1072 33.9937 73.0569 34.7693C73.009 35.0727 72.8104 35.4179 72.9827 35.6966C73.1549 35.9753 73.5833 36.0018 73.8489 36.1458C74.0571 36.197 74.2653 36.2481 74.4735 36.2993ZM77.7458 50.7349C77.9659 50.7102 78.0353 50.7272 78.0473 50.6514C79.6173 49.3824 81.0844 47.8518 82.4701 46.38C82.7262 46.1277 82.6927 45.8831 82.5204 45.6044C82.1304 44.8782 81.659 44.2108 81.269 43.4847C81.0393 43.113 80.8311 43.0619 80.5631 43.39C79.9576 44.0292 79.2492 44.4067 78.5289 44.8601C78.2154 45.0194 78.1101 45.2299 78.1196 45.6263C78.1291 46.0226 78.0573 46.4777 78.0668 46.874C77.9447 48.1047 77.8225 49.3354 77.7458 50.7349ZM68.0227 27.3864C68.0801 27.4793 68.1495 27.4963 68.2069 27.5892C68.6137 27.2952 68.9632 26.9083 69.4274 26.7072C69.7409 26.5478 69.8582 26.2615 69.9875 25.8992C70.1527 25.3095 70.0977 24.7444 70.1935 24.1376C70.3994 22.3759 70.8136 20.6653 70.9621 18.8108C71.1202 17.3525 71.2209 15.8013 71.7259 14.4283C71.9605 13.8556 72.1831 13.3587 72.4177 12.786C71.9678 12.4391 71.5395 12.4126 71.1231 12.3103C70.4985 12.1568 70.3238 12.3503 70.5176 12.9495C70.7688 13.6416 70.7304 14.3413 70.5413 15.0828C70.4695 15.5379 70.3282 15.976 70.3258 16.4481C70.0671 19.4576 69.2651 22.2548 68.3938 25.0349C68.1353 25.7593 67.9342 26.5767 68.0227 27.3864ZM64.3194 65.0073C63.7164 65.1743 63.1038 64.945 63.1803 65.8305C63.1898 66.2269 62.7949 66.445 62.4934 66.5285C61.6008 66.7032 61.146 67.3006 61.0718 68.2279C61.0598 68.3038 61.0478 68.3796 60.9784 68.3625C60.66 69.4662 60.2723 70.5529 59.9539 71.6566C59.7767 72.3222 59.8342 72.4151 60.3893 72.5515C60.7937 72.7297 61.2101 72.832 61.6265 72.9343C62.1817 73.0707 62.2511 73.0878 62.4282 72.4221C62.7825 71.0909 63.1248 69.8355 63.4791 68.5042C63.6468 67.4423 63.9651 66.3386 64.3194 65.0073ZM74.8899 61.0645C74.6697 61.0892 74.519 61.131 74.3802 61.0969C73.8705 61.1292 73.6144 61.3815 73.3798 61.9542C73.0614 63.0579 72.755 64.0858 72.506 65.2065C72.0081 67.448 71.3713 69.6554 70.8039 71.8799C70.531 73.1523 70.1193 74.3907 69.9038 75.756C69.8679 75.9836 69.7626 76.1941 70.0401 76.2623C70.2483 76.3135 70.5259 76.3817 70.6432 76.0953C70.6672 75.9436 70.6791 75.8677 70.7725 75.7331C71.2345 73.7191 71.6966 71.7052 72.228 69.7083C72.6661 67.8461 72.9654 65.9497 73.461 64.1804C73.6022 63.7423 73.7554 63.2284 74.0809 62.9932C74.6624 62.5057 74.897 61.933 74.8899 61.0645ZM72.5016 61.5808C71.8531 61.5791 71.5396 61.7384 71.4318 62.4211C71.0057 64.2075 70.5796 65.9939 70.084 67.7632C69.7417 69.0186 69.3994 70.274 69.057 71.5294C68.7387 72.6331 68.4777 73.8297 68.1593 74.9334C68.0301 75.2956 68.2143 75.4985 68.4799 75.6426C68.8269 75.7278 68.8054 75.4074 68.8294 75.2557C69.0185 74.5142 69.265 73.8656 69.3847 73.1071C70.0024 70.107 70.9671 67.1922 71.793 64.2433C72.0061 63.3502 72.2766 62.5499 72.5016 61.5808ZM73.2105 5.02248C72.5811 5.81336 72.1143 6.48663 71.7051 7.25281C71.2599 8.24656 71.1042 9.23266 71.1448 10.3458C71.1902 10.5145 71.0849 10.725 71.2812 10.852C71.8578 11.3089 72.5877 11.2519 72.8462 10.5274C73.7462 8.93625 73.744 7.12343 73.2105 5.02248ZM60.1505 67.2136C59.7222 67.1871 59.4087 67.3465 59.1191 67.3541C58.54 67.3694 58.26 67.7734 58.0374 68.2703C57.7789 68.9947 57.3815 69.685 57.0536 70.3924C56.6204 71.3103 56.6204 71.3103 57.592 71.549C57.8001 71.6002 58.0777 71.6684 58.2859 71.7195C58.5635 71.7877 58.6569 71.6531 58.7622 71.4426C59.2553 70.1454 59.6909 68.7554 60.1505 67.2136ZM72.4162 28.781C72.4855 28.7981 72.4736 28.8739 72.543 28.891C72.7631 28.8663 73.0407 28.9345 73.2609 28.9098C74.9863 28.9397 76.3837 29.6771 77.2427 31.5428C77.3001 31.6357 77.2881 31.7116 77.3455 31.8045C77.391 31.9733 77.5178 32.0832 77.6686 32.0415C77.8193 31.9997 77.7739 31.8309 77.7284 31.6622C77.6615 31.173 77.281 30.8431 77.0513 30.4715C76.0631 28.968 73.9478 28.2118 72.4162 28.781ZM76.8529 28.5316C77.5205 29.326 77.5085 29.4019 77.834 29.1667C78.3342 28.738 78.8224 28.3852 79.2317 27.619C78.339 27.7937 77.6761 28.3399 76.8529 28.5316ZM75.9869 25.7974C75.7762 26.2184 75.5896 26.4877 75.4723 26.7741C74.9696 27.6749 74.9696 27.6749 75.8718 27.8966C75.9412 27.9137 75.9532 27.8378 76.0345 27.779C75.9102 27.1969 76.2261 26.5653 75.9869 25.7974ZM73.8258 27.1575C73.5267 26.7688 73.3784 26.3384 72.986 26.0844C72.8877 27.1634 72.8758 27.2393 73.8258 27.1575ZM79.6285 31.4987C79.3629 31.3546 79.1093 31.1347 78.7958 31.2941C78.7958 31.2941 78.7599 31.5216 78.8293 31.5387C79.1284 31.9274 79.4084 31.5234 79.6285 31.4987Z" fill="#282727"/>
</svg>
