<svg width="132" height="46" viewBox="0 0 132 46" fill="none" xmlns="http://www.w3.org/2000/svg">
<rect x="1.02539" y="7.85938" width="123.526" height="29" fill="white"/>
<rect x="1.02539" y="7.85938" width="123.526" height="29" stroke="#282727"/>
<g clip-path="url(#clip0_2302_22363)">
<path d="M8.52539 11.3594H39.1921V33.3594H8.52539V11.3594Z" fill="#00008B"/>
<path d="M10.2554 11.3594L15.8839 15.5073L21.4893 11.3594H23.2885V12.7802L17.7524 16.8823L23.2885 20.9615V22.3594H21.4432L15.907 18.2573L10.3939 22.3594H8.52539V20.9844L14.0385 16.9052L8.52539 12.826V11.3594H10.2554Z" fill="white"/>
<path d="M18.306 17.799L23.2885 21.4427V22.3594L17.0373 17.799H18.306ZM14.0616 18.2573L14.2 19.0594L9.77103 22.3594H8.52539L14.0616 18.2573ZM23.2885 11.3594V11.4281L17.5448 15.7365L17.5909 14.7281L22.1352 11.3594H23.2885ZM8.52539 11.3594L14.0385 15.3927H12.6545L8.52539 12.3219V11.3594Z" fill="#FF0000"/>
<path d="M14.0846 11.3594V22.3594H17.7754V11.3594H14.0846ZM8.52539 15.026V18.6927H23.2885V15.026H8.52539Z" fill="white"/>
<path d="M8.52539 15.7823V17.9823H23.2885V15.7823H8.52539ZM14.8228 11.3594V22.3594H17.0373V11.3594H14.8228Z" fill="#FF0000"/>
<path d="M32.8388 29.5415L31.893 29.6606L31.9945 30.6002L31.3117 29.9402L30.6335 30.6048L30.7258 29.6652L29.78 29.5552L30.5782 29.0419L30.0753 28.2398L30.9796 28.5377L31.2979 27.644L31.6254 28.5331L32.5251 28.226L32.0314 29.0327L32.8342 29.5415H32.8388ZM32.6681 24.1698L32.7927 23.574L32.3405 23.1615L32.9495 23.0927L33.2033 22.5381L33.457 23.0927L34.066 23.1615L33.6139 23.574L33.7384 24.1698L33.2033 23.8673L32.6681 24.1698ZM27.8655 21.4198L26.9289 21.5206L27.012 22.4511L26.3476 21.7865L25.6648 22.4327L25.7755 21.5023L24.8436 21.3786L25.6417 20.8836L25.1573 20.0815L26.0477 20.3931L26.3799 19.5177L26.689 20.4023L27.584 20.1136L27.0812 20.9065L27.8701 21.4198H27.8655ZM37.2677 19.9165L36.3035 20.0402L36.4096 20.9981L35.713 20.3244L35.021 21.0027L35.1179 20.0402L34.1536 19.9302L34.9702 19.4031L34.4581 18.5827L35.3808 18.8898L35.7038 17.9823L36.0359 18.8898L36.954 18.5736L36.4465 19.3986L37.2677 19.9165ZM32.8342 16.0894L31.8792 16.1948L31.9668 17.1481L31.2887 16.4698L30.592 17.1298L30.7027 16.1811L29.7478 16.0527L30.5643 15.5486L30.0707 14.7281L30.9796 15.0444L31.3163 14.1506L31.6301 15.0536L32.5435 14.7556L32.0314 15.5623L32.8342 16.0894ZM19.3213 29.0373L17.2083 29.2848L17.4205 31.3885L15.9073 29.9036L14.3848 31.3794L14.6109 29.2756L12.4979 29.0098L14.2926 27.8731L13.1853 26.0673L15.1968 26.7548L15.9257 24.7656L16.6408 26.7594L18.6569 26.0856L17.5359 27.8823L19.3259 29.0327L19.3213 29.0373Z" fill="white"/>
</g>
<g filter="url(#filter0_d_2302_22363)">
<path d="M54.4488 24.4994L52.6668 19.7654C52.5228 19.3994 52.3758 18.9344 52.2258 18.3704C52.1598 18.6524 52.0878 18.9134 52.0098 19.1534C51.9318 19.3874 51.8598 19.5944 51.7938 19.7744L50.0118 24.4994H54.4488ZM58.4358 29.3594H56.8068C56.6208 29.3594 56.4708 29.3144 56.3568 29.2244C56.2428 29.1284 56.1558 29.0114 56.0958 28.8734L55.0158 26.0114H49.4358L48.3558 28.8734C48.3078 28.9934 48.2238 29.1044 48.1038 29.2064C47.9838 29.3084 47.8338 29.3594 47.6538 29.3594H46.0248L51.1638 16.3994H53.2968L58.4358 29.3594ZM67.1172 20.1794V29.3594H65.9472C65.6892 29.3594 65.5242 29.2364 65.4522 28.9904L65.3082 28.1354C65.1162 28.3394 64.9122 28.5254 64.6962 28.6934C64.4862 28.8614 64.2612 29.0054 64.0212 29.1254C63.7812 29.2454 63.5232 29.3384 63.2472 29.4044C62.9772 29.4704 62.6862 29.5034 62.3742 29.5034C61.8702 29.5034 61.4262 29.4194 61.0422 29.2514C60.6582 29.0834 60.3342 28.8464 60.0702 28.5404C59.8122 28.2344 59.6172 27.8684 59.4852 27.4424C59.3532 27.0104 59.2872 26.5364 59.2872 26.0204V20.1794H61.2222V26.0204C61.2222 26.6384 61.3632 27.1184 61.6452 27.4604C61.9332 27.8024 62.3682 27.9734 62.9502 27.9734C63.3762 27.9734 63.7722 27.8774 64.1382 27.6854C64.5102 27.4874 64.8582 27.2174 65.1822 26.8754V20.1794H67.1172ZM74.9481 21.8444C74.9001 21.9284 74.8461 21.9884 74.7861 22.0244C74.7261 22.0604 74.6511 22.0784 74.5611 22.0784C74.4591 22.0784 74.3481 22.0484 74.2281 21.9884C74.1081 21.9224 73.9671 21.8504 73.8051 21.7724C73.6431 21.6944 73.4511 21.6254 73.2291 21.5654C73.0131 21.4994 72.7581 21.4664 72.4641 21.4664C72.2241 21.4664 72.0051 21.4964 71.8071 21.5564C71.6151 21.6104 71.4501 21.6914 71.3121 21.7994C71.1801 21.9014 71.0781 22.0244 71.0061 22.1684C70.9341 22.3064 70.8981 22.4564 70.8981 22.6184C70.8981 22.8344 70.9641 23.0144 71.0961 23.1584C71.2281 23.3024 71.4021 23.4284 71.6181 23.5364C71.8341 23.6384 72.0801 23.7314 72.3561 23.8154C72.6321 23.8994 72.9141 23.9894 73.2021 24.0854C73.4901 24.1814 73.7721 24.2924 74.0481 24.4184C74.3241 24.5444 74.5701 24.7004 74.7861 24.8864C75.0021 25.0664 75.1761 25.2884 75.3081 25.5524C75.4401 25.8104 75.5061 26.1254 75.5061 26.4974C75.5061 26.9294 75.4281 27.3284 75.2721 27.6944C75.1161 28.0604 74.8881 28.3784 74.5881 28.6484C74.2881 28.9184 73.9131 29.1284 73.4631 29.2784C73.0191 29.4284 72.5091 29.5034 71.9331 29.5034C71.6151 29.5034 71.3061 29.4734 71.0061 29.4134C70.7121 29.3594 70.4301 29.2844 70.1601 29.1884C69.8961 29.0864 69.6471 28.9664 69.4131 28.8284C69.1851 28.6904 68.9811 28.5404 68.8011 28.3784L69.2511 27.6404C69.3051 27.5504 69.3711 27.4814 69.4491 27.4334C69.5331 27.3794 69.6351 27.3524 69.7551 27.3524C69.8811 27.3524 70.0041 27.3944 70.1241 27.4784C70.2501 27.5564 70.3941 27.6434 70.5561 27.7394C70.7241 27.8354 70.9251 27.9254 71.1591 28.0094C71.3931 28.0874 71.6841 28.1264 72.0321 28.1264C72.3201 28.1264 72.5691 28.0934 72.7791 28.0274C72.9891 27.9554 73.1631 27.8594 73.3011 27.7394C73.4391 27.6194 73.5411 27.4844 73.6071 27.3344C73.6731 27.1784 73.7061 27.0134 73.7061 26.8394C73.7061 26.6054 73.6401 26.4134 73.5081 26.2634C73.3761 26.1134 73.1991 25.9844 72.9771 25.8764C72.7611 25.7684 72.5121 25.6724 72.2301 25.5884C71.9541 25.5044 71.6721 25.4144 71.3841 25.3184C71.0961 25.2224 70.8111 25.1114 70.5291 24.9854C70.2531 24.8594 70.0041 24.7004 69.7821 24.5084C69.5661 24.3104 69.3921 24.0734 69.2601 23.7974C69.1281 23.5154 69.0621 23.1734 69.0621 22.7714C69.0621 22.4054 69.1341 22.0574 69.2781 21.7274C69.4281 21.3974 69.6441 21.1064 69.9261 20.8544C70.2141 20.6024 70.5651 20.4044 70.9791 20.2604C71.3991 20.1104 71.8821 20.0354 72.4281 20.0354C73.0461 20.0354 73.6071 20.1344 74.1111 20.3324C74.6151 20.5304 75.0381 20.8004 75.3801 21.1424L74.9481 21.8444ZM80.2675 29.5034C79.5055 29.5034 78.9175 29.2904 78.5035 28.8644C78.0955 28.4324 77.8915 27.8264 77.8915 27.0464V21.7004H76.8835C76.7755 21.7004 76.6825 21.6674 76.6045 21.6014C76.5265 21.5294 76.4875 21.4244 76.4875 21.2864V20.5034L77.9725 20.2874L78.3955 17.6324C78.4255 17.5304 78.4765 17.4494 78.5485 17.3894C78.6205 17.3234 78.7165 17.2904 78.8365 17.2904H79.8265V20.3054H82.3735V21.7004H79.8265V26.9114C79.8265 27.2414 79.9075 27.4934 80.0695 27.6674C80.2315 27.8414 80.4475 27.9284 80.7175 27.9284C80.8675 27.9284 80.9965 27.9104 81.1045 27.8744C81.2125 27.8324 81.3055 27.7904 81.3835 27.7484C81.4615 27.7004 81.5275 27.6584 81.5815 27.6224C81.6415 27.5804 81.6985 27.5594 81.7525 27.5594C81.8605 27.5594 81.9475 27.6194 82.0135 27.7394L82.5895 28.6844C82.2895 28.9484 81.9355 29.1524 81.5275 29.2964C81.1195 29.4344 80.6995 29.5034 80.2675 29.5034ZM85.7257 21.8804C86.0137 21.2984 86.3617 20.8424 86.7697 20.5124C87.1777 20.1764 87.6667 20.0084 88.2367 20.0084C88.4347 20.0084 88.6207 20.0324 88.7947 20.0804C88.9687 20.1224 89.1247 20.1884 89.2627 20.2784L89.1277 21.7364C89.1037 21.8384 89.0647 21.9104 89.0107 21.9524C88.9627 21.9884 88.8967 22.0064 88.8127 22.0064C88.7227 22.0064 88.5937 21.9914 88.4257 21.9614C88.2577 21.9254 88.0807 21.9074 87.8947 21.9074C87.6247 21.9074 87.3847 21.9464 87.1747 22.0244C86.9707 22.1024 86.7847 22.2164 86.6167 22.3664C86.4547 22.5164 86.3107 22.6994 86.1847 22.9154C86.0587 23.1314 85.9417 23.3774 85.8337 23.6534V29.3594H83.8987V20.1794H85.0237C85.2277 20.1794 85.3687 20.2184 85.4467 20.2964C85.5247 20.3684 85.5787 20.4974 85.6087 20.6834L85.7257 21.8804ZM95.3076 25.3454C94.6176 25.3694 94.0356 25.4264 93.5616 25.5164C93.0876 25.6004 92.7036 25.7114 92.4096 25.8494C92.1156 25.9814 91.9026 26.1404 91.7706 26.3264C91.6446 26.5124 91.5816 26.7164 91.5816 26.9384C91.5816 27.1544 91.6146 27.3404 91.6806 27.4964C91.7526 27.6464 91.8486 27.7724 91.9686 27.8744C92.0946 27.9704 92.2386 28.0424 92.4006 28.0904C92.5686 28.1324 92.7516 28.1534 92.9496 28.1534C93.4536 28.1534 93.8856 28.0604 94.2456 27.8744C94.6116 27.6824 94.9656 27.4064 95.3076 27.0464V25.3454ZM90.1776 21.4574C91.2156 20.4914 92.4516 20.0084 93.8856 20.0084C94.4136 20.0084 94.8816 20.0954 95.2896 20.2694C95.7036 20.4374 96.0486 20.6774 96.3246 20.9894C96.6066 21.3014 96.8196 21.6734 96.9636 22.1054C97.1136 22.5314 97.1886 23.0054 97.1886 23.5274V29.3594H96.3246C96.1386 29.3594 95.9976 29.3324 95.9016 29.2784C95.8056 29.2184 95.7246 29.1014 95.6586 28.9274L95.4696 28.1804C95.2356 28.3904 95.0046 28.5794 94.7766 28.7474C94.5486 28.9094 94.3116 29.0474 94.0656 29.1614C93.8256 29.2754 93.5646 29.3594 93.2826 29.4134C93.0066 29.4734 92.7006 29.5034 92.3646 29.5034C91.9926 29.5034 91.6446 29.4524 91.3206 29.3504C91.0026 29.2484 90.7266 29.0954 90.4926 28.8914C90.2586 28.6814 90.0726 28.4234 89.9346 28.1174C89.8026 27.8114 89.7366 27.4514 89.7366 27.0374C89.7366 26.6834 89.8296 26.3384 90.0156 26.0024C90.2076 25.6664 90.5196 25.3664 90.9516 25.1024C91.3896 24.8324 91.9626 24.6104 92.6706 24.4364C93.3846 24.2624 94.2636 24.1634 95.3076 24.1394V23.5274C95.3076 22.8674 95.1666 22.3754 94.8846 22.0514C94.6026 21.7274 94.1886 21.5654 93.6426 21.5654C93.2706 21.5654 92.9586 21.6134 92.7066 21.7094C92.4546 21.7994 92.2356 21.8984 92.0496 22.0064C91.8636 22.1144 91.6986 22.2164 91.5546 22.3124C91.4106 22.4024 91.2576 22.4474 91.0956 22.4474C90.9636 22.4474 90.8496 22.4144 90.7536 22.3484C90.6636 22.2764 90.5886 22.1894 90.5286 22.0874L90.1776 21.4574ZM101.426 16.0394V29.3594H99.4914V16.0394H101.426ZM105.831 20.1794V29.3594H103.896V20.1794H105.831ZM106.155 17.4074C106.155 17.5814 106.119 17.7464 106.047 17.9024C105.981 18.0584 105.888 18.1964 105.768 18.3164C105.648 18.4304 105.507 18.5234 105.345 18.5954C105.189 18.6614 105.021 18.6944 104.841 18.6944C104.667 18.6944 104.502 18.6614 104.346 18.5954C104.196 18.5234 104.064 18.4304 103.95 18.3164C103.836 18.1964 103.743 18.0584 103.671 17.9024C103.605 17.7464 103.572 17.5814 103.572 17.4074C103.572 17.2274 103.605 17.0594 103.671 16.9034C103.743 16.7474 103.836 16.6124 103.95 16.4984C104.064 16.3784 104.196 16.2854 104.346 16.2194C104.502 16.1474 104.667 16.1114 104.841 16.1114C105.021 16.1114 105.189 16.1474 105.345 16.2194C105.507 16.2854 105.648 16.3784 105.768 16.4984C105.888 16.6124 105.981 16.7474 106.047 16.9034C106.119 17.0594 106.155 17.2274 106.155 17.4074ZM113.167 25.3454C112.477 25.3694 111.895 25.4264 111.421 25.5164C110.947 25.6004 110.563 25.7114 110.269 25.8494C109.975 25.9814 109.762 26.1404 109.63 26.3264C109.504 26.5124 109.441 26.7164 109.441 26.9384C109.441 27.1544 109.474 27.3404 109.54 27.4964C109.612 27.6464 109.708 27.7724 109.828 27.8744C109.954 27.9704 110.098 28.0424 110.26 28.0904C110.428 28.1324 110.611 28.1534 110.809 28.1534C111.313 28.1534 111.745 28.0604 112.105 27.8744C112.471 27.6824 112.825 27.4064 113.167 27.0464V25.3454ZM108.037 21.4574C109.075 20.4914 110.311 20.0084 111.745 20.0084C112.273 20.0084 112.741 20.0954 113.149 20.2694C113.563 20.4374 113.908 20.6774 114.184 20.9894C114.466 21.3014 114.679 21.6734 114.823 22.1054C114.973 22.5314 115.048 23.0054 115.048 23.5274V29.3594H114.184C113.998 29.3594 113.857 29.3324 113.761 29.2784C113.665 29.2184 113.584 29.1014 113.518 28.9274L113.329 28.1804C113.095 28.3904 112.864 28.5794 112.636 28.7474C112.408 28.9094 112.171 29.0474 111.925 29.1614C111.685 29.2754 111.424 29.3594 111.142 29.4134C110.866 29.4734 110.56 29.5034 110.224 29.5034C109.852 29.5034 109.504 29.4524 109.18 29.3504C108.862 29.2484 108.586 29.0954 108.352 28.8914C108.118 28.6814 107.932 28.4234 107.794 28.1174C107.662 27.8114 107.596 27.4514 107.596 27.0374C107.596 26.6834 107.689 26.3384 107.875 26.0024C108.067 25.6664 108.379 25.3664 108.811 25.1024C109.249 24.8324 109.822 24.6104 110.53 24.4364C111.244 24.2624 112.123 24.1634 113.167 24.1394V23.5274C113.167 22.8674 113.026 22.3754 112.744 22.0514C112.462 21.7274 112.048 21.5654 111.502 21.5654C111.13 21.5654 110.818 21.6134 110.566 21.7094C110.314 21.7994 110.095 21.8984 109.909 22.0064C109.723 22.1144 109.558 22.2164 109.414 22.3124C109.27 22.4024 109.117 22.4474 108.955 22.4474C108.823 22.4474 108.709 22.4144 108.613 22.3484C108.523 22.2764 108.448 22.1894 108.388 22.0874L108.037 21.4574Z" fill="#282727"/>
</g>
<defs>
<filter id="filter0_d_2302_22363" x="30.0248" y="0.0393677" width="101.023" height="45.464" filterUnits="userSpaceOnUse" color-interpolation-filters="sRGB">
<feFlood flood-opacity="0" result="BackgroundImageFix"/>
<feColorMatrix in="SourceAlpha" type="matrix" values="0 0 0 0 0 0 0 0 0 0 0 0 0 0 0 0 0 0 127 0" result="hardAlpha"/>
<feOffset/>
<feGaussianBlur stdDeviation="8"/>
<feComposite in2="hardAlpha" operator="out"/>
<feColorMatrix type="matrix" values="0 0 0 0 0 0 0 0 0 0 0 0 0 0 0 0 0 0 0.08 0"/>
<feBlend mode="normal" in2="BackgroundImageFix" result="effect1_dropShadow_2302_22363"/>
<feBlend mode="normal" in="SourceGraphic" in2="effect1_dropShadow_2302_22363" result="shape"/>
</filter>
<clipPath id="clip0_2302_22363">
<rect width="29.5263" height="22" fill="white" transform="translate(8.52539 11.3594)"/>
</clipPath>
</defs>
</svg>
