<svg width="106" height="47" viewBox="0 0 106 47" fill="none" xmlns="http://www.w3.org/2000/svg">
<rect x="1.2041" y="8.5" width="99" height="29" fill="white"/>
<rect x="1.2041" y="8.5" width="99" height="29" stroke="#282727"/>
<g clip-path="url(#clip0_2302_22361)">
<path fill-rule="evenodd" clip-rule="evenodd" d="M8.7041 12H38.2304V34H8.7041V12Z" fill="#229E45"/>
<path fill-rule="evenodd" clip-rule="evenodd" d="M23.5318 31.9825L37.4414 23.0129L23.4487 14.0158L9.49292 23.0312L23.5318 31.9825Z" fill="#F8E509"/>
<path fill-rule="evenodd" clip-rule="evenodd" d="M29.594 23C29.594 26.2221 26.9597 28.8346 23.7072 28.8346C22.5449 28.8328 21.4093 28.4886 20.4439 27.8457C19.4784 27.2028 18.7265 26.29 18.2832 25.2226C17.8399 24.1552 17.7251 22.9812 17.9533 21.849C18.1815 20.7167 18.7424 19.6772 19.5653 18.8616C20.3881 18.0461 21.4358 17.4913 22.576 17.2672C23.7162 17.0432 24.8977 17.16 25.971 17.6029C27.0444 18.0458 27.9615 18.795 28.6064 19.7556C29.2512 20.7163 29.5949 21.8453 29.594 23Z" fill="#2B49A3"/>
<path fill-rule="evenodd" clip-rule="evenodd" d="M21.7744 26.4979L21.5898 26.3925L21.4053 26.4842L21.4468 26.2779L21.2992 26.1221L21.5068 26.0992L21.6083 25.9159L21.696 26.1084L21.8989 26.145L21.7467 26.2825M25.7143 27.4879L25.5344 27.3825L25.3498 27.4742L25.3867 27.2679L25.2437 27.1167L25.4513 27.0938L25.5482 26.9059L25.6405 27.0984L25.8435 27.135L25.6866 27.2771M24.0165 25.9021L23.8597 25.8104L23.6982 25.8929L23.7351 25.7142L23.6059 25.5813L23.7905 25.5629L23.8735 25.3979L23.9473 25.5675L24.1273 25.5996L23.9889 25.7234M28.0026 25.3338L27.8457 25.2421L27.6843 25.3246L27.7212 25.1459L27.5966 25.0175L27.7765 24.9992L27.8596 24.8388L27.9334 25.0038L28.1087 25.0359L27.9749 25.155M23.9473 24.1467L23.7628 24.0459L23.5783 24.1375L23.6152 23.9267L23.4721 23.7754L23.6798 23.7525L23.7766 23.5646L23.8689 23.7571L24.0719 23.7938L23.915 23.9404M19.0893 22.3363L18.9048 22.2354L18.7203 22.3271L18.7664 22.1163L18.6141 21.965L18.8264 21.9421L18.9186 21.7542L19.0109 21.9467L19.2139 21.9834L19.0617 22.1254M19.6752 24.7471L19.4907 24.6417L19.3062 24.7334L19.3477 24.5271L19.2001 24.3759L19.4077 24.3484L19.5045 24.165L19.5968 24.3575L19.7998 24.3942L19.6476 24.5363M25.7374 21.4517L25.5713 21.36L25.4052 21.4425L25.4421 21.2592L25.3129 21.1217L25.4975 21.0988L25.5851 20.9338L25.6636 21.1079L25.8481 21.14L25.7097 21.2638M25.4006 23.0192L25.276 22.9459L25.1422 23.01L25.1699 22.8634L25.0684 22.7579L25.216 22.7396L25.2852 22.6113L25.3452 22.7488L25.4836 22.7717L25.3821 22.8725M18.8217 25.1825L18.6972 25.1138L18.5726 25.1734L18.6003 25.0359L18.5034 24.935L18.6418 24.9167L18.7064 24.7929L18.7664 24.9213L18.9048 24.9488L18.7987 25.0404M28.0349 25.7417L27.9334 25.6913L27.8319 25.7371L27.855 25.6317L27.7765 25.5584L27.8873 25.5446L27.9426 25.4529L27.9887 25.5446L28.1041 25.5675L28.0164 25.6363" fill="#FFFFEF"/>
<path fill-rule="evenodd" clip-rule="evenodd" d="M18.8217 25.183L18.6972 25.1143L18.5726 25.1739L18.6003 25.0364L18.5034 24.9355L18.6418 24.9172L18.7064 24.7935L18.7664 24.9218L18.9048 24.9493L18.7987 25.041" fill="#FFFFEF"/>
<path fill-rule="evenodd" clip-rule="evenodd" d="M18.8217 25.1825L18.6972 25.1138L18.5726 25.1734L18.6003 25.0359L18.5034 24.935L18.6418 24.9167L18.7064 24.7929L18.7664 24.9213L18.9048 24.9488L18.7987 25.0404M20.7502 25.1779L20.6302 25.1138L20.5057 25.1734L20.5334 25.0359L20.4365 24.935L20.5749 24.9167L20.6395 24.7929L20.6994 24.9213L20.8378 24.9442L20.7317 25.0404M20.5103 25.8196L20.3903 25.7509L20.2658 25.815L20.2935 25.6775L20.1966 25.5721L20.335 25.5538L20.3996 25.43L20.4595 25.5584L20.5979 25.5859L20.4918 25.6775M24.524 24.66L24.4041 24.5867L24.2749 24.6509L24.3026 24.5134L24.2103 24.4079L24.3487 24.3942L24.4133 24.2704L24.4687 24.3988L24.6071 24.4217L24.5056 24.5179M23.3476 24.6554L23.223 24.5867L23.0985 24.6509L23.1261 24.5134L23.0339 24.4079L23.1723 24.3942L23.2369 24.2659L23.2922 24.3988L23.4306 24.4217L23.3291 24.5179M20.155 24.2521L20.0766 24.2063L19.9982 24.2429L20.0166 24.1559L19.9567 24.0917L20.0443 24.0825L20.0812 24.0046L20.1181 24.0871L20.2058 24.1009L20.1412 24.1604M27.8826 26.2413L27.7627 26.1725L27.6381 26.2367L27.6658 26.0992L27.5689 25.9938L27.7073 25.9754L27.7719 25.8517L27.8319 25.98L27.9703 26.0075L27.8642 26.0992M26.9046 26.3742L26.8031 26.31L26.697 26.365L26.72 26.2459L26.6416 26.1634L26.7569 26.1496L26.8123 26.0442L26.8584 26.1542L26.9738 26.1725L26.8861 26.255M27.3659 26.3604L27.2737 26.3054L27.1768 26.3513L27.1952 26.2459L27.1214 26.1679L27.2275 26.1542L27.2783 26.0625L27.3244 26.1542L27.4305 26.1771L27.3521 26.2504M28.6946 25.2054L28.6023 25.1596L28.5101 25.2054L28.5331 25.1L28.4593 25.0221L28.5654 25.0084L28.6116 24.9167L28.6577 25.0129L28.7546 25.0313L28.6808 25.1046M26.8907 27.0204L26.7754 26.9563L26.6508 27.0113L26.6785 26.8829L26.5862 26.7913L26.7247 26.7775L26.7846 26.6629L26.84 26.7821L26.9784 26.805L26.8723 26.8921M26.9 27.5429L26.7892 27.4788L26.6785 27.5384L26.7062 27.41L26.6185 27.3184L26.7431 27.3L26.7985 27.1854L26.8492 27.3046L26.9738 27.3275L26.8815 27.4192M26.0049 26.3604L25.9173 26.3054L25.825 26.3513L25.8435 26.2504L25.7743 26.1725L25.8758 26.1634L25.9219 26.0717L25.968 26.1634L26.0695 26.1817L25.9957 26.255M25.1745 26.3604L25.0823 26.3054L24.99 26.3513L25.013 26.2504L24.9392 26.1725L25.0453 26.1634L25.0915 26.0717L25.1376 26.1634L25.2345 26.1817L25.1607 26.255M23.7582 25.1275L23.6659 25.0771L23.5736 25.1229L23.5967 25.0175L23.5229 24.9442L23.6244 24.9304L23.6705 24.8388L23.7167 24.9304L23.8182 24.9534L23.7443 25.0221M23.915 27.6346L23.8412 27.5934L23.7582 27.6346L23.7766 27.5429L23.7167 27.4788L23.8043 27.4696L23.8458 27.3917L23.8827 27.4742L23.9704 27.4879L23.9058 27.5475M21.7744 23.5784L21.5898 23.4729L21.4053 23.5646L21.4468 23.3584L21.2992 23.2071L21.5068 23.1796L21.6083 22.9963L21.696 23.1888L21.8989 23.2254L21.7467 23.3675" fill="#FFFFEF"/>
<path fill-rule="evenodd" clip-rule="evenodd" d="M29.2069 25.0983C29.3212 24.8037 29.4107 24.5001 29.4745 24.1908C26.3465 21.4637 22.8634 20.0658 18.4621 20.3546C18.3025 20.6614 18.1712 20.982 18.0699 21.3125C23.2832 20.8175 27.1124 23.1091 29.2069 25.0983Z" fill="white"/>
<path d="M27.8036 23.5679L27.9097 23.6275C27.8938 23.6586 27.889 23.6941 27.8958 23.7283C27.9067 23.7615 27.9297 23.7894 27.9604 23.8063C27.9927 23.8292 28.025 23.8429 28.0527 23.8383C28.0804 23.8383 28.0988 23.8246 28.1127 23.8063C28.1207 23.7941 28.124 23.7794 28.1219 23.765C28.1181 23.7481 28.1102 23.7323 28.0988 23.7192C28.0896 23.7054 28.0665 23.6733 28.0296 23.6367C27.9917 23.5978 27.9633 23.5507 27.9466 23.4992C27.9351 23.4602 27.9381 23.4183 27.955 23.3813C27.9719 23.3443 28.0017 23.3146 28.0389 23.2975C28.0724 23.2836 28.1095 23.2804 28.145 23.2883C28.1883 23.2983 28.2292 23.317 28.2649 23.3433C28.3295 23.3892 28.371 23.435 28.3849 23.49C28.3913 23.5157 28.3921 23.5425 28.3873 23.5686C28.3825 23.5946 28.3723 23.6194 28.3572 23.6413L28.2465 23.5725C28.2603 23.545 28.2649 23.5175 28.2557 23.4946C28.2511 23.4717 28.2326 23.4488 28.2003 23.4304C28.1766 23.4115 28.1476 23.4003 28.1173 23.3983C28.1089 23.3981 28.1006 23.4001 28.0933 23.4041C28.086 23.4081 28.0799 23.4141 28.0758 23.4213C28.0665 23.435 28.0665 23.4488 28.0712 23.4671C28.0758 23.4854 28.0988 23.5221 28.145 23.5679C28.1911 23.6138 28.2188 23.655 28.2372 23.6825C28.2537 23.7126 28.2612 23.7467 28.2587 23.7808C28.2563 23.8149 28.244 23.8476 28.2234 23.875C28.2018 23.9062 28.1713 23.9301 28.1357 23.9438C28.1012 23.9596 28.0625 23.9644 28.025 23.9575C27.9835 23.9483 27.942 23.93 27.8958 23.8979C27.8266 23.8521 27.7851 23.8017 27.7713 23.7467C27.7563 23.6843 27.7662 23.6186 27.799 23.5633L27.8036 23.5679ZM27.2684 23.2196L27.3837 23.2792C27.3695 23.3108 27.3662 23.3463 27.3745 23.38C27.3863 23.4115 27.4093 23.4376 27.4391 23.4533C27.476 23.4763 27.5037 23.4854 27.5314 23.4808C27.5591 23.4808 27.5775 23.4671 27.5914 23.4442C27.5984 23.4333 27.6016 23.4204 27.6006 23.4075C27.6006 23.3938 27.5914 23.3754 27.5775 23.3617C27.5539 23.3333 27.5293 23.3058 27.5037 23.2792C27.453 23.2288 27.4207 23.1875 27.4114 23.1508C27.4039 23.1273 27.4016 23.1023 27.4048 23.0778C27.408 23.0532 27.4166 23.0297 27.4299 23.0088C27.4474 22.9805 27.4732 22.9581 27.5037 22.9446C27.5354 22.9301 27.5707 22.9253 27.6052 22.9308C27.6479 22.938 27.6887 22.9536 27.7251 22.9767C27.7943 23.0225 27.8359 23.0683 27.8497 23.1188C27.8581 23.1445 27.8608 23.1718 27.8576 23.1987C27.8545 23.2256 27.8455 23.2515 27.8313 23.2746L27.7159 23.2104C27.7298 23.1783 27.7344 23.1554 27.7251 23.1325C27.7159 23.1096 27.6975 23.0867 27.6652 23.0683C27.6396 23.0501 27.6089 23.0405 27.5775 23.0408C27.5699 23.0414 27.5626 23.0437 27.5562 23.0477C27.5497 23.0517 27.5444 23.0572 27.5406 23.0638C27.5314 23.0775 27.5314 23.0913 27.536 23.1096C27.5406 23.1279 27.5683 23.1646 27.6144 23.2104C27.6606 23.2563 27.6929 23.2929 27.7067 23.3204C27.7252 23.3492 27.735 23.3826 27.735 23.4167C27.735 23.4508 27.7252 23.4842 27.7067 23.5129C27.6868 23.5449 27.6579 23.5704 27.6236 23.5863C27.5891 23.6021 27.5504 23.6069 27.5129 23.6C27.4654 23.592 27.42 23.5749 27.3791 23.5496C27.3195 23.518 27.2736 23.4658 27.25 23.4029C27.2321 23.3417 27.2387 23.2761 27.2684 23.2196ZM26.6133 23.0454L26.9501 22.4954L27.3561 22.7475L27.3007 22.8392L27.0054 22.6558L26.9316 22.7796L27.2084 22.9492L27.1485 23.0408L26.8716 22.8713L26.7794 23.0225L27.0885 23.2058L27.0331 23.2975L26.6179 23.0454H26.6133ZM25.6583 22.2663L25.7091 22.1746L25.9582 22.2983L25.8428 22.5275C25.8059 22.5367 25.7598 22.5413 25.7044 22.5367C25.6513 22.5309 25.5997 22.5153 25.5522 22.4908C25.4964 22.4638 25.4486 22.4227 25.4138 22.3717C25.3821 22.3242 25.3659 22.2682 25.3677 22.2113C25.37 22.152 25.3858 22.094 25.4138 22.0417C25.4415 21.9866 25.4828 21.9393 25.5337 21.9042C25.5825 21.8707 25.6405 21.8531 25.6998 21.8538C25.746 21.8538 25.7921 21.8675 25.8475 21.8996C25.9213 21.9317 25.9674 21.9775 25.9905 22.0279C26.0145 22.078 26.0194 22.135 26.0043 22.1883L25.8797 22.1517C25.8874 22.121 25.8841 22.0886 25.8705 22.06C25.8567 22.0325 25.8336 22.0142 25.7967 21.9958C25.7752 21.9836 25.7513 21.9761 25.7267 21.9737C25.702 21.9714 25.6772 21.9742 25.6537 21.9821C25.6076 21.9958 25.566 22.0371 25.5337 22.1013C25.5014 22.1654 25.4876 22.225 25.5014 22.2754C25.5078 22.2993 25.5194 22.3216 25.5353 22.3406C25.5513 22.3596 25.5712 22.3749 25.5937 22.3854C25.6168 22.3992 25.6445 22.4083 25.6721 22.4083C25.6997 22.4125 25.7277 22.4125 25.7552 22.4083L25.7921 22.335L25.6583 22.2663ZM21.4969 21.2442L21.5892 20.6025L21.783 20.6346L21.8337 21.0838L22.0136 20.6713L22.2074 20.6988L22.1151 21.3313L21.9906 21.3129L22.069 20.8133L21.866 21.2946L21.7415 21.2763L21.6907 20.7583L21.6169 21.2625L21.4969 21.2442ZM20.8464 21.1663L20.9064 20.5246L21.3816 20.5704L21.3724 20.6804L21.0264 20.6483L21.0125 20.7858L21.3355 20.8179L21.3216 20.9279L20.9987 20.8958L20.9848 21.07L21.3447 21.1021L21.3355 21.2121L20.8464 21.1663Z" fill="#309E3A"/>
<path d="M18.6925 20.7687C18.6925 20.6999 18.7063 20.6495 18.7248 20.6037C18.741 20.5711 18.7628 20.5416 18.7894 20.5166C18.8131 20.4929 18.8413 20.4742 18.8724 20.4616C18.9186 20.4478 18.9647 20.4387 19.0108 20.4387C19.1077 20.4387 19.1815 20.4753 19.2415 20.5303C19.2701 20.5654 19.2913 20.6057 19.304 20.649C19.3166 20.6923 19.3205 20.7376 19.3153 20.7824C19.3153 20.8832 19.283 20.9657 19.2231 21.0253C19.1922 21.0536 19.1558 21.0752 19.116 21.0886C19.0763 21.102 19.0342 21.107 18.9924 21.1032C18.9511 21.1037 18.9103 21.0957 18.8722 21.08C18.8341 21.0642 18.7997 21.041 18.7709 21.0116C18.7135 20.9441 18.6853 20.8567 18.6925 20.7687Z" fill="#309E3A"/>
<path d="M18.8258 20.769C18.8258 20.8377 18.8396 20.8927 18.8719 20.934C18.9042 20.9706 18.9458 20.9936 19.0011 20.9936C19.0251 20.9952 19.0491 20.9916 19.0714 20.9828C19.0938 20.9741 19.1139 20.9606 19.1303 20.9431C19.1626 20.9065 19.1764 20.8515 19.181 20.7736C19.181 20.7002 19.1718 20.6452 19.1349 20.6086C19.1199 20.5901 19.1009 20.5752 19.0794 20.5649C19.0578 20.5545 19.0343 20.5491 19.0103 20.549C18.9861 20.5482 18.9619 20.5527 18.9396 20.5622C18.9173 20.5717 18.8973 20.586 18.8812 20.604C18.8443 20.6406 18.8304 20.6956 18.8258 20.769Z" fill="#F7FFFF"/>
<path d="M19.454 21.0972L19.4632 20.4555H19.74C19.8092 20.4555 19.8554 20.4647 19.8876 20.4784C19.9199 20.4876 19.943 20.5105 19.9615 20.538C19.9799 20.5655 19.9891 20.6022 19.9891 20.6434C19.9895 20.6875 19.973 20.7301 19.943 20.7626C19.9089 20.7943 19.865 20.8137 19.8184 20.8176L19.8876 20.8726C19.9061 20.8909 19.9292 20.9276 19.9568 20.978L20.0353 21.1063H19.8784L19.7862 20.9597L19.7216 20.868C19.7104 20.8554 19.6961 20.8459 19.68 20.8405C19.6591 20.8344 19.6373 20.8313 19.6155 20.8313H19.5878V21.0972H19.454Z" fill="#309E3A"/>
<path d="M19.5924 20.7305H19.6847C19.7493 20.7305 19.7908 20.7305 19.8046 20.7213C19.8185 20.7213 19.8323 20.7076 19.8415 20.6984C19.8508 20.6892 19.8554 20.6663 19.8554 20.6526C19.8554 20.6251 19.8508 20.6067 19.8369 20.5976C19.8277 20.5838 19.8092 20.5747 19.7908 20.5701H19.6985L19.5924 20.5655V20.7259V20.7305Z" fill="white"/>
<path d="M20.1915 20.4891L20.4314 20.5029C20.4821 20.5029 20.5236 20.5075 20.5513 20.5166C20.5872 20.5296 20.6191 20.5517 20.6436 20.5808C20.6702 20.6128 20.6891 20.6505 20.699 20.6908C20.7128 20.7321 20.7174 20.7825 20.7128 20.8421C20.7128 20.8888 20.705 20.9353 20.6897 20.9796C20.6713 21.0254 20.6436 21.0621 20.6113 21.0896C20.5844 21.1116 20.5529 21.1272 20.519 21.1354C20.4914 21.1446 20.4498 21.1446 20.4037 21.1446L20.1592 21.1308L20.1915 20.4891Z" fill="#309E3A"/>
<path d="M20.3158 20.605L20.2927 21.0312H20.468C20.4911 21.0312 20.5096 21.0221 20.5234 21.0083C20.5372 20.9946 20.5511 20.9762 20.5603 20.9487C20.5695 20.9212 20.5788 20.88 20.5788 20.8296L20.5741 20.715C20.5676 20.6908 20.5549 20.6687 20.5372 20.6508C20.5219 20.6355 20.5028 20.6244 20.4819 20.6187C20.447 20.611 20.4115 20.6064 20.3758 20.605H20.3158Z" fill="white"/>
<path d="M23.3569 21.6337L23.5092 21.0104L23.7122 21.0562L23.8598 21.102C23.8921 21.1204 23.9198 21.1479 23.9336 21.1891C23.9521 21.2258 23.9521 21.267 23.9428 21.3175C23.9336 21.3541 23.9198 21.3862 23.8967 21.4091C23.8798 21.4293 23.8586 21.4454 23.8347 21.4565C23.8108 21.4676 23.7847 21.4733 23.7583 21.4733C23.726 21.4733 23.6799 21.4641 23.6199 21.4504L23.5415 21.4275L23.4861 21.6658L23.3569 21.6337Z" fill="#309E3A"/>
<path d="M23.6064 21.1486L23.5695 21.3228L23.6387 21.3411C23.6848 21.3503 23.7217 21.3595 23.7402 21.3549C23.7581 21.3524 23.7748 21.3445 23.7881 21.3321C23.8013 21.3198 23.8103 21.3038 23.814 21.2861C23.814 21.2632 23.814 21.2449 23.8047 21.2265C23.7946 21.2079 23.7783 21.1933 23.7586 21.1853L23.671 21.1624L23.611 21.1486H23.6064Z" fill="white"/>
<path d="M23.9568 21.8134L24.1736 21.2084L24.4274 21.3C24.4966 21.323 24.5381 21.3459 24.5658 21.3642C24.5888 21.3871 24.6073 21.41 24.6119 21.4467C24.6165 21.4834 24.6211 21.5155 24.6119 21.5521C24.5934 21.598 24.5658 21.63 24.5289 21.653C24.492 21.6713 24.4458 21.6759 24.3905 21.6667C24.4089 21.6896 24.4274 21.7125 24.4366 21.74L24.4735 21.8638L24.5012 22.0059L24.3582 21.9555L24.312 21.7905C24.3036 21.7531 24.2929 21.7164 24.2797 21.6805C24.2736 21.6662 24.2641 21.6536 24.252 21.6438C24.2428 21.63 24.2244 21.6209 24.1921 21.6117L24.169 21.6025L24.0767 21.8592L23.9568 21.8134Z" fill="#309E3A"/>
<path d="M24.2059 21.5072L24.2936 21.5393C24.3535 21.5622 24.3904 21.5714 24.4089 21.5714C24.4227 21.5714 24.4366 21.5714 24.4504 21.5576C24.4643 21.5485 24.4735 21.5347 24.4781 21.5164C24.4873 21.498 24.4873 21.4797 24.4781 21.4614C24.4713 21.4436 24.4582 21.4289 24.4412 21.4201L24.3489 21.388L24.2567 21.356L24.2013 21.5072H24.2059Z" fill="white"/>
<path d="M24.7125 21.7903C24.7284 21.7366 24.7551 21.6867 24.791 21.6436C24.8143 21.616 24.8424 21.5927 24.874 21.5749C24.9026 21.5588 24.9339 21.548 24.9663 21.5428C25.0124 21.5428 25.0586 21.5428 25.1093 21.5611C25.1505 21.5713 25.1891 21.59 25.2225 21.6161C25.2559 21.6421 25.2834 21.675 25.3031 21.7124C25.34 21.7857 25.34 21.8728 25.3123 21.9736C25.2895 22.0602 25.2331 22.1344 25.1554 22.1799C25.0862 22.2211 25.0032 22.2257 24.9155 22.1982C24.8744 22.1878 24.8359 22.169 24.8026 22.1429C24.7692 22.1169 24.7417 22.0842 24.7218 22.047C24.7033 22.0069 24.693 21.9636 24.6914 21.9195C24.6898 21.8755 24.697 21.8316 24.7125 21.7903Z" fill="#309E3A"/>
<path d="M24.8422 21.8281C24.8237 21.8968 24.8191 21.9564 24.8422 22.0022C24.8652 22.0481 24.8975 22.0756 24.9483 22.0939C24.9944 22.1077 25.0405 22.1031 25.0867 22.0756C25.1328 22.0527 25.1605 22.0022 25.1836 21.9289C25.2066 21.8602 25.2066 21.8052 25.1836 21.7593C25.1744 21.7376 25.1606 21.7181 25.1431 21.7023C25.1255 21.6864 25.1047 21.6746 25.0821 21.6677C25.0594 21.6599 25.0352 21.6571 25.0113 21.6594C24.9874 21.6618 24.9644 21.6693 24.9437 21.6814C24.8975 21.7089 24.8652 21.7547 24.8422 21.8281Z" fill="white"/>
<path d="M25.9727 22.6847L26.2679 22.1163L26.5124 22.2401C26.5585 22.2621 26.6006 22.2915 26.637 22.3272C26.6601 22.3501 26.6739 22.3776 26.6739 22.4142C26.6739 22.4509 26.6739 22.483 26.6555 22.5151C26.6377 22.5563 26.6047 22.5891 26.5632 22.6067C26.517 22.6159 26.4709 22.6159 26.4202 22.5976C26.4386 22.6251 26.4478 22.6526 26.4571 22.6755C26.4663 22.703 26.4709 22.7442 26.4755 22.8038L26.4848 22.9505L26.3463 22.8817L26.3279 22.7122C26.3257 22.6737 26.3211 22.6355 26.3141 22.5976C26.3109 22.5804 26.3029 22.5645 26.291 22.5517L26.2356 22.5197L26.2126 22.5059L26.088 22.7442L25.9727 22.6847Z" fill="#309E3A"/>
<path d="M26.2587 22.4141L26.3463 22.46C26.4017 22.4875 26.4386 22.5058 26.4524 22.5058C26.4663 22.5058 26.4847 22.5058 26.4986 22.4966C26.5124 22.492 26.5216 22.4783 26.5309 22.46C26.5401 22.4416 26.5447 22.4233 26.5401 22.405C26.5344 22.3867 26.5231 22.3707 26.5078 22.3591C26.4808 22.3427 26.4531 22.3274 26.4248 22.3133L26.3325 22.2675L26.2587 22.4141Z" fill="white"/>
<path d="M28.3617 23.8567C28.3916 23.8096 28.4308 23.7691 28.4771 23.7376C28.5081 23.7178 28.5425 23.7039 28.5786 23.6963C28.612 23.6895 28.6466 23.6895 28.6801 23.6963C28.7262 23.7055 28.7677 23.7238 28.8092 23.7513C28.8451 23.7735 28.876 23.8029 28.8998 23.8377C28.9236 23.8724 28.9399 23.9117 28.9476 23.953C28.9615 24.0309 28.9384 24.118 28.883 24.2051C28.8367 24.2808 28.7621 24.3352 28.6754 24.3563C28.6341 24.3652 28.5914 24.3653 28.5501 24.3566C28.5087 24.3479 28.4697 24.3306 28.4355 24.3059C28.3996 24.2837 28.3688 24.2543 28.345 24.2195C28.3211 24.1848 28.3048 24.1456 28.2971 24.1042C28.2833 24.0217 28.3064 23.9392 28.3617 23.8567Z" fill="#309E3A"/>
<path d="M28.4774 23.93C28.4313 23.9896 28.4174 24.0446 28.4266 24.095C28.43 24.1182 28.4384 24.1404 28.4511 24.1602C28.4638 24.18 28.4807 24.1968 28.5005 24.2096C28.5466 24.2417 28.5927 24.2508 28.6389 24.2371C28.685 24.2233 28.7311 24.1912 28.7727 24.1271C28.8142 24.0629 28.8326 24.0079 28.8234 23.9621C28.8188 23.9162 28.7911 23.875 28.7496 23.8429C28.7081 23.8108 28.6573 23.8062 28.6112 23.82C28.5651 23.8292 28.5189 23.8658 28.4728 23.93H28.4774Z" fill="white"/>
<path d="M22.6273 21.3717L22.7334 20.9225L23.0656 21.0005L23.0518 21.0738L22.8072 21.0188L22.7842 21.1196L23.0102 21.17L22.9918 21.248L22.7657 21.193L22.738 21.3167L22.9918 21.3763L22.9733 21.4496L22.6273 21.3717Z" fill="#309E3A"/>
</g>
<g filter="url(#filter0_d_2302_22361)">
<path d="M52.4855 28.335C52.9595 28.335 53.3585 28.281 53.6825 28.173C54.0125 28.059 54.2795 27.906 54.4835 27.714C54.6935 27.522 54.8435 27.297 54.9335 27.039C55.0295 26.775 55.0775 26.493 55.0775 26.193C55.0775 25.581 54.8675 25.101 54.4475 24.753C54.0335 24.399 53.3765 24.222 52.4765 24.222H49.8755V28.335H52.4855ZM49.8755 18.687V22.737H51.9815C52.8815 22.737 53.5535 22.563 53.9975 22.215C54.4415 21.867 54.6635 21.366 54.6635 20.712C54.6635 19.998 54.4535 19.482 54.0335 19.164C53.6195 18.846 52.9685 18.687 52.0805 18.687H49.8755ZM52.0805 17.04C52.9085 17.04 53.6165 17.121 54.2045 17.283C54.7925 17.439 55.2755 17.664 55.6535 17.958C56.0315 18.252 56.3075 18.612 56.4815 19.038C56.6615 19.458 56.7515 19.932 56.7515 20.46C56.7515 20.766 56.7035 21.063 56.6075 21.351C56.5175 21.633 56.3735 21.9 56.1755 22.152C55.9835 22.398 55.7405 22.62 55.4465 22.818C55.1525 23.016 54.8045 23.181 54.4025 23.313C56.2385 23.703 57.1565 24.678 57.1565 26.238C57.1565 26.79 57.0515 27.297 56.8415 27.759C56.6375 28.215 56.3375 28.611 55.9415 28.947C55.5515 29.277 55.0685 29.535 54.4925 29.721C53.9165 29.907 53.2595 30 52.5215 30H47.7695V17.04H52.0805ZM60.8029 22.521C61.0909 21.939 61.4389 21.483 61.8469 21.153C62.2549 20.817 62.7439 20.649 63.3139 20.649C63.5119 20.649 63.6979 20.673 63.8719 20.721C64.0459 20.763 64.2019 20.829 64.3399 20.919L64.2049 22.377C64.1809 22.479 64.1419 22.551 64.0879 22.593C64.0399 22.629 63.9739 22.647 63.8899 22.647C63.7999 22.647 63.6709 22.632 63.5029 22.602C63.3349 22.566 63.1579 22.548 62.9719 22.548C62.7019 22.548 62.4619 22.587 62.2519 22.665C62.0479 22.743 61.8619 22.857 61.6939 23.007C61.5319 23.157 61.3879 23.34 61.2619 23.556C61.1359 23.772 61.0189 24.018 60.9109 24.294V30H58.9759V20.82H60.1009C60.3049 20.82 60.4459 20.859 60.5239 20.937C60.6019 21.009 60.6559 21.138 60.6859 21.324L60.8029 22.521ZM70.3848 25.986C69.6948 26.01 69.1128 26.067 68.6388 26.157C68.1648 26.241 67.7808 26.352 67.4868 26.49C67.1928 26.622 66.9798 26.781 66.8478 26.967C66.7218 27.153 66.6588 27.357 66.6588 27.579C66.6588 27.795 66.6918 27.981 66.7578 28.137C66.8298 28.287 66.9258 28.413 67.0458 28.515C67.1718 28.611 67.3158 28.683 67.4778 28.731C67.6458 28.773 67.8288 28.794 68.0268 28.794C68.5308 28.794 68.9628 28.701 69.3228 28.515C69.6888 28.323 70.0428 28.047 70.3848 27.687V25.986ZM65.2548 22.098C66.2928 21.132 67.5288 20.649 68.9628 20.649C69.4908 20.649 69.9588 20.736 70.3668 20.91C70.7808 21.078 71.1258 21.318 71.4018 21.63C71.6838 21.942 71.8968 22.314 72.0408 22.746C72.1908 23.172 72.2658 23.646 72.2658 24.168V30H71.4018C71.2158 30 71.0748 29.973 70.9788 29.919C70.8828 29.859 70.8018 29.742 70.7358 29.568L70.5468 28.821C70.3128 29.031 70.0818 29.22 69.8538 29.388C69.6258 29.55 69.3888 29.688 69.1428 29.802C68.9028 29.916 68.6418 30 68.3598 30.054C68.0838 30.114 67.7778 30.144 67.4418 30.144C67.0698 30.144 66.7218 30.093 66.3978 29.991C66.0798 29.889 65.8038 29.736 65.5698 29.532C65.3358 29.322 65.1498 29.064 65.0118 28.758C64.8798 28.452 64.8138 28.092 64.8138 27.678C64.8138 27.324 64.9068 26.979 65.0928 26.643C65.2848 26.307 65.5968 26.007 66.0288 25.743C66.4668 25.473 67.0398 25.251 67.7478 25.077C68.4618 24.903 69.3408 24.804 70.3848 24.78V24.168C70.3848 23.508 70.2438 23.016 69.9618 22.692C69.6798 22.368 69.2658 22.206 68.7198 22.206C68.3478 22.206 68.0358 22.254 67.7838 22.35C67.5318 22.44 67.3128 22.539 67.1268 22.647C66.9408 22.755 66.7758 22.857 66.6318 22.953C66.4878 23.043 66.3348 23.088 66.1728 23.088C66.0408 23.088 65.9268 23.055 65.8308 22.989C65.7408 22.917 65.6658 22.83 65.6058 22.728L65.2548 22.098ZM81.0035 21.63C81.0035 21.768 80.9795 21.903 80.9315 22.035C80.8895 22.167 80.8265 22.278 80.7425 22.368L76.0895 28.497H80.8505V30H73.8485V29.19C73.8485 29.1 73.8695 28.992 73.9115 28.866C73.9535 28.74 74.0165 28.62 74.1005 28.506L78.7895 22.323H74.1185V20.82H81.0035V21.63ZM84.7575 20.82V30H82.8225V20.82H84.7575ZM85.0815 18.048C85.0815 18.222 85.0455 18.387 84.9735 18.543C84.9075 18.699 84.8145 18.837 84.6945 18.957C84.5745 19.071 84.4335 19.164 84.2715 19.236C84.1155 19.302 83.9475 19.335 83.7675 19.335C83.5935 19.335 83.4285 19.302 83.2725 19.236C83.1225 19.164 82.9905 19.071 82.8765 18.957C82.7625 18.837 82.6695 18.699 82.5975 18.543C82.5315 18.387 82.4985 18.222 82.4985 18.048C82.4985 17.868 82.5315 17.7 82.5975 17.544C82.6695 17.388 82.7625 17.253 82.8765 17.139C82.9905 17.019 83.1225 16.926 83.2725 16.86C83.4285 16.788 83.5935 16.752 83.7675 16.752C83.9475 16.752 84.1155 16.788 84.2715 16.86C84.4335 16.926 84.5745 17.019 84.6945 17.139C84.8145 17.253 84.9075 17.388 84.9735 17.544C85.0455 17.7 85.0815 17.868 85.0815 18.048ZM89.1598 16.68V30H87.2248V16.68H89.1598Z" fill="#282727"/>
</g>
<defs>
<filter id="filter0_d_2302_22361" x="31.7694" y="0.679993" width="73.3904" height="45.464" filterUnits="userSpaceOnUse" color-interpolation-filters="sRGB">
<feFlood flood-opacity="0" result="BackgroundImageFix"/>
<feColorMatrix in="SourceAlpha" type="matrix" values="0 0 0 0 0 0 0 0 0 0 0 0 0 0 0 0 0 0 127 0" result="hardAlpha"/>
<feOffset/>
<feGaussianBlur stdDeviation="8"/>
<feComposite in2="hardAlpha" operator="out"/>
<feColorMatrix type="matrix" values="0 0 0 0 0 0 0 0 0 0 0 0 0 0 0 0 0 0 0.08 0"/>
<feBlend mode="normal" in2="BackgroundImageFix" result="effect1_dropShadow_2302_22361"/>
<feBlend mode="normal" in="SourceGraphic" in2="effect1_dropShadow_2302_22361" result="shape"/>
</filter>
<clipPath id="clip0_2302_22361">
<rect width="29.5263" height="22" fill="white" transform="translate(8.7041 12)"/>
</clipPath>
</defs>
</svg>
