<svg width="135" height="49" viewBox="0 0 135 49" fill="none" xmlns="http://www.w3.org/2000/svg">
<rect x="1.17188" y="7.64453" width="125.526" height="29" fill="white"/>
<rect x="1.17188" y="7.64453" width="125.526" height="29" stroke="#282727"/>
<g clip-path="url(#clip0_2302_22362)">
<path d="M8.67188 25.8099H38.1982V33.1433H8.67188V25.8099Z" fill="#FFCE00"/>
<path d="M8.67188 11.1445H38.1982V18.4779H8.67188V11.1445Z" fill="black"/>
<path d="M8.67188 18.4791H38.1982V25.8125H8.67188V18.4791Z" fill="#DD0000"/>
</g>
<g filter="url(#filter0_d_2302_22362)">
<path d="M58.3482 22.7635V27.8935C57.0582 28.8235 55.5582 29.2885 53.8482 29.2885C52.7982 29.2885 51.8472 29.1265 50.9952 28.8025C50.1492 28.4725 49.4262 28.0165 48.8262 27.4345C48.2262 26.8465 47.7642 26.1475 47.4402 25.3375C47.1162 24.5275 46.9542 23.6365 46.9542 22.6645C46.9542 21.6865 47.1102 20.7925 47.4222 19.9825C47.7342 19.1665 48.1812 18.4675 48.7632 17.8855C49.3452 17.2975 50.0472 16.8445 50.8692 16.5265C51.6912 16.2025 52.6152 16.0405 53.6412 16.0405C54.1632 16.0405 54.6462 16.0825 55.0902 16.1665C55.5402 16.2445 55.9572 16.3555 56.3412 16.4995C56.7252 16.6435 57.0792 16.8175 57.4032 17.0215C57.7272 17.2255 58.0242 17.4535 58.2942 17.7055L57.6912 18.6685C57.5952 18.8185 57.4722 18.9115 57.3222 18.9475C57.1722 18.9835 57.0102 18.9475 56.8362 18.8395C56.6622 18.7375 56.4762 18.6295 56.2782 18.5155C56.0862 18.4015 55.8642 18.2965 55.6122 18.2005C55.3602 18.0985 55.0692 18.0175 54.7392 17.9575C54.4092 17.8915 54.0192 17.8585 53.5692 17.8585C52.8852 17.8585 52.2672 17.9725 51.7152 18.2005C51.1692 18.4225 50.7012 18.7435 50.3112 19.1635C49.9212 19.5775 49.6212 20.0815 49.4112 20.6755C49.2012 21.2695 49.0962 21.9325 49.0962 22.6645C49.0962 23.4385 49.2072 24.1315 49.4292 24.7435C49.6512 25.3495 49.9662 25.8655 50.3742 26.2915C50.7822 26.7115 51.2742 27.0325 51.8502 27.2545C52.4322 27.4765 53.0802 27.5875 53.7942 27.5875C54.3282 27.5875 54.8022 27.5305 55.2162 27.4165C55.6362 27.3025 56.0472 27.1435 56.4492 26.9395V24.3655H54.6402C54.5022 24.3655 54.3942 24.3295 54.3162 24.2575C54.2382 24.1795 54.1992 24.0805 54.1992 23.9605V22.7635H58.3482ZM66.3885 23.5195C66.3885 23.1955 66.3405 22.8955 66.2445 22.6195C66.1545 22.3375 66.0195 22.0945 65.8395 21.8905C65.6595 21.6805 65.4345 21.5185 65.1645 21.4045C64.9005 21.2845 64.5945 21.2245 64.2465 21.2245C63.5445 21.2245 62.9925 21.4255 62.5905 21.8275C62.1885 22.2295 61.9335 22.7935 61.8255 23.5195H66.3885ZM61.7715 24.7075C61.7955 25.2295 61.8765 25.6825 62.0145 26.0665C62.1525 26.4445 62.3355 26.7595 62.5635 27.0115C62.7975 27.2635 63.0735 27.4525 63.3915 27.5785C63.7155 27.6985 64.0755 27.7585 64.4715 27.7585C64.8495 27.7585 65.1765 27.7165 65.4525 27.6325C65.7285 27.5425 65.9685 27.4465 66.1725 27.3445C66.3765 27.2365 66.5505 27.1405 66.6945 27.0565C66.8385 26.9665 66.9705 26.9215 67.0905 26.9215C67.2465 26.9215 67.3665 26.9815 67.4505 27.1015L67.9995 27.8125C67.7715 28.0825 67.5135 28.3105 67.2255 28.4965C66.9375 28.6825 66.6315 28.8355 66.3075 28.9555C65.9835 29.0695 65.6505 29.1505 65.3085 29.1985C64.9665 29.2525 64.6335 29.2795 64.3095 29.2795C63.6735 29.2795 63.0825 29.1745 62.5365 28.9645C61.9965 28.7485 61.5255 28.4335 61.1235 28.0195C60.7275 27.6055 60.4155 27.0925 60.1875 26.4805C59.9655 25.8685 59.8545 25.1635 59.8545 24.3655C59.8545 23.7295 59.9535 23.1355 60.1515 22.5835C60.3555 22.0315 60.6435 21.5515 61.0155 21.1435C61.3935 20.7355 61.8495 20.4145 62.3835 20.1805C62.9235 19.9405 63.5325 19.8205 64.2105 19.8205C64.7745 19.8205 65.2965 19.9135 65.7765 20.0995C66.2565 20.2795 66.6705 20.5465 67.0185 20.9005C67.3665 21.2545 67.6365 21.6895 67.8285 22.2055C68.0265 22.7155 68.1255 23.2975 68.1255 23.9515C68.1255 24.2515 68.0925 24.4525 68.0265 24.5545C67.9605 24.6565 67.8405 24.7075 67.6665 24.7075H61.7715ZM71.757 21.6655C72.045 21.0835 72.393 20.6275 72.801 20.2975C73.209 19.9615 73.698 19.7935 74.268 19.7935C74.466 19.7935 74.652 19.8175 74.826 19.8655C75 19.9075 75.156 19.9735 75.294 20.0635L75.159 21.5215C75.135 21.6235 75.096 21.6955 75.042 21.7375C74.994 21.7735 74.928 21.7915 74.844 21.7915C74.754 21.7915 74.625 21.7765 74.457 21.7465C74.289 21.7105 74.112 21.6925 73.926 21.6925C73.656 21.6925 73.416 21.7315 73.206 21.8095C73.002 21.8875 72.816 22.0015 72.648 22.1515C72.486 22.3015 72.342 22.4845 72.216 22.7005C72.09 22.9165 71.973 23.1625 71.865 23.4385V29.1445H69.93V19.9645H71.055C71.259 19.9645 71.4 20.0035 71.478 20.0815C71.556 20.1535 71.61 20.2825 71.64 20.4685L71.757 21.6655ZM76.5745 29.1445V19.9645H77.7445C78.0085 19.9645 78.1765 20.0875 78.2485 20.3335L78.3745 21.1345C78.5425 20.9425 78.7165 20.7685 78.8965 20.6125C79.0765 20.4505 79.2685 20.3125 79.4725 20.1985C79.6825 20.0785 79.9045 19.9855 80.1385 19.9195C80.3785 19.8535 80.6365 19.8205 80.9125 19.8205C81.2065 19.8205 81.4765 19.8625 81.7225 19.9465C81.9685 20.0305 82.1845 20.1505 82.3705 20.3065C82.5625 20.4625 82.7275 20.6515 82.8655 20.8735C83.0035 21.0955 83.1175 21.3445 83.2075 21.6205C83.3455 21.3025 83.5195 21.0295 83.7295 20.8015C83.9395 20.5735 84.1735 20.3875 84.4315 20.2435C84.6895 20.0995 84.9625 19.9945 85.2505 19.9285C85.5445 19.8565 85.8415 19.8205 86.1415 19.8205C86.6335 19.8205 87.0715 19.8985 87.4555 20.0545C87.8455 20.2105 88.1725 20.4385 88.4365 20.7385C88.7065 21.0325 88.9105 21.3955 89.0485 21.8275C89.1865 22.2595 89.2555 22.7515 89.2555 23.3035V29.1445H87.3205V23.3035C87.3205 22.6555 87.1795 22.1695 86.8975 21.8455C86.6215 21.5155 86.2105 21.3505 85.6645 21.3505C85.4185 21.3505 85.1875 21.3925 84.9715 21.4765C84.7555 21.5605 84.5665 21.6835 84.4045 21.8455C84.2425 22.0075 84.1135 22.2115 84.0175 22.4575C83.9275 22.6975 83.8825 22.9795 83.8825 23.3035V29.1445H81.9475V23.3035C81.9475 22.6315 81.8125 22.1395 81.5425 21.8275C81.2725 21.5095 80.8765 21.3505 80.3545 21.3505C79.9945 21.3505 79.6615 21.4435 79.3555 21.6295C79.0495 21.8095 78.7675 22.0585 78.5095 22.3765V29.1445H76.5745ZM96.4209 25.1305C95.7309 25.1545 95.1489 25.2115 94.6749 25.3015C94.2009 25.3855 93.8169 25.4965 93.5229 25.6345C93.2289 25.7665 93.0159 25.9255 92.8839 26.1115C92.7579 26.2975 92.6949 26.5015 92.6949 26.7235C92.6949 26.9395 92.7279 27.1255 92.7939 27.2815C92.8659 27.4315 92.9619 27.5575 93.0819 27.6595C93.2079 27.7555 93.3519 27.8275 93.5139 27.8755C93.6819 27.9175 93.8649 27.9385 94.0629 27.9385C94.5669 27.9385 94.9989 27.8455 95.3589 27.6595C95.7249 27.4675 96.0789 27.1915 96.4209 26.8315V25.1305ZM91.2909 21.2425C92.3289 20.2765 93.5649 19.7935 94.9989 19.7935C95.5269 19.7935 95.9949 19.8805 96.4029 20.0545C96.8169 20.2225 97.1619 20.4625 97.4379 20.7745C97.7199 21.0865 97.9329 21.4585 98.0769 21.8905C98.2269 22.3165 98.3019 22.7905 98.3019 23.3125V29.1445H97.4379C97.2519 29.1445 97.1109 29.1175 97.0149 29.0635C96.9189 29.0035 96.8379 28.8865 96.7719 28.7125L96.5829 27.9655C96.3489 28.1755 96.1179 28.3645 95.8899 28.5325C95.6619 28.6945 95.4249 28.8325 95.1789 28.9465C94.9389 29.0605 94.6779 29.1445 94.3959 29.1985C94.1199 29.2585 93.8139 29.2885 93.4779 29.2885C93.1059 29.2885 92.7579 29.2375 92.4339 29.1355C92.1159 29.0335 91.8399 28.8805 91.6059 28.6765C91.3719 28.4665 91.1859 28.2085 91.0479 27.9025C90.9159 27.5965 90.8499 27.2365 90.8499 26.8225C90.8499 26.4685 90.9429 26.1235 91.1289 25.7875C91.3209 25.4515 91.6329 25.1515 92.0649 24.8875C92.5029 24.6175 93.0759 24.3955 93.7839 24.2215C94.4979 24.0475 95.3769 23.9485 96.4209 23.9245V23.3125C96.4209 22.6525 96.2799 22.1605 95.9979 21.8365C95.7159 21.5125 95.3019 21.3505 94.7559 21.3505C94.3839 21.3505 94.0719 21.3985 93.8199 21.4945C93.5679 21.5845 93.3489 21.6835 93.1629 21.7915C92.9769 21.8995 92.8119 22.0015 92.6679 22.0975C92.5239 22.1875 92.3709 22.2325 92.2089 22.2325C92.0769 22.2325 91.9629 22.1995 91.8669 22.1335C91.7769 22.0615 91.7019 21.9745 91.6419 21.8725L91.2909 21.2425ZM102.378 21.1795C102.576 20.9755 102.78 20.7925 102.99 20.6305C103.206 20.4625 103.434 20.3185 103.674 20.1985C103.914 20.0785 104.169 19.9855 104.439 19.9195C104.709 19.8535 105.003 19.8205 105.321 19.8205C105.825 19.8205 106.266 19.9045 106.644 20.0725C107.028 20.2405 107.349 20.4775 107.607 20.7835C107.871 21.0895 108.069 21.4585 108.201 21.8905C108.333 22.3165 108.399 22.7875 108.399 23.3035V29.1445H106.473V23.3035C106.473 22.6855 106.329 22.2055 106.041 21.8635C105.759 21.5215 105.327 21.3505 104.745 21.3505C104.313 21.3505 103.911 21.4495 103.539 21.6475C103.173 21.8455 102.828 22.1155 102.504 22.4575V29.1445H100.569V19.9645H101.739C102.003 19.9645 102.171 20.0875 102.243 20.3335L102.378 21.1795ZM118.575 19.9645L113.517 31.7545C113.451 31.8925 113.37 32.0005 113.274 32.0785C113.184 32.1565 113.043 32.1955 112.851 32.1955H111.42L113.112 28.5235L109.368 19.9645H111.051C111.213 19.9645 111.336 20.0035 111.42 20.0815C111.51 20.1535 111.576 20.2405 111.618 20.3425L113.805 25.5535C113.859 25.7035 113.907 25.8535 113.949 26.0035C113.997 26.1475 114.042 26.2975 114.084 26.4535C114.132 26.2975 114.18 26.1445 114.228 25.9945C114.276 25.8445 114.33 25.6945 114.39 25.5445L116.487 20.3425C116.529 20.2345 116.598 20.1445 116.694 20.0725C116.796 20.0005 116.907 19.9645 117.027 19.9645H118.575Z" fill="#282727"/>
</g>
<defs>
<filter id="filter0_d_2302_22362" x="30.9542" y="0.0405273" width="103.621" height="48.155" filterUnits="userSpaceOnUse" color-interpolation-filters="sRGB">
<feFlood flood-opacity="0" result="BackgroundImageFix"/>
<feColorMatrix in="SourceAlpha" type="matrix" values="0 0 0 0 0 0 0 0 0 0 0 0 0 0 0 0 0 0 127 0" result="hardAlpha"/>
<feOffset/>
<feGaussianBlur stdDeviation="8"/>
<feComposite in2="hardAlpha" operator="out"/>
<feColorMatrix type="matrix" values="0 0 0 0 0 0 0 0 0 0 0 0 0 0 0 0 0 0 0.08 0"/>
<feBlend mode="normal" in2="BackgroundImageFix" result="effect1_dropShadow_2302_22362"/>
<feBlend mode="normal" in="SourceGraphic" in2="effect1_dropShadow_2302_22362" result="shape"/>
</filter>
<clipPath id="clip0_2302_22362">
<rect width="29.5263" height="22" fill="white" transform="translate(8.67188 11.1445)"/>
</clipPath>
</defs>
</svg>
