<svg width="1442" height="772" viewBox="0 0 1442 772" fill="none" xmlns="http://www.w3.org/2000/svg">
<g opacity="0.5">
<path d="M48.2324 -54V902.16" stroke="#7DBBFF" stroke-width="0.96" stroke-miterlimit="10" stroke-linecap="round" stroke-dasharray="1.92 1.92"/>
<path d="M112.744 -54V902.16" stroke="#7DBBFF" stroke-width="0.96" stroke-miterlimit="10" stroke-linecap="round" stroke-dasharray="1.92 1.92"/>
<path d="M177.256 -54V902.16" stroke="#7DBBFF" stroke-width="0.96" stroke-miterlimit="10" stroke-linecap="round" stroke-dasharray="1.92 1.92"/>
<path d="M241.96 -54V902.16" stroke="#7DBBFF" stroke-width="0.96" stroke-miterlimit="10" stroke-linecap="round" stroke-dasharray="1.92 1.92"/>
<path d="M306.472 -54V902.16" stroke="#7DBBFF" stroke-width="0.96" stroke-miterlimit="10" stroke-linecap="round" stroke-dasharray="1.92 1.92"/>
<path d="M370.984 -54V902.16" stroke="#7DBBFF" stroke-width="0.96" stroke-miterlimit="10" stroke-linecap="round" stroke-dasharray="1.92 1.92"/>
<path d="M435.688 -54V902.16" stroke="#7DBBFF" stroke-width="0.96" stroke-miterlimit="10" stroke-linecap="round" stroke-dasharray="1.92 1.92"/>
<path d="M500.2 -54V902.16" stroke="#7DBBFF" stroke-width="0.96" stroke-miterlimit="10" stroke-linecap="round" stroke-dasharray="1.92 1.92"/>
<path d="M564.712 -54V902.16" stroke="#7DBBFF" stroke-width="0.96" stroke-miterlimit="10" stroke-linecap="round" stroke-dasharray="1.92 1.92"/>
<path d="M629.416 -54V902.16" stroke="#7DBBFF" stroke-width="0.96" stroke-miterlimit="10" stroke-linecap="round" stroke-dasharray="1.92 1.92"/>
<path d="M693.928 -54V902.16" stroke="#7DBBFF" stroke-width="0.96" stroke-miterlimit="10" stroke-linecap="round" stroke-dasharray="1.92 1.92"/>
<path d="M758.44 -54V902.16" stroke="#7DBBFF" stroke-width="0.96" stroke-miterlimit="10" stroke-linecap="round" stroke-dasharray="1.92 1.92"/>
<path d="M823.145 -54V902.16" stroke="#7DBBFF" stroke-width="0.96" stroke-miterlimit="10" stroke-linecap="round" stroke-dasharray="1.92 1.92"/>
<path d="M887.656 -54V902.16" stroke="#7DBBFF" stroke-width="0.96" stroke-miterlimit="10" stroke-linecap="round" stroke-dasharray="1.92 1.92"/>
<path d="M952.168 -54V902.16" stroke="#7DBBFF" stroke-width="0.96" stroke-miterlimit="10" stroke-linecap="round" stroke-dasharray="1.92 1.92"/>
<path d="M1016.87 -54V902.16" stroke="#7DBBFF" stroke-width="0.96" stroke-miterlimit="10" stroke-linecap="round" stroke-dasharray="1.92 1.92"/>
<path d="M1081.38 -54V902.16" stroke="#7DBBFF" stroke-width="0.96" stroke-miterlimit="10" stroke-linecap="round" stroke-dasharray="1.92 1.92"/>
<path d="M1145.9 -54V902.16" stroke="#7DBBFF" stroke-width="0.96" stroke-miterlimit="10" stroke-linecap="round" stroke-dasharray="1.92 1.92"/>
<path d="M1210.6 -54V902.16" stroke="#7DBBFF" stroke-width="0.96" stroke-miterlimit="10" stroke-linecap="round" stroke-dasharray="1.92 1.92"/>
<path d="M1275.11 -54V902.16" stroke="#7DBBFF" stroke-width="0.96" stroke-miterlimit="10" stroke-linecap="round" stroke-dasharray="1.92 1.92"/>
<path d="M1339.62 -54V902.16" stroke="#7DBBFF" stroke-width="0.96" stroke-miterlimit="10" stroke-linecap="round" stroke-dasharray="1.92 1.92"/>
<path d="M1404.33 -54V902.16" stroke="#7DBBFF" stroke-width="0.96" stroke-miterlimit="10" stroke-linecap="round" stroke-dasharray="1.92 1.92"/>
<path d="M1441 4.36804H1" stroke="#7DBBFF" stroke-width="1.17811" stroke-miterlimit="10" stroke-linecap="round" stroke-dasharray="2.36 2.36"/>
<path d="M1441 68.88H1" stroke="#7DBBFF" stroke-width="1.17811" stroke-miterlimit="10" stroke-linecap="round" stroke-dasharray="2.36 2.36"/>
<path d="M1441 133.584H1" stroke="#7DBBFF" stroke-width="1.17811" stroke-miterlimit="10" stroke-linecap="round" stroke-dasharray="2.36 2.36"/>
<path d="M1441 198.096H1" stroke="#7DBBFF" stroke-width="1.17811" stroke-miterlimit="10" stroke-linecap="round" stroke-dasharray="2.36 2.36"/>
<path d="M1441 262.608H1" stroke="#7DBBFF" stroke-width="1.17811" stroke-miterlimit="10" stroke-linecap="round" stroke-dasharray="2.36 2.36"/>
<path d="M1441 327.312H1" stroke="#7DBBFF" stroke-width="1.17811" stroke-miterlimit="10" stroke-linecap="round" stroke-dasharray="2.36 2.36"/>
<path d="M1441 391.824H1" stroke="#7DBBFF" stroke-width="1.17811" stroke-miterlimit="10" stroke-linecap="round" stroke-dasharray="2.36 2.36"/>
<path d="M1441 456.336H1" stroke="#7DBBFF" stroke-width="1.17811" stroke-miterlimit="10" stroke-linecap="round" stroke-dasharray="2.36 2.36"/>
<path d="M1441 521.04H1" stroke="#7DBBFF" stroke-width="1.17811" stroke-miterlimit="10" stroke-linecap="round" stroke-dasharray="2.36 2.36"/>
<path d="M1441 585.551H1" stroke="#7DBBFF" stroke-width="1.17811" stroke-miterlimit="10" stroke-linecap="round" stroke-dasharray="2.36 2.36"/>
<path d="M1441 650.064H1" stroke="#7DBBFF" stroke-width="1.17811" stroke-miterlimit="10" stroke-linecap="round" stroke-dasharray="2.36 2.36"/>
<path d="M1441 754.769H1" stroke="#7DBBFF" stroke-width="1.17811" stroke-miterlimit="10" stroke-linecap="round" stroke-dasharray="2.36 2.36"/>
</g>
<g filter="url(#filter0_d_2361_1204)">
<path d="M861.419 510.34C852.968 516.19 841.7 517.924 831.733 514.89C830.649 514.457 829.349 514.023 828.916 512.94C828.049 511.423 829.349 509.69 829.566 507.956C830.216 502.972 823.066 500.806 820.899 496.472C820.032 494.738 820.032 492.572 819.815 490.621C818.515 473.07 809.414 457.469 801.614 441.651C800.964 440.567 800.53 439.267 800.747 437.967C800.964 436.667 802.481 435.584 803.564 436.234C802.697 439.267 804.647 442.734 807.464 443.601C808.764 438.617 809.414 431.9 804.864 429.3C803.347 428.433 801.397 428.217 799.664 428.217C792.73 427.783 785.579 428.217 778.645 429.3C777.562 429.517 776.262 429.733 775.178 429.083C774.312 428.65 773.878 427.566 773.228 426.7C771.495 424.316 766.944 423.233 764.561 425.183C761.961 427.35 763.911 432.117 758.71 432.767C755.894 433.2 753.077 431.683 750.476 430.167C747.66 428.65 745.059 426.916 742.893 424.533C742.243 423.666 741.592 422.799 740.726 422.149C738.992 421.066 736.609 421.716 734.442 421.499C732.275 421.499 729.675 419.983 730.325 417.816C730.542 417.166 730.975 416.732 731.408 416.082C734.009 411.965 730.542 406.115 725.775 404.598C721.008 403.081 716.024 404.598 711.257 406.115C704.106 408.282 697.172 410.665 690.022 412.832C687.422 413.699 684.605 414.565 681.788 413.915C679.404 413.482 677.021 412.182 674.854 413.049C672.037 414.565 672.47 418.899 670.737 421.499C669.003 424.1 665.536 424.966 663.803 427.566C661.853 430.6 662.936 434.5 662.72 438.184C662.286 445.118 656.652 450.318 651.669 455.085C646.685 459.852 641.485 466.136 642.785 473.07C643.218 475.237 644.085 477.187 644.301 479.354C644.518 481.087 643.868 482.821 643.435 484.554C641.918 489.971 640.401 495.388 639.101 500.589C644.085 509.256 649.502 517.707 655.352 525.724C658.169 529.624 661.419 533.742 665.536 536.342C669.653 539.159 674.854 540.675 679.621 539.375C681.788 538.725 683.738 537.642 685.905 537.425C688.938 537.208 691.972 538.509 695.005 538.509C698.689 538.292 701.723 536.125 704.54 533.958C707.356 531.791 710.607 529.624 714.074 529.408C717.757 529.408 721.441 532.441 720.791 535.908C720.574 536.775 720.357 537.425 720.357 538.292C720.574 540.025 722.741 540.459 724.474 540.242C726.208 540.025 727.941 539.375 729.458 540.242C731.408 541.325 731.842 544.142 730.975 546.309C730.108 549.343 728.158 551.726 726.641 554.543C725.341 557.36 724.691 560.827 726.641 563.427C727.508 564.727 729.025 565.594 730.325 566.677C732.275 568.411 733.575 571.011 734.442 573.395C738.559 584.012 739.642 595.93 737.259 607.197C736.175 612.181 733.142 616.081 732.058 620.848C730.975 626.049 735.092 631.683 737.475 636.016C741.159 642.517 743.326 649.667 743.759 657.034C743.976 660.068 743.976 663.102 745.276 665.702C746.36 667.652 747.876 669.169 749.393 670.902C754.81 677.403 755.46 686.503 755.894 694.954C756.977 696.471 759.36 696.471 761.094 695.604C762.827 694.737 764.128 693.437 765.861 692.571C769.978 690.404 775.178 691.487 779.729 691.054C787.746 690.187 794.897 683.47 796.197 675.453C796.63 673.286 796.63 670.902 797.497 668.952C799.014 665.919 802.481 663.752 802.914 660.501C803.131 659.201 802.697 657.685 803.131 656.384C803.997 652.267 810.498 650.967 810.931 646.634C811.148 644.684 810.065 642.733 809.198 640.783C806.814 635.149 808.764 628.216 813.748 624.532C815.482 623.232 817.648 622.365 819.599 621.065C828.483 614.781 828.266 601.347 824.582 591.163C823.066 587.262 821.115 583.145 821.549 578.812C821.765 575.995 822.849 573.395 824.149 570.794C827.399 564.511 831.95 558.877 837.367 554.543C840.834 551.726 844.951 549.126 847.117 544.792C848.418 542.192 848.634 539.375 849.718 536.775C851.451 532.008 855.135 528.108 858.168 523.991C861.202 520.524 863.369 515.107 861.419 510.34ZM809.198 614.348C808.981 616.081 807.031 617.815 805.514 616.731C805.514 611.964 804.431 607.414 803.347 602.864C802.914 600.697 802.481 598.53 801.831 596.363C801.614 595.28 801.397 594.196 800.314 593.763C799.664 593.33 798.797 593.546 798.147 593.113C797.28 592.463 797.28 590.946 796.63 590.296C795.547 589.213 793.813 589.646 792.513 588.779C791.213 587.912 790.996 586.396 790.78 584.879L788.83 569.061C788.83 568.411 788.613 567.761 789.046 567.327C789.48 566.677 790.13 566.461 790.78 566.244C793.597 565.161 795.98 562.994 797.28 560.394C797.93 559.31 798.147 558.01 799.014 556.927C801.614 553.243 805.297 554.326 805.731 558.01C806.164 562.994 804.214 562.344 801.397 564.077C799.23 565.377 795.547 567.761 794.03 569.928C791.863 573.395 793.813 574.261 795.33 577.512C796.847 580.545 795.33 584.662 797.714 587.262C799.23 588.996 801.614 589.213 803.347 590.296C806.164 592.029 807.248 595.713 807.464 599.18C807.681 602.647 807.248 606.114 808.114 609.364C808.764 610.881 809.414 612.614 809.198 614.348Z" fill="#77DBE0"/>
<path d="M837.15 621.713C835.416 624.963 839.1 628.864 838.666 632.764C838.45 636.664 833.899 639.048 833.033 642.948C832.599 644.465 833.033 646.198 833.249 647.715C833.899 650.749 834.983 653.566 836.283 656.382C836.716 657.249 837.15 658.116 838.016 658.766C840.183 660.933 844.083 660.066 846.25 657.899C848.417 655.732 849.284 652.699 849.717 649.665C850.151 646.632 850.367 643.598 851.451 640.781C853.184 636.664 857.084 633.197 856.868 628.864C856.651 626.697 855.568 624.53 855.134 622.363C854.701 620.196 855.134 617.379 857.084 616.513C857.301 618.029 857.518 619.33 857.735 620.846C863.585 619.113 856.434 600.045 850.151 609.579C847.55 613.479 850.151 616.079 845.167 618.246C842.567 619.113 838.883 618.679 837.15 621.713Z" fill="#77DBE0"/>
<path d="M1275.07 282.604C1274.85 281.954 1274.42 281.521 1273.98 281.087C1270.52 277.837 1266.62 275.237 1262.5 272.853C1265.1 272.637 1267.92 272.42 1270.08 271.12C1272.47 269.82 1274.2 267.436 1273.98 264.836C1273.33 260.286 1267.05 257.685 1267.7 253.352C1267.92 251.402 1269.65 249.235 1268.78 247.501C1268.13 246.201 1266.62 245.985 1265.1 245.768C1257.73 244.684 1250.37 243.818 1243.21 242.734C1243.43 245.551 1242.78 248.585 1240.4 250.318C1238.23 252.052 1234.33 251.402 1233.25 248.801C1232.81 247.935 1232.81 246.851 1232.16 245.985C1230.86 244.251 1228.26 245.334 1226.31 245.985C1221.98 247.718 1217 247.718 1212.88 245.985C1212.01 245.551 1211.15 245.118 1210.71 244.251C1210.28 242.951 1211.15 241.651 1211.15 240.351C1211.36 238.184 1208.98 236.234 1206.6 236.017C1204.43 235.8 1202.04 236.667 1199.88 237.534C1193.59 239.484 1186.01 239.917 1180.81 235.8C1179.29 234.5 1177.99 232.983 1176.26 231.9C1173.88 230.383 1171.06 230.167 1168.24 229.733C1161.09 229.083 1154.16 228.216 1147.01 227.566C1146.36 227.566 1145.49 227.35 1145.06 227.783C1144.19 228.433 1144.41 229.733 1143.97 230.817C1143.32 232.983 1140.94 234.067 1138.77 234.067C1136.61 234.284 1134.44 233.634 1132.27 233.85C1130.76 234.067 1129.02 234.717 1127.51 234.5C1125.77 234.5 1124.04 233.2 1124.26 231.683C1122.31 232.984 1120.79 235.367 1120.79 237.751C1116.67 238.184 1111.47 235.367 1112.34 231.25C1112.55 230.167 1113.2 229.3 1113.2 228.216C1113.85 221.716 1097.39 220.199 1093.7 223.016C1092.62 223.883 1091.97 224.75 1090.89 225.616C1086.99 229.083 1079.62 227.783 1077.24 223.016C1071.38 222.366 1065.53 222.366 1059.9 223.016C1057.52 219.116 1051.45 220.849 1047.55 223.449C1043.65 225.833 1038.02 228.433 1034.98 224.75C1044.73 222.583 1054.27 218.032 1062.07 211.748C1062.93 211.098 1063.8 210.232 1063.58 209.148C1063.37 208.498 1062.93 207.848 1062.28 207.632C1058.6 205.031 1054.05 203.731 1049.72 203.948C1046.47 203.948 1042.57 204.598 1040.62 202.214C1039.32 200.698 1039.1 198.314 1037.58 197.014C1036.07 195.714 1033.9 196.147 1031.95 196.364C1027.83 197.014 1023.5 197.881 1019.38 198.531C1018.73 198.747 1018.08 198.747 1017.65 199.181C1017 199.831 1017 200.914 1017 201.781C1016.56 207.415 1009.63 211.315 1004.65 208.715C1003.13 207.848 1001.83 206.548 1000.1 206.115C997.929 205.465 995.762 206.115 993.595 206.981C984.928 210.015 976.261 213.049 967.593 216.082C969.977 217.599 973.01 218.249 975.61 217.382C976.477 218.899 974.31 220.199 972.577 220.416C965.86 221.716 959.359 223.233 952.642 224.533C956.326 227.35 960.009 230.383 963.693 233.634C965.426 232.333 966.943 235.584 966.293 237.534C965.643 239.484 964.56 242.084 966.076 243.384C964.126 242.734 962.393 241.217 961.309 239.267C962.393 238.401 963.476 237.751 964.56 236.884C962.176 237.317 959.793 235.8 958.926 233.634C954.592 232.767 950.692 231.033 947.225 228.433C946.575 229.95 947.442 232.117 949.175 232.767C947.658 232.984 946.141 233.2 944.408 233.417C944.841 235.8 947.008 237.751 949.608 238.184C946.575 239.051 943.108 238.184 940.508 236.234C942.891 232.767 939.424 227.133 935.307 227.783C937.691 228 938.124 231.467 937.041 233.634C935.957 235.8 934.224 237.751 934.224 240.134C934.224 243.168 937.041 246.635 934.657 248.585C937.474 250.968 942.674 246.635 945.058 249.451C945.708 250.318 945.925 251.618 946.141 252.702C947.008 255.952 950.692 258.119 953.942 257.685C951.992 260.719 947.442 257.685 945.491 254.869C943.325 252.052 938.774 249.018 937.041 252.052C936.391 253.135 936.607 254.219 936.607 255.519C936.391 263.969 926.64 270.686 918.839 267.653C921.873 263.969 928.807 265.486 931.19 261.369C932.057 259.636 931.84 257.685 931.624 255.735C930.757 249.451 929.89 243.168 928.807 236.884C929.457 234.067 929.457 231.033 929.457 228.216C926.207 229.3 920.789 229.3 921.006 225.833C918.189 230.383 915.372 235.15 912.555 239.701C910.822 242.518 909.522 246.851 912.555 248.368C914.506 247.501 916.889 249.235 917.323 251.185C917.973 253.135 917.106 255.302 916.239 257.252C912.122 245.551 890.67 250.968 885.253 239.917C882.653 241.001 885.037 244.901 887.637 245.768C890.237 246.635 893.704 248.368 892.837 250.968C892.187 252.918 889.37 252.918 887.204 252.918C881.136 252.485 874.853 254.002 869.435 257.035C869.002 254.869 868.569 252.702 867.919 250.535C863.368 253.785 859.035 256.819 854.484 260.069C852.317 261.586 849.934 263.103 847.334 263.536C844.734 263.753 841.7 262.236 841.267 259.636C840.833 257.035 844.733 254.652 846.467 256.819C847.117 252.052 840.617 247.935 836.5 250.752C839.1 255.302 839.316 261.152 836.716 265.703C835.849 267.436 834.333 268.953 832.382 269.386C830.432 269.603 828.266 268.086 828.699 266.136C826.315 268.303 825.015 271.553 825.015 274.803C821.115 276.104 816.348 274.587 813.964 271.12C814.181 273.07 814.614 274.803 814.831 276.754C812.014 279.787 805.73 277.62 805.514 273.503C805.514 272.203 805.73 271.12 805.73 269.82C805.73 265.703 802.047 262.452 798.58 260.069C803.564 262.019 808.764 263.969 813.748 265.919C816.565 267.003 819.598 268.086 822.632 267.436C826.965 266.569 829.782 260.719 825.882 257.685C818.948 252.268 810.931 248.151 802.48 245.768C800.097 245.118 797.496 244.468 795.113 245.334C793.163 245.985 790.563 247.285 789.479 245.551C791.429 245.768 793.596 245.118 794.896 243.601C790.779 242.734 786.662 242.084 782.329 241.868C777.562 246.201 774.095 252.268 775.611 258.335C777.778 267.87 790.129 275.67 785.579 284.338C789.913 283.471 794.246 282.387 798.363 283.471C800.53 284.121 802.697 285.421 804.214 287.154V286.938C805.514 286.504 806.814 286.071 808.114 286.504C809.414 286.938 810.497 288.238 809.847 289.538C809.414 290.405 808.331 291.055 808.764 291.921C808.981 292.355 809.631 292.572 810.281 292.788C811.798 293.222 812.664 295.172 812.014 296.688C809.847 296.472 807.464 296.472 805.297 296.255C804.647 297.989 803.564 299.505 802.697 301.022C799.663 307.739 801.83 315.54 802.047 323.124C802.263 327.024 801.397 331.141 799.447 334.391C799.88 334.391 800.313 334.175 800.747 334.175C809.197 332.658 818.731 334.825 823.932 341.759C829.132 348.476 827.399 360.393 819.381 363.427C816.348 364.727 812.881 364.51 810.064 366.244C808.981 366.894 808.114 368.194 807.681 369.494C812.881 366.677 818.081 363.86 823.932 362.777C822.632 365.594 820.248 367.544 817.215 368.411C818.081 369.061 817.865 370.578 816.998 371.228C816.131 371.878 814.831 371.661 813.748 371.444C812.664 371.228 811.364 371.011 810.281 371.228C809.197 371.444 808.547 372.311 808.114 373.178C807.897 373.611 807.897 374.045 807.897 374.478C807.897 374.695 807.897 375.128 808.114 375.345C811.148 372.961 815.698 372.744 818.731 375.128C819.815 375.995 820.898 377.295 821.982 378.162C823.282 379.028 825.232 379.462 826.099 380.762C827.182 382.062 826.315 384.662 824.799 384.445C824.799 385.312 825.665 385.745 826.315 385.962C827.182 386.179 828.049 385.962 828.699 386.396C830.432 387.262 829.999 389.862 828.699 391.163C827.182 392.246 825.232 392.463 823.282 392.463C818.298 392.463 813.314 392.679 808.764 390.513C806.597 389.646 804.647 388.129 802.48 387.479C800.313 386.612 797.713 386.612 795.763 388.129C794.896 388.779 794.463 389.862 793.596 390.513C791.646 392.246 788.396 392.679 786.229 391.163C784.495 389.862 783.629 387.479 784.062 385.312C782.112 387.479 780.378 389.862 779.078 392.463C780.162 395.496 781.245 398.747 782.329 401.78C782.762 402.864 782.979 403.73 783.412 404.814C784.495 407.847 786.229 411.314 789.262 411.531C793.379 411.748 797.28 406.33 800.53 411.314C801.18 412.181 801.397 413.481 801.397 414.564C801.397 416.731 804.43 419.548 806.164 417.815C805.947 416.298 805.73 414.564 806.597 413.048C807.247 411.531 809.414 410.664 810.714 411.748C811.581 412.398 811.798 413.698 811.798 414.781C811.798 416.298 811.798 418.031 811.581 419.548C811.148 423.448 809.631 427.349 806.38 429.299C803.78 430.816 800.313 432.116 802.263 435.366C802.697 436.016 804.647 435.149 805.08 436.016C806.381 437.75 805.514 439.483 805.514 441.433C805.73 445.55 810.497 447.717 813.098 450.967C816.781 455.518 815.915 462.018 817.648 467.652C821.332 478.919 835.416 486.287 834.766 497.988C834.549 502.538 832.166 508.388 836.066 510.989C838.666 512.722 842.133 511.422 844.95 510.122C850.151 507.738 855.568 505.355 860.768 502.755C862.935 501.671 865.102 500.588 866.185 498.638C866.835 497.554 866.835 496.254 867.702 495.387C868.785 494.087 870.952 493.871 872.686 493.221C876.586 491.921 879.186 488.237 881.136 484.553C883.303 480.653 884.82 476.536 886.12 472.202C886.337 471.119 886.77 469.819 886.337 468.735C885.253 464.618 877.886 464.185 877.669 459.851C877.453 458.118 878.753 456.384 879.403 454.651C880.053 452.917 879.403 450.317 877.453 450.534C876.369 453.784 875.286 457.034 872.686 459.418C870.302 461.801 866.185 462.668 863.585 460.718C861.635 459.201 860.985 456.601 859.685 454.434C857.735 451.184 853.834 449.234 852.101 445.984C850.367 442.517 852.967 436.883 856.434 438.4C858.168 444.683 862.502 450.317 868.352 453.567C872.036 452.267 875.286 450.751 878.536 448.8C880.053 447.5 882.22 449.884 882.436 452.051C882.653 454.218 882.22 456.601 883.953 457.901C884.82 458.551 885.903 458.551 886.987 458.551C895.654 458.551 904.321 457.468 912.772 455.518C911.039 460.501 915.589 466.568 921.006 466.352C920.356 468.519 918.189 470.035 916.239 470.035C917.323 471.986 918.406 474.152 920.139 475.453C922.09 476.753 924.906 477.186 926.423 475.453C927.94 473.936 928.157 471.119 930.107 470.252C932.49 469.385 934.657 472.202 934.441 474.586C934.224 477.186 932.707 479.136 931.84 481.52C930.107 486.287 931.624 491.704 933.357 496.471C936.391 505.788 939.424 515.539 945.708 523.34C947.875 521.173 950.042 519.223 952.425 517.056C955.459 517.489 955.459 521.823 954.592 524.64C953.725 527.457 952.642 531.357 955.242 533.09C957.626 534.391 960.659 532.224 961.309 529.623C961.743 527.023 960.659 524.423 959.359 521.823C957.842 518.789 956.326 515.539 954.809 512.505C954.375 511.422 953.725 510.339 953.725 509.039C953.725 507.955 954.375 507.088 954.809 506.222C956.109 503.188 956.542 499.721 956.109 496.471C964.343 492.354 971.06 485.637 975.177 477.619C975.827 476.319 976.477 475.019 977.561 474.369C980.811 471.986 986.445 475.453 989.478 472.419C993.595 473.936 997.062 477.186 999.012 481.086C1000.53 483.903 1001.83 487.803 1004.86 488.02C999.879 489.97 996.629 495.387 997.062 500.588C1002.05 501.888 1007.46 497.121 1007.03 492.137C1008.98 491.054 1011.58 492.354 1012.45 494.304C1013.53 496.254 1013.31 498.638 1013.31 500.805C1012.88 507.522 1012.45 514.239 1012.23 520.739C1012.01 522.69 1012.01 524.856 1013.1 526.59C1014.18 528.107 1016.13 528.973 1016.78 530.707C1017.86 533.307 1015.7 536.557 1017 538.941C1017.65 540.241 1019.16 540.674 1020.46 541.758C1022.85 543.708 1023.71 546.958 1025.45 549.558C1027.18 552.159 1031.3 553.892 1033.25 551.292C1029.13 548.042 1026.53 543.058 1026.31 537.857C1026.31 536.557 1026.31 535.474 1025.88 534.39C1025.23 533.09 1023.93 532.224 1022.85 531.14C1016.35 525.29 1017.21 515.106 1018.51 506.438C1021.55 510.772 1026.31 513.806 1031.51 514.889C1029.78 518.356 1031.3 522.906 1034.55 524.856C1034.77 521.389 1037.37 518.356 1040.62 517.489C1042.13 517.056 1043.65 517.056 1044.95 516.406C1049.07 514.672 1049.5 509.255 1049.28 504.922C1049.28 503.188 1049.07 501.455 1048.2 499.938C1046.68 497.554 1043.43 497.121 1041.05 495.604C1036.72 493.004 1034.55 487.153 1036.28 482.386C1038.02 477.619 1043.43 474.586 1048.42 475.669C1050.15 476.319 1049.28 478.919 1047.98 480.003C1046.47 481.086 1044.52 481.736 1043.87 483.47C1043 485.853 1045.82 488.454 1048.2 487.804C1050.58 487.37 1052.32 484.77 1052.32 482.17C1052.53 479.57 1051.67 477.186 1050.58 474.802C1055.78 475.886 1061.63 474.152 1065.32 470.035C1066.4 468.952 1067.27 467.652 1068.57 466.785C1071.17 465.268 1074.85 466.135 1076.8 463.968C1078.32 462.452 1078.32 459.851 1078.75 457.468C1079.62 453.351 1082.87 450.101 1084.82 446.417C1086.77 442.733 1088.5 436.883 1087.64 432.766C1086.99 429.732 1085.25 426.915 1084.17 424.098C1083.3 421.932 1082.87 419.981 1082.65 417.598C1082.44 416.731 1082.44 415.648 1082.87 414.998C1083.52 413.481 1085.47 413.264 1086.77 412.398C1088.72 411.097 1089.8 408.497 1089.15 406.114C1083.52 408.064 1077.02 406.547 1072.68 402.43C1073.98 400.047 1076.8 398.963 1079.19 397.663C1081.57 396.363 1084.17 394.413 1083.95 391.596C1085.47 391.596 1086.99 391.596 1088.5 391.596C1088.72 394.196 1087.42 396.58 1085.47 398.096C1087.64 399.83 1090.67 398.096 1093.05 396.796C1095.44 395.496 1099.55 395.496 1099.99 398.313C1100.2 400.913 1096.3 402.647 1096.74 405.247C1099.55 404.38 1102.59 408.064 1101.07 410.664C1100.64 411.314 1099.99 411.964 1100.2 412.831C1100.42 413.698 1101.5 414.131 1102.37 414.564C1104.75 415.865 1105.84 419.115 1104.54 421.498C1106.27 420.198 1107.79 418.898 1109.52 417.598C1109.95 419.115 1111.69 420.198 1113.2 419.765C1114.72 419.331 1115.8 417.598 1115.37 416.081C1115.15 414.564 1113.64 413.481 1113.2 412.181C1112.55 410.014 1114.07 407.631 1113.42 405.464C1112.77 403.73 1111.04 402.864 1109.52 401.78C1108 400.697 1106.7 398.747 1107.57 397.23C1108 396.363 1109.3 395.93 1110.17 395.28C1114.72 392.463 1115.8 384.229 1121.22 384.012C1122.31 384.012 1123.39 384.229 1124.47 384.229C1127.51 383.795 1128.59 380.112 1130.11 377.295C1133.36 371.011 1140.94 367.977 1144.19 361.91C1146.79 357.143 1146.57 351.509 1148.09 346.309C1149.17 342.625 1151.34 338.725 1150.04 335.042C1148.31 330.491 1140.94 329.624 1138.34 333.525C1138.77 331.141 1139.21 328.974 1139.64 326.591C1137.91 331.791 1127.29 327.024 1136.61 322.04C1142.89 318.574 1148.52 314.023 1153.07 308.389C1154.59 306.439 1156.11 304.489 1158.06 303.189C1165.43 298.205 1175.61 304.489 1184.28 302.106C1184.49 302.972 1184.93 303.839 1185.14 304.706C1182.76 305.573 1180.59 306.656 1178.21 307.523C1183.19 309.906 1188.39 304.272 1193.81 304.706C1195.33 304.706 1197.71 304.706 1197.71 303.189C1196.19 302.972 1194.46 302.106 1194.68 300.805C1194.68 300.372 1195.11 299.939 1195.54 299.505C1196.84 297.989 1198.36 296.472 1199.88 294.955C1202.26 292.355 1206.16 289.755 1208.76 291.921C1210.71 293.655 1209.85 297.555 1207.25 297.989C1208.98 299.722 1211.8 298.205 1213.53 296.472C1215.26 294.738 1217.43 292.788 1219.6 293.655C1220.25 292.355 1220.25 290.838 1219.6 289.538C1221.33 288.455 1223.71 288.238 1225.66 288.888C1224.36 289.971 1223.71 291.271 1223.5 293.005C1223.28 294.088 1223.5 294.955 1223.06 296.038C1221.98 299.722 1217.21 300.155 1213.75 301.672C1207.68 304.489 1205.73 312.29 1200.31 316.19C1199.01 317.057 1197.49 317.923 1196.41 319.007C1194.03 321.607 1194.24 325.724 1195.54 328.974C1196.63 332.225 1198.58 335.475 1198.79 339.158C1198.79 339.809 1198.79 340.459 1198.79 341.109C1198.58 343.492 1201.39 344.792 1203.13 343.059C1203.56 342.625 1204 342.192 1204.43 341.759C1206.38 339.809 1208.33 337.858 1209.2 335.258C1209.85 333.525 1210.06 331.141 1211.8 330.274C1213.1 329.624 1214.61 329.841 1215.91 329.624C1217.21 329.408 1218.73 327.891 1218.08 326.808C1215.7 325.074 1216.13 320.957 1218.73 319.874C1219.81 320.307 1220.9 320.957 1221.98 321.39C1224.58 320.307 1220.68 316.19 1221.98 313.59C1222.41 312.723 1223.71 312.073 1223.71 310.99C1223.71 309.69 1221.76 309.473 1220.46 309.69C1219.6 305.356 1222.63 300.589 1226.75 299.505C1226.75 300.372 1226.53 301.239 1226.53 302.106C1228.7 300.805 1230.65 299.505 1232.81 298.205C1233.25 299.289 1233.46 300.155 1233.9 301.239C1236.5 302.539 1238.45 296.905 1241.05 297.772C1241.7 297.989 1241.91 298.422 1242.56 298.855C1244.51 300.372 1247.77 299.289 1248.42 296.905C1250.37 288.021 1261.2 287.588 1270.52 286.721C1272.68 285.421 1275.5 284.554 1275.07 282.604ZM870.952 392.246C869.435 393.546 867.269 393.979 865.102 393.763C864.668 394.196 864.885 395.063 865.535 395.28C866.185 395.713 866.835 395.713 867.269 396.146C868.135 397.013 867.702 398.313 867.919 399.613C868.135 401.563 869.869 402.863 870.302 404.814C871.169 408.064 867.485 411.097 864.018 411.097C856.868 411.097 851.884 405.464 850.151 399.18C849.067 395.713 847.117 385.962 852.534 385.529C850.801 383.362 852.534 380.978 851.667 378.595C851.017 377.295 849.717 376.645 848.85 375.778C846.9 373.828 847.334 370.361 848.85 368.194C850.367 366.027 852.967 364.51 855.568 363.644C858.168 362.56 860.985 361.91 863.368 362.994C865.969 364.077 867.269 367.544 865.535 369.494C863.585 371.661 859.468 370.361 857.518 372.744C856.434 374.045 856.868 376.428 857.951 377.728C859.035 379.028 860.768 379.895 862.502 380.545C863.368 380.978 864.452 381.412 864.885 382.279C865.535 383.579 864.235 385.095 863.585 386.396C862.935 387.696 862.935 390.079 864.452 390.079C865.969 390.079 866.185 387.912 867.052 386.829C868.135 385.095 871.169 385.312 872.252 387.046C872.902 388.346 872.469 390.729 870.952 392.246ZM1048.85 325.941C1048.63 326.591 1048.2 327.241 1047.98 327.891C1047.77 328.541 1047.77 329.408 1047.55 330.274C1046.9 332.441 1044.95 333.958 1043 335.475C1041.7 336.342 1040.4 337.425 1039.53 338.942C1039.32 339.592 1038.88 340.242 1038.67 340.675C1036.72 343.926 1031.08 344.576 1034.77 340.025C1036.93 337.208 1040.18 333.308 1043 330.924C1043.87 330.058 1045.17 329.408 1045.6 328.324C1046.68 326.591 1046.03 324.424 1046.03 322.474C1046.03 320.524 1047.55 318.14 1049.5 318.574C1050.15 320.957 1049.93 323.557 1048.85 325.941ZM806.38 290.838C806.38 291.055 806.38 291.271 806.38 291.488C806.38 292.355 806.164 293.005 805.947 293.655C806.164 293.655 806.597 293.655 806.814 293.655C807.247 292.788 807.031 291.921 806.38 290.838ZM791.646 338.942C795.33 338.725 797.93 336.342 799.663 333.308C796.413 334.175 792.946 335.908 791.646 338.942Z" fill="#E498A0"/>
<path d="M819.815 362.343C816.781 363.643 813.314 363.427 810.497 365.16C809.414 365.81 808.547 367.11 808.114 368.411C807.681 368.627 807.247 368.844 806.814 369.061C798.796 373.611 801.83 363.643 794.246 363.643C786.879 363.643 789.046 375.994 785.795 374.911C784.929 376.861 786.229 379.028 785.795 380.978C785.579 381.628 785.145 382.278 784.929 382.928C784.712 383.362 784.712 383.795 784.495 384.228C782.545 386.395 780.812 388.779 779.512 391.379C779.512 391.162 779.295 390.729 779.295 390.512C777.561 388.779 774.311 390.729 773.661 393.112C773.011 395.496 774.095 398.096 774.961 400.48C775.611 402.863 775.828 405.68 774.095 407.63C773.228 408.497 771.711 409.147 773.011 411.314C773.444 412.181 774.528 412.397 775.395 412.181C777.345 411.964 779.078 415.431 777.128 415.648C773.661 416.081 771.061 412.397 769.978 409.147C768.894 405.897 768.244 401.996 765.21 400.046C763.694 399.18 761.744 398.746 761.094 397.013C760.01 394.413 763.26 391.379 762.177 388.779C760.877 386.179 756.76 387.262 754.593 385.312C752.86 383.795 753.076 380.545 751.343 379.028C750.476 378.161 749.176 377.945 748.092 377.511C744.409 376.211 741.592 373.178 740.075 369.711C737.908 370.144 738.342 373.178 739.208 374.911C742.892 382.062 748.959 387.912 756.11 391.596C753.726 392.679 752.643 395.496 751.776 397.88C750.259 401.563 748.959 405.247 747.442 408.93C745.276 408.714 742.892 408.28 741.159 406.98C739.425 405.68 738.342 402.863 739.859 401.13C742.242 403.513 747.009 402.647 748.309 399.613C749.826 396.579 747.442 392.462 744.192 392.029C745.492 388.129 741.159 384.662 737.258 383.145C733.358 381.628 728.591 379.678 727.941 375.561C726.207 374.044 723.174 374.694 721.224 376.211C719.274 377.728 717.54 379.678 715.373 380.328C713.206 381.195 709.956 379.895 709.956 377.295C708.873 378.378 707.573 379.245 706.489 380.328C709.089 380.978 707.573 385.312 705.189 386.612C702.806 387.912 699.339 388.562 698.689 391.379C698.472 392.462 698.689 393.546 698.689 394.629C698.689 396.363 697.822 397.879 697.172 399.396C695.222 403.08 692.838 407.414 688.504 408.064C686.121 408.497 682.221 408.714 682.654 411.314C679.187 408.28 674.203 406.764 669.653 407.63C669.87 405.463 670.303 403.297 670.52 401.13C669.003 400.913 667.269 400.696 665.753 400.48C668.136 397.013 669.003 392.462 668.136 388.345C667.486 385.962 666.836 382.928 669.22 382.062C667.92 380.978 667.053 379.678 666.619 377.945C669.87 376.428 673.77 376.428 677.237 377.511C678.754 377.945 680.054 378.811 681.571 379.245C685.904 380.545 691.105 379.028 693.488 375.344C695.872 371.661 695.005 365.81 691.105 363.643C688.938 362.56 686.554 362.343 684.604 361.26C682.654 359.96 681.571 356.71 683.521 355.409C685.254 358.01 688.938 358.66 691.538 357.143C690.455 355.193 689.805 352.809 690.021 350.426C691.755 349.776 694.138 351.509 693.922 353.459C697.172 353.459 700.422 351.292 701.505 348.259C701.939 347.176 701.939 346.092 702.806 345.225C703.889 344.142 705.406 343.925 706.923 343.275C710.39 341.975 712.556 337.641 711.473 334.174C716.023 332.008 721.007 331.141 725.991 331.358C724.257 328.107 722.307 324.64 722.524 320.957C722.741 317.273 725.774 313.373 729.458 313.806C730.108 315.973 729.891 318.357 729.458 320.523C730.541 320.74 731.625 320.957 732.708 321.173C730.324 323.124 727.941 326.807 730.541 328.757C732.491 330.274 735.308 328.324 737.692 328.757C738.775 328.974 739.642 329.624 740.725 330.058C745.492 331.358 750.259 323.34 754.16 326.157C755.46 327.024 756.11 328.974 758.493 328.757C759.793 328.541 760.877 327.674 761.527 326.591C762.827 324.207 762.394 321.607 762.61 319.007C762.827 316.84 763.91 314.24 766.077 313.806C768.461 313.156 770.844 315.106 773.228 315.323C777.345 315.756 780.595 310.123 778.212 306.656C774.961 309.039 771.061 310.339 767.161 309.906C766.077 307.956 768.461 305.572 770.628 304.706C777.995 301.455 786.446 300.372 794.246 301.889C795.763 300.589 793.596 298.422 791.863 297.555C790.129 296.688 788.179 294.521 789.696 293.221C784.495 291.054 779.945 298.422 774.311 298.638C768.461 298.855 765.21 291.271 767.377 285.854C769.544 280.437 774.961 277.187 779.945 274.37C776.695 269.169 768.027 268.736 764.127 273.72C764.56 277.62 763.044 281.954 760.01 284.554C756.977 287.154 751.776 289.754 752.86 293.655C753.726 297.122 759.36 298.855 758.71 302.322C758.06 305.572 752.643 305.572 751.343 308.823C750.476 310.989 752.209 313.806 751.126 315.973C750.043 318.14 746.792 318.14 744.842 319.657C743.542 320.74 742.675 322.257 741.592 323.34C740.292 324.424 738.125 324.857 737.258 323.557C736.392 322.257 737.475 320.523 738.125 318.79C740.075 314.24 737.258 309.256 734.441 305.139C728.808 304.706 725.991 315.323 720.79 313.156C719.274 312.506 718.407 310.989 717.757 309.689C715.807 306.006 713.64 302.105 712.773 297.772C712.123 293.438 712.773 288.888 715.807 285.637C719.707 281.52 726.424 281.304 730.758 277.62C735.742 273.503 736.825 265.919 742.242 262.452C745.492 260.285 750.259 259.202 750.693 255.302C747.226 255.518 743.759 255.952 740.292 256.168C741.809 253.351 745.709 251.835 748.743 252.701C747.442 249.885 750.693 246.851 753.726 246.418C756.76 245.984 760.01 246.851 763.044 245.984C765.427 245.334 767.377 243.384 769.761 242.517C771.711 241.651 774.095 241.434 776.261 241.217C778.645 241.001 781.245 241.001 783.629 241.217C778.862 245.551 775.395 251.618 776.911 257.685C779.078 267.219 791.429 275.02 786.879 283.687C791.213 282.82 795.546 281.737 799.663 282.82C801.83 283.471 803.997 284.771 805.514 286.504C805.297 288.238 806.597 289.754 807.464 291.271C807.464 291.488 807.464 291.704 807.464 291.921C807.464 292.788 807.247 293.438 807.03 294.088C803.347 293.871 794.896 292.138 799.013 298.205C800.747 296.038 801.613 297.338 803.78 297.122C804.647 297.122 805.514 296.038 805.08 295.388C805.514 295.388 805.947 295.388 806.597 295.388C805.947 297.122 804.864 298.638 803.997 300.155C800.963 306.872 803.13 314.673 803.347 322.257C803.564 326.157 802.697 330.274 800.747 333.524C801.18 333.524 801.613 333.308 802.047 333.308C810.497 331.791 820.031 333.958 825.232 340.892C829.566 347.392 827.832 359.093 819.815 362.343Z" fill="#E9F4A6"/>
<path d="M662.286 329.84C662.286 332.007 664.236 333.741 663.803 335.908C663.153 337.858 660.336 338.724 660.336 340.891C660.119 343.275 663.369 344.142 665.753 343.491C669.87 342.625 673.77 340.025 676.154 336.558C677.237 334.824 677.887 331.791 675.72 331.141C678.537 330.274 681.137 329.19 683.954 328.324C686.121 330.057 688.288 333.091 686.554 335.474C685.471 336.774 682.654 337.858 683.521 339.375C683.954 340.025 684.821 340.458 684.821 341.108C685.038 341.975 684.171 342.408 683.738 343.058C681.137 345.225 679.621 348.475 679.837 351.942C683.738 348.475 688.938 346.525 694.138 346.742C695.438 346.742 696.739 346.958 697.605 346.092C698.472 345.225 698.039 343.275 696.955 343.491C698.472 342.408 699.989 341.325 701.289 340.241C701.722 340.025 701.939 339.808 702.156 339.375C702.589 338.508 701.722 337.641 700.856 337.208C699.989 336.991 698.905 336.991 698.039 336.558C696.089 335.691 695.872 333.091 695.222 331.141C694.572 329.19 692.188 327.024 690.671 328.54C691.105 326.59 691.538 324.64 690.671 322.69C689.805 320.956 687.421 319.656 685.904 320.74C685.038 319.44 687.204 318.139 688.288 316.839C689.588 315.539 689.371 313.156 688.288 312.072C686.988 310.772 684.821 310.772 683.521 312.072C683.738 308.389 684.388 303.838 688.071 302.755C688.938 302.538 690.021 302.538 691.105 302.105C691.972 301.672 693.055 300.805 692.838 299.938C693.055 301.022 695.005 301.238 695.655 300.155C696.305 299.288 696.305 297.771 696.089 296.688C693.272 295.821 692.188 300.588 689.371 301.455C688.071 301.888 686.771 301.455 685.471 301.888C682.654 303.188 683.304 308.389 680.271 309.255C679.621 309.472 678.754 309.255 678.104 309.689C676.804 310.339 676.587 312.072 677.02 313.589C677.454 315.106 677.887 316.623 677.237 317.923C676.804 318.573 676.154 319.44 676.37 320.09C676.804 321.173 678.321 320.74 679.187 321.173C681.787 322.04 680.271 325.073 678.971 326.374C677.237 327.89 674.42 327.457 672.47 327.24C669.436 326.59 662.286 323.99 662.286 329.84Z" fill="#E9F4A6"/>
<path d="M726.858 390.078C726.425 389.861 726.208 389.428 725.775 389.211C726.858 388.995 727.508 387.911 727.725 386.611C727.725 385.528 727.291 384.444 726.641 383.577C725.991 382.494 724.691 381.411 723.391 381.844C721.874 382.494 721.658 384.661 722.308 386.394C722.741 387.911 723.608 389.861 722.524 391.378C723.174 391.161 723.824 391.378 724.258 391.811C721.874 393.328 721.441 398.095 724.908 398.312C728.375 398.529 729.025 394.195 725.558 393.328C725.341 393.111 726.858 390.078 726.858 390.078Z" fill="#E9F4A6"/>
<path d="M1119.71 427.566C1119.92 425.616 1120.14 423.449 1121.66 422.583C1122.09 423.883 1123.17 424.966 1124.26 425.616C1125.34 424.966 1125.99 423.883 1126.64 422.799C1127.29 421.716 1128.16 420.632 1129.46 420.416C1130.76 420.199 1132.06 421.499 1131.41 422.583C1134.66 423.883 1136.82 419.116 1139.64 417.382C1141.16 416.515 1143.11 416.299 1144.84 415.865C1146.57 415.432 1148.52 414.349 1148.74 412.398C1148.96 411.315 1148.52 410.232 1148.31 409.148C1148.31 406.981 1150.04 405.031 1151.12 403.081C1153.07 399.614 1153.07 395.28 1151.34 391.597C1150.26 389.647 1148.96 387.913 1148.31 385.963C1147.87 383.796 1148.96 381.196 1151.12 381.196C1151.77 382.929 1152.42 385.096 1154.37 385.746C1156.11 386.396 1158.49 384.23 1157.19 382.713C1159.14 382.063 1161.31 382.063 1163.48 382.279C1164.34 380.979 1164.13 379.029 1163.04 377.946C1169.54 375.562 1175.39 371.012 1179.73 365.595C1173.66 369.278 1167.81 372.962 1161.74 376.862C1161.09 377.296 1160.22 377.729 1159.36 377.512C1158.71 377.296 1158.27 376.429 1157.84 375.779C1156.32 372.745 1152.86 370.795 1149.39 370.795C1149.61 373.612 1150.04 376.429 1150.26 379.463C1148.31 379.029 1146.36 380.979 1145.92 382.929C1145.49 384.88 1145.92 387.046 1146.14 389.213C1146.79 396.581 1143.32 403.948 1137.47 408.281C1137.47 407.198 1137.47 405.898 1137.47 404.814C1134.44 405.248 1135.74 411.098 1132.92 412.615C1132.06 413.048 1131.19 413.048 1130.32 413.048C1125.99 413.482 1125.99 418.032 1121.22 416.299C1120.79 422.149 1113.42 421.066 1113.85 426.916C1114.29 431.9 1118.84 435.584 1119.71 427.566Z" fill="#E498A0"/>
<path d="M1158.28 335.907C1158.28 336.341 1158.49 336.774 1158.28 337.208C1158.06 338.074 1157.62 338.724 1157.19 339.374C1156.76 340.674 1157.63 342.191 1158.71 343.058C1159.79 344.141 1160.88 344.791 1161.53 346.092C1162.61 348.258 1161.74 351.075 1163.48 352.809C1163.04 354.109 1161.09 353.675 1160.01 352.809C1158.93 351.942 1157.63 351.075 1156.54 351.725C1155.24 353.675 1155.89 356.276 1156.97 358.443C1158.06 360.609 1159.36 362.776 1159.14 365.16C1159.14 366.243 1158.28 367.543 1157.19 367.327C1156.76 367.327 1156.54 366.893 1156.11 366.677C1154.59 365.16 1153.07 363.643 1152.86 361.693C1152.64 360.176 1153.07 358.876 1153.51 357.359C1154.37 354.326 1154.37 351.292 1153.94 348.258C1153.72 346.958 1153.51 345.658 1153.51 344.358C1153.51 341.975 1154.81 339.158 1153.51 337.208C1153.07 336.557 1152.42 335.907 1152.64 335.257C1153.29 333.957 1155.89 331.79 1156.97 330.707C1157.84 332.441 1158.06 334.391 1158.28 335.907Z" fill="#E498A0"/>
<path d="M1005.3 541.108C1007.25 542.625 1009.85 543.708 1010.93 545.875C1011.8 547.608 1011.8 549.775 1013.1 551.075C1013.75 551.725 1014.83 552.159 1015.7 552.809C1017.43 554.326 1017 557.359 1017.86 559.526C1019.16 562.776 1022.85 564.51 1023.5 567.76C1023.71 568.844 1023.5 570.144 1024.15 571.227C1025.01 573.177 1027.83 573.611 1029.35 575.344C1030 576.211 1030.43 577.077 1031.08 578.161C1032.81 580.544 1036.5 581.411 1039.32 580.111C1038.45 578.594 1037.8 576.861 1037.8 575.127C1037.8 574.044 1038.02 572.961 1037.8 572.094C1037.37 569.71 1034.98 567.977 1034.33 565.593C1035.41 564.727 1036.93 566.027 1037.58 567.11C1038.23 568.193 1039.75 569.494 1040.83 568.627C1038.67 565.81 1036.28 563.426 1033.68 561.26C1033.9 562.343 1032.6 562.993 1031.51 562.56C1030.65 562.126 1030 561.26 1029.56 560.393C1029.13 559.743 1028.7 559.093 1028.91 558.226C1028.91 557.576 1029.35 556.926 1029.35 556.493C1029.56 555.192 1028.7 553.892 1027.61 553.242C1026.53 552.376 1025.23 551.942 1024.36 551.075C1022.41 549.125 1022.2 545.875 1019.81 544.575C1018.73 543.925 1017.43 543.925 1016.13 543.491C1012.66 541.758 1012.01 536.558 1007.9 534.824C1002.26 531.791 1000.96 538.074 1005.3 541.108Z" fill="#E498A0"/>
<path d="M1040.4 580.543C1039.53 581.626 1038.67 582.927 1037.8 584.01C1037.58 584.227 1037.37 584.443 1037.37 584.877C1037.37 585.743 1038.67 585.96 1039.53 585.743C1042.35 585.31 1044.95 585.527 1047.77 586.177C1052.32 587.26 1056.65 589.86 1061.2 589.427C1061.85 589.427 1062.5 589.21 1063.37 589.427C1064.02 589.644 1064.88 589.86 1065.53 590.077C1067.27 590.51 1069.22 590.294 1070.52 589.427C1069.22 588.127 1067.27 588.344 1065.53 588.127C1063.8 587.91 1061.85 587.26 1061.63 585.527C1061.63 585.093 1061.63 584.66 1061.63 584.227C1061.42 583.36 1060.33 582.71 1059.25 582.71C1058.17 582.71 1057.3 582.927 1056.22 582.71C1054.48 582.493 1053.4 580.76 1051.67 580.543C1049.93 580.326 1049.28 581.626 1047.98 581.626C1045.17 581.843 1043 577.076 1040.4 580.543Z" fill="#E498A0"/>
<path d="M1079.62 590.512C1081.14 590.512 1082.44 591.595 1083.95 591.162C1084.39 590.945 1084.6 590.728 1085.04 590.728C1085.47 590.728 1085.9 590.945 1086.34 591.162C1090.24 592.895 1095 587.695 1098.9 589.428C1098.04 593.329 1092.84 594.629 1090.89 597.879C1094.35 597.446 1097.6 595.495 1099.99 592.895C1100.64 592.245 1101.29 591.378 1101.94 590.945C1102.37 590.728 1103.02 590.512 1103.45 590.078C1104.54 589.428 1105.19 588.128 1105.19 586.828C1104.1 586.828 1102.8 587.045 1101.72 587.695C1100.85 588.128 1100.2 588.778 1099.34 588.995C1097.82 589.428 1096.52 588.562 1095 588.345C1091.97 587.912 1088.94 591.162 1086.12 590.512C1085.04 590.295 1084.39 588.995 1083.09 588.778C1082 588.562 1080.05 588.995 1078.97 588.778C1077.45 588.562 1074.64 587.045 1073.55 588.562C1070.08 592.895 1078.75 590.295 1079.62 590.512Z" fill="#E498A0"/>
<path d="M1078.75 594.628C1079.4 593.978 1080.49 594.411 1081.14 595.061C1081.79 595.711 1082.22 596.578 1082.87 597.228C1083.74 597.661 1084.82 597.662 1085.47 597.011C1085.9 596.578 1086.12 596.145 1085.9 595.495C1085.69 595.061 1085.04 594.845 1084.6 594.628C1084.17 594.411 1083.52 594.195 1083.09 594.195C1082.22 593.978 1081.35 593.545 1080.27 593.761C1079.4 593.978 1078.32 594.628 1078.32 595.495" fill="#E498A0"/>
<path d="M1053.83 567.758C1052.1 567.975 1049.93 567.975 1049.28 566.458C1048.85 565.592 1049.28 564.508 1049.28 563.425C1049.28 561.691 1048.2 560.391 1047.55 558.874C1046.25 556.274 1045.82 553.457 1046.25 550.64C1046.47 549.99 1046.47 549.124 1047.12 548.69C1047.33 548.257 1047.77 548.04 1048.2 547.824C1049.72 546.957 1051.23 546.09 1052.97 545.44C1054.92 544.357 1057.08 543.273 1059.03 541.973C1063.8 538.723 1067.7 534.389 1070.3 529.189C1071.17 528.322 1072.69 529.189 1073.34 530.272C1073.99 531.356 1073.99 532.872 1075.07 533.739C1076.37 535.039 1079.4 535.473 1079.19 537.423C1079.19 538.289 1078.54 538.723 1077.89 539.373C1075.94 541.323 1075.29 544.357 1075.94 546.957C1076.59 549.557 1078.75 551.724 1081.35 552.591C1078.97 552.807 1075.94 553.674 1075.94 556.057C1075.94 557.574 1077.24 559.091 1076.37 560.391C1075.5 561.691 1073.34 561.041 1072.25 562.341C1071.39 563.208 1072.04 564.725 1072.04 566.025C1072.47 569.059 1070.09 572.309 1067.05 572.742C1065.75 572.959 1064.23 572.525 1063.58 571.442C1063.15 570.792 1063.15 570.142 1062.93 569.492C1061.85 566.892 1060.12 568.408 1058.38 568.408C1057.08 568.408 1055.35 567.542 1053.83 567.758Z" fill="#E498A0"/>
<path d="M1099.77 549.559C1099.99 549.559 1100.42 549.342 1100.64 549.342C1099.99 548.909 1099.34 549.125 1098.69 549.559C1098.04 549.992 1097.6 550.642 1097.17 551.076C1095.44 552.809 1093.05 553.893 1090.67 553.676C1089.15 553.459 1087.64 553.026 1086.12 553.242C1084.17 553.676 1082.87 555.193 1082.22 557.143C1082 558.009 1082.22 559.526 1083.09 559.31C1083.52 557.793 1085.04 556.493 1086.77 556.059C1088.29 555.626 1090.24 555.626 1091.75 555.843C1093.05 556.059 1094.35 556.493 1095.65 556.276C1096.95 556.059 1098.25 555.193 1098.47 553.892C1098.69 553.026 1098.04 551.942 1098.47 551.076C1098.9 550.209 1099.77 549.559 1099.34 548.909C1099.34 548.692 1100.2 549.559 1099.77 549.559Z" fill="#E498A0"/>
<path d="M1079.4 571.011C1080.05 573.828 1081.35 576.644 1080.27 579.245C1081.35 579.678 1082.65 578.811 1083.09 577.728C1083.52 576.644 1083.09 575.344 1082.87 574.044C1082.65 572.961 1082.22 571.661 1082.65 570.577C1082.65 570.361 1082.87 570.144 1083.09 569.927C1083.3 569.927 1083.3 569.927 1083.52 569.927C1085.04 570.361 1086.12 571.877 1086.55 573.177C1086.99 574.694 1086.99 576.211 1087.2 577.728C1087.42 578.595 1087.64 579.678 1088.5 580.328C1089.8 581.195 1091.75 580.111 1092.19 578.595C1092.62 577.078 1092.19 575.344 1091.97 573.828C1091.75 571.661 1091.54 569.06 1089.59 567.977C1088.72 567.544 1087.64 567.327 1087.42 566.46C1087.2 565.377 1088.29 564.51 1089.37 564.293C1090.24 564.077 1091.32 563.86 1092.19 563.643C1093.27 563.427 1094.79 563.21 1095 561.91C1095.22 560.61 1093.49 560.176 1092.4 559.96C1090.89 559.743 1089.37 559.526 1088.07 559.743C1086.55 559.96 1085.04 560.61 1084.39 561.91C1084.17 562.127 1084.17 562.56 1083.74 562.56C1083.3 562.777 1082.87 562.343 1082.65 562.127C1082.44 561.693 1082.22 561.26 1082 561.043C1079.19 556.926 1079.19 569.927 1079.4 571.011Z" fill="#E498A0"/>
<path d="M1105.84 568.194C1104.32 567.76 1102.59 567.76 1100.85 568.41C1100.64 568.41 1100.2 568.627 1100.2 568.844C1100.2 569.06 1100.64 569.277 1100.85 569.494C1102.37 569.927 1104.1 569.71 1105.4 569.06C1105.19 568.41 1104.32 568.194 1103.67 568.41" fill="#E498A0"/>
<path d="M1112.77 567.328C1111.9 566.894 1110.82 567.111 1110.17 567.544C1109.52 568.195 1109.09 569.061 1109.52 569.928C1111.04 570.361 1112.77 568.411 1114.29 569.061C1115.37 569.495 1115.8 570.795 1116.89 571.011C1117.75 571.011 1118.4 569.711 1117.97 569.061C1117.54 568.411 1116.45 568.411 1116.02 567.978C1114.94 567.111 1115.59 565.378 1116.45 564.078C1115.15 563.861 1114.29 565.161 1114.07 566.461C1114.07 567.111 1114.07 567.544 1113.64 567.978C1113.42 568.411 1112.77 568.845 1112.34 568.628" fill="#E498A0"/>
<path d="M1106.05 559.743C1106.05 560.176 1106.05 560.609 1106.27 561.043C1106.49 561.476 1106.92 561.693 1107.35 561.476C1107.57 561.259 1107.79 561.043 1108 560.609C1108.44 559.526 1108.87 558.443 1108.44 557.359C1108.22 556.926 1107.79 556.492 1107.79 556.059C1107.35 554.759 1108.87 553.892 1109.95 554.109C1109.74 552.375 1108.22 553.676 1108.22 551.725C1108.22 551.509 1111.47 550.209 1108.87 549.775C1104.97 549.342 1106.05 557.576 1106.05 559.743Z" fill="#E498A0"/>
<path d="M1120.79 557.575C1119.05 557.791 1117.32 557.575 1116.02 556.708C1114.72 557.791 1115.59 559.742 1116.89 560.608C1118.19 561.475 1119.92 561.692 1121.22 562.342C1122.52 562.992 1123.61 564.942 1122.74 566.242C1123.82 566.459 1124.91 566.892 1125.99 567.109C1126.21 568.192 1125.12 568.842 1124.26 569.492C1123.39 570.142 1122.52 571.659 1123.61 572.093C1124.04 572.959 1125.34 572.959 1126.42 572.309C1127.29 571.876 1128.37 571.009 1129.24 571.442C1129.89 571.659 1130.32 572.309 1130.76 572.743C1132.71 574.693 1135.74 575.126 1138.34 576.426C1140.94 577.726 1143.11 580.76 1141.81 583.143C1141.37 584.01 1140.29 584.66 1139.64 585.527C1138.99 586.394 1138.56 587.477 1138.99 588.344C1141.16 588.561 1143.54 587.694 1145.27 586.394C1147.01 588.344 1149.17 590.077 1151.77 590.727C1154.37 591.377 1157.41 590.294 1158.49 587.91C1158.71 587.477 1158.92 586.827 1159.14 586.61C1159.79 586.177 1160.44 586.394 1161.31 586.394C1163.47 587.044 1165.64 587.694 1167.59 588.777C1168.03 588.994 1168.46 589.211 1168.68 589.644C1168.89 590.294 1168.68 590.944 1168.46 591.377C1168.24 593.544 1170.84 595.061 1173.23 595.278C1176.26 595.711 1179.29 596.144 1182.54 596.144C1182.54 594.628 1181.03 593.544 1179.51 593.111C1177.99 592.677 1176.26 592.678 1175.18 591.594C1173.88 590.294 1173.66 588.127 1172.36 587.044C1171.28 586.177 1169.33 585.527 1169.76 584.227C1169.98 582.71 1172.58 582.927 1173.01 581.627C1173.23 580.76 1172.58 579.893 1171.71 579.46C1170.84 579.243 1169.98 579.243 1169.11 579.026C1166.94 578.593 1164.99 576.643 1164.78 574.259C1164.78 573.393 1164.78 572.526 1164.56 571.659C1164.13 570.359 1162.61 569.926 1161.31 569.492C1154.59 567.325 1148.09 565.159 1141.37 562.992C1140.51 562.775 1139.42 562.342 1138.34 562.775C1135.74 563.642 1135.96 568.192 1133.36 568.626C1132.06 568.842 1130.76 567.759 1129.89 566.675C1129.02 565.592 1127.51 564.292 1127.51 562.775C1127.51 561.692 1128.37 560.825 1128.37 559.958C1127.29 557.141 1123.39 557.358 1120.79 557.575Z" fill="#E498A0"/>
<path d="M1172.36 578.593C1172.58 578.81 1173.01 579.026 1173.23 579.026C1176.04 579.893 1179.08 579.46 1181.68 578.16C1182.54 577.726 1183.19 577.293 1184.28 577.076C1184.93 577.076 1185.58 577.076 1186.01 577.076C1186.66 577.076 1187.31 576.643 1187.31 575.993C1187.53 575.343 1187.09 574.693 1187.31 574.259C1187.74 573.826 1188.61 574.043 1189.04 573.393C1189.48 572.959 1189.04 572.092 1188.39 571.659C1186.44 569.709 1184.28 567.542 1182.11 565.809C1181.89 568.625 1183.84 571.659 1181.68 574.043C1180.38 575.776 1171.71 577.51 1172.36 578.593Z" fill="#D5F8B2"/>
<path d="M1199.45 587.26C1200.53 587.694 1201.61 587.694 1202.48 588.127C1203.56 588.56 1204.43 589.21 1204.65 590.294C1204.65 590.294 1204.65 590.294 1204.65 590.077C1204.21 587.26 1201.61 585.744 1199.01 584.443C1198.79 584.227 1198.36 584.01 1198.14 583.793C1198.14 583.577 1194.89 585.744 1199.45 587.26Z" fill="#D5F8B2"/>
<path d="M1228.26 639.699C1228.05 638.615 1227.61 637.532 1226.96 636.665C1226.31 635.799 1225.01 635.149 1223.93 635.365C1222.85 637.532 1224.58 639.916 1226.53 641.216C1227.83 642.082 1229.56 642.733 1231.08 643.383C1228.91 643.599 1228.48 641.216 1228.26 639.699Z" fill="#D5F8B2"/>
<path d="M1234.55 619.981C1235.41 622.148 1236.06 624.531 1236.5 626.915C1237.58 626.265 1237.8 624.531 1237.15 623.665C1238.01 624.315 1238.01 625.615 1238.01 626.481C1238.45 629.082 1240.61 631.465 1243.21 632.115C1243.65 631.249 1243.21 630.382 1242.78 629.732C1242.13 629.082 1241.48 628.648 1240.83 627.998C1239.53 626.915 1238.88 625.181 1238.88 623.448C1238.88 621.931 1239.1 619.981 1237.8 619.331C1237.58 619.981 1237.36 620.631 1237.15 621.281C1236.71 621.281 1236.5 620.848 1236.28 620.414C1235.41 618.248 1236.28 614.997 1234.33 613.48C1234.11 614.347 1233.46 615.431 1232.38 615.647C1232.16 617.381 1233.9 618.464 1234.55 619.981Z" fill="#D5F8B2"/>
<path d="M1208.11 587.911C1209.63 588.561 1211.58 588.345 1212.66 589.428C1213.75 590.512 1213.53 592.462 1214.61 593.979C1215.05 594.629 1215.7 595.062 1216.13 595.495C1216.56 595.929 1216.78 597.012 1216.35 597.662C1215.7 598.312 1214.4 597.879 1213.96 597.012C1213.53 596.145 1213.53 595.279 1213.31 594.195C1213.1 593.328 1212.88 592.245 1211.8 591.812C1210.93 591.595 1209.85 592.028 1209.2 591.378C1208.98 591.162 1208.98 590.945 1208.76 590.512C1207.9 588.128 1204.86 587.045 1204.43 584.661C1205.95 585.745 1206.6 587.261 1208.11 587.911Z" fill="#D5F8B2"/>
<path d="M1119.49 584.011C1117.97 585.311 1116.67 586.828 1115.37 588.344C1116.24 588.778 1117.54 588.561 1118.19 587.694C1118.84 586.828 1119.06 585.744 1118.41 584.877" fill="#E498A0"/>
<path d="M1129.46 577.726C1130.32 578.376 1131.19 579.459 1131.19 580.543C1131.19 581.626 1130.11 582.709 1129.02 582.493C1129.24 580.976 1129.46 579.242 1129.67 577.726" fill="#E498A0"/>
<path d="M1119.71 601.996C1118.84 600.263 1116.67 599.613 1114.94 600.696C1116.24 601.78 1116.46 604.163 1115.16 605.463C1114.5 606.113 1113.64 606.547 1112.99 606.98C1110.6 608.713 1110.6 612.83 1112.77 614.781C1111.69 615.431 1110.6 615.864 1109.52 616.514C1108.65 613.697 1106.49 611.097 1103.67 610.014C1099.77 612.397 1096.95 616.297 1095.87 620.631C1095.44 620.631 1095 620.848 1094.57 620.848C1094.35 622.148 1094.14 623.448 1093.92 624.748C1092.84 623.448 1092.62 621.714 1092.84 620.198C1090.45 620.631 1089.15 623.015 1088.72 625.398C1088.07 627.565 1087.64 630.165 1086.12 631.682C1084.82 632.982 1083.3 633.415 1081.57 633.849C1078.97 634.716 1076.59 635.366 1073.99 636.232C1071.82 636.882 1069.65 637.532 1068.57 639.483C1067.7 640.999 1067.05 643.383 1065.32 643.166C1064.67 643.166 1064.02 642.516 1063.37 642.299C1061.85 641.866 1060.55 643.6 1060.55 645.116C1060.55 646.633 1061.2 648.15 1061.63 649.45C1062.07 650.967 1062.07 652.7 1060.77 653.784C1062.07 653.784 1063.58 654.434 1064.45 655.517C1065.32 656.601 1065.32 658.334 1064.23 659.417C1063.15 660.284 1061.2 659.851 1060.98 658.334C1064.02 666.568 1066.18 675.235 1067.48 684.119C1067.92 687.803 1068.35 691.487 1066.62 694.737C1069.65 697.12 1073.99 697.337 1077.24 695.387C1078.97 694.304 1080.49 692.57 1082.44 691.703C1085.69 690.187 1089.8 691.053 1093.27 689.97C1096.52 688.886 1099.12 686.286 1102.59 685.853C1105.19 685.42 1108 686.07 1110.17 684.769C1111.25 684.119 1111.9 683.253 1112.99 682.386C1114.07 681.736 1115.37 681.302 1116.89 681.302C1122.31 681.086 1127.72 684.769 1129.02 689.97C1129.24 691.27 1129.46 692.57 1129.89 693.87C1130.32 695.17 1131.62 696.254 1132.92 696.037C1133.36 691.92 1137.04 688.453 1141.16 688.67C1141.37 689.97 1140.51 691.27 1139.42 692.137C1138.34 693.003 1137.26 693.87 1136.82 694.954C1136.39 696.254 1136.82 697.987 1138.12 697.987C1138.77 696.687 1139.64 695.604 1140.94 694.737C1143.11 696.687 1142.02 700.587 1139.42 701.454C1142.02 700.587 1145.71 700.371 1146.57 702.971C1146.79 703.621 1146.79 704.488 1146.79 705.354C1147.22 709.255 1151.34 711.638 1155.02 713.372C1155.67 713.805 1156.54 714.022 1157.41 713.805C1158.71 713.588 1159.58 712.072 1160.23 710.988C1161.09 709.905 1162.61 708.821 1163.69 709.688C1164.56 710.555 1164.13 712.072 1164.99 712.938C1165.86 714.238 1168.03 713.588 1169.11 712.288C1170.19 710.988 1170.84 709.471 1172.14 708.605C1174.74 707.088 1179.29 708.171 1180.16 705.354C1180.59 703.838 1179.29 702.321 1178.86 700.804C1178.21 698.421 1179.73 695.82 1181.68 694.087C1183.63 692.353 1185.79 690.837 1186.88 688.453C1188.61 684.553 1186.88 680.002 1187.53 675.669C1188.18 671.335 1191.64 667.218 1189.91 663.318C1189.26 661.801 1187.74 660.501 1187.31 658.984C1186.66 657.467 1186.88 655.517 1186.01 654.217C1185.36 653.35 1184.28 653.134 1183.41 652.484C1180.59 650.533 1180.59 646.416 1179.51 643.166C1177.56 637.099 1171.93 633.415 1168.03 628.432C1167.38 627.565 1166.73 626.481 1166.29 625.398C1165.86 624.098 1166.08 622.798 1166.08 621.281C1165.86 618.031 1163.91 614.997 1161.09 613.264C1160.44 612.83 1159.79 612.614 1159.36 611.964C1158.71 611.097 1158.71 610.014 1158.71 608.93C1158.49 605.03 1156.97 601.346 1154.59 598.529C1152.86 606.98 1151.12 615.431 1149.39 623.665C1148.31 624.315 1147.22 624.965 1145.92 624.965C1145.49 622.798 1144.84 620.631 1144.41 618.464C1142.02 618.681 1139.42 618.681 1137.26 617.598C1135.09 616.514 1133.57 613.914 1134.44 611.53C1134.87 610.23 1136.17 608.93 1135.31 607.847C1137.47 608.713 1139.42 605.247 1137.69 603.513C1135.09 600.913 1132.49 604.813 1129.89 604.596C1126.21 604.38 1123.17 600.046 1119.71 601.996Z" fill="#D5F8B2"/>
<path d="M1165.86 733.089C1165.86 733.739 1165.86 734.389 1166.29 734.822C1166.51 735.039 1166.73 735.039 1166.94 735.039C1168.68 735.256 1171.06 734.822 1171.71 733.306C1172.14 732.005 1171.28 730.272 1171.71 728.972C1171.93 728.538 1172.14 728.105 1172.36 727.672C1173.01 726.588 1173.44 725.288 1173.01 724.205C1172.58 723.121 1171.49 722.038 1170.41 722.255C1169.76 722.471 1169.11 722.905 1168.46 722.905C1166.51 723.338 1160.44 719.004 1161.09 723.988C1161.31 725.505 1163.48 726.805 1164.13 728.105C1165.43 729.405 1165.86 731.355 1165.86 733.089Z" fill="#D5F8B2"/>
<path d="M1233.9 741.757C1232.6 742.19 1231.08 742.407 1229.78 743.274C1228.7 744.14 1228.05 746.09 1229.35 746.957C1230.21 747.607 1231.51 747.391 1232.6 747.607C1234.98 748.257 1235.2 751.508 1234.98 754.108C1236.71 754.758 1238.45 753.458 1239.31 751.724C1240.18 750.207 1240.83 748.257 1242.35 747.391C1243.43 746.741 1244.73 746.524 1245.38 745.657C1246.46 744.357 1245.81 742.407 1246.03 740.89C1246.9 736.773 1252.75 736.556 1254.27 732.656C1255.35 729.839 1257.3 724.639 1254.05 723.989C1246.25 722.472 1240.83 739.373 1233.9 741.757Z" fill="#D5F8B2"/>
<path d="M1259.25 726.804C1259.25 727.021 1259.25 727.237 1259.47 727.454C1259.68 727.888 1260.55 727.671 1260.77 727.454C1263.15 725.504 1261.63 721.387 1263.58 719.004C1264.23 718.137 1265.1 717.703 1265.97 717.053C1268.57 715.103 1270.08 711.853 1270.08 708.603C1269 709.253 1267.7 709.903 1266.4 710.119C1265.1 710.336 1263.58 709.903 1262.72 708.819C1261.85 707.519 1262.07 705.569 1261.2 704.269C1260.12 702.752 1257.95 702.536 1256.65 701.019C1255.57 699.719 1255.35 697.769 1255.13 696.035C1254.92 694.302 1254.05 692.351 1252.32 692.135C1248.85 696.035 1255.57 701.019 1256.43 704.269C1257.3 707.519 1255.57 708.386 1254.27 710.986C1252.97 713.803 1252.1 715.97 1254.7 718.137C1256.43 719.437 1257.73 717.487 1259.25 720.087C1260.12 721.387 1259.25 725.071 1259.25 726.804Z" fill="#D5F8B2"/>
<path d="M1081.79 493.439C1081.57 494.089 1081.35 494.522 1081.35 495.172C1081.35 497.122 1083.74 498.422 1083.74 500.373C1083.74 501.239 1083.52 501.889 1083.52 502.756C1083.52 503.623 1083.95 504.49 1084.82 504.49C1085.47 504.49 1085.9 503.839 1086.55 503.406C1086.99 502.973 1087.85 502.539 1088.29 503.189C1088.5 503.406 1088.5 503.839 1088.5 504.056C1088.29 506.223 1087.64 508.173 1086.77 510.123C1087.85 510.557 1089.15 509.907 1089.8 508.823C1090.45 507.74 1090.45 506.44 1090.67 505.356C1090.67 504.706 1090.67 504.056 1090.45 503.623C1090.02 502.756 1089.15 502.323 1088.5 501.673C1087.42 500.373 1087.42 498.422 1088.07 496.906C1088.72 495.389 1089.8 493.872 1090.45 492.355C1090.67 491.922 1090.67 491.489 1090.67 491.055C1090.67 490.622 1090.24 490.188 1090.24 489.755C1089.8 488.672 1089.59 487.588 1089.37 486.505C1087.42 476.537 1082.22 491.705 1081.79 493.439Z" fill="#E498A0"/>
<path d="M1100.42 508.605C1100.64 510.339 1099.77 512.289 1098.47 513.372C1098.25 513.589 1097.82 513.806 1097.6 514.239C1096.95 515.539 1098.47 516.623 1099.55 517.489C1103.02 520.09 1103.45 525.94 1100.42 529.19C1100.2 529.407 1099.77 529.84 1099.55 530.057C1099.34 530.49 1099.34 530.924 1099.34 531.357C1099.34 533.307 1099.55 535.041 1100.2 536.774C1098.47 537.641 1096.09 536.124 1095.44 534.174C1094.79 532.224 1095.22 530.057 1095.44 528.107C1095.65 527.457 1095.65 526.59 1095.22 525.94C1094.57 524.857 1092.84 525.073 1091.97 525.94C1091.1 526.807 1090.89 528.107 1090.45 529.19C1090.02 530.274 1089.59 531.574 1088.5 532.224C1087.64 528.107 1091.1 523.773 1095.22 523.34C1096.09 523.34 1097.17 523.34 1097.82 522.906C1098.69 522.473 1099.12 521.173 1098.47 520.74C1097.6 520.74 1097.39 519.656 1097.39 519.006C1097.39 518.139 1097.6 517.273 1096.95 516.839C1096.3 516.406 1095.22 516.839 1094.79 517.489C1094.35 518.139 1094.14 519.006 1093.7 519.656C1093.05 520.74 1091.75 521.39 1090.45 520.956C1090.45 519.223 1091.54 517.273 1093.05 516.623C1091.54 516.189 1090.02 515.322 1089.59 513.806C1088.94 512.289 1090.02 510.339 1091.54 510.555C1092.19 511.856 1092.62 513.372 1093.27 514.672C1094.35 515.322 1096.09 514.672 1096.74 513.372C1097.39 512.072 1097.39 510.555 1097.17 509.255C1098.69 510.122 1100.42 507.955 1099.77 506.222C1099.34 505.355 1098.47 504.705 1097.6 504.488C1099.34 506.005 1100.2 507.305 1100.42 508.605Z" fill="#E498A0"/>
<path d="M868.135 239.917C869.218 239.267 868.352 237.317 867.268 236.883C865.968 236.45 864.668 236.883 863.368 236.883C862.068 236.883 860.551 236.233 860.334 234.933C860.334 234.5 860.334 234.067 860.551 233.85C861.418 231.683 864.018 230.816 865.752 229.299C868.352 226.699 868.568 222.582 870.952 219.765C874.202 215.865 880.053 215.648 884.17 212.615C885.47 211.748 886.553 210.448 887.853 209.581C891.32 207.414 895.654 207.631 899.771 207.631C905.188 207.414 910.388 206.331 915.372 204.381C914.289 209.365 908.438 211.098 903.455 212.398C900.204 213.265 896.954 214.132 893.704 215.215C889.587 216.515 885.47 218.249 882.219 221.065C878.753 223.882 876.369 227.783 876.152 232.116C876.152 234.5 878.753 239.267 877.236 241C875.069 243.167 870.085 240.784 868.135 239.917Z" fill="#E498A0"/>
<path d="M993.162 181.845C991.862 182.278 990.779 182.712 989.479 182.928C990.562 184.662 992.945 185.529 994.896 184.879C997.062 184.229 999.013 182.278 1000.96 183.145C1001.4 184.012 1000.31 185.095 999.446 185.529C998.579 185.962 997.496 187.262 998.363 188.129C998.579 188.346 998.796 188.346 999.013 188.562C1003.35 189.862 1008.33 188.779 1012.45 190.729C1013.75 191.379 1015.05 192.246 1016.35 192.246C1017.86 192.246 1019.16 190.296 1018.08 189.429C1017.43 188.779 1016.13 188.779 1015.91 187.912C1015.48 186.179 1019.38 185.529 1018.51 184.012C1015.7 184.012 1012.88 184.229 1010.06 184.229C1009.2 184.229 1007.9 184.229 1007.46 183.362C1007.25 182.928 1007.25 182.278 1007.03 181.845C1006.6 181.412 1005.95 181.412 1005.3 181.412C1003.78 181.628 1002.26 181.628 1000.75 181.845C1004 181.412 1008.33 179.895 1011.58 179.028C1007.46 173.828 994.896 174.478 993.162 181.845Z" fill="#E498A0"/>
<path d="M1032.38 188.997C1032.38 187.264 1029.78 186.397 1028.05 187.264C1026.31 188.131 1025.45 189.647 1024.36 191.164C1023.06 192.898 1021.33 194.414 1019.81 195.931C1024.15 195.281 1028.26 194.848 1032.6 194.198C1034.33 193.981 1036.28 193.548 1036.72 192.031C1034.98 190.947 1033.25 190.297 1031.08 190.081" fill="#E498A0"/>
<path d="M1143.76 214.781C1144.19 214.565 1144.84 214.131 1145.49 213.915C1147.87 213.265 1150.04 216.731 1152.42 216.298C1153.51 216.081 1154.16 215.215 1155.24 214.781C1157.62 213.915 1160.22 216.298 1162.39 214.781C1165.21 212.831 1164.13 211.098 1161.74 210.231C1159.57 209.364 1156.54 210.231 1154.16 209.581C1152.42 209.148 1150.91 208.064 1149.17 207.414C1145.27 205.681 1139.21 203.08 1136.61 208.064C1134.01 212.398 1139.21 217.382 1143.76 214.781Z" fill="#E498A0"/>
<path d="M1177.99 213.482C1176.26 212.182 1174.31 211.098 1172.14 210.448C1171.93 210.448 1171.49 210.231 1171.28 210.231C1170.19 210.231 1169.54 211.748 1169.76 212.832C1170.19 213.915 1171.28 214.565 1172.36 214.782C1173.44 214.998 1174.53 214.782 1175.83 214.782C1178.21 214.565 1180.59 214.782 1182.98 215.432C1183.41 213.915 1181.89 212.398 1180.38 212.182C1178.86 211.965 1177.34 212.615 1176.04 213.265" fill="#E498A0"/>
<path d="M1156.11 222.149C1154.81 221.499 1153.29 221.066 1151.99 220.849C1151.12 220.633 1150.04 221.066 1150.26 221.716C1150.26 221.933 1150.69 222.149 1150.91 222.366C1152.86 223.45 1155.02 224.316 1157.19 224.966C1158.27 225.183 1159.57 225.183 1160.01 224.316C1160.22 223.666 1159.79 222.799 1159.14 222.366C1157.84 221.283 1155.89 220.849 1154.16 221.283" fill="#E498A0"/>
<path d="M734.225 191.163C736.175 192.246 738.342 192.463 740.292 193.33C742.459 194.413 744.192 196.797 744.626 199.18C744.843 200.697 744.843 202.43 745.493 203.73C746.793 205.681 749.61 205.681 751.343 204.38C753.077 203.08 753.943 200.697 753.943 198.53C753.943 196.797 753.727 194.846 754.81 193.546C755.243 193.113 756.11 192.68 756.76 192.463C758.06 192.029 759.577 191.596 761.094 191.813C762.611 192.029 763.911 193.33 763.911 194.63C763.911 196.363 761.961 198.097 762.611 199.613C765.428 199.613 768.244 199.613 771.061 199.397C771.928 198.313 771.278 196.58 770.195 195.93C769.111 195.063 767.594 195.063 766.294 194.413C764.994 193.763 763.911 192.68 764.127 191.163C764.561 189.213 767.594 189.429 769.544 189.429C775.178 189.646 780.162 184.446 779.945 178.812C774.962 178.162 772.578 183.362 768.461 184.879C764.994 185.962 763.261 184.012 760.227 184.446C756.977 184.662 756.11 186.829 753.51 187.479C749.61 188.346 746.793 186.396 742.676 185.962C739.642 185.746 725.774 186.179 734.225 191.163Z" fill="#E9F4A6"/>
<path d="M684.604 167.545C681.571 172.962 676.154 177.079 670.086 178.813C667.27 179.679 664.019 179.896 661.852 182.063C660.552 183.363 659.686 185.096 659.036 186.83C657.735 190.08 656.219 193.547 656.219 197.231C656.219 200.914 657.735 204.598 660.986 206.331C656.435 208.498 656.002 216.082 660.336 218.682C658.602 223.016 651.452 220.633 647.985 223.666C645.384 226.05 646.468 230.383 647.985 233.634C649.501 236.884 651.668 240.567 650.368 243.818C645.601 241.868 640.617 240.134 635.85 238.184C634.117 242.084 639.317 247.068 643.001 244.901C639.317 251.402 629.567 250.102 622.633 253.352C615.265 256.602 611.365 265.269 603.998 268.303C600.314 269.82 596.197 269.82 592.514 271.553C588.83 273.07 585.796 277.404 587.53 280.871C587.963 281.521 588.397 282.171 588.397 283.037C588.397 283.904 587.53 284.338 586.88 284.988C581.029 289.971 580.813 299.072 581.246 306.873C579.079 308.389 576.046 306.223 574.962 303.839C573.879 301.456 573.229 298.639 571.062 297.122C568.895 295.605 565.862 296.472 563.478 295.388C561.311 294.522 559.794 292.355 558.494 290.188C556.111 286.288 553.727 282.604 551.344 278.704C549.394 275.454 547.227 272.203 546.577 268.303C545.927 264.619 547.443 260.286 550.694 258.552C553.077 257.252 556.978 255.519 555.244 253.352C554.811 252.918 554.161 252.702 553.727 252.485C549.394 250.968 545.06 249.451 540.51 247.718C542.243 242.518 548.31 239.051 553.727 240.351C555.677 237.101 551.127 233.634 547.443 233.85C543.76 233.85 539.643 235.367 536.609 232.984C539.426 229.083 539.209 223.449 537.043 219.332C534.876 214.999 530.759 211.965 526.208 210.015C524.258 209.148 522.091 208.498 519.925 208.498C516.458 208.498 513.207 210.015 509.957 210.015C505.19 210.015 500.64 206.981 498.04 203.081C495.223 199.181 493.923 194.414 492.406 189.863C496.306 192.03 501.506 192.03 504.973 189.647C508.657 187.047 510.174 181.629 507.79 177.946C512.774 176.862 517.541 175.779 522.525 174.696C523.825 174.479 525.125 174.046 526.208 173.396C527.509 172.529 528.592 171.012 529.675 170.145C532.059 168.195 535.309 167.762 538.343 167.328C546.577 166.462 554.811 165.595 563.261 164.511C564.778 164.295 566.512 164.078 568.028 164.511C572.145 165.595 575.829 170.579 579.513 168.412C579.729 166.895 579.079 165.162 578.213 163.861C582.763 161.695 588.18 162.345 593.38 162.345C603.781 162.561 613.965 160.178 624.149 159.961C634.334 159.744 644.518 161.911 653.618 165.812C650.585 167.978 646.901 169.495 643.218 170.145C645.601 169.929 647.985 170.362 650.368 171.445C648.635 170.795 640.617 177.079 639.317 178.163C643.651 181.629 653.402 174.479 657.735 172.312C666.186 168.628 675.07 166.245 684.604 167.545Z" fill="#7DBBFF"/>
<path d="M669.003 278.055C666.62 278.922 664.453 280.222 662.503 281.955C660.769 283.472 658.819 285.422 656.435 284.989C654.052 284.556 652.969 281.955 652.102 279.789C651.018 277.622 649.068 275.455 646.901 276.105C648.201 274.588 649.285 273.288 650.585 271.771C647.768 271.338 644.735 270.905 641.918 270.471C641.268 270.471 640.401 270.254 639.967 269.604C638.884 268.304 640.401 266.571 642.134 265.921C645.818 264.837 649.718 266.571 652.318 269.171C653.402 270.254 654.919 271.555 656.435 271.121C657.302 270.688 657.736 269.604 658.386 268.738C659.902 266.788 662.719 266.571 665.32 266.788C669.436 267.221 677.887 264.187 679.404 269.171C681.137 274.805 672.253 276.538 669.003 278.055Z" fill="#E9F4A6"/>
<path d="M309.308 239.483C298.474 244.034 286.99 248.584 275.289 248.368C270.088 248.368 265.105 247.284 260.121 246.417C249.07 244.467 238.019 242.3 227.835 237.75C225.018 236.45 222.418 235.15 219.384 234.933C216.134 234.716 212.884 236.017 209.85 237.533C200.75 242.084 192.516 247.934 185.582 255.301C192.949 256.385 199.666 260.718 204.217 266.569C200.75 268.302 195.983 266.786 194.249 263.319C189.699 262.019 184.065 265.702 183.632 270.469C183.198 275.236 187.749 280.003 192.732 279.57C194.466 277.403 197.066 275.67 199.883 275.453C201.183 277.62 202.483 280.003 203.783 282.17C201.4 284.987 197.283 285.204 193.816 286.07C190.349 286.937 186.232 289.321 186.665 293.004C187.315 299.071 199.016 299.505 198.366 305.572C198.583 303.622 222.418 301.888 210.934 315.539C209.2 317.706 206.383 319.223 203.567 319.006C204.433 321.173 204.217 323.99 202.483 325.507C200.75 327.024 197.283 326.59 196.849 324.207C194.899 328.107 189.916 329.191 185.582 329.624C185.148 331.357 184.498 333.091 184.065 334.824C183.632 332.657 180.815 331.357 178.865 332.441C176.914 333.524 176.698 336.774 178.431 338.075C179.948 339.375 182.332 339.158 184.282 338.725C184.932 338.508 185.799 338.291 186.232 337.641C186.449 337.208 186.449 336.774 186.449 336.341C186.449 333.958 188.615 332.224 190.782 331.357C192.949 330.491 195.333 330.491 197.499 329.841C201.183 328.974 204.433 327.024 207.467 324.64C210.717 322.04 213.534 319.006 217.218 317.056C218.518 316.406 220.035 315.756 221.551 314.889C231.519 308.822 225.235 298.205 239.753 296.255C239.969 298.205 238.669 300.372 236.503 301.022C241.27 304.489 246.253 293.654 251.887 295.605C253.404 296.255 254.487 297.555 255.787 298.638C258.171 300.372 261.638 300.372 264.671 300.588C276.806 301.672 287.857 310.556 291.323 322.257C296.524 320.74 301.074 326.374 303.674 331.141C308.008 339.158 312.342 347.175 316.675 355.193C319.492 360.176 322.309 365.377 323.609 371.01C325.559 379.028 324.909 387.478 326.86 395.712C328.81 403.73 334.877 411.964 343.328 411.747C344.628 424.315 348.311 436.666 354.162 447.933C351.345 450.75 355.895 455.084 359.796 456.167C363.696 457.251 368.68 460.067 367.163 463.751C371.713 458.767 365.863 450.967 360.446 447.066C354.812 443.166 348.311 436.449 351.778 430.598C353.728 428.648 356.979 430.815 357.845 433.415C358.712 436.016 358.712 439.049 360.446 440.999C361.962 442.733 364.563 443.166 366.513 444.466C373.88 448.8 372.363 461.151 379.514 465.918C382.114 467.651 385.581 468.085 387.748 470.252C389.265 471.768 390.131 473.935 391.215 476.102C394.898 483.036 402.482 486.936 409.633 490.62C411.8 491.703 413.75 492.787 415.917 493.653C427.834 499.504 439.535 505.571 451.453 511.422C452.536 512.072 453.836 512.505 455.136 512.072C459.903 510.121 450.153 501.454 454.27 498.204C448.419 495.387 442.569 492.57 436.935 489.753C440.619 486.503 441.052 480.436 438.018 476.535C440.185 476.102 441.919 474.152 442.352 471.985C439.752 469.385 435.201 471.552 433.035 474.585C431.084 477.619 430.218 481.519 427.618 484.119C421.55 489.97 410.933 483.686 408.549 475.669C406.166 467.651 408.983 459.201 409.849 450.75C410.283 447.5 410.499 443.599 413.1 441.433C419.167 436.666 428.051 446.633 435.201 443.599C437.802 442.299 439.535 439.483 442.135 437.966C446.469 435.366 452.536 437.749 455.57 441.866C458.603 445.983 459.47 451.183 460.12 456.167C461.637 458.551 465.537 455.95 465.32 453.134C465.104 450.317 462.937 448.367 461.42 445.983C457.52 440.133 459.253 431.249 465.104 427.348C470.304 423.665 478.755 422.364 478.971 416.081C479.188 411.964 475.288 408.713 475.288 404.596C475.071 401.129 477.888 398.096 480.272 395.496C487.422 388.345 494.573 381.195 501.507 374.044C503.24 372.311 505.19 370.577 507.574 370.794C509.957 371.01 511.257 374.911 509.091 375.778C517.541 375.994 528.592 374.044 529.242 365.81C525.775 368.844 521.875 371.01 517.541 372.311C517.108 368.41 518.191 364.293 520.791 361.043C517.758 355.626 510.174 354.109 504.323 356.059C498.473 358.009 493.706 362.343 489.156 366.46C495.873 358.443 505.19 351.726 515.591 350.426C519.491 349.992 523.825 350.209 527.292 348.259C532.059 345.442 536.393 338.508 541.16 341.108C537.693 347.175 534.226 353.459 530.542 359.526C534.226 359.31 538.126 358.876 541.81 358.659C543.327 361.26 544.193 364.293 543.977 367.327C548.527 367.11 555.027 363.86 552.861 359.743C551.777 357.576 548.96 357.143 547.227 355.626C542.243 351.509 546.143 343.058 543.543 336.991C542.243 333.958 539.643 332.007 537.043 329.841C526.425 321.173 517.975 309.689 512.991 296.688C511.691 299.722 510.391 302.972 507.79 304.922C505.19 306.872 500.857 306.872 499.123 304.055C498.256 302.538 498.256 300.588 497.823 298.855C496.74 294.954 493.056 292.354 489.372 290.404C485.255 287.804 480.272 285.204 475.505 286.721C470.738 288.237 469.654 296.688 474.638 297.555C470.087 297.771 470.304 304.705 472.904 308.606C475.505 312.289 479.188 317.056 476.588 320.74C474.421 324.207 468.787 323.773 466.621 327.24C464.454 330.491 466.837 334.608 468.354 338.291C470.087 341.758 469.871 347.392 466.187 348.042C462.937 348.692 460.553 345.008 459.903 341.541C459.037 336.341 459.687 330.707 457.303 326.157C454.92 321.607 447.119 319.223 444.736 323.99C443.435 319.223 439.535 315.323 434.985 313.806C431.084 312.723 426.967 312.939 423.284 311.206C417.867 308.606 415.483 302.538 413.533 296.688C420.684 292.571 428.051 288.021 431.301 280.653C432.168 278.703 432.601 276.32 434.335 274.803C435.852 273.503 437.802 273.069 439.535 271.769C441.052 270.686 442.135 268.086 440.619 266.786C442.785 265.486 445.169 265.052 447.552 265.485C451.669 271.119 439.102 280.653 444.952 284.12C448.202 286.07 451.669 282.17 453.186 278.703C455.786 279.787 458.387 280.87 460.987 281.737C464.237 279.137 460.337 273.936 456.653 271.986C452.753 270.036 447.986 266.569 449.936 262.669C453.403 262.669 456.87 262.452 460.12 262.452C460.337 259.202 458.17 255.951 455.136 254.868C456.87 252.051 458.603 249.451 460.337 246.634C458.82 244.901 456.22 244.034 453.836 244.684C460.77 243.6 467.487 241.65 473.771 238.4C478.972 244.25 483.739 250.318 488.289 256.601C488.939 257.685 489.806 258.768 489.806 260.068C489.806 262.885 486.555 263.969 484.172 265.269C481.788 266.569 480.272 270.903 483.089 271.553C482.655 273.503 479.622 273.503 478.105 272.419C476.371 271.336 474.855 269.603 472.904 269.603C469.004 269.819 469.654 276.536 473.338 277.836C477.021 278.92 480.705 276.536 483.955 274.37C491.106 280.87 499.773 285.854 509.091 288.887C505.407 288.021 502.59 284.12 503.24 280.22C507.574 281.52 511.691 283.47 515.374 286.07C518.625 282.17 514.508 276.753 510.391 273.936C506.274 271.119 501.073 267.869 501.723 262.885C507.14 262.669 512.557 265.919 515.158 270.686C517.108 267.869 519.275 264.835 521.225 262.019C518.841 254.435 504.107 256.601 502.59 248.801C502.373 247.284 502.59 245.551 501.723 244.25C500.207 242.3 497.39 243.384 494.789 243.167C486.339 242.95 481.355 228.866 473.554 232.116C476.805 226.049 467.487 218.248 462.07 222.582C465.104 223.666 468.354 225.182 469.437 228.216C470.521 231.249 467.271 235.15 464.67 233.633C461.854 232.116 463.154 227.566 461.637 224.749C459.687 221.282 454.053 221.932 451.886 225.182C449.719 228.433 449.936 232.766 450.803 236.45C448.853 236.45 447.119 236.45 445.169 236.233C444.736 231.033 445.819 225.616 448.202 220.849C446.036 217.598 441.052 220.632 438.668 223.882C436.068 227.132 433.468 230.599 432.818 234.716C431.951 238.833 433.685 243.6 437.585 245.117C439.968 245.984 443.002 245.551 445.386 246.417C451.019 248.584 448.853 259.202 442.785 258.985C440.835 255.951 439.752 252.268 439.535 248.801C436.502 249.668 433.901 251.184 431.518 253.135C428.484 245.767 424.367 238.833 419.384 232.983C420.684 230.599 421.767 228.216 423.067 226.049C428.051 228.216 434.118 223.015 433.035 217.815C428.918 216.732 424.801 215.432 420.684 216.515C416.567 217.382 412.883 221.282 413.316 225.399C413.75 227.999 415.483 229.949 416.133 232.333C416.783 234.716 415.267 238.183 412.883 237.75C411.583 243.6 424.151 243.817 424.801 249.884C425.234 254.218 419.384 255.735 415.267 255.735C416.567 259.852 416.35 264.402 414.833 268.302C411.583 262.235 413.316 254.218 418.733 249.884C415.483 244.901 408.116 243.384 403.132 246.634C405.082 249.451 407.899 251.618 411.15 252.484C409.416 254.435 407.683 256.385 405.949 258.552C402.266 255.951 397.065 257.902 392.515 258.335C387.964 258.552 382.331 253.568 385.581 250.318C382.764 248.584 379.08 248.151 376.48 249.884C373.88 251.834 373.663 256.601 376.48 257.902C370.413 259.418 360.229 248.367 355.895 256.818C353.078 248.151 348.745 245.551 339.861 245.117C334.01 244.901 316.892 240.567 313.859 245.334C311.692 245.767 309.308 239.7 309.308 239.483Z" fill="#7DBBFF"/>
<path d="M325.559 216.731C322.309 217.165 320.359 220.848 319.926 224.099C319.492 227.349 319.926 231.033 318.192 233.85C317.759 234.5 317.326 235.15 317.109 236.016C316.675 238.4 319.709 239.917 322.093 239.483C328.81 238.4 333.143 229.299 339.861 230.383C339.861 232.116 340.077 234.066 340.077 235.8C344.411 235.8 348.961 235.15 353.295 233.85C354.595 234.716 353.945 236.883 352.428 237.533C351.128 238.183 349.395 237.966 347.878 238.183C346.361 238.4 344.628 239.05 344.411 240.783C347.445 239.917 350.478 239.05 353.512 239.7C356.545 240.35 359.362 242.734 359.362 245.984C355.028 245.767 350.695 245.984 346.578 246.417C348.961 249.234 353.295 248.801 356.762 249.234C360.446 249.667 364.779 252.484 363.479 255.951C368.463 250.751 376.48 249.017 383.197 251.834C384.931 252.484 386.448 253.351 388.181 253.784C389.915 254.218 392.081 253.784 392.948 252.268C394.032 250.751 392.948 248.151 391.215 248.367C393.598 248.151 395.548 246.2 396.198 244.034C392.298 245.334 387.531 243.167 385.798 239.267C384.281 235.8 385.147 231.249 382.547 228.432C384.714 229.082 387.098 226.482 386.448 224.099C385.798 221.715 383.414 220.415 381.031 220.198C379.514 220.198 377.78 220.632 376.914 221.932C376.047 223.232 376.263 225.182 377.564 226.049C375.83 225.182 373.88 224.315 372.146 223.449C371.496 227.999 380.164 230.599 378.214 234.716C376.914 237.316 372.363 235.583 371.93 232.766C371.496 230.816 371.93 228.432 370.196 227.566C366.946 226.049 364.563 234.066 361.312 232.116C361.529 230.383 361.746 228.432 361.962 226.699C357.845 226.482 353.728 227.782 350.911 230.599C351.345 228.866 351.562 227.132 351.995 225.399C347.661 223.015 343.328 231.466 338.561 229.949C343.111 231.466 353.295 222.582 345.278 218.898C343.328 218.032 339.427 219.332 337.26 219.332C333.143 218.465 329.243 216.298 325.559 216.731Z" fill="#7DBBFF"/>
<path d="M345.495 198.097C342.461 196.58 338.561 198.314 335.96 200.48C333.36 202.647 331.193 205.681 327.943 207.198C326.426 207.848 324.693 208.281 323.826 209.581C329.027 209.581 334.227 209.148 339.427 208.498C339.211 210.231 338.344 211.965 337.044 213.048C339.427 213.915 341.594 210.881 341.811 208.281C341.811 207.414 342.028 206.548 342.678 206.114C343.111 205.681 343.978 205.681 344.628 205.681C346.795 205.248 348.745 203.297 348.528 201.131C348.311 198.964 345.278 197.447 343.544 198.747" fill="#7DBBFF"/>
<path d="M361.746 212.613C362.396 212.18 362.829 211.53 362.612 210.663C359.362 210.663 356.329 208.063 355.895 204.813C353.945 203.729 351.128 204.596 350.478 206.546C349.611 208.496 351.128 211.097 353.295 211.53C350.261 212.83 347.011 214.13 343.978 215.647C350.045 218.897 357.195 211.747 363.696 213.263C363.696 214.13 363.696 214.78 363.696 215.647C360.879 215.647 358.062 216.947 356.112 219.114C361.096 219.547 366.079 218.247 370.413 215.647C371.496 214.997 372.796 213.913 374.097 213.697C375.397 213.48 376.48 213.913 377.78 214.13C380.597 214.564 384.281 212.83 384.281 210.013C382.331 209.363 380.164 209.146 378.214 209.363C377.564 205.463 372.796 203.079 369.33 204.813C369.33 207.413 370.63 210.013 372.58 211.747C370.63 213.48 367.596 213.697 365.213 212.397C364.129 211.747 363.046 210.88 361.962 210.88C360.662 210.88 358.929 211.747 358.279 210.663" fill="#7DBBFF"/>
<path d="M365.429 193.546C360.446 192.896 355.462 193.763 351.128 195.93C353.512 197.013 355.895 198.096 358.279 199.18C358.929 199.397 359.362 199.613 360.012 199.613C360.446 199.613 361.096 199.397 361.529 199.18C363.913 198.096 366.079 197.23 368.463 196.146C368.03 195.496 367.596 195.063 367.163 194.413C368.246 195.063 369.763 194.196 369.763 192.896C369.763 191.596 368.68 190.512 367.596 190.296C366.513 189.862 365.213 190.079 363.913 190.512C362.396 190.946 361.096 191.379 359.796 191.813C360.446 193.329 361.962 194.413 363.479 194.846C363.479 195.496 363.479 195.93 363.479 196.58" fill="#7DBBFF"/>
<path d="M399.666 194.413C398.582 194.413 397.932 193.113 397.932 192.246C397.932 191.163 398.149 190.08 397.499 189.213C396.199 186.829 392.732 188.563 390.132 188.129C388.615 187.913 387.315 186.829 385.798 186.179C384.281 185.529 382.331 185.963 381.898 187.479C381.464 189.213 383.414 190.513 385.148 190.513C386.881 190.513 388.615 189.863 390.348 190.513C390.565 190.513 390.998 190.73 391.215 190.946C392.515 192.68 387.965 193.763 388.398 195.713C388.615 196.797 389.915 197.013 390.782 197.013C392.298 197.23 393.815 197.23 395.332 197.447C396.849 197.663 398.582 197.663 399.882 196.797C401.182 195.93 401.183 193.546 399.666 193.113" fill="#7DBBFF"/>
<path d="M407.466 210.014C408.333 208.931 407.899 207.414 406.816 206.547C405.732 205.68 404.216 205.68 402.916 205.68C399.015 205.68 395.115 206.114 391.431 207.197C390.348 207.414 389.048 207.847 387.964 207.63C386.881 207.414 385.581 206.33 386.014 205.03C384.497 206.764 386.448 209.797 388.614 210.447C390.998 211.097 393.381 210.447 395.765 210.447C398.148 210.664 400.965 212.181 400.749 214.564C400.749 215.214 400.532 215.648 400.749 216.298C400.965 216.948 401.832 217.165 402.482 217.165C405.732 216.948 408.116 213.264 407.033 210.231C406.166 210.447 405.516 209.797 405.082 209.147C406.599 208.497 407.683 207.414 407.899 205.897C405.299 204.814 402.265 205.247 399.665 206.547" fill="#7DBBFF"/>
<path d="M406.166 223.449C407.466 222.582 406.599 219.982 405.082 219.549C403.566 219.115 401.832 219.982 400.532 220.849C400.532 222.149 400.315 223.666 400.315 224.966C398.798 224.533 397.065 224.966 395.765 225.833C398.148 226.483 400.099 228.433 400.532 230.816C398.365 232.333 394.898 231.25 393.815 228.866C393.381 227.783 393.165 226.049 392.081 225.833C390.348 225.183 389.481 228 390.131 229.516C392.081 233.633 398.365 233.417 401.832 236.45C403.132 237.534 405.082 239.05 405.949 237.967C406.816 236.884 405.732 235.583 404.649 234.717C405.949 234.933 407.249 234.933 408.333 234.5C409.416 234.067 410.283 232.55 409.633 231.466C409.416 230.816 408.766 230.6 408.116 230.166C406.166 228.65 405.516 225.833 406.599 223.666C405.949 223.449 405.299 223.016 404.649 222.799" fill="#7DBBFF"/>
<path d="M467.271 212.398C463.154 209.798 457.737 209.148 452.97 210.231C449.503 211.098 446.252 212.831 442.785 213.265C437.585 213.698 432.601 210.448 429.784 206.114C433.685 203.514 439.535 208.714 443.652 206.331C444.736 205.681 445.602 204.381 446.902 203.947C448.202 203.297 449.719 203.514 451.019 203.947C457.737 205.031 464.237 206.331 470.954 207.414C471.821 204.597 469.221 201.347 466.404 201.347C469.871 200.047 473.338 198.53 476.805 197.23C478.538 196.58 480.488 195.713 481.355 193.98C482.222 192.247 481.572 189.646 479.838 189.43C487.856 186.613 495.656 183.146 503.023 179.029C502.373 177.729 501.507 176.429 500.857 175.128C506.057 175.562 511.257 174.045 515.374 170.795C509.524 170.361 503.89 170.795 498.256 172.312C507.791 173.612 517.758 171.878 526.425 167.761C523.392 164.944 517.541 168.628 514.508 165.811C513.641 164.944 513.208 163.644 512.124 162.994C511.041 161.911 509.307 161.911 507.791 161.694C492.189 160.827 476.588 161.261 460.987 162.994C458.387 163.211 455.136 164.294 455.136 166.895C451.453 166.678 447.769 166.678 443.869 166.461C441.269 170.145 435.852 171.445 431.735 169.711C430.868 171.228 429.784 172.745 428.918 174.045C431.518 175.779 434.768 176.645 437.802 176.429C439.752 180.329 446.036 181.196 448.853 177.945C450.153 182.496 456.87 181.629 460.77 179.245C464.67 176.862 469.871 173.612 473.554 176.429C468.571 180.329 462.287 182.279 456.003 181.846C457.52 183.796 459.037 185.529 460.77 187.479C456.87 187.696 453.62 185.313 450.153 183.362C446.902 181.412 442.352 180.112 439.318 182.496C442.135 184.879 444.952 187.046 447.769 189.43C439.969 185.313 432.385 181.196 424.584 177.295C422.417 175.995 419.6 174.912 417.217 175.779C414.833 176.645 414.183 180.762 416.567 181.629C414.617 182.062 413.1 183.579 412.45 185.313C417 185.746 421.55 187.046 425.667 188.996C423.717 189.646 421.767 190.296 419.817 190.946C424.151 192.463 428.701 193.763 433.035 195.28C433.901 195.497 434.985 195.93 435.852 195.497C436.718 195.063 436.935 193.98 437.368 193.113C438.668 190.73 442.352 189.646 444.736 191.163C444.086 192.463 443.652 193.763 443.002 195.063C445.169 195.063 447.119 195.063 449.286 195.063C449.286 196.147 449.286 197.447 449.286 198.53C452.32 198.964 455.353 198.964 458.387 198.314C457.303 202.431 451.453 202.647 447.769 200.697C444.086 198.747 441.269 195.28 437.152 193.98C438.452 197.014 440.402 199.614 443.002 201.564C437.585 200.697 431.951 201.131 426.968 203.081C426.534 201.997 425.884 200.914 425.451 199.83C421.334 201.564 421.984 207.631 423.284 211.965C423.717 213.265 424.151 214.565 425.017 215.648C426.968 218.032 430.434 218.249 433.468 218.249C438.018 218.465 442.569 218.465 447.119 218.682C453.62 218.682 467.487 221.499 467.271 212.398Z" fill="#7DBBFF"/>
<path d="M417.216 207.416C418.517 206.549 420.683 207.199 421.333 205.899C421.767 204.816 420.683 203.732 419.6 203.299C418.517 202.649 417.433 201.782 417.65 200.699C416.783 200.915 415.916 200.699 415.05 200.265C417 199.832 418.95 199.182 420.683 198.748C421.333 198.532 422.417 197.882 421.983 197.232C421.767 197.015 421.55 197.015 421.333 196.798C420.25 196.582 418.95 196.365 417.866 195.715C416.783 195.065 416.35 193.548 417.216 192.681C416.566 192.681 415.916 192.465 415.266 192.465C415.266 192.031 415.266 191.381 415.266 190.948C411.799 190.948 408.549 190.514 405.082 190.081C404.649 192.248 406.816 194.848 408.982 194.415C409.416 194.415 409.849 194.198 410.066 194.415C410.283 194.631 410.499 195.065 410.499 195.281C410.933 196.148 412.233 196.582 413.099 196.148C412.883 196.798 412.449 197.448 411.799 197.882C412.883 198.532 414.183 198.748 415.266 198.965C414.4 199.832 413.099 200.265 412.016 200.482C412.449 200.915 413.099 201.349 413.533 201.782C412.233 201.782 410.933 201.782 409.632 201.782C409.199 203.082 410.499 204.165 411.583 204.599C412.883 205.032 419.167 209.149 415.483 210.883C413.316 211.966 412.449 208.282 413.099 206.982C414.4 209.799 413.966 213.7 416.133 216.083C417.65 217.817 420.033 218.25 421.55 215.866C424.15 212.183 417.866 210.883 417.216 207.416Z" fill="#7DBBFF"/>
<path d="M454.92 520.089C453.403 524.206 458.17 528.757 462.287 527.24C463.37 526.806 464.454 525.94 465.537 525.723C469.004 525.073 470.954 529.407 471.604 532.874C472.471 536.774 473.338 540.891 471.821 544.575C470.088 548.908 465.321 552.159 464.887 556.709C464.454 560.609 467.054 564.509 465.754 568.193C465.104 569.927 463.804 571.227 463.154 572.743C462.07 575.777 463.371 579.027 464.671 581.844C469.004 591.378 473.338 600.912 477.672 610.446C478.755 612.613 479.622 614.78 481.572 616.297C483.089 617.38 485.039 618.03 486.556 618.897C489.156 620.631 490.673 623.231 492.189 626.048C495.006 631.031 497.607 636.015 498.907 641.649C500.423 649.233 498.907 657.033 497.607 664.617C495.44 675.668 493.273 686.719 491.106 697.77C488.722 709.904 486.339 722.255 483.955 734.389C486.556 732.873 488.506 730.272 489.156 727.239C490.456 735.256 488.722 743.49 484.822 750.424C484.389 747.391 484.172 744.357 483.739 741.54C480.705 747.824 479.188 754.974 479.405 761.908C479.405 763.208 479.622 764.508 480.488 765.375C481.355 766.242 482.655 766.459 483.739 766.892C486.122 768.192 486.989 771.226 485.906 773.609C487.206 773.826 488.289 774.259 489.589 774.476C491.539 775.993 486.989 778.16 486.989 780.543C486.989 781.626 487.856 782.277 488.506 782.927C491.973 785.96 495.44 788.994 498.907 792.027C501.29 792.677 503.89 793.544 506.274 793.111C508.657 792.677 511.258 790.944 511.474 788.344C511.691 784.877 508.224 782.71 505.841 780.11C502.374 776.209 501.29 770.359 502.374 764.942C503.24 759.742 505.624 754.758 508.224 749.991C506.707 749.341 505.19 748.907 503.457 748.257C503.674 744.79 507.141 742.623 509.524 739.807C513.641 734.823 513.208 726.806 508.657 722.472C510.391 721.172 512.124 720.088 513.858 718.788C515.158 720.955 516.675 723.339 518.191 725.505C521.658 722.689 522.959 717.488 521.225 713.371C529.242 715.321 538.126 708.821 538.776 700.587C536.826 700.587 535.309 698.203 535.96 696.47C536.61 694.52 539.21 693.87 540.727 694.953C539.86 697.337 542.46 699.72 544.844 699.503C547.227 699.287 549.177 697.12 549.827 694.736C550.694 692.353 550.694 689.969 551.127 687.586C551.777 683.685 553.511 680.002 556.111 677.185C558.278 674.801 560.878 672.635 562.178 669.601C563.045 667.434 563.045 664.834 563.478 662.667C564.778 655.083 570.412 648.149 577.779 645.549C577.996 649.016 583.413 648.366 586.013 645.983C589.914 642.516 592.297 637.749 593.164 632.548C593.814 627.998 593.164 623.231 595.331 619.33C596.198 617.597 597.498 616.08 598.148 614.347C598.581 612.83 598.364 611.096 598.364 609.363C598.798 600.479 608.332 593.545 607.248 584.878C606.598 579.244 601.615 575.127 597.064 571.66C590.13 566.46 582.763 561.043 574.096 559.959C568.679 559.309 562.612 560.392 557.628 557.792C559.795 557.576 561.312 555.409 561.528 553.242C561.745 551.075 560.661 548.908 559.795 546.958C559.145 545.658 558.495 544.358 557.845 542.841C555.244 537.424 551.127 530.924 545.06 531.79C543.327 532.007 541.377 532.874 539.86 532.007C538.56 531.14 538.343 529.19 537.476 527.673C534.443 521.823 523.392 524.206 521.658 518.139C521.225 516.622 521.658 514.456 520.358 513.372C519.492 512.289 517.975 512.289 516.458 512.505C510.174 512.722 504.107 512.939 497.823 513.155C497.607 515.539 496.09 517.922 493.923 518.789C494.14 520.306 494.573 521.606 494.79 523.123C494.356 525.723 490.023 525.29 488.939 523.123C487.856 520.739 488.939 517.922 490.239 515.756C491.539 513.589 493.056 511.205 493.056 508.605C490.239 507.305 487.422 510.122 485.472 512.505C483.522 514.889 479.405 516.839 477.672 514.456C477.888 517.056 478.105 519.656 478.322 522.256C474.421 525.723 467.054 524.206 464.887 519.439C463.37 521.389 461.637 523.34 459.254 523.99C456.87 524.64 453.836 523.123 453.836 520.739C455.137 525.94 460.337 530.057 465.754 530.057" fill="#FFB28F"/>
<path d="M449.286 469.168C451.236 471.118 454.053 468.301 456.87 467.868C459.47 467.651 461.637 469.601 463.587 471.335C465.537 473.068 468.571 474.585 470.521 472.852C471.388 476.969 477.021 478.919 480.272 476.319C480.055 477.835 481.788 478.702 483.305 478.485C484.822 478.269 485.905 477.402 487.422 477.185C489.589 476.969 491.539 478.919 491.539 480.869C491.539 481.736 490.456 481.952 489.806 481.736C489.156 481.519 488.289 481.086 487.639 481.519C487.206 481.736 486.989 482.386 486.772 482.819C485.689 484.336 483.089 483.902 481.355 483.252C479.405 482.602 476.805 482.386 476.155 484.336C482.005 485.419 488.072 485.419 493.923 484.119C493.489 484.553 493.706 485.419 494.356 485.636C495.006 485.853 495.656 485.853 496.306 485.636C498.69 484.986 501.29 484.552 503.674 483.902C505.19 484.769 507.14 484.769 508.657 483.902C508.657 484.552 508.441 485.203 508.441 485.853C511.257 487.153 515.158 485.853 516.675 483.252C512.558 482.602 508.441 481.952 504.324 481.302C501.29 480.869 498.256 480.219 495.873 478.702C493.273 477.185 491.323 474.802 488.506 473.935C484.605 472.635 480.055 474.585 476.371 473.068C472.688 471.551 470.304 467.001 466.404 466.784C465.104 466.784 463.804 467.218 462.504 466.784C459.47 465.484 459.903 462.667 456.003 463.968C454.92 464.401 449.936 469.818 449.286 469.168Z" fill="#7DBBFF"/>
</g>
<defs>
<filter id="filter0_d_2361_1204" x="177.256" y="159.946" width="1100.86" height="636.281" filterUnits="userSpaceOnUse" color-interpolation-filters="sRGB">
<feFlood flood-opacity="0" result="BackgroundImageFix"/>
<feColorMatrix in="SourceAlpha" type="matrix" values="0 0 0 0 0 0 0 0 0 0 0 0 0 0 0 0 0 0 127 0" result="hardAlpha"/>
<feOffset dx="3" dy="3"/>
<feComposite in2="hardAlpha" operator="out"/>
<feColorMatrix type="matrix" values="0 0 0 0 0.117647 0 0 0 0 0.117647 0 0 0 0 0.117647 0 0 0 1 0"/>
<feBlend mode="normal" in2="BackgroundImageFix" result="effect1_dropShadow_2361_1204"/>
<feBlend mode="normal" in="SourceGraphic" in2="effect1_dropShadow_2361_1204" result="shape"/>
</filter>
</defs>
</svg>
