<svg width="98" height="46" viewBox="0 0 98 46" fill="none" xmlns="http://www.w3.org/2000/svg">
<rect x="1.10254" y="7.64453" width="88.5263" height="29" fill="white"/>
<rect x="1.10254" y="7.64453" width="88.5263" height="29" stroke="#282727"/>
<g clip-path="url(#clip0_2302_22364)">
<path d="M8.60242 11.1445H39.2691V33.1445H8.60242" fill="#BD3D44"/>
<path d="M8.60254 13.6797H38.1289H8.60254ZM8.60254 17.0576H38.1289H8.60254ZM8.60254 20.4493H38.1289H8.60254ZM8.60254 23.8409H38.1289H8.60254ZM8.60254 27.2326H38.1289H8.60254ZM8.60254 30.6243H38.1289H8.60254Z" fill="black"/>
<path d="M8.60254 13.6797H38.1289M8.60254 17.0576H38.1289M8.60254 20.4493H38.1289M8.60254 23.8409H38.1289M8.60254 27.2326H38.1289M8.60254 30.6243H38.1289" stroke="white" stroke-width="1.77292"/>
<path d="M2.99207 11.1445H19.8221V22.9924H2.99207" fill="#192F5D"/>
</g>
<g filter="url(#filter0_d_2302_22364)">
<path d="M52.7799 27.4435C53.2779 27.4435 53.7219 27.3595 54.1119 27.1915C54.5079 27.0235 54.8409 26.7895 55.1109 26.4895C55.3869 26.1895 55.5969 25.8295 55.7409 25.4095C55.8849 24.9835 55.9569 24.5125 55.9569 23.9965V16.1845H58.0539V23.9965C58.0539 24.7585 57.9309 25.4635 57.6849 26.1115C57.4449 26.7595 57.0969 27.3205 56.6409 27.7945C56.1849 28.2625 55.6299 28.6315 54.9759 28.9015C54.3279 29.1655 53.5959 29.2975 52.7799 29.2975C51.9639 29.2975 51.2289 29.1655 50.5749 28.9015C49.9269 28.6315 49.3749 28.2625 48.9189 27.7945C48.4629 27.3205 48.1119 26.7595 47.8659 26.1115C47.6259 25.4635 47.5059 24.7585 47.5059 23.9965V16.1845H49.6119V23.9875C49.6119 24.5035 49.6839 24.9745 49.8279 25.4005C49.9719 25.8205 50.1789 26.1835 50.4489 26.4895C50.7189 26.7895 51.0489 27.0235 51.4389 27.1915C51.8349 27.3595 52.2819 27.4435 52.7799 27.4435ZM67.7515 18.3985C67.6855 18.5065 67.6165 18.5875 67.5445 18.6415C67.4725 18.6895 67.3825 18.7135 67.2745 18.7135C67.1605 18.7135 67.0315 18.6655 66.8875 18.5695C66.7495 18.4735 66.5755 18.3685 66.3655 18.2545C66.1615 18.1345 65.9185 18.0265 65.6365 17.9305C65.3545 17.8285 65.0185 17.7775 64.6285 17.7775C64.2685 17.7775 63.9505 17.8225 63.6745 17.9125C63.4045 18.0025 63.1765 18.1285 62.9905 18.2905C62.8045 18.4525 62.6635 18.6445 62.5675 18.8665C62.4775 19.0825 62.4325 19.3195 62.4325 19.5775C62.4325 19.9075 62.5195 20.1835 62.6935 20.4055C62.8675 20.6215 63.0955 20.8075 63.3775 20.9635C63.6655 21.1195 63.9925 21.2575 64.3585 21.3775C64.7245 21.4915 65.0965 21.6145 65.4745 21.7465C65.8585 21.8785 66.2335 22.0285 66.5995 22.1965C66.9655 22.3645 67.2895 22.5775 67.5715 22.8355C67.8595 23.0935 68.0905 23.4085 68.2645 23.7805C68.4385 24.1525 68.5255 24.6055 68.5255 25.1395C68.5255 25.7155 68.4265 26.2555 68.2285 26.7595C68.0305 27.2635 67.7425 27.7045 67.3645 28.0825C66.9925 28.4545 66.5305 28.7485 65.9785 28.9645C65.4325 29.1805 64.8085 29.2885 64.1065 29.2885C63.6925 29.2885 63.2875 29.2465 62.8915 29.1625C62.5015 29.0845 62.1265 28.9735 61.7665 28.8295C61.4125 28.6795 61.0795 28.4995 60.7675 28.2895C60.4555 28.0795 60.1765 27.8455 59.9305 27.5875L60.5425 26.5795C60.5965 26.4955 60.6655 26.4295 60.7495 26.3815C60.8335 26.3335 60.9265 26.3095 61.0285 26.3095C61.1665 26.3095 61.3195 26.3755 61.4875 26.5075C61.6555 26.6335 61.8565 26.7745 62.0905 26.9305C62.3305 27.0805 62.6185 27.2215 62.9545 27.3535C63.2905 27.4795 63.6925 27.5425 64.1605 27.5425C64.9225 27.5425 65.5105 27.3565 65.9245 26.9845C66.3445 26.6125 66.5545 26.0995 66.5545 25.4455C66.5545 25.0795 66.4675 24.7825 66.2935 24.5545C66.1195 24.3205 65.8885 24.1255 65.6005 23.9695C65.3185 23.8135 64.9945 23.6815 64.6285 23.5735C64.2625 23.4655 63.8905 23.3515 63.5125 23.2315C63.1345 23.1055 62.7625 22.9615 62.3965 22.7995C62.0305 22.6315 61.7035 22.4155 61.4155 22.1515C61.1335 21.8815 60.9055 21.5515 60.7315 21.1615C60.5575 20.7655 60.4705 20.2735 60.4705 19.6855C60.4705 19.2175 60.5605 18.7645 60.7405 18.3265C60.9265 17.8885 61.1935 17.5015 61.5415 17.1655C61.8955 16.8235 62.3305 16.5505 62.8465 16.3465C63.3625 16.1425 63.9505 16.0405 64.6105 16.0405C65.3545 16.0405 66.0355 16.1575 66.6535 16.3915C67.2775 16.6255 67.8145 16.9585 68.2645 17.3905L67.7515 18.3985ZM77.4126 24.2845L75.6306 19.5505C75.4866 19.1845 75.3396 18.7195 75.1896 18.1555C75.1236 18.4375 75.0516 18.6985 74.9736 18.9385C74.8956 19.1725 74.8236 19.3795 74.7576 19.5595L72.9756 24.2845H77.4126ZM81.3996 29.1445H79.7706C79.5846 29.1445 79.4346 29.0995 79.3206 29.0095C79.2066 28.9135 79.1196 28.7965 79.0596 28.6585L77.9796 25.7965H72.3996L71.3196 28.6585C71.2716 28.7785 71.1876 28.8895 71.0676 28.9915C70.9476 29.0935 70.7976 29.1445 70.6176 29.1445H68.9886L74.1276 16.1845H76.2606L81.3996 29.1445Z" fill="#282727"/>
</g>
<defs>
<filter id="filter0_d_2302_22364" x="31.5059" y="0.0405273" width="65.8938" height="45.257" filterUnits="userSpaceOnUse" color-interpolation-filters="sRGB">
<feFlood flood-opacity="0" result="BackgroundImageFix"/>
<feColorMatrix in="SourceAlpha" type="matrix" values="0 0 0 0 0 0 0 0 0 0 0 0 0 0 0 0 0 0 127 0" result="hardAlpha"/>
<feOffset/>
<feGaussianBlur stdDeviation="8"/>
<feComposite in2="hardAlpha" operator="out"/>
<feColorMatrix type="matrix" values="0 0 0 0 0 0 0 0 0 0 0 0 0 0 0 0 0 0 0.08 0"/>
<feBlend mode="normal" in2="BackgroundImageFix" result="effect1_dropShadow_2302_22364"/>
<feBlend mode="normal" in="SourceGraphic" in2="effect1_dropShadow_2302_22364" result="shape"/>
</filter>
<clipPath id="clip0_2302_22364">
<rect width="29.5263" height="22" fill="white" transform="translate(8.60254 11.1445)"/>
</clipPath>
</defs>
</svg>
