<svg width="38" height="38" viewBox="0 0 38 38" fill="none" xmlns="http://www.w3.org/2000/svg">
<rect x="1" y="1" width="36" height="36" rx="18" stroke="#282727" stroke-width="2"/>
<path d="M18.9998 20.066C22.9271 20.066 26.1109 16.8822 26.1109 12.9549C26.1109 9.0275 22.9271 5.84375 18.9998 5.84375C15.0724 5.84375 11.8887 9.0275 11.8887 12.9549C11.8887 16.8822 15.0724 20.066 18.9998 20.066Z" stroke="#282727" stroke-width="2" stroke-linecap="round" stroke-linejoin="round"/>
<path d="M31.4436 32.8652V30.1986C31.4436 28.7841 30.788 27.4275 29.6211 26.4273C28.4542 25.4271 26.8716 24.8652 25.2214 24.8652H12.7769C11.1267 24.8652 9.54403 25.4271 8.37713 26.4273C7.21024 27.4275 6.55469 28.7841 6.55469 30.1986V32.8652" stroke="#282727" stroke-width="2" stroke-linecap="round" stroke-linejoin="round"/>
</svg>
