<svg width="25" height="24" viewBox="0 0 25 24" fill="none" xmlns="http://www.w3.org/2000/svg">
<g clip-path="url(#clip0_2308_11969)">
<path d="M16.75 16L12.75 12L8.75 16" stroke="#282727" stroke-width="2" stroke-linecap="round" stroke-linejoin="round"/>
<path d="M13.75 12C13.75 11.4477 13.3023 11 12.75 11C12.1977 11 11.75 11.4477 11.75 12H13.75ZM11.75 21V22H13.75V21H11.75ZM11.75 12V21H13.75V12H11.75Z" fill="#282727"/>
<path d="M21.1414 18.3895C22.1168 17.8578 22.8873 17.0164 23.3313 15.9981C23.7753 14.9799 23.8676 13.8427 23.5936 12.7662C23.3196 11.6896 22.6949 10.735 21.8181 10.0529C20.9413 9.37088 19.8623 9.00023 18.7514 8.9995H17.4914C17.1887 7.82874 16.6246 6.74183 15.8414 5.82049C15.0582 4.89915 14.0763 4.16735 12.9695 3.6801C11.8628 3.19286 10.66 2.96285 9.45154 3.00738C8.24311 3.0519 7.06049 3.3698 5.9926 3.93716C4.92471 4.50453 3.99934 5.3066 3.28605 6.28308C2.57276 7.25956 2.09012 8.38503 1.8744 9.57489C1.65869 10.7647 1.71553 11.988 2.04064 13.1528C2.36575 14.3175 2.95067 15.3934 3.75143 16.2995" stroke="#282727" stroke-width="2" stroke-linecap="square" stroke-linejoin="round"/>
<path d="M16.75 16L12.75 12L8.75 16" stroke="#282727" stroke-width="2" stroke-linecap="square" stroke-linejoin="round"/>
</g>
<defs>
<clipPath id="clip0_2308_11969">
<rect width="24" height="24" fill="white" transform="translate(0.75)"/>
</clipPath>
</defs>
</svg>
