<svg width="409" height="241" viewBox="0 0 409 241" fill="none" xmlns="http://www.w3.org/2000/svg">
<path d="M353.711 96.3322C353.804 95.9324 353.697 95.7459 353.311 95.5463C353.124 95.4798 352.897 95.3867 352.711 95.3202C352.524 95.2537 352.431 95.1339 352.391 94.934C352.297 93.948 352.096 92.9488 351.896 91.9495C351.521 89.7378 351.186 87.5527 350.812 85.341C350.624 84.2351 350.477 83.1559 350.316 82.01C351.062 81.9296 351.116 81.8496 351.248 81.1299C351.248 81.1299 351.275 81.0899 351.235 81.0633C351.421 79.9172 351.314 79.7307 350.234 79.3584C349.861 79.2254 349.754 79.0389 349.714 78.6658C349.472 75.7345 349.59 72.8695 349.588 69.9246C349.615 69.7114 349.628 69.6048 349.868 69.5913C350.214 69.591 350.414 69.3777 350.48 69.0178C350.52 68.8712 350.533 68.7646 350.573 68.618C350.826 67.6318 350.852 67.5918 349.906 67.1927C349.599 67.0463 349.599 66.8731 349.652 66.6199C349.772 66.1801 349.865 65.7803 349.985 65.3404C350.502 62.7417 350.994 60.1829 351.485 57.6241C351.804 56.1048 352.122 54.5855 352.454 53.1328C352.932 50.8539 353.277 48.6017 353.795 46.3493C354.26 44.3502 354.832 42.3644 355.15 40.3254C355.336 39.1793 355.522 38.0332 355.708 36.8871C355.8 36.314 355.734 36.1542 355.24 35.9413C355.054 35.8748 355.027 35.7416 355.054 35.5284C355.16 35.1952 355.2 34.8753 355.266 34.5155C355.332 34.1557 355.239 33.8626 354.866 33.7296C354.679 33.6631 354.626 33.5699 354.666 33.4233C354.706 33.2767 354.719 33.17 354.759 33.0234C355.091 31.5708 355.423 30.1181 355.782 28.6254C355.861 28.3322 355.901 28.0124 356.127 27.759C356.38 27.4657 356.274 27.106 355.994 26.9196C355.754 26.7599 355.434 26.7201 355.194 26.9069C354.954 27.0936 354.848 27.4268 355.048 27.7331C355.168 27.9862 355.168 28.1595 355.115 28.4127C354.77 29.972 354.291 31.558 354.053 33.1305C354.026 33.3438 353.973 33.4238 353.733 33.4372C353.493 33.4507 353.387 33.6107 353.294 33.8373C353.134 34.2505 352.948 34.7037 352.788 35.1169C352.748 35.2635 352.668 35.3835 352.455 35.357C351.962 35.3174 351.789 35.6639 351.669 36.1037C351.43 36.9834 351.191 37.863 350.912 38.716C350.42 40.2355 349.928 41.7549 349.396 43.2477C348.891 44.7005 348.425 46.1799 347.92 47.6327C346.909 50.3651 345.752 53.0576 344.741 55.79C343.823 58.2958 342.826 60.7483 341.841 63.2675C341.722 63.5341 341.722 63.8805 341.509 64.0273C341.269 64.214 340.936 63.9344 340.656 63.9213C340.229 63.8683 339.976 63.9884 339.843 64.3616C339.63 64.8547 339.524 65.3612 339.485 65.8542C339.432 66.1075 339.485 66.3739 339.752 66.4937C340.098 66.6666 339.992 66.8266 339.832 67.0666C339.752 67.1866 339.672 67.3066 339.566 67.4665C338.168 69.6529 336.744 71.8792 335.346 74.0655C335.107 74.4255 335.107 74.4254 334.64 74.3458C334.054 74.1863 333.734 74.3198 333.455 74.8264C333.282 75.173 333.149 75.5462 333.042 75.8794C332.869 76.3992 332.843 76.7856 333.416 77.0517C333.11 77.425 332.804 77.7984 332.524 78.1317C329.861 80.9185 327.291 83.8253 324.802 86.7852C324.442 87.2385 324.083 87.5186 323.51 87.2525C323.47 87.2259 323.443 87.2659 323.403 87.2393C323.016 87.2129 322.87 87.3462 322.737 87.7195C322.657 88.0127 322.578 88.3059 322.498 88.5991C322.312 89.3987 322.552 89.7317 323.325 89.9577C325.138 90.5294 327.017 90.9145 328.896 91.2996C329.402 91.4058 329.855 91.592 330.348 91.6317C330.842 91.6713 331.028 91.5645 331.214 91.1114C331.361 90.8048 331.44 90.5116 331.48 90.1917C331.613 89.6453 331.546 89.4855 331.053 89.2726C330.973 89.2193 330.893 89.1661 330.786 89.1529C330.813 88.9396 330.933 88.8463 331.039 88.6863C331.745 87.7131 332.584 86.8863 333.463 86.0862C334.861 84.766 336.486 84.0586 338.418 84.1905C338.525 84.2037 338.592 84.1904 338.698 84.2036C340.55 84.2823 342.283 84.8007 343.776 86.0256C346.336 88.0758 347.457 90.7267 346.767 94.0186C346.687 94.3118 346.581 94.4718 346.287 94.392C346.034 94.3389 345.794 94.3524 345.635 94.5924C345.115 95.2856 345.409 96.0583 346.262 96.3375C347.395 96.6299 348.541 96.9888 349.647 97.3212C350.607 97.6136 351.553 97.8395 352.553 97.9854C353.019 98.065 353.206 97.9583 353.352 97.6517C353.418 97.1186 353.578 96.7054 353.711 96.3322Z" fill="#7DBBFF"/>
<path d="M327.626 86.8794C327.706 86.9327 327.786 86.9859 327.893 86.9992C328.426 87.2386 328.493 87.3985 328.32 87.9183C328.24 88.2115 328.134 88.5447 328.054 88.8379C327.868 89.2911 327.681 89.3979 327.188 89.3582C326.695 89.3186 326.242 89.1324 325.736 89.0261C323.857 88.641 322.004 88.2159 320.165 87.6842C319.392 87.4582 319.192 87.1519 319.338 86.3256C319.417 86.0324 319.497 85.7392 319.577 85.446C319.67 85.0462 319.856 84.9394 320.243 84.9658C320.283 84.9924 320.309 84.9525 320.349 84.9791C320.923 85.2452 321.282 84.9651 321.642 84.5118C324.131 81.5518 326.701 78.6451 329.364 75.8583C329.684 75.5515 329.95 75.1516 330.256 74.7783C329.683 74.5122 329.736 74.0857 329.882 73.6059C330.015 73.2327 330.122 72.8995 330.295 72.5529C330.601 72.0064 330.894 71.9129 331.48 72.0724C331.92 72.192 331.96 72.2186 332.186 71.7921C333.584 69.6057 335.008 67.3794 336.406 65.1931C336.485 65.0731 336.565 64.9531 336.672 64.7931C336.832 64.5532 336.938 64.3932 336.591 64.2202C336.325 64.1005 336.338 63.8207 336.324 63.5808C336.391 63.0478 336.47 62.5813 336.683 62.0881C336.856 61.7416 337.096 61.5548 337.496 61.6478C337.816 61.6876 338.109 61.9405 338.349 61.7538C338.562 61.6071 338.561 61.2606 338.681 60.994C339.639 58.5149 340.703 56.049 341.581 53.5165C342.592 50.7842 343.749 48.0917 344.76 45.3593C345.305 43.9331 345.77 42.4537 346.236 40.9742C346.728 39.4548 347.26 37.962 347.752 36.4426C348.031 35.5896 348.27 34.71 348.509 33.8303C348.629 33.3905 348.775 33.0839 349.295 33.0835C349.508 33.11 349.548 32.9634 349.628 32.8435C349.788 32.4303 349.974 31.9771 350.133 31.5639C350.226 31.3373 350.333 31.1773 350.573 31.1638C350.813 31.1503 350.866 31.0703 350.892 30.8571C351.158 29.2446 351.65 27.7251 351.955 26.1392C352.008 25.886 352.035 25.6728 351.888 25.4597C351.688 25.1534 351.794 24.8202 352.034 24.6334C352.274 24.4467 352.593 24.4865 352.833 24.6462C353.113 24.8325 353.194 25.2322 352.967 25.4856C352.741 25.7389 352.701 26.0587 352.621 26.352C352.289 27.8046 351.957 29.2573 351.599 30.75C351.559 30.8966 351.545 31.0032 351.506 31.1498C351.439 31.3364 351.492 31.4297 351.706 31.4562C352.105 31.5492 352.172 31.8822 352.106 32.2421C352.04 32.6019 352 32.9217 351.893 33.2549C351.827 33.4415 351.88 33.5348 352.08 33.6679C352.547 33.9207 352.64 34.0406 352.547 34.6136C352.362 35.7597 352.176 36.9058 351.99 38.0519C351.672 40.0909 351.127 42.0368 350.635 44.0759C350.117 46.3282 349.772 48.5804 349.294 50.8594C348.975 52.3787 348.617 53.8713 348.325 55.3507C347.807 57.9494 347.316 60.5082 346.824 63.067C346.731 63.4668 346.612 63.9066 346.492 64.3465C346.439 64.5997 346.439 64.7729 346.746 64.9193C347.692 65.3184 347.665 65.3584 347.413 66.3446C347.373 66.4912 347.36 66.5978 347.32 66.7444C347.214 67.0776 347.054 67.3176 346.707 67.3178C346.468 67.3313 346.454 67.4379 346.428 67.6512C346.39 70.5694 346.285 73.501 346.554 76.3924C346.594 76.7655 346.701 76.952 347.074 77.0849C348.194 77.4839 348.26 77.6438 348.075 78.7899C348.075 78.7899 348.048 78.8299 348.088 78.8565C347.955 79.5761 347.902 79.6561 347.156 79.7366C347.343 80.8425 347.464 81.9617 347.651 83.0676C348.093 85.2659 348.361 87.4644 348.735 89.6761C348.896 90.6487 349.097 91.648 349.231 92.6606C349.244 92.9004 349.337 93.0203 349.551 93.0468C349.737 93.1133 349.924 93.1798 350.15 93.2729C350.524 93.4059 350.644 93.659 350.551 94.0588C350.431 94.4986 350.272 94.9118 350.072 95.2984C349.899 95.6449 349.739 95.7117 349.273 95.6321C348.273 95.4862 347.327 95.2603 346.367 94.9679C345.261 94.6355 344.088 94.3166 342.982 93.9842C342.142 93.7716 341.849 92.9989 342.354 92.239C342.514 91.9991 342.754 91.9856 343.007 92.0387C343.327 92.0785 343.434 91.9185 343.487 91.6653C344.177 88.3734 343.096 85.7492 340.496 83.6723C339.043 82.474 337.31 81.9556 335.418 81.8503C335.311 81.8371 335.245 81.8504 335.138 81.8372C333.206 81.7053 331.554 82.4527 330.183 83.7329C329.344 84.5596 328.505 85.3864 327.759 86.333C327.773 86.5728 327.626 86.7062 327.626 86.8794ZM342.655 84.4169C343.575 84.6828 344.455 84.922 345.254 85.2812C345.441 85.3477 345.534 85.2944 345.641 85.1344C346.013 84.5745 346.386 84.0145 346.785 83.4146C346.892 83.2546 346.958 83.068 346.918 82.8682C346.744 81.8289 346.584 80.8563 346.41 79.8171C346.383 79.5106 346.183 79.3775 345.93 79.3244C344.864 79.0187 343.797 78.7129 342.691 78.3806C341.038 77.9154 339.386 77.4502 337.76 76.945C335.681 76.2535 333.535 75.7487 331.496 75.0839C331.269 74.9908 331.109 75.0575 330.976 75.2575C330.497 75.8042 330.044 76.3108 329.551 76.7909C329.258 77.0576 329.152 77.3908 329.152 77.7373C329.153 78.6034 329.287 79.4428 329.354 80.2956C329.381 80.602 329.527 80.6419 329.741 80.6684C330.9 80.7475 331.993 80.84 333.139 81.0258C333.352 81.0523 333.552 81.0121 333.792 80.9986C335.55 80.7842 337.256 80.9962 338.882 81.6746C340.202 82.2067 341.362 82.9787 342.335 84.0307C342.415 84.2572 342.549 84.4037 342.655 84.4169ZM337.331 74.1203C337.025 73.974 336.652 73.841 336.345 73.6946C335.958 73.495 335.838 73.2419 336.038 72.8554C336.251 72.5354 336.197 72.2689 336.131 71.9358C336.024 71.5761 335.89 71.2564 335.823 70.9233C335.743 70.6969 335.637 70.6836 335.437 70.7237C334.984 70.884 334.491 71.0176 334.038 71.1778C333.811 71.2579 333.692 71.3513 333.558 71.5512C333.279 72.0578 332.96 72.5377 332.6 72.991C332.387 73.311 332.121 73.3645 331.747 73.2315C331.667 73.1783 331.547 73.0984 331.441 73.0851C331.334 73.0719 331.228 73.0586 331.188 73.2052C331.175 73.4851 330.882 73.7518 330.962 73.9783C331.042 74.2047 331.388 74.2045 331.602 74.231C331.642 74.2576 331.682 74.2842 331.708 74.2442C333.654 74.9624 335.693 75.454 337.719 76.0522C340.118 76.7834 342.53 77.408 344.956 78.0992C345.583 78.2853 346.236 78.4314 346.862 78.6175C347.049 78.684 347.208 78.6173 347.302 78.3907C347.395 78.1641 347.275 78.0842 347.088 78.0177C346.902 77.9512 346.715 77.8847 346.528 77.8182C345.942 77.6587 345.648 77.2325 345.661 76.6062C345.674 76.1532 345.621 75.7135 345.607 75.3004C345.607 75.1272 345.58 74.994 345.487 74.8741C345.087 74.4346 344.66 74.0352 344.26 73.5957C344.167 73.4759 344.06 73.4626 343.94 73.556C343.314 74.0628 342.635 74.4763 342.049 75.0098C341.756 75.2765 341.503 75.3966 341.13 75.2636C339.824 74.9714 338.544 74.6391 337.331 74.1203ZM337.877 73.3871C338.73 73.6663 339.69 73.9588 340.583 74.2646C341.329 74.5306 341.236 74.5839 341.449 73.7443C341.701 72.7581 341.847 71.7586 342.033 70.7857C342.192 70.026 342.325 69.3064 342.378 68.5335C342.404 68.3203 342.351 68.227 342.124 68.1339C341.578 68.001 341.058 67.8282 340.538 67.6553C340.058 67.5091 339.992 67.5225 339.739 67.989C338.927 69.2955 338.088 70.6419 337.356 72.0016C336.744 73.0947 336.664 72.8682 337.877 73.3871ZM338.07 63.8194C340.296 64.5507 342.375 65.2422 344.508 65.8536C345.094 66.0131 345.721 66.1992 346.28 66.3987C346.507 66.4918 346.587 66.3718 346.653 66.1852C346.72 65.9986 346.693 65.8654 346.467 65.7723C346.013 65.586 345.613 65.3198 345.6 64.7335C345.613 64.6269 345.48 64.4804 345.4 64.4272C344.559 63.5217 343.813 62.5628 343.159 61.5505C342.972 61.3108 342.852 61.2309 342.559 61.3244C342.173 61.4713 341.706 61.5649 341.28 61.6851C340.561 61.8988 339.801 62.0859 339.229 62.5127C338.802 62.8062 338.443 62.913 337.976 62.8334C337.55 62.7804 337.55 62.7804 337.483 63.1403C337.39 63.5401 337.39 63.5401 337.804 63.6997C337.95 63.7396 338.07 63.8194 338.07 63.8194ZM320.351 86.8846C321.79 87.3233 323.216 87.6954 324.669 88.0275C325.389 88.1602 326.095 88.3996 326.815 88.5323C327.174 88.5987 327.228 88.5187 327.294 88.1589C327.374 87.8657 327.347 87.7324 326.961 87.7061C326.428 87.6398 326.187 87.3069 326.12 86.8005C325.96 86.0011 325.946 85.2416 325.866 84.4955C325.812 84.0558 325.839 84.0158 325.346 83.9762C324.786 83.9499 324.253 83.8836 323.667 83.8974C323.427 83.9109 323.267 83.9776 323.067 84.191C322.734 84.6043 322.295 85.0044 322.002 85.4443C321.616 85.9376 321.216 86.1911 320.59 86.005C320.297 85.9252 320.177 86.0186 320.151 86.405C320.151 86.5782 320.004 86.8848 320.351 86.8846ZM345.148 66.9725C344.295 66.6933 343.416 66.454 342.549 66.1082C341.31 65.6294 340.003 65.3371 338.751 64.9649C338.417 64.8585 337.977 64.5657 337.698 64.7258C337.351 64.8993 337.272 65.3657 337.059 65.6857C336.952 65.8456 336.939 65.9523 337.006 66.1121C337.139 66.4318 337.313 66.7782 337.446 67.0979C337.526 67.3243 337.673 67.3642 337.899 67.2841C338.366 67.1905 338.832 67.0969 339.312 67.0699C339.445 67.0431 339.552 67.0564 339.671 66.963C339.871 66.7497 340.058 66.8162 340.311 66.8693C341.151 67.0819 342.03 67.3211 342.883 67.6004C343.177 67.6801 343.39 67.8798 343.55 68.1595C343.803 68.5591 344.15 68.9053 344.404 69.3049C344.51 69.4914 344.644 69.4646 344.79 69.3313C345.376 68.9711 345.816 68.571 345.722 67.7583C345.641 67.1853 345.708 67.172 345.148 66.9725ZM346.582 59.2695C345.795 58.1108 345.035 57.0853 344.447 55.8864C344.341 55.6999 344.207 55.7267 344.088 55.82C343.222 56.3403 342.329 56.9006 341.464 57.4209C341.277 57.5277 341.237 57.6743 341.411 57.8474C342.011 58.5931 342.544 59.3523 343.118 60.1381C343.265 60.3512 343.411 60.3911 343.638 60.3109C344.61 59.9771 345.583 59.6433 346.582 59.2695ZM343.248 93.2378C344.581 93.6633 345.914 94.0887 347.273 94.4742C347.859 94.6337 348.432 94.7266 349.046 94.846C349.339 94.9258 349.445 94.7658 349.538 94.366C349.618 94.0728 349.445 94.0729 349.298 94.033C348.858 93.9134 348.698 93.6337 348.685 93.2206C348.684 93.0474 348.658 92.9142 348.631 92.7809C348.631 92.6077 348.538 92.4878 348.444 92.368C347.777 91.8088 347.044 91.263 346.378 90.7038C346.164 90.5041 346.044 90.5974 345.845 90.8108C345.565 91.1441 345.272 91.4108 344.992 91.7441C344.766 91.9975 344.5 92.2242 344.393 92.5574C344.3 92.9572 344.034 93.0107 343.688 93.011C343.581 92.9977 343.434 92.9578 343.301 92.9846C343.194 92.9713 343.088 92.9581 343.048 93.1047C342.995 93.1847 343.141 93.2246 343.248 93.2378ZM343.352 52.5026C343.766 53.1819 344.139 53.8345 344.513 54.4872C344.62 54.6737 344.726 54.6869 344.913 54.5802C345.725 54.1399 346.511 53.7396 347.324 53.2993C347.577 53.1792 347.63 53.0992 347.47 52.8195C347.19 52.2867 347.043 51.7271 346.763 51.1943C346.669 50.9012 346.509 50.6215 346.309 50.3152C345.323 51.102 344.351 51.7823 343.352 52.5026ZM350.215 33.5226C350.122 33.7492 349.948 33.9226 349.749 33.9627C349.269 33.9897 349.149 34.2563 349.123 34.6427C349.123 34.8159 348.99 35.0159 348.99 35.1891C348.95 35.3357 348.884 35.5223 348.977 35.6422C349.217 36.1484 349.497 36.6812 349.831 37.134C349.884 37.2273 349.991 37.2405 350.084 37.1872C350.524 36.9603 350.923 36.7068 351.349 36.4134C351.443 36.36 351.456 36.2534 351.469 36.1468C351.549 35.6804 351.655 35.1739 351.801 34.6941C351.854 34.4409 351.828 34.3077 351.561 34.1879C351.108 34.0017 351.054 33.9085 351.161 33.402C351.227 33.0422 351.293 32.6824 351.4 32.3492C351.466 32.1626 351.44 32.0293 351.186 31.9762C350.973 31.9497 350.787 31.8832 350.707 32.1764C350.534 32.6962 350.268 33.0962 350.215 33.5226ZM345.334 47.0112C345.668 47.8105 346.068 48.4231 346.415 49.1158C346.521 49.3023 346.628 49.3155 346.815 49.2088C347.334 48.862 347.853 48.5152 348.413 48.195C348.599 48.0882 348.639 47.9416 348.532 47.7551C348.212 47.1957 347.932 46.6629 347.612 46.1035C347.558 46.0102 347.439 45.9304 347.345 45.9837C346.746 46.4505 346.027 46.6642 345.334 47.0112ZM347.831 53.9252C347.298 54.0322 345.752 54.7928 345.033 55.353C345.327 56.2989 346.381 57.9238 346.874 58.3099C347.193 56.7906 347.499 55.3779 347.831 53.9252ZM326.558 83.2824L326.598 83.309C327.344 83.4017 328.104 83.3879 328.85 83.3074C329.023 83.3073 329.063 83.1607 329.036 83.0274C328.969 82.5211 328.969 82.0014 328.902 81.4951C328.902 81.3219 328.822 81.2687 328.648 81.2688C327.942 81.2027 327.236 81.1365 326.556 81.0304C326.343 81.0039 326.25 81.0573 326.223 81.2705C326.277 81.8834 326.291 82.4697 326.344 83.0826C326.438 83.2025 326.424 83.3091 326.558 83.2824ZM346.148 86.4532C345.761 86.2536 345.695 86.267 345.548 86.5736C345.242 87.1201 344.936 87.6667 344.67 88.2398C344.564 88.3998 344.63 88.5597 344.79 88.6662C345.084 88.9191 345.47 89.1187 345.764 89.3717C345.964 89.5048 346.097 89.4781 346.23 89.2781C346.683 88.7714 347.135 88.2648 347.628 87.7847C347.801 87.6113 347.774 87.4781 347.614 87.3716C347.068 87.0655 346.548 86.7194 346.148 86.4532ZM348.528 41.6922C347.982 41.9058 347.489 42.2126 346.983 42.4528C346.823 42.5195 346.837 42.5862 346.903 42.746C347.144 43.4254 347.451 44.0915 347.691 44.7709C347.771 44.9974 347.904 44.9706 348.024 44.8773C348.53 44.637 348.97 44.4102 349.476 44.17C349.702 44.0899 349.742 43.9433 349.636 43.7568C349.355 43.0508 348.848 42.4248 348.528 41.6922ZM345.839 63.8539C346.078 62.4546 346.29 61.2685 346.542 59.9358C345.583 60.3362 344.624 60.5634 343.771 60.9771C344.425 61.9894 344.999 62.9484 345.839 63.8539ZM348.861 40.7592C348.927 40.7458 348.994 40.7324 349.02 40.6924C349.527 40.4522 350.033 40.212 350.499 39.9452C350.752 39.8251 350.792 39.6785 350.659 39.3588C350.472 38.9458 350.125 38.5996 349.845 38.24C349.752 38.1201 349.645 38.1069 349.485 38.1736C349.086 38.4271 348.713 38.6406 348.313 38.894C348.127 39.0008 348.047 39.1207 348.153 39.3072C348.34 39.7202 348.527 40.1331 348.714 40.5461C348.781 40.7059 348.821 40.7325 348.861 40.7592ZM339.641 61.633C340.68 61.2858 341.626 60.992 342.572 60.6981C342.038 59.939 341.545 59.2064 340.945 58.4607C340.506 59.5536 340.12 60.5666 339.641 61.633ZM345.511 71.716C345.565 71.636 345.511 71.5428 345.471 71.5161C345.178 71.0899 344.858 70.7037 344.564 70.2775C344.431 70.1311 344.338 70.1844 344.218 70.2778C343.858 70.5579 343.499 70.838 343.099 71.0914C342.953 71.2248 342.899 71.3048 343.033 71.4512C343.353 71.8375 343.673 72.2237 343.953 72.5832C344.086 72.7297 344.193 72.743 344.379 72.6362C344.672 72.3695 345.045 72.1561 345.365 71.8494C345.458 71.796 345.485 71.756 345.511 71.716ZM343.578 51.5563C343.938 51.4495 344.098 51.2095 344.311 51.0628C344.83 50.716 345.336 50.3025 345.816 49.9291C345.936 49.8357 346.095 49.769 345.989 49.5825C345.668 49.0231 345.375 48.4236 344.961 47.7443C344.536 49.0772 343.937 50.2369 343.578 51.5563ZM328.686 77.8309C327.82 78.6976 327.155 79.5242 326.369 80.4442C327.302 80.4303 328.048 80.6962 328.874 80.669C328.82 79.7096 328.753 78.8569 328.686 77.8309ZM348.813 48.8076C348.746 48.821 348.706 48.7944 348.666 48.7678C348.067 49.0613 347.561 49.4748 347.015 49.8616C346.855 49.9283 346.922 50.0882 346.975 50.1814C347.215 50.6876 347.416 51.1672 347.656 51.6734C347.776 51.9265 347.856 52.1529 348.109 52.3793C348.362 51.2198 348.641 50.0203 348.813 48.8076ZM336.023 70.0171C336.542 69.8435 337.022 69.6433 337.515 69.5097C337.781 69.4562 337.821 69.3096 337.741 69.0831C337.634 68.7234 337.461 68.3771 337.354 68.0174C337.287 67.8575 337.18 67.8443 337.02 67.911C336.621 67.9912 336.194 68.1115 335.795 68.1917C335.555 68.2052 335.515 68.3518 335.555 68.5517C335.715 69.0046 335.849 69.4975 336.023 70.0171ZM341.796 56.3147C341.903 56.3279 341.903 56.3279 341.903 56.3279C342.369 56.0611 342.835 55.7943 343.261 55.5008C344.034 55.0339 344.034 55.0339 343.54 54.3014C343.34 53.995 343.193 53.6087 342.887 53.2891C342.541 54.3287 342.142 55.2751 341.796 56.3147ZM328.677 84.0004C327.931 84.0809 327.225 84.0148 326.478 84.0953C326.492 84.8548 326.533 85.5743 326.733 86.4003C327.425 85.5337 328.065 84.7471 328.677 84.0004ZM348.363 91.2754C348.269 90.2894 348.056 89.3967 347.895 88.4241C347.389 88.8376 347.069 89.3175 346.67 89.7442C346.55 89.8375 346.577 89.9708 346.697 90.0506C347.257 90.4233 347.79 90.836 348.363 91.2754ZM329.716 83.1336C330.408 82.4402 331.154 82.0132 332.033 81.5595C331.074 81.4403 330.301 81.3875 329.461 81.3482C329.542 81.9211 329.582 82.4674 329.716 83.1336ZM346.411 43.5725C346.132 44.4255 345.852 45.2785 345.547 46.1716C346.173 45.838 346.679 45.5978 347.278 45.3042C346.985 44.7048 346.704 44.172 346.411 43.5725ZM325.65 81.1776C325.091 81.8443 324.572 82.3643 324.159 83.0709C324.759 83.1238 325.252 83.1634 325.825 83.2562C325.824 82.5633 325.731 81.9238 325.65 81.1776ZM349.596 44.9428C349.556 44.9161 349.517 44.8895 349.477 44.8629C349.037 45.0897 348.664 45.3032 348.224 45.53C348.105 45.6234 348.078 45.6634 348.145 45.8233C348.385 46.3294 348.665 46.8623 349.052 47.4083C349.291 46.5287 349.437 45.7024 349.596 44.9428ZM347.561 86.5855C347.506 85.4529 347.279 84.4936 347.053 84.2273C346.786 84.6272 346.52 85.0272 346.227 85.4671C346.121 85.6271 346.148 85.7603 346.308 85.8668C346.721 86.0264 347.121 86.2926 347.561 86.5855ZM344.283 87.5206C344.603 87.0406 344.722 86.6008 344.989 86.2009C345.095 86.0409 345.068 85.9076 344.882 85.8412C344.389 85.6283 343.842 85.4954 343.296 85.3626C343.709 86.0419 343.95 86.7213 344.283 87.5206ZM350.048 43.0503C350.261 42.2106 350.42 41.451 350.526 40.5981C350.06 40.8649 349.647 41.0518 349.274 41.2652C349.181 41.3186 349.101 41.4386 349.194 41.5584C349.461 42.0246 349.728 42.4908 350.048 43.0503ZM342.248 74.1035C342.288 74.1301 342.328 74.1568 342.328 74.1568C342.715 73.8367 343.074 73.5566 343.5 73.2631C343.647 73.1298 343.66 73.0232 343.527 72.8767C343.26 72.5837 342.993 72.2908 342.713 71.9312C342.554 72.6908 342.421 73.4105 342.248 74.1035ZM334.064 70.6181C334.61 70.5778 335.05 70.3509 335.543 70.2173C335.383 69.7644 335.396 69.3113 335.089 68.8185C334.73 69.445 334.424 69.9916 334.064 70.6181ZM347.661 39.7873C347.315 40.4804 347.169 41.1335 346.969 41.8665C347.409 41.6397 347.755 41.4662 348.101 41.2927C348.195 41.2394 348.275 41.1194 348.221 41.0261C348.034 40.6132 347.888 40.2269 347.661 39.7873ZM336.583 71.7756C336.916 71.1891 337.329 70.6558 337.622 70.0426C337.142 70.0696 336.769 70.2831 336.409 70.3899C336.209 70.43 336.17 70.5767 336.236 70.7365C336.37 71.0562 336.37 71.4027 336.583 71.7756ZM344.177 69.7315C343.857 69.3453 343.644 68.9723 343.284 68.5595C343.111 69.2525 343.058 69.8522 343.019 70.5185C343.458 70.2917 343.751 70.0249 344.177 69.7315ZM338.221 69.0561C338.647 68.5894 338.859 68.0962 339.166 67.5497C338.686 67.5767 338.286 67.6569 337.926 67.7638C337.793 67.7905 337.74 67.8705 337.807 68.0304C337.94 68.3501 338.074 68.6698 338.221 69.0561ZM348.604 36.5486C348.445 37.135 348.272 37.6548 348.113 38.2412C348.419 38.2144 348.592 38.041 348.779 37.9343C349.338 37.6141 349.338 37.6141 349.018 37.0547C348.885 36.9082 348.844 36.7083 348.604 36.5486ZM345.512 72.4089C345.139 72.6224 344.832 72.8225 344.58 73.1158C344.86 73.4754 345.1 73.8083 345.566 74.0612C345.553 73.4749 345.592 72.9818 345.512 72.4089ZM344.618 89.5324C344.618 90.0521 344.619 90.5718 344.606 91.1981C344.779 91.0247 344.832 90.9447 344.952 90.8514C345.591 90.0647 345.591 90.0647 344.751 89.5057C344.684 89.5191 344.684 89.5191 344.618 89.5324ZM335.821 67.632C335.861 67.6586 335.834 67.6986 335.874 67.7253C336.234 67.6184 336.647 67.6048 337.033 67.4579C336.9 67.1382 336.833 66.8051 336.593 66.4722C336.3 66.9121 336.061 67.2721 335.821 67.632ZM345.629 69.1975C345.363 69.4242 345.083 69.5843 344.817 69.811C345.057 70.1439 345.231 70.4903 345.631 70.7565C345.59 70.2102 345.736 69.7304 345.629 69.1975ZM351.19 37.3463C350.271 37.6001 350.204 37.7867 350.711 38.4126C350.765 38.5059 350.778 38.5725 350.911 38.5457C351.044 38.1725 351.137 37.7727 351.19 37.3463Z" fill="#282727"/>
<path d="M339.066 79.3156C338.933 79.6888 338.76 80.0354 338.627 80.4086C338.534 80.6352 338.347 80.7419 338.121 80.6488C337.854 80.529 337.947 80.3024 338.014 80.1158C338.28 79.5427 338.506 78.9429 338.799 78.3297C338.865 78.1431 338.972 77.9831 339.118 77.8498C339.225 77.6898 339.358 77.6631 339.518 77.7695C339.638 77.8494 339.665 77.9826 339.625 78.1292C339.519 78.4625 339.346 78.809 339.239 79.1422C339.173 79.1556 339.119 79.2356 339.066 79.3156Z" fill="#282727"/>
<path d="M332.257 77.8398C332.43 77.32 332.763 76.9067 332.975 76.4135C333.029 76.3335 333.082 76.2536 333.135 76.1736C333.215 76.0536 333.375 75.9868 333.495 76.0667C333.615 76.1466 333.642 76.2798 333.602 76.4264C333.509 76.653 333.482 76.8662 333.349 77.0662C333.03 77.5461 332.83 78.1059 332.591 78.6391C332.551 78.7857 332.471 78.9057 332.391 79.0257C332.311 79.1457 332.191 79.239 332.071 79.1592C331.951 79.0793 331.925 78.9461 331.964 78.7995C332.004 78.4796 332.151 78.173 332.257 77.8398Z" fill="#282727"/>
<path d="M335.309 78.8938C335.575 78.3207 335.908 77.7341 336.134 77.1343C336.187 77.0543 336.241 76.9743 336.294 76.8944C336.347 76.8144 336.48 76.7876 336.56 76.8409C336.64 76.8941 336.654 76.9607 336.667 77.0273C336.641 77.2406 336.614 77.4538 336.521 77.6804C336.228 78.2935 335.949 78.9733 335.656 79.5865C335.603 79.6665 335.576 79.7065 335.523 79.7865C335.403 79.8798 335.27 79.9066 335.15 79.8267C335.03 79.7468 335.003 79.6136 335.057 79.5336C335.123 79.347 335.216 79.1204 335.309 78.8938Z" fill="#282727"/>
<path d="M343.238 80.0732C342.998 80.6064 342.679 81.0863 342.466 81.5795C342.413 81.6595 342.359 81.7395 342.306 81.8195C342.186 81.9128 342.026 81.9796 341.906 81.8997C341.746 81.7932 341.72 81.66 341.826 81.5C341.919 81.2734 342.026 81.1134 342.159 80.9135C342.438 80.4069 342.718 79.9003 343.037 79.4204C343.09 79.3404 343.117 79.3004 343.17 79.2204C343.25 79.1005 343.383 79.0737 343.53 79.1136C343.65 79.1934 343.637 79.3001 343.597 79.4467C343.424 79.62 343.331 79.8466 343.238 80.0732Z" fill="#282727"/>
<path d="M340.693 79.8211C340.573 80.0877 340.453 80.3543 340.36 80.5809C340.307 80.6609 340.267 80.8075 340.214 80.8875C340.107 81.0474 339.988 81.1408 339.801 81.0743C339.574 80.9812 339.614 80.8346 339.681 80.648C339.92 80.1148 340.133 79.6216 340.372 79.0884C340.439 78.9018 340.532 78.6753 340.639 78.5153C340.718 78.3953 340.892 78.2219 341.052 78.3284C341.212 78.4349 341.172 78.5815 341.132 78.7281C341.039 79.1279 340.906 79.5011 340.693 79.8211C340.733 79.8477 340.733 79.8477 340.693 79.8211Z" fill="#282727"/>
<path d="M264.727 109.939C261.665 107.241 257.955 105.582 253.745 105.826C254.216 107.1 254.392 108.508 254.775 110.008C257.307 110.343 259.457 111.038 261.547 112.504C262.519 111.876 263.579 111.021 264.727 109.939Z" fill="#7DBBFF"/>
<path d="M253.78 148.322C253.101 148.818 252.303 148.995 251.624 149.491C250.147 150.164 248.671 150.837 247.194 151.509C247.312 151.829 247.224 152.056 247.342 152.376C247.696 153.334 248.051 154.293 248.405 155.252C250.975 154.268 253.426 152.964 255.877 151.661C255.109 150.517 254.341 149.373 253.78 148.322Z" fill="#7DBBFF"/>
<path d="M231.533 155.823C231.032 155.865 230.531 155.908 230.324 155.815C228.732 156.168 227.228 156.294 225.518 156.328C225.783 157.511 226.344 158.561 226.403 159.652C227.405 159.568 228.614 159.577 229.735 159.812C231.15 159.912 232.654 159.786 233.951 159.568C234.954 159.484 236.045 159.173 237.048 159.089C238.64 158.736 240.232 158.384 241.825 158.031C241.353 156.755 240.881 155.479 240.409 154.202C237.519 154.774 234.63 155.345 231.533 155.823Z" fill="#7DBBFF"/>
<path d="M238.927 178.984C239.311 178.623 239.488 178.169 239.872 177.808C237.481 174.607 235.298 171.498 233.586 167.801C232.288 168.02 231.196 168.331 229.986 168.322C229.78 168.23 229.78 168.23 229.485 168.365C231.55 173.019 234.295 177.178 237.128 181.11C237.983 180.161 238.455 179.573 238.927 178.984Z" fill="#7DBBFF"/>
<path d="M256.45 192.74C253.947 191.088 251.531 189.21 249.116 187.332C247.437 186.049 245.846 184.54 244.255 183.03C243.401 183.978 242.841 184.792 241.987 185.739C241.899 185.966 241.899 185.966 241.604 186.1C242.988 187.517 244.373 188.934 246.052 190.217C248.585 192.414 251.207 194.384 253.917 196.128C255.066 195.046 255.714 194.006 256.45 192.74Z" fill="#7DBBFF"/>
<path d="M276.401 202.729C271.577 200.838 266.636 198.63 262.077 196.062C261.341 197.326 260.9 198.456 259.959 199.628C264.723 202.288 269.665 204.496 274.9 206.57C275.341 205.441 275.871 204.085 276.401 202.729Z" fill="#7DBBFF"/>
<path d="M295.832 207.91C294.006 207.625 291.974 207.248 290.148 206.964C287.703 206.402 285.259 205.841 282.903 205.053C282.372 206.411 281.931 207.543 281.4 208.901C286.201 210.251 291.09 211.373 295.861 212.177C295.685 210.769 295.803 209.226 295.832 207.91Z" fill="#7DBBFF"/>
<path d="M339.318 203.409C334.772 205.106 330.197 206.258 325.711 207.183C325.888 208.595 326.065 210.007 326.036 211.326C331.231 210.452 336.189 208.939 341.03 207.107C340.558 205.829 339.79 204.686 339.318 203.409Z" fill="#7DBBFF"/>
<path d="M357.836 193.66C354.349 196.369 350.537 198.667 346.4 200.552C346.105 200.686 345.898 200.594 345.809 200.821C346.282 202.1 346.843 203.152 347.523 204.524C351.749 202.411 356.063 200.072 359.845 197.227C359.166 195.856 358.604 194.804 357.836 193.66Z" fill="#7DBBFF"/>
<path d="M370.239 187.867C369.47 186.722 368.613 185.805 368.051 184.752C367.666 185.114 367.193 185.704 366.602 185.973C365.449 187.059 364.592 188.011 363.527 188.869C364.296 190.014 364.769 191.294 365.538 192.439C366.987 191.218 368.524 189.77 369.766 188.457C369.854 188.229 370.15 188.095 370.239 187.867Z" fill="#7DBBFF"/>
<path d="M318.858 208.259C313.551 208.813 308.127 209.048 302.466 208.646C302.436 209.964 302.407 211.282 302.495 212.919C307.95 213.229 313.493 213.312 319.094 212.624C319.212 211.079 319.035 209.669 318.858 208.259Z" fill="#7DBBFF"/>
<path d="M209.436 159.9C212.884 160.378 216.126 160.764 219.545 160.697C219.074 159.421 218.691 157.919 218.514 156.509C215.389 156.443 212.147 156.057 209.2 155.537C209.082 157.081 209.259 158.491 209.436 159.9Z" fill="#7DBBFF"/>
<path d="M188.346 153.986C189.582 154.539 190.818 155.092 192.143 155.418C195.527 156.666 199.207 157.779 202.768 158.574C202.591 157.167 202.709 155.626 202.739 154.31C198.353 153.147 194.262 151.849 190.141 150.007C189.406 151.272 188.876 152.629 188.346 153.986Z" fill="#7DBBFF"/>
<path d="M165.796 140.737C168.826 142.889 171.857 145.04 175.183 147.058C177.478 148.615 179.656 149.854 182.127 150.959C182.657 149.603 183.099 148.472 183.834 147.207C183.011 146.839 182.187 146.47 181.245 145.784C176.89 143.306 172.623 140.602 168.444 137.671C167.591 138.618 166.737 139.564 165.796 140.737Z" fill="#7DBBFF"/>
<path d="M145.498 120.437C147.561 123.222 149.712 125.781 151.863 128.339C154.633 131.174 157.492 133.783 160.35 136.392C161.204 135.444 162.147 134.269 163.208 133.413C157.727 128.833 152.924 123.759 148.71 118.415C147.532 118.952 146.471 119.808 145.498 120.437Z" fill="#7DBBFF"/>
<path d="M131.629 93.5931C134.05 101.075 137.357 108.153 141.638 114.601C142.612 113.97 143.882 113.205 144.738 112.255C140.782 106.22 137.593 99.4607 135.29 92.2984C134.109 92.8364 132.928 93.3745 131.629 93.5931Z" fill="#7DBBFF"/>
<path d="M127.186 63.6912C126.684 63.7334 126.181 63.7755 125.885 63.9102C126.773 70.983 127.867 78.1484 129.553 85.0443C129.583 85.5916 129.908 86.0042 129.937 86.5515C131.12 86.0125 132.421 85.7935 133.604 85.2546C132.717 81.9203 132.037 78.6786 131.445 75.2096C130.824 71.1933 130.203 67.177 129.789 63.2533C128.783 63.3375 127.985 63.5144 127.186 63.6912Z" fill="#7DBBFF"/>
<path d="M125.408 36.8262C124.846 43.2569 124.905 49.9656 125.349 56.312C125.853 56.2698 126.149 56.1349 126.652 56.0927C127.451 55.9157 128.162 55.9662 128.961 55.7892C128.517 49.4428 128.694 43.3746 128.96 37.0788C128.043 36.9356 126.829 36.9272 125.408 36.8262Z" fill="#7DBBFF"/>
<path d="M128.924 17.4209C128.835 17.6486 128.657 18.1041 128.568 18.3318C127.65 21.9332 126.939 25.6274 126.435 29.4143C127.561 29.6504 128.775 29.6586 130.197 29.7597C130.583 27.5246 130.76 25.1968 131.234 22.734C131.649 21.0472 132.064 19.3603 132.479 17.6735C131.264 17.6652 130.049 17.6569 128.924 17.4209Z" fill="#7DBBFF"/>
<path d="M262.877 146.662C266.162 143.855 269.123 140.636 270.81 136.312C269.892 136.169 269.27 135.891 268.353 135.747C267.85 135.79 267.435 135.604 267.021 135.419C266.192 136.919 265.363 138.419 264.327 139.827C262.906 141.597 261.367 143.047 259.709 144.176C259.828 144.496 260.242 144.682 260.361 145.002C261.012 145.828 261.456 146.561 261.811 147.522C262.196 147.159 262.581 146.797 262.877 146.662Z" fill="#7DBBFF"/>
<path d="M266.747 119.418C268.106 122.161 268.875 125.173 268.727 128.042C269.643 128.185 270.352 128.236 271.268 128.379C271.682 128.564 272.184 128.522 272.598 128.707C272.834 123.743 271.593 119.451 269.052 115.379C267.988 116.237 266.924 117.096 266.156 117.819C266.392 118.459 266.422 119.006 266.747 119.418Z" fill="#7DBBFF"/>
<path d="M234.554 114.149C235.322 115.293 235.972 116.118 236.741 117.263C236.741 117.263 236.741 117.263 236.859 117.582C239.814 114.367 243.331 112.205 247.705 110.959C247.439 109.772 247.054 108.266 246.582 106.987C241.912 108.367 237.893 110.572 234.554 114.149Z" fill="#7DBBFF"/>
<path d="M228.262 123.482C226.987 126.124 226.127 128.951 225.475 131.871C226.72 132.428 227.847 132.664 229.092 133.221C229.359 132.537 229.329 131.988 229.596 131.305C230.1 129.389 230.812 127.566 231.79 125.06C231.879 124.832 232.057 124.376 232.354 124.241C231.79 123.186 231.346 122.452 230.782 121.397C230.664 121.077 230.338 120.663 230.219 120.343C229.359 121.296 228.707 122.343 228.262 123.482Z" fill="#7DBBFF"/>
<path d="M224.81 149.034C226.022 149.042 227.322 148.824 228.623 148.605C228.179 146.004 228.238 143.362 228.297 140.719C227.056 140.164 225.726 139.835 224.396 139.507C224.337 142.15 224.485 144.885 224.633 147.62C224.751 147.94 224.78 148.487 224.81 149.034Z" fill="#7DBBFF"/>
<path d="M60.0765 136.973C59.9483 136.912 59.7559 136.912 59.5636 136.912C58.5378 136.79 57.512 136.729 56.4863 136.729C53.473 136.79 50.6521 137.34 47.9594 138.622C47.703 138.744 47.5106 138.805 47.3183 138.622C46.6772 138.134 45.9079 137.767 45.1385 137.401C44.818 137.279 44.6897 137.096 44.9462 136.79C45.0744 136.607 45.1385 136.424 45.2667 136.241C45.7155 135.447 46.2925 134.653 46.7413 133.798C47.0619 133.066 46.8695 132.76 46.0361 132.638C44.4974 132.455 42.8946 132.516 41.3559 132.516C41.0354 132.516 40.7789 132.516 40.4584 132.577C38.3427 132.76 36.3552 133.188 34.3678 133.737C34.1113 133.798 33.919 133.798 33.7267 133.554C33.5984 133.371 33.4061 133.249 33.2779 133.127C31.9315 131.661 30.5211 130.318 28.9824 129.036C25.2639 125.983 21.0967 123.785 16.5448 122.136C16.3524 122.075 16.1601 121.953 15.9037 121.953C15.3908 121.831 15.0702 122.075 15.0702 122.564C15.0702 122.686 15.0702 122.808 15.1343 122.93C15.7113 125.067 16.0319 127.265 16.673 129.402C16.8012 129.952 17.0577 130.44 17.0577 131.051C16.9294 131.051 16.8653 131.051 16.8012 130.99C14.8779 129.952 12.8263 129.402 10.7106 128.853C9.81307 128.608 8.8514 128.364 7.95384 128.364C7.31272 128.364 7.12039 128.547 7.1845 129.158C7.24861 129.341 7.31272 129.585 7.37683 129.768C7.82561 130.929 8.33851 132.15 8.78729 133.31C8.8514 133.554 9.04373 133.737 8.97962 134.043C8.59495 134.104 8.3385 133.92 8.08206 133.859C5.70993 133.188 3.33781 133.188 0.901569 133.554C-0.0601039 133.676 -0.252439 134.226 0.324564 134.958C0.645122 135.325 0.837459 135.691 1.09391 136.058C2.31202 138.072 3.65836 139.965 5.19704 141.797C5.32526 141.98 5.64582 142.102 5.58171 142.408C4.49182 142.53 4.17126 142.835 3.97892 143.812C3.78659 144.789 3.78659 145.827 3.78659 146.804C3.78659 147.475 4.17126 147.903 4.81237 148.147C5.06882 148.208 5.32527 148.269 5.58171 148.33C7.05628 148.575 8.53084 148.636 10.0054 148.697C14.6214 148.88 19.2375 149.124 23.7894 149.063C27.4437 149.063 31.034 149.124 34.6883 149.185C35.5218 149.185 36.3552 149.307 37.1887 149.307C42.1253 149.49 47.0619 149.551 51.9984 149.49C53.7295 149.49 55.5246 149.49 57.2556 149.368C58.1532 149.307 58.4737 149.002 58.5378 148.208C58.6019 147.231 58.666 146.193 58.5378 145.216C58.4737 144.484 58.2173 144.239 57.512 143.995C57.1915 143.873 56.8709 143.995 56.5504 143.69C56.6145 143.568 56.6786 143.507 56.7427 143.385C57.7685 141.919 58.7302 140.515 59.7559 139.049C60.0765 138.622 60.333 138.195 60.5894 137.706C60.8458 137.401 60.7176 137.096 60.0765 136.973Z" fill="#E9F4A6"/>
<path d="M61.3579 142.773C61.6784 143.017 62.0631 142.956 62.3195 143.078C63.0248 143.323 63.2812 143.567 63.3453 144.299C63.4094 145.276 63.4094 146.314 63.3453 147.291C63.2812 148.085 62.8965 148.39 62.0631 148.451C60.3321 148.574 58.537 148.574 56.8059 148.574C51.8694 148.635 46.9328 148.574 41.9962 148.39C41.1627 148.329 40.3293 148.268 39.4958 148.268C35.8415 148.207 32.2512 148.085 28.5969 148.146C23.9808 148.146 19.3648 147.902 14.8129 147.78C13.3383 147.719 11.8638 147.658 10.3892 147.413C10.1328 147.352 9.87631 147.291 9.61986 147.23C8.97875 146.986 8.59408 146.559 8.59408 145.887C8.59408 144.91 8.59408 143.872 8.78642 142.895C8.97875 141.918 9.29931 141.613 10.3892 141.491C10.4533 141.186 10.1328 141.063 10.0045 140.88C8.46586 139.048 7.11952 137.156 5.9014 135.141C5.64495 134.774 5.45262 134.408 5.13206 134.042C4.49094 133.309 4.74739 132.82 5.70906 132.637C8.1453 132.332 10.5174 132.271 12.8896 132.943C13.146 133.004 13.4024 133.187 13.7871 133.126C13.8512 132.882 13.6589 132.637 13.5948 132.393C13.146 131.233 12.6331 130.012 12.1843 128.852C12.1202 128.668 12.0561 128.485 11.992 128.241C11.8638 127.692 12.1202 127.447 12.7613 127.447C13.723 127.447 14.6206 127.753 15.5181 127.936C17.6338 128.424 19.6854 129.035 21.6087 130.073C21.6728 130.134 21.7369 130.134 21.8652 130.134C21.8652 129.523 21.6087 129.035 21.4805 128.485C20.8394 126.348 20.5188 124.15 19.9418 122.013C19.9418 121.891 19.8777 121.769 19.8777 121.647C19.8777 121.097 20.1983 120.914 20.7112 121.036C20.9035 121.097 21.0958 121.158 21.3523 121.219C25.9042 122.868 30.0714 125.127 33.7899 128.119C35.3286 129.401 36.739 130.744 38.0854 132.21C38.2136 132.393 38.4059 132.515 38.5342 132.637C38.7265 132.882 38.8547 132.882 39.1753 132.82C41.1627 132.21 43.2143 131.782 45.2659 131.66C45.5864 131.66 45.8429 131.599 46.1634 131.599C47.7021 131.599 49.3049 131.477 50.8436 131.721C51.677 131.844 51.9335 132.149 51.5488 132.882C51.1641 133.736 50.5871 134.469 50.0742 135.324C49.946 135.507 49.8819 135.69 49.7537 135.873C49.5613 136.179 49.6255 136.301 49.946 136.484C50.7154 136.85 51.4206 137.217 52.1258 137.705C52.3822 137.888 52.5105 137.827 52.7669 137.705C55.4596 136.362 58.2805 135.873 61.2938 135.812C62.3195 135.812 63.3453 135.873 64.3711 135.996C64.5634 135.996 64.6917 135.996 64.884 136.057C65.461 136.179 65.6533 136.484 65.3328 137.034C65.0763 137.461 64.8199 137.949 64.4993 138.377C63.5377 139.842 62.5119 141.247 61.4861 142.712C61.4861 142.529 61.422 142.651 61.3579 142.773ZM43.8554 147.108C48.7279 147.352 53.5363 147.291 58.4087 147.352C59.3704 147.352 60.3321 147.413 61.3579 147.291C61.6784 147.23 61.8708 147.169 61.8708 146.864C61.8708 146.192 61.9349 145.582 61.8708 144.91C61.7425 144.238 61.8066 144.238 61.1655 144.177C59.691 144.055 58.2164 143.75 56.7418 143.811C54.6262 143.872 52.5105 143.75 50.3948 143.689C47.1251 143.567 43.7913 143.506 40.4575 143.567C38.2136 143.628 35.9697 143.689 33.7258 143.628C32.7 143.567 31.6101 143.445 30.5843 143.445C28.661 143.384 26.7376 143.384 24.8143 143.384C21.6728 143.384 18.5955 143.139 15.5181 142.895C13.9153 142.773 12.3126 142.773 10.7098 142.712C10.3892 142.712 10.261 142.834 10.261 143.139C10.1328 143.811 10.0045 144.483 9.94042 145.215C9.87631 145.765 9.94042 145.826 10.4533 145.887C12.4408 146.131 14.4923 146.314 16.4798 146.498C18.339 146.62 20.1342 146.681 21.9934 146.742C26.0324 146.864 30.0714 146.986 34.1105 146.986C37.316 146.864 40.5857 146.864 43.8554 147.108ZM21.0317 122.257C21.4805 124.455 26.0965 140.575 26.5453 141.186C29.4303 137.644 33.1488 135.141 37.3802 133.37C35.3927 129.768 25.5195 123.051 21.0317 122.257ZM27.1223 142.162C27.507 142.346 27.7634 142.285 27.9558 142.346C30.1997 142.346 32.3795 142.468 34.6234 142.529C38.6624 142.651 42.7655 142.712 46.8046 142.59C46.9969 142.59 47.2533 142.59 47.3816 142.468C47.4457 142.285 47.3174 142.162 47.2533 142.04C46.484 140.514 45.6505 139.048 44.753 137.644C44.4965 137.278 44.2401 136.85 44.0478 136.423C43.8554 135.996 44.0478 135.69 44.4965 135.568C44.6248 135.507 44.8171 135.507 45.0094 135.507C46.0352 135.385 46.9969 135.507 48.0227 135.69C48.215 135.69 48.4073 135.812 48.5997 135.568C49.1767 134.652 49.6896 133.736 50.1384 132.759C40.6498 132.027 33.0847 135.263 27.1223 142.162ZM13.4666 128.485C13.4024 128.73 13.5307 128.913 13.5948 129.096C14.4282 130.806 15.0693 132.576 15.7746 134.347C16.6721 136.667 17.6979 138.926 18.4673 141.247C18.5955 141.613 18.7878 141.735 19.1725 141.735C20.0059 141.796 20.9035 141.857 21.7369 141.918C22.7627 142.04 23.7885 141.979 24.8143 142.04C24.9425 141.674 24.8143 141.369 24.6861 141.063C23.8526 138.133 23.0833 135.202 22.4422 132.271C22.314 131.721 21.9934 131.355 21.5446 131.111C20.1342 130.378 18.6596 129.768 17.0568 129.279C15.9028 128.913 14.7488 128.546 13.4666 128.485ZM6.41429 133.614C6.41429 133.675 6.41429 133.797 6.4784 133.858C8.08119 136.301 9.68398 138.743 11.4791 141.063C11.6714 141.308 11.8638 141.369 12.1843 141.43C13.8512 141.674 15.454 141.674 17.1209 141.674C17.185 141.674 17.185 141.613 17.2491 141.613C17.3132 141.43 17.185 141.247 17.1209 141.124C16.3516 139.232 15.5181 137.278 14.8129 135.324C14.6206 134.835 14.3641 134.652 13.8512 134.469C12.3767 134.042 10.838 133.736 9.36342 133.614C8.40174 133.431 7.37596 133.37 6.41429 133.614ZM45.5223 136.606C45.4582 136.789 45.5223 136.911 45.5864 137.034C46.3558 138.194 47.061 139.415 47.7662 140.636C48.0868 141.185 48.4073 141.735 48.8561 142.285C48.9843 142.407 49.1126 142.529 49.3049 142.59C50.7795 142.651 52.254 142.712 53.7927 142.712C54.3697 142.712 54.4338 142.59 54.2415 142.04C53.6645 140.331 52.4464 139.11 50.9718 138.133C49.3049 137.095 47.5098 136.545 45.5223 136.606ZM53.3439 138.377C53.408 138.499 53.4722 138.621 53.5363 138.743C54.2415 139.537 54.7544 140.453 55.1391 141.43C55.2673 141.735 55.3314 142.04 55.4596 142.285C55.5878 142.651 55.8443 142.651 56.1648 142.407C56.2931 142.346 56.3572 142.223 56.4213 142.101C58.2164 140.086 60.3321 138.377 62.6401 136.85C62.7683 136.789 63.0248 136.728 62.9607 136.423C59.6269 136.362 56.4213 137.156 53.3439 138.377ZM63.7941 137.583C62.0631 138.255 58.0241 141.674 57.5753 142.651C58.2164 142.712 58.8575 142.773 59.4986 142.773C59.9474 142.773 60.268 142.59 60.5244 142.223C61.2296 141.247 61.999 140.27 62.7042 139.232C63.0248 138.682 63.4094 138.133 63.7941 137.583Z" fill="#282727"/>
<path d="M10.2611 149.307C11.0946 149.246 11.7998 149.613 12.5051 149.918C12.8897 150.101 13.2103 150.284 13.595 150.467C15.1336 151.444 16.8005 151.566 18.5315 151.017C19.1727 150.834 19.8138 150.59 20.4549 150.345C21.673 149.857 22.9552 149.49 24.3016 149.552C25.135 149.552 25.9685 149.735 26.7378 150.04C27.2507 150.223 27.7636 150.467 28.3406 150.651C30.0075 151.383 31.6103 151.383 33.2772 150.59C33.9183 150.284 34.5594 149.979 35.2646 149.674C37.6368 148.636 39.9448 148.575 42.2528 149.857C42.8939 150.223 43.535 150.467 44.2403 150.773C46.2918 151.689 48.4075 151.566 50.4591 150.773C51.0361 150.528 51.6131 150.284 52.1901 150.04C53.6005 149.49 55.011 149.49 56.4214 149.979C57.0626 150.223 57.7037 150.406 58.2807 150.712C60.9093 152.055 63.6019 151.933 66.2305 150.834C66.4228 150.773 66.6152 150.651 66.8075 150.651C67.1281 150.59 67.3204 150.712 67.4486 151.017C67.5127 151.261 67.3845 151.444 67.1922 151.628C67.1281 151.689 66.9998 151.75 66.9357 151.75C65.3971 152.238 63.8584 152.727 62.1915 152.788C60.9093 152.788 59.7552 152.482 58.5371 152.055C57.6396 151.689 56.8061 151.322 55.9086 151.017C54.4981 150.59 53.2159 150.712 51.9336 151.383C51.4207 151.689 50.8437 151.872 50.3309 152.116C48.2793 152.849 46.1636 152.788 44.1761 151.994C43.3427 151.689 42.5092 151.322 41.7399 150.956C39.6242 149.979 37.5085 150.04 35.3929 151.017C34.8159 151.322 34.1747 151.505 33.5977 151.75C31.995 152.421 30.3281 152.36 28.6612 151.872C27.8918 151.628 27.1866 151.383 26.4814 151.078C24.8786 150.467 23.2758 150.528 21.673 151.139C20.7754 151.505 19.8779 151.872 18.9803 152.177C17.057 152.727 15.1977 152.604 13.4026 151.628C12.8897 151.322 12.3768 151.078 11.8639 150.834C10.8382 150.284 9.81237 150.284 8.72247 150.712C8.46603 150.834 8.20958 150.895 7.95314 150.956C7.69669 151.017 7.44024 150.956 7.31202 150.712C7.1838 150.467 7.31202 150.284 7.56847 150.101C8.27369 149.552 9.23537 149.307 10.2611 149.307Z" fill="#282727"/>
<path d="M403.434 174.894C403.049 174.039 402.6 173.733 401.511 173.794C399.074 173.856 396.638 174.283 394.138 174.466C391.701 174.649 389.393 175.382 387.085 176.115C384.777 176.786 382.533 177.702 380.29 178.496C379.456 178.801 379.328 178.801 378.751 178.13C378.174 177.519 377.661 176.847 377.148 176.176C376.186 175.077 375.289 173.978 374.135 173.062C373.622 172.695 373.109 172.512 372.468 172.573C371.955 172.634 371.506 172.573 370.993 172.573C370.416 172.573 370.032 172.39 369.711 171.963C368.429 170.192 366.954 168.543 365.544 166.895C365.159 166.467 364.903 166.406 364.326 166.59C364.069 166.651 363.877 166.773 363.685 166.895C361.89 167.872 360.351 169.154 358.876 170.558C356.184 173.123 354.517 176.237 353.555 179.717C353.363 180.389 353.363 180.999 353.683 181.671C354.196 182.709 354.709 183.686 355.222 184.724C355.478 185.151 355.607 185.64 355.414 186.128C355.222 186.617 355.286 187.105 355.478 187.594C355.991 188.876 356.504 190.219 357.145 191.44C357.338 191.807 357.53 192.173 357.338 192.601C357.209 193.028 357.274 193.394 357.402 193.822C358.62 196.875 359.774 199.928 361.184 202.858C361.313 203.103 361.441 203.347 361.633 203.591C361.825 203.896 362.146 204.08 362.531 203.957C362.723 203.896 362.979 203.896 363.172 203.835C366.313 203.103 369.391 202.065 372.468 201.149C373.814 200.721 375.161 200.233 376.571 199.866C378.559 199.256 380.482 198.523 382.469 197.913C383.88 197.485 385.226 196.997 386.637 196.569C389.137 195.837 391.573 195.043 394.009 194.249C395.997 193.577 398.048 192.967 399.972 192.295C402.408 191.379 404.973 190.708 407.409 189.914C407.922 189.731 408.114 189.487 407.986 188.998C407.858 188.51 407.729 188.021 407.537 187.533C407.152 186.128 406.704 184.785 406.319 183.381C405.806 181.549 405.293 179.717 404.524 177.458C404.46 176.725 403.883 175.809 403.434 174.894Z" fill="#E498A0"/>
<path d="M400.1 176.845C400.869 179.043 401.446 180.875 401.895 182.767C402.28 184.172 402.728 185.515 403.113 186.919C403.241 187.408 403.434 187.896 403.562 188.385C403.69 188.873 403.498 189.179 402.985 189.301C400.485 190.094 397.984 190.827 395.548 191.682C393.561 192.415 391.573 192.964 389.586 193.636C387.149 194.43 384.649 195.223 382.213 195.956C380.802 196.383 379.456 196.872 378.046 197.299C376.058 197.91 374.135 198.643 372.147 199.253C370.801 199.681 369.455 200.169 368.044 200.535C364.967 201.512 361.889 202.489 358.748 203.222C358.556 203.283 358.299 203.283 358.107 203.344C357.722 203.466 357.402 203.283 357.209 202.978C357.081 202.734 356.889 202.489 356.761 202.245C355.414 199.253 354.196 196.2 352.978 193.208C352.85 192.781 352.722 192.415 352.914 191.987C353.106 191.56 352.914 191.193 352.721 190.827C352.08 189.606 351.568 188.263 351.055 186.98C350.862 186.492 350.862 186.003 350.99 185.515C351.183 185.027 351.055 184.538 350.798 184.111C350.285 183.073 349.772 182.035 349.259 181.058C348.939 180.447 348.939 179.776 349.131 179.104C350.093 175.624 351.76 172.51 354.453 169.945C355.927 168.541 357.466 167.258 359.261 166.282C359.453 166.159 359.71 166.037 359.902 165.976C360.479 165.793 360.735 165.854 361.12 166.282C362.531 167.93 364.005 169.579 365.287 171.349C365.608 171.777 365.993 172.021 366.57 171.96C367.082 171.96 367.531 172.021 368.044 171.96C368.685 171.899 369.198 172.082 369.711 172.448C370.865 173.364 371.763 174.463 372.724 175.562C373.301 176.173 373.814 176.845 374.327 177.516C374.904 178.188 375.032 178.188 375.866 177.883C378.11 177.089 380.354 176.234 382.662 175.501C384.97 174.83 387.278 174.036 389.714 173.853C392.15 173.67 394.586 173.242 397.087 173.181C398.112 173.181 398.561 173.425 399.01 174.28C399.395 175.379 399.908 176.295 400.1 176.845ZM355.735 197.299C357.53 196.2 359.389 195.651 361.184 194.918C362.723 194.246 364.326 193.697 365.928 193.025C369.583 191.621 373.237 190.339 376.892 188.873C378.558 188.202 380.354 187.774 382.02 187.164C383.559 186.614 385.162 186.126 386.701 185.698C388.688 185.149 390.611 184.599 392.599 184.05C393.881 183.683 395.227 183.378 396.51 183.073C397.6 182.828 398.689 182.706 399.779 182.462C400.42 182.34 400.485 182.279 400.356 181.668C399.779 179.348 398.946 177.15 397.92 175.013C397.6 174.28 397.407 174.28 396.574 174.341C393.881 174.586 391.188 175.013 388.496 175.196C388.111 175.196 387.791 175.318 387.47 175.379C385.098 176.112 382.662 176.845 380.289 177.7C377.661 178.615 375.096 179.531 372.596 180.691C370.416 181.668 368.236 182.645 366.121 183.744C363.364 185.21 360.607 186.736 358.107 188.568C356.825 189.484 355.542 190.339 354.388 191.377C353.876 191.804 353.747 192.293 354.004 192.903C354.196 193.331 354.324 193.819 354.517 194.307C354.965 195.284 355.35 196.261 355.735 197.299ZM387.278 186.675C385.483 187.103 383.816 187.652 382.085 188.202C379.456 189.117 376.827 190.033 374.263 191.071C371.25 192.293 368.172 193.331 365.223 194.491C362.595 195.529 359.966 196.506 357.338 197.544C357.017 197.666 356.761 197.788 356.44 197.91C356.119 198.032 356.055 198.154 356.184 198.459C356.632 199.559 357.081 200.658 357.594 201.757C357.722 202.001 357.85 202.367 358.107 202.489C358.363 202.611 358.684 202.367 358.94 202.306C359.133 202.306 359.325 202.245 359.517 202.184C361.248 201.696 362.979 201.268 364.71 200.658C366.954 199.925 369.262 199.253 371.57 198.521C373.814 197.788 376.058 196.933 378.302 196.2C379.392 195.834 380.546 195.468 381.7 195.101C383.495 194.552 385.29 194.063 387.085 193.453C389.265 192.72 391.381 191.926 393.561 191.193C394.202 190.949 394.779 190.705 395.42 190.522C397.535 189.911 399.587 189.301 401.703 188.751C402.151 188.629 402.28 188.507 402.151 188.079C401.831 186.614 401.318 185.149 400.869 183.683C400.741 183.317 400.549 183.256 400.228 183.317C399.266 183.561 398.369 183.805 397.407 183.989C394.971 184.599 392.535 185.21 390.099 185.82C389.457 186.003 388.752 186.126 388.432 186.919C388.368 187.041 388.239 187.164 388.111 187.286C387.855 187.469 387.534 187.408 387.406 187.103C387.342 187.041 387.342 186.858 387.278 186.675ZM353.811 190.766C356.696 188.141 359.966 186.065 363.3 184.172C366.634 182.218 370.16 180.63 373.686 179.043C373.686 178.921 373.686 178.86 373.622 178.86C372.34 177.089 370.929 175.379 369.455 173.731C369.262 173.548 369.134 173.425 368.942 173.242C368.621 172.998 368.301 172.937 367.916 173.059C365.8 173.67 364.005 174.769 362.21 175.99C359.902 177.577 357.786 179.47 355.735 181.363C354.453 182.584 353.234 183.805 352.209 185.21C351.888 185.637 351.76 186.065 351.888 186.614C352.401 188.018 353.106 189.362 353.811 190.766ZM365.48 173.059C365.031 172.754 364.774 172.51 364.582 172.265C363.813 171.349 363.043 170.495 362.274 169.579C361.697 168.907 361.12 168.174 360.543 167.503C360.158 167.014 360.03 167.014 359.453 167.32C357.402 168.541 355.478 170.006 353.94 171.838C352.145 173.975 350.926 176.417 350.157 179.043C350.029 179.592 350.093 180.081 350.221 180.63C350.606 181.668 351.247 182.645 351.632 183.683C351.76 184.05 351.888 184.05 352.209 183.744C353.363 182.401 354.709 181.18 356.055 179.959C358.876 177.394 361.761 174.769 365.48 173.059Z" fill="#282727"/>
<path d="M373.686 189.055C372.917 189.3 372.148 189.544 371.378 189.727C370.545 189.91 370.353 189.788 370.032 189.055C369.583 187.834 369.327 186.491 369.263 185.209C369.199 184.659 369.327 184.11 369.519 183.621C370.16 182.156 371.827 182.156 372.725 182.827C373.238 183.194 373.622 183.682 374.007 184.232C374.648 185.209 375.033 186.308 375.417 187.407C375.674 188.139 375.482 188.445 374.712 188.689C374.392 188.811 374.071 188.933 373.686 189.055ZM374.007 186.186C373.815 185.758 373.686 185.331 373.43 184.903C373.109 184.354 372.789 183.804 372.212 183.499C371.25 182.949 370.353 183.316 370.224 184.354C370.16 184.659 370.16 184.903 370.16 185.209C370.224 186.308 370.481 187.407 370.673 188.506C370.737 188.811 370.866 188.872 371.186 188.811C372.212 188.567 373.174 188.262 374.135 187.895C374.456 187.773 374.52 187.651 374.392 187.346C374.328 186.918 374.135 186.552 374.007 186.186Z" fill="#282727"/>
<path d="M383.238 182.707C383.494 183.318 383.686 183.806 383.815 184.233C384.071 184.844 383.943 185.027 383.366 185.332C382.148 185.943 380.93 186.37 379.647 186.798C379.006 186.981 378.814 186.92 378.622 186.37C378.045 185.027 377.724 183.623 377.852 182.157C377.916 181.119 378.365 180.265 379.391 179.776C380.353 179.227 381.378 179.532 381.955 180.204C382.148 180.448 382.404 180.753 382.597 180.997C382.853 181.608 383.045 182.28 383.238 182.707ZM381.314 185.271C381.763 185.088 382.212 184.966 382.661 184.783C383.238 184.539 383.302 184.478 383.109 183.928C382.853 183.134 382.404 182.402 382.02 181.608C381.891 181.303 381.635 180.997 381.378 180.753C380.866 180.265 380.417 180.204 379.776 180.57C379.006 180.997 378.814 181.73 378.814 182.463C378.814 183.501 379.07 184.539 379.327 185.577C379.391 185.821 379.519 185.882 379.776 185.821C380.353 185.638 380.866 185.455 381.314 185.271Z" fill="#282727"/>
<path d="M365.415 192.232C364.966 192.354 364.582 192.538 364.133 192.66C363.62 192.782 363.299 192.599 363.107 192.11C362.722 190.828 362.53 189.546 362.594 188.202C362.658 187.653 362.851 187.164 363.171 186.676C363.876 185.699 364.71 185.577 365.8 186.126C366.184 186.31 366.569 186.615 366.826 186.981C367.531 188.019 368.108 189.057 368.364 190.278C368.492 190.828 368.428 190.95 367.851 191.133C366.954 191.438 366.249 191.927 365.415 192.232ZM363.941 191.561C364.197 191.622 364.325 191.561 364.518 191.5C365.479 191.255 366.249 190.706 367.21 190.523C367.403 190.462 367.467 190.339 367.403 190.156C367.018 189.179 366.761 188.202 366.056 187.348C365.672 186.859 365.095 186.432 364.453 186.615C363.812 186.798 363.684 187.409 363.556 187.958C363.364 189.24 363.684 190.401 363.941 191.561Z" fill="#282727"/>
<path d="M390.035 183.318C388.881 183.685 387.727 184.051 386.573 184.417C385.996 184.601 385.739 184.479 385.611 184.051C385.162 182.525 384.842 180.937 384.97 179.35C385.034 178.312 386.316 177.274 387.021 177.09C388.111 176.846 389.137 177.274 389.778 178.312C390.548 179.655 390.868 181.12 391.317 182.586C391.381 182.891 391.253 183.013 390.996 183.135C390.676 183.135 390.355 183.196 390.035 183.318ZM386.38 183.441C387.727 183.257 388.945 182.952 390.099 182.464C390.355 182.341 390.548 182.28 390.419 181.975C390.035 180.998 389.842 180.021 389.394 179.044C389.201 178.617 388.945 178.189 388.56 177.823C388.304 177.64 388.047 177.457 387.663 177.457C386.829 177.518 386.06 178.128 385.867 178.922C385.739 179.35 385.739 179.838 385.739 180.327C385.867 181.426 386.06 182.403 386.38 183.441Z" fill="#282727"/>
<path d="M396.895 178.738C397.215 179.288 397.343 179.96 397.536 180.631C397.728 181.181 397.664 181.303 397.087 181.547C396.189 181.914 395.292 182.097 394.394 182.341C392.856 182.768 392.856 182.768 392.535 181.242C392.279 180.204 392.214 179.166 392.407 178.067C392.471 177.395 392.727 176.846 393.304 176.357C394.138 175.624 395.099 175.686 395.805 176.479C396.318 177.151 396.638 177.884 396.895 178.738ZM393.625 181.669C394.587 181.364 395.484 181.242 396.382 180.937C396.959 180.753 396.959 180.692 396.766 180.143C396.51 179.41 396.189 178.616 395.869 177.884C395.741 177.517 395.484 177.212 395.228 176.907C394.779 176.357 394.202 176.418 393.689 176.907C393.433 177.212 393.304 177.517 393.24 177.884C393.048 179.166 393.304 180.387 393.625 181.669Z" fill="#282727"/>
<path d="M359.453 194.797C359.004 194.98 358.62 195.102 358.235 195.224C357.209 195.591 357.017 195.468 356.76 194.491C356.44 193.392 356.183 192.293 356.568 191.133C356.825 190.462 357.209 189.973 357.979 189.79C358.812 189.607 359.517 189.851 359.966 190.462C360.671 191.316 361.12 192.354 361.248 193.392C361.312 193.942 361.248 194.064 360.735 194.247C360.287 194.491 359.838 194.736 359.453 194.797ZM357.658 194.43C358.556 194.125 359.389 193.82 360.222 193.515C360.415 193.453 360.479 193.27 360.415 193.087C360.158 192.538 359.966 191.927 359.71 191.377C359.645 191.194 359.517 191.072 359.389 190.95C359.068 190.645 358.748 190.523 358.299 190.584C357.85 190.706 357.594 190.95 357.53 191.377C357.273 192.415 357.466 193.392 357.658 194.43Z" fill="#282727"/>
<path d="M388.559 192.11C387.534 192.537 386.38 192.721 385.354 193.148C384.777 193.392 384.649 193.27 384.52 192.659C384.264 191.438 384.136 190.217 384.841 189.057C385.354 188.202 386.059 187.592 387.149 187.653C387.982 187.653 388.559 188.019 388.944 188.63C389.393 189.301 389.713 190.034 390.034 190.767C390.29 191.316 390.162 191.438 389.585 191.683C389.265 191.866 388.944 191.988 388.559 192.11ZM385.418 192.415C386.7 191.988 387.854 191.56 389.008 191.194C389.201 191.133 389.265 191.011 389.201 190.767C388.944 190.095 388.688 189.484 388.239 188.935C387.726 188.385 386.893 188.324 386.251 188.752C385.931 188.996 385.674 189.362 385.482 189.729C385.226 190.583 385.354 191.438 385.418 192.415Z" fill="#282727"/>
<path d="M381.443 194.366C380.418 194.793 379.392 194.915 378.43 195.343C377.981 195.526 377.789 195.404 377.661 194.915C377.404 193.816 377.276 192.656 377.661 191.557C377.917 190.824 378.43 190.336 379.199 190.153C380.097 189.97 380.866 190.153 381.443 190.824C382.084 191.557 382.405 192.412 382.726 193.328C382.854 193.633 382.726 193.938 382.341 194.061C382.02 194.122 381.636 194.244 381.443 194.366ZM381.892 193.389C381.7 192.717 381.507 191.985 380.93 191.374C380.546 190.947 380.097 190.763 379.52 190.886C378.943 191.069 378.558 191.374 378.43 191.985C378.302 192.656 378.366 193.389 378.43 194.061C378.494 194.488 378.558 194.549 379.007 194.366C379.905 194.061 380.866 193.755 381.892 193.389Z" fill="#282727"/>
<path d="M367.789 198.946C367.212 199.129 366.635 199.373 366.058 199.556C365.545 199.74 365.353 199.617 365.224 199.129C365.032 198.274 364.904 197.419 364.968 196.503C365.032 195.832 365.288 195.282 365.865 194.794C366.699 194.122 367.981 194.183 368.686 194.977C369.392 195.71 369.712 196.687 370.033 197.602C370.161 197.969 369.904 198.152 369.584 198.274C368.943 198.579 368.366 198.763 367.789 198.946ZM366.058 198.824C367.019 198.64 367.917 198.274 368.75 197.969C369.007 197.847 369.135 197.725 369.007 197.419C368.75 196.748 368.43 196.137 367.981 195.588C367.468 195.038 366.699 195.038 366.25 195.649C366.058 195.893 365.93 196.198 365.93 196.503C365.801 197.236 365.93 197.969 366.058 198.824Z" fill="#282727"/>
<path d="M400.164 186.858C400.613 188.018 400.549 188.262 399.267 188.568C398.561 188.751 397.856 188.995 397.087 189.178C396.317 189.362 396.061 189.239 395.933 188.507C395.74 187.591 395.74 186.614 396.253 185.698C396.51 185.21 396.894 184.843 397.407 184.66C398.177 184.416 398.882 184.66 399.331 185.271C399.651 185.82 399.972 186.309 400.164 186.858ZM396.959 188.385C397.792 188.262 398.433 187.896 399.202 187.774C399.459 187.713 399.587 187.591 399.459 187.347C399.331 186.919 399.138 186.492 398.946 186.125C398.625 185.637 398.177 185.393 397.728 185.515C397.215 185.637 396.959 186.064 396.894 186.553C396.83 187.163 396.83 187.774 396.959 188.385Z" fill="#282727"/>
<path d="M375.353 194.92C375.417 195.042 375.482 195.164 375.482 195.286C375.802 196.263 375.674 196.263 374.905 196.629C374.135 196.996 373.366 197.179 372.532 197.423C371.955 197.606 371.827 197.545 371.699 197.057C371.314 196.08 371.25 195.042 371.378 194.004C371.378 193.943 371.378 193.882 371.442 193.882C371.635 193.149 372.148 192.661 372.917 192.539C373.686 192.416 374.135 192.905 374.52 193.393C374.84 193.821 375.097 194.37 375.353 194.92ZM373.751 196.324C374.007 196.202 374.328 196.141 374.584 196.019C374.776 195.958 374.84 195.836 374.776 195.653C374.52 194.92 374.263 194.187 373.686 193.638C373.43 193.393 373.174 193.149 372.789 193.332C372.404 193.454 372.212 193.76 372.212 194.187C372.148 194.615 372.212 195.042 372.276 195.469C372.404 196.813 372.468 196.813 373.751 196.324Z" fill="#282727"/>
<path d="M394.906 188.141C395.034 188.446 395.163 188.752 395.291 189.057C395.483 189.606 395.291 189.912 394.714 190.034C393.688 190.278 392.726 190.583 391.765 191.011C391.316 191.194 391.06 191.072 390.931 190.583C390.803 189.668 390.675 188.752 390.803 187.836C390.931 187.103 391.316 186.554 391.957 186.126C392.598 185.76 393.239 185.821 393.816 186.309C394.457 186.798 394.714 187.469 394.906 188.141ZM391.765 190.217C392.278 190.034 392.726 189.851 393.175 189.729C394.714 189.301 394.842 189.606 394.137 187.897C394.073 187.653 393.945 187.408 393.752 187.225C393.175 186.492 392.342 186.554 391.829 187.347C391.637 187.714 391.572 188.141 391.572 188.507C391.637 189.057 391.701 189.545 391.765 190.217Z" fill="#282727"/>
<path d="M362.98 199.132C363.044 199.315 363.108 199.438 363.172 199.56C363.493 200.415 363.364 200.659 362.403 200.842C361.826 200.964 361.313 201.147 360.8 201.391C360.736 201.391 360.736 201.453 360.672 201.453C359.582 202.002 359.133 201.758 358.941 200.598C358.877 200.048 358.812 199.499 358.812 199.01C358.941 198.155 359.325 197.423 360.159 197.056C360.8 196.751 361.313 196.873 361.762 197.301C362.339 197.85 362.723 198.461 362.98 199.132ZM359.967 200.842C360.544 200.659 361.056 200.537 361.505 200.353C361.698 200.292 361.826 200.231 362.018 200.17C362.339 200.048 362.403 199.865 362.275 199.621C362.082 199.132 361.89 198.644 361.633 198.216C360.992 197.301 360.415 197.362 359.838 198.339C359.774 198.461 359.71 198.644 359.71 198.766C359.646 199.499 359.71 200.17 359.967 200.842Z" fill="#282727"/>
<path d="M365.864 181.911C365.094 182.217 364.902 182.217 364.71 181.606C364.261 180.324 364.004 179.103 364.325 177.759C364.453 177.149 364.774 176.66 365.287 176.294C366.056 175.683 366.825 175.683 367.659 176.233C367.979 176.477 368.3 176.721 368.492 177.088C368.877 177.698 369.261 178.248 369.582 178.858C369.967 179.652 369.838 179.896 369.069 180.324C368.043 180.934 366.889 181.362 365.864 181.911ZM365.543 181.179C366.697 180.751 367.659 180.263 368.684 179.774C369.005 179.591 369.133 179.469 368.941 179.103C368.62 178.37 368.236 177.698 367.659 177.149C366.761 176.233 365.671 176.416 365.222 177.637C365.158 177.82 365.094 178.065 365.094 178.248C365.03 179.286 365.222 180.202 365.543 181.179Z" fill="#282727"/>
<path d="M358.619 184.659C358.299 183.927 358.17 183.133 358.106 182.4C358.042 181.728 358.106 181.118 358.427 180.507C359.132 179.164 360.607 178.798 361.889 179.775C362.274 180.08 362.53 180.385 362.786 180.752C363.043 181.179 363.363 181.545 363.62 181.973C364.005 182.522 363.94 182.95 363.363 183.377C362.851 183.804 362.274 184.049 361.697 184.354C361.055 184.659 360.478 184.965 359.837 185.331C359.132 185.758 358.94 185.697 358.683 184.904C358.683 184.842 358.619 184.72 358.619 184.659ZM362.851 182.278C362.466 181.545 362.017 180.813 361.312 180.324C360.414 179.714 359.517 179.958 359.132 180.935C359.004 181.179 358.94 181.484 358.94 181.79C358.876 182.644 359.132 183.438 359.389 184.293C359.453 184.598 359.581 184.659 359.901 184.476C360.799 184.049 361.697 183.621 362.594 183.133C362.979 182.889 363.043 182.644 362.851 182.278Z" fill="#282727"/>
<path d="M353.747 188.199C353.49 187.344 353.298 186.367 353.49 185.39C353.618 184.78 353.811 184.169 354.452 183.986C355.093 183.803 355.67 184.169 356.119 184.596C356.696 185.146 357.145 185.818 357.465 186.55C357.593 186.917 357.529 187.1 357.209 187.344C356.503 187.771 355.862 188.26 355.157 188.748C354.324 189.298 354.131 189.237 353.747 188.199ZM354.644 188.199C355.349 187.771 355.991 187.405 356.568 186.978C356.76 186.856 356.888 186.733 356.76 186.55C356.375 186.001 356.119 185.39 355.606 184.963C355.029 184.474 354.516 184.596 354.388 185.329C354.067 186.306 354.324 187.222 354.644 188.199Z" fill="#282727"/>
<path d="M356.119 174.891C355.991 174.403 355.798 173.975 355.734 173.487C355.542 172.51 355.991 171.777 356.696 171.167C357.08 170.8 357.593 170.8 358.106 170.984C358.555 171.106 358.94 171.411 359.196 171.716C359.901 172.449 360.478 173.243 360.991 174.098C361.184 174.342 361.312 174.647 360.991 174.83C359.965 175.502 359.068 176.418 357.978 177.028C357.465 177.273 357.401 177.273 357.145 176.845C356.696 176.235 356.311 175.624 356.119 174.891ZM357.657 176.418C358.619 175.99 359.26 175.319 359.965 174.769C360.158 174.647 360.158 174.464 360.03 174.281C359.517 173.609 359.132 172.876 358.555 172.266C358.363 172.022 358.106 171.899 357.85 171.777C357.529 171.655 357.273 171.716 357.016 171.899C356.503 172.266 356.311 172.937 356.439 173.487C356.76 174.464 357.209 175.441 357.657 176.418Z" fill="#282727"/>
<path d="M351.695 180.264C351.439 179.653 351.311 179.043 351.247 178.432C351.183 177.944 351.375 177.455 351.695 177.089C352.08 176.662 352.721 176.478 353.298 176.723C353.683 176.845 354.003 177.089 354.324 177.394C354.837 177.883 355.157 178.432 355.606 178.982C355.863 179.287 355.799 179.653 355.542 179.898C354.773 180.569 354.003 181.241 353.17 181.852C352.849 182.096 352.657 181.974 352.465 181.729C352.08 181.18 351.824 180.753 351.695 180.264ZM352.914 180.875C353.555 180.447 354.068 180.02 354.645 179.531C354.901 179.348 354.837 179.165 354.709 178.982C354.452 178.615 354.196 178.188 353.811 177.883C353.362 177.455 352.849 177.272 352.465 177.455C351.952 177.761 352.016 178.249 352.08 178.677C352.272 179.409 352.593 180.142 352.914 180.875Z" fill="#282727"/>
<path d="M141.578 22.9588C141.517 22.7146 141.334 22.4704 141.151 22.2872C140.113 21.066 139.136 19.7838 138.22 18.5016C136.815 16.6088 135.411 14.7159 133.885 12.9452C131.626 10.3808 129.427 7.81632 126.985 5.37398C126.191 4.58022 125.398 3.78645 124.482 3.17587C123.81 2.74846 123.138 2.6874 122.528 3.17587C122.039 3.54222 121.551 3.90856 121.123 4.27491C119.17 5.9235 117.216 7.69419 115.323 9.46489C114.102 10.625 112.819 11.7851 111.598 13.0063C110.621 13.9832 109.644 14.9602 108.606 15.9371C108.362 16.1813 108.24 16.1813 108.057 15.876C107.446 15.0212 106.836 14.2275 106.164 13.3727C105.126 11.9683 104.027 10.564 102.989 9.22066C102.623 8.73219 102.195 8.24372 101.646 7.93843C101.096 7.63314 100.608 7.69421 100.302 8.18268C99.9361 8.67115 99.5087 9.15961 99.1423 9.64808C97.5548 11.7241 95.9673 13.8001 94.5019 15.9982C93.0365 18.0742 91.5711 20.2112 90.2888 22.3483C89.8614 23.081 90.0446 23.4473 90.8384 23.4473C91.9374 23.4473 92.9754 23.5084 94.0745 23.5084C95.8452 23.5084 97.6159 23.5084 99.3866 23.5084C100.852 23.5084 102.317 23.5694 103.783 23.5694C106.408 23.5694 109.034 23.6305 111.659 23.7526C113.369 23.8137 115.018 23.8137 116.727 23.7526C118.986 23.6305 121.246 23.5694 123.505 23.5694C127.168 23.5694 130.832 23.8747 134.434 23.8137C135.655 23.8137 136.877 23.9968 137.67 23.9968C139.014 24.0579 139.929 23.9968 140.906 23.9358C141.578 23.9358 141.761 23.5694 141.578 22.9588Z" fill="#E498A0"/>
<path d="M130.648 21.1873C129.793 21.1873 128.633 20.9431 127.412 21.0042C123.748 21.0652 120.085 20.7599 116.482 20.7599C114.223 20.7599 111.964 20.821 109.705 20.9431C108.056 21.0042 106.347 21.0652 104.637 20.9431C102.011 20.821 99.3859 20.7599 96.7604 20.7599C95.295 20.7599 93.8296 20.7599 92.3642 20.6989C90.5935 20.6989 88.8228 20.6989 87.0521 20.6989C85.953 20.6989 84.915 20.6989 83.816 20.6378C82.9611 20.6378 82.778 20.2715 83.2664 19.5387C84.5487 17.3406 86.0141 15.2646 87.4795 13.1887C88.9449 11.0516 90.5324 8.97562 92.1199 6.83857C92.4863 6.3501 92.9137 5.92269 93.28 5.37316C93.6464 4.8847 94.0738 4.82364 94.6233 5.12893C95.1729 5.43423 95.6003 5.92268 95.9666 6.41115C97.0657 7.8155 98.1037 9.1588 99.1417 10.5631C99.7523 11.418 100.424 12.2117 101.034 13.0666C101.218 13.3108 101.401 13.3108 101.584 13.1276C102.561 12.1507 103.538 11.1737 104.576 10.1968C105.797 8.97562 107.018 7.81551 108.3 6.6554C110.193 4.8847 112.086 3.17506 114.101 1.46542C114.528 1.09907 115.017 0.732703 115.505 0.366352C116.177 -0.122117 116.788 -0.122117 117.459 0.366352C118.375 0.976937 119.169 1.7707 119.963 2.56446C122.405 4.94575 124.603 7.57127 126.862 10.1357C128.389 11.9064 129.793 13.7992 131.197 15.6921C132.174 16.9743 133.151 18.1955 134.128 19.4777C134.311 19.6609 134.495 19.9051 134.556 20.1493C134.739 20.6989 134.556 21.1263 133.945 21.1873C132.907 21.1873 131.991 21.2484 130.648 21.1873ZM112.269 19.5387C113.613 19.5998 114.895 19.5998 116.177 19.6609C118.009 19.7219 119.841 19.783 121.672 19.783C125.031 19.783 128.45 19.783 131.808 20.0883C132.113 20.0883 132.419 20.0883 132.785 19.9662C132.48 19.5998 132.235 19.2945 131.991 18.9282C129.366 15.5699 126.862 12.1507 123.993 8.97562C121.855 6.65539 119.841 4.33516 117.581 2.19811C117.398 2.01493 117.215 1.7707 116.91 1.64859C116.665 1.95388 116.727 2.32024 116.604 2.68659C115.933 5.49528 115.078 8.24291 114.467 11.0516C113.979 13.3718 113.185 15.5699 112.575 17.8291C112.391 18.4397 112.208 18.9892 112.269 19.5387ZM115.75 1.83175C115.444 1.83175 115.322 2.01493 115.139 2.13705C113.979 3.11398 112.819 4.09094 111.72 5.12893C110.987 5.86164 110.193 6.53328 109.4 7.20492C106.957 9.40303 104.515 11.6622 102.134 13.9214C101.889 14.1656 101.828 14.2877 102.072 14.593C103.355 16.1805 104.576 17.7681 105.858 19.4166C106.041 19.6609 106.224 19.7219 106.469 19.7219C107.446 19.7219 108.423 19.7219 109.4 19.6609C110.987 19.5998 110.621 19.9662 111.17 18.3786C112.819 13.4939 114.04 8.48715 115.444 3.54141C115.566 2.99188 115.75 2.44234 115.75 1.83175ZM92.3642 19.4777C92.9137 19.6609 93.4632 19.5387 94.0127 19.5387C97.1878 19.5998 100.363 19.6609 103.599 19.6609C103.782 19.6609 103.965 19.7219 104.087 19.5998C104.087 19.3556 103.904 19.2335 103.843 19.1113C102.683 17.5849 101.523 16.1195 100.363 14.593C99.1417 12.9444 97.7984 11.3569 96.6383 9.64727C96.0887 8.79245 95.4171 7.93762 94.7455 7.14386C94.6233 7.02174 94.5623 6.83857 94.257 6.89963C93.5243 11.1127 93.0358 15.3257 92.3642 19.4777ZM84.7318 19.5387C85.953 19.5387 87.1742 19.5387 88.3954 19.5998C89.1891 19.5998 89.9218 19.5998 90.7156 19.5998C90.8988 19.5998 91.0819 19.6609 91.143 19.2945C91.2651 17.7681 91.6315 16.3027 91.8757 14.8372C92.3642 12.3338 92.8526 9.83043 93.1579 7.32703C92.6695 7.69338 85.0371 18.745 84.7318 19.5387Z" fill="#282727"/>
<path d="M113.491 5.67782C113.491 5.92206 113.308 5.98311 113.124 6.16629C111.964 7.26534 110.804 8.36439 109.583 9.46345C108.118 10.8067 106.652 12.15 105.126 13.4323C104.943 13.6154 104.759 13.7376 104.515 13.8597C104.393 13.9818 104.21 13.9207 104.088 13.7986C103.966 13.6765 103.966 13.4933 104.088 13.3712C104.332 13.127 104.637 12.8217 104.881 12.5774C106.53 11.2341 108.056 9.82981 109.644 8.42546C110.743 7.50958 111.842 6.5937 112.819 5.61676C112.88 5.5557 113.002 5.49465 113.124 5.43359C113.369 5.43359 113.491 5.49465 113.491 5.67782Z" fill="#282727"/>
<path d="M91.51 11.5383C91.4489 11.7214 91.3268 11.9657 91.2047 12.2099C90.4109 13.7974 89.3729 15.2628 88.5181 16.7893C88.2128 17.2778 87.9075 17.7662 87.6022 18.2547C87.4801 18.4379 87.358 18.56 87.1748 18.4379C86.9916 18.3158 86.9306 18.1936 86.9916 18.0105C87.1138 17.7662 87.2359 17.522 87.358 17.3388C88.5181 15.446 89.7393 13.5532 90.8994 11.6604C90.9605 11.5382 91.0215 11.4772 91.0826 11.3551C91.1436 11.233 91.2657 11.233 91.3879 11.294C91.51 11.294 91.51 11.3551 91.51 11.5383Z" fill="#282727"/>
</svg>
