<svg width="81" height="332" viewBox="0 0 81 332" fill="none" xmlns="http://www.w3.org/2000/svg">
<path d="M20.837 142.234C21.498 142.568 21.9897 143.185 22.6507 143.52C23.8034 144.471 24.956 145.422 26.1087 146.374C26.278 146.09 26.478 146.044 26.6473 145.761C27.1552 144.911 27.6631 144.062 28.171 143.213C26.2961 141.454 24.2519 139.978 22.2076 138.502C21.761 139.825 21.3143 141.148 20.837 142.234Z" fill="#7DBBFF"/>
<path d="M36.3765 159.033C36.6413 159.464 36.906 159.895 36.9371 160.134C37.9341 161.381 38.7284 162.675 39.5537 164.207C40.2713 163.303 40.7552 162.206 41.5038 161.54C40.9743 160.678 40.4137 159.576 40.0558 158.428C39.4642 157.088 38.6699 155.794 37.9067 154.74C37.3772 153.877 36.6449 153.062 36.1154 152.199C35.1184 150.953 34.1214 149.706 33.1245 148.46C32.4379 149.603 31.7513 150.747 31.0648 151.891C32.825 154.192 34.5852 156.493 36.3765 159.033Z" fill="#7DBBFF"/>
<path d="M48.5243 139.687C48.0907 139.542 47.6879 139.636 47.2542 139.491C46.1057 143.436 44.9264 147.144 43.112 150.753C43.8704 151.804 44.5979 152.616 45.1549 153.713C45.1858 153.951 45.1858 153.951 45.418 154.143C47.744 149.679 49.4042 144.879 50.863 140.126C49.7943 139.883 49.1593 139.785 48.5243 139.687Z" fill="#7DBBFF"/>
<path d="M49.2351 115.711C49.2333 118.929 49.0263 122.194 48.8192 125.46C48.6917 127.717 48.359 130.021 48.0263 132.325C49.1151 132.57 49.9673 132.621 51.0562 132.866C51.2614 132.819 51.2614 132.819 51.498 133.012C51.8621 130.948 52.2263 128.885 52.3538 126.628C52.7346 123.075 52.9102 119.569 52.8806 116.111C51.5551 115.673 50.4977 115.668 49.2351 115.711Z" fill="#7DBBFF"/>
<path d="M46.2062 91.3975C47.1603 96.914 47.9359 102.72 48.2572 108.379C49.555 108.336 50.6095 108.098 51.9396 108.297C51.5859 102.397 50.8104 96.5908 49.7917 90.5905C48.7371 90.8279 47.4717 91.1127 46.2062 91.3975Z" fill="#7DBBFF"/>
<path d="M40.3666 70.2309C41.0302 72.0606 41.7252 74.1308 42.3888 75.9605C43.147 78.5118 43.9051 81.063 44.4575 83.6615C45.6919 83.3784 46.7206 83.1424 47.9551 82.8593C46.6446 77.7096 45.1283 72.6071 43.4378 67.7924C42.5037 68.7498 41.3322 69.5139 40.3666 70.2309Z" fill="#7DBBFF"/>
<path d="M16.7396 31.5645C20.0439 34.7144 22.9772 38.1952 25.7097 41.7227C26.6217 40.7766 27.5338 39.8305 28.4766 39.1221C25.451 34.9283 22.0852 31.303 18.5492 27.9621C17.8688 29.0992 17.42 30.4274 16.7396 31.5645Z" fill="#7DBBFF"/>
<path d="M1.51487 19.2615C5.00735 20.8794 8.36164 23.0151 11.5777 25.6687C11.8074 25.8583 11.838 26.0941 12.0372 26.0478C12.712 24.9196 13.1876 23.8377 13.8319 22.4736C10.4166 19.8663 6.80209 17.3052 3.07989 15.4977C2.43557 16.8617 1.95997 17.9437 1.51487 19.2615Z" fill="#7DBBFF"/>
<path d="M29.6673 48.3445C32.5535 52.8523 35.2678 57.6463 37.6383 63.0126C38.5912 62.2995 39.5442 61.5863 40.6691 60.587C38.3297 55.4599 35.7873 50.3798 32.6669 45.6796C31.511 46.4397 30.5891 47.3921 29.6673 48.3445Z" fill="#7DBBFF"/>
<path d="M49.6821 177.622C48.3992 174.216 47.1476 171.049 45.4886 167.977C44.7986 169.123 43.9048 170.317 42.9799 171.271C44.404 174.151 45.6556 177.317 46.6723 180.291C47.8322 179.53 48.7571 178.576 49.6821 177.622Z" fill="#7DBBFF"/>
<path d="M55.7148 200.801C55.5238 199.354 55.3327 197.906 54.9338 196.506C54.2165 192.695 53.2594 188.689 52.1263 184.972C51.1825 185.932 49.999 186.698 49.0234 187.417C50.2838 192.099 51.3045 196.587 51.9414 201.411C53.2204 201.369 54.4676 201.085 55.7148 200.801Z" fill="#7DBBFF"/>
<path d="M57.455 229.4C57.5695 225.395 57.684 221.391 57.5579 217.192C57.5917 214.201 57.4487 211.498 57.0652 208.601C55.8134 208.885 54.7702 209.122 53.4864 209.165C53.6142 210.13 53.7421 211.096 53.6932 212.35C53.9791 217.756 54.0564 223.209 53.925 228.709C55.0321 228.955 56.1392 229.201 57.455 229.4Z" fill="#7DBBFF"/>
<path d="M53.4105 259.616C54.4337 256.168 55.2527 252.767 56.0717 249.366C56.7968 245.245 57.3176 241.171 57.8384 237.097C56.7544 236.853 55.4661 236.655 54.3508 236.171C53.6552 243.745 52.2841 250.979 50.4418 257.829C51.3842 258.6 52.4995 259.084 53.4105 259.616Z" fill="#7DBBFF"/>
<path d="M42.1534 287.281C46.291 280.942 49.7349 274.03 52.2844 266.592C51.39 266.066 50.2644 265.349 49.2002 265.107C46.7898 272.024 43.5158 278.652 39.548 284.708C40.4731 285.471 41.3981 286.234 42.1534 287.281Z" fill="#7DBBFF"/>
<path d="M24.5456 307.765C24.8048 308.189 25.064 308.612 25.2929 308.8C29.7981 304.131 34.2729 299.227 38.2901 293.946C38.6566 293.619 38.7943 293.104 39.1608 292.777C38.2454 292.023 37.4982 290.988 36.5828 290.234C34.6735 292.851 32.7337 295.234 30.5955 297.663C28.0908 300.419 25.5861 303.175 23.051 305.696C23.5695 306.542 24.0575 307.154 24.5456 307.765Z" fill="#7DBBFF"/>
<path d="M7.71981 323.941C12.4126 320.942 17.0147 317.247 21.1918 313.41C20.9339 312.991 20.7063 312.804 20.4485 312.385C19.963 311.779 19.6749 311.128 19.1895 310.522C15.0124 314.359 10.7446 317.498 6.27943 320.683C6.59773 321.567 7.14366 322.638 7.71981 323.941Z" fill="#7DBBFF"/>
<path d="M-6.63403 331.12C-6.43734 331.075 -6.04395 330.985 -5.84726 330.939C-2.95713 329.801 -0.0971163 328.432 2.73277 326.833C2.38544 325.727 1.84142 324.666 1.26728 323.374C-0.442702 324.242 -2.12256 325.339 -4.02923 326.252C-5.37595 326.798 -6.72267 327.345 -8.0694 327.891C-7.52538 328.953 -6.98136 330.014 -6.63403 331.12Z" fill="#7DBBFF"/>
<path d="M15.6651 134.191C12.2346 132.829 8.66726 131.978 4.91672 132.844C5.23504 133.728 5.32574 134.425 5.64407 135.309C5.90193 135.728 5.96239 136.193 6.02285 136.658C7.43486 136.571 8.84688 136.484 10.2891 136.63C12.1564 136.917 13.8565 137.481 15.3894 138.324C15.5566 138.046 15.4961 137.582 15.6633 137.304C15.9372 136.283 16.2413 135.495 16.7428 134.661C16.3177 134.519 15.8927 134.378 15.6651 134.191Z" fill="#7DBBFF"/>
<path d="M-4.44861 145.268C-3.15927 142.538 -1.41024 140.188 0.660213 138.735C0.338792 137.837 0.0478924 137.176 -0.273529 136.278C-0.334578 135.806 -0.594948 135.381 -0.655997 134.909C-4.22946 137.44 -6.65368 140.919 -8.32731 145.439C-7.23912 145.916 -6.15094 146.392 -5.2926 146.679C-4.955 146.115 -4.58688 145.786 -4.44861 145.268Z" fill="#7DBBFF"/>
<path d="M7.43666 178.365C7.8815 177.048 8.15773 176.013 8.60256 174.697C8.60256 174.697 8.60256 174.697 8.77117 174.415C5.17313 173.551 2.05041 171.606 -0.826562 168.391C-1.53147 169.283 -2.40497 170.456 -3.07939 171.584C0.0271619 174.988 3.40994 177.358 7.43666 178.365Z" fill="#7DBBFF"/>
<path d="M16.5157 179.574C18.8999 179.265 21.2239 178.499 23.518 177.505C23.3377 176.135 22.9912 175.038 22.8109 173.668C22.2224 173.802 21.8601 174.12 21.2716 174.255C19.7322 174.841 18.1628 175.2 16.0049 175.692C15.8087 175.737 15.4164 175.827 15.1901 175.643C14.7218 176.691 14.4196 177.466 13.9513 178.513C13.7851 178.786 13.6491 179.288 13.4829 179.561C14.5239 179.793 15.5349 179.798 16.5157 179.574Z" fill="#7DBBFF"/>
<path d="M35.2767 169.023C34.7263 167.938 33.9767 166.898 33.2272 165.859C31.6188 167.688 29.7503 169.093 27.8818 170.497C28.0647 171.91 28.4466 173.277 28.8286 174.644C30.697 173.24 32.535 171.6 34.373 169.961C34.5416 169.679 34.9091 169.351 35.2767 169.023Z" fill="#7DBBFF"/>
</svg>
