<svg width="326" height="447" viewBox="0 0 326 447" fill="none" xmlns="http://www.w3.org/2000/svg">
<path d="M134.721 171.942C131.755 176.621 130.137 181.93 130.908 187.483C132.418 186.571 134.125 186.022 135.922 185.178C136.048 181.732 136.66 178.714 138.224 175.604C137.344 174.45 136.176 173.23 134.721 171.942Z" fill="#7DBBFF"/>
<path d="M184.452 178.841C185.147 179.641 185.458 180.671 186.153 181.471C187.159 183.301 188.164 185.131 189.17 186.961C189.554 186.731 189.847 186.799 190.231 186.568C191.384 185.877 192.537 185.186 193.69 184.495C192.173 181.269 190.271 178.273 188.37 175.277C187.033 176.564 185.697 177.852 184.452 178.841Z" fill="#7DBBFF"/>
<path d="M196.917 206.933C197.025 207.593 197.134 208.253 197.043 208.55C197.659 210.598 197.985 212.579 198.22 214.856C199.654 214.237 200.889 213.253 202.232 212.93C202.014 211.61 201.888 209.993 202.052 208.443C202.016 206.53 201.69 204.549 201.274 202.864C201.056 201.544 200.549 200.156 200.331 198.835C199.715 196.787 199.099 194.738 198.483 192.69C196.958 193.606 195.433 194.522 193.909 195.438C194.942 199.17 195.975 202.903 196.917 206.933Z" fill="#7DBBFF"/>
<path d="M225.05 192.23C224.558 191.797 223.975 191.662 223.484 191.23C219.784 195.146 216.176 198.765 211.785 201.884C212.204 203.573 212.713 204.964 212.84 206.585C212.749 206.882 212.749 206.882 212.949 207.247C218.488 203.439 223.335 198.834 227.89 194.162C226.616 193.229 225.833 192.73 225.05 192.23Z" fill="#7DBBFF"/>
<path d="M239.897 166.179C238.147 169.884 236.109 173.523 234.071 177.162C232.682 179.686 231.005 182.143 229.327 184.6C230.589 185.527 231.652 186.091 232.914 187.018C233.202 187.086 233.202 187.086 233.401 187.448C234.988 185.287 236.575 183.125 237.964 180.601C240.38 176.734 242.509 172.8 244.349 168.799C242.889 167.509 241.537 166.877 239.897 166.179Z" fill="#7DBBFF"/>
<path d="M249.646 137.663C247.883 144.493 245.746 151.55 243.129 158.179C244.749 158.875 246.172 159.21 247.703 160.2C250.409 153.277 252.546 146.22 254.487 138.802C253.063 138.467 251.355 138.065 249.646 137.663Z" fill="#7DBBFF"/>
<path d="M253.387 110.754C253.242 113.25 253.007 116.042 252.862 118.538C252.447 121.92 252.032 125.302 251.329 128.617C253.057 129.02 254.497 129.356 256.226 129.759C257.344 123.063 258.174 116.298 258.626 109.763C256.915 110.312 255.007 110.499 253.387 110.754Z" fill="#7DBBFF"/>
<path d="M241.507 53.7851C244.132 59.4922 246.081 65.3615 247.739 71.1631C249.472 70.609 251.206 70.055 252.848 69.7984C251.172 63.0366 248.73 56.7345 245.905 50.6622C244.372 51.5814 243.04 52.8658 241.507 53.7851Z" fill="#7DBBFF"/>
<path d="M226.562 31.1106C230.339 35.1868 233.638 39.7926 236.46 44.9282C236.662 45.2951 236.57 45.5939 236.863 45.6619C238.404 44.7384 239.652 43.747 241.285 42.5248C238.169 37.3212 234.76 32.0496 230.782 27.6066C229.149 28.8289 227.902 29.8203 226.562 31.1106Z" fill="#7DBBFF"/>
<path d="M217.414 15.6607C216.072 16.9538 215.024 18.315 213.774 19.3086C214.27 19.7443 215.06 20.2482 215.464 20.9835C216.952 22.2907 218.238 23.2304 219.432 24.4696C220.774 23.1765 222.318 22.2511 223.66 20.958C221.97 19.2831 219.986 17.54 218.204 16.1646C217.91 16.0965 217.708 15.7289 217.414 15.6607Z" fill="#7DBBFF"/>
<path d="M250.587 80.0258C251.871 86.9889 252.775 94.1809 252.918 101.831C254.549 101.575 256.181 101.32 258.194 100.835C257.961 93.4819 257.438 86.0611 255.954 78.7343C254.032 78.9224 252.309 79.4741 250.587 80.0258Z" fill="#7DBBFF"/>
<path d="M205.066 235.482C205.267 230.773 205.377 226.361 204.908 221.813C203.388 222.727 201.578 223.574 199.859 224.126C200.129 228.31 200.018 232.723 199.709 236.772C201.628 236.585 203.347 236.034 205.066 235.482Z" fill="#7DBBFF"/>
<path d="M200.616 264.783C201.154 263.015 201.692 261.247 201.943 259.412C203.091 254.63 204.041 249.487 204.616 244.571C202.914 245.12 201.015 245.306 199.402 245.56C198.469 251.654 197.34 257.387 195.547 263.28C197.177 263.978 198.897 264.38 200.616 264.783Z" fill="#7DBBFF"/>
<path d="M187.269 297.552C189.559 293.041 191.849 288.531 193.942 283.659C195.588 280.259 196.858 277.087 197.932 273.553C196.215 273.151 194.785 272.815 193.157 272.119C192.8 273.297 192.442 274.474 191.708 275.88C189.167 282.224 186.341 288.502 183.228 294.712C184.479 295.636 185.731 296.56 187.269 297.552Z" fill="#7DBBFF"/>
<path d="M164.748 328.79C167.948 325.417 170.858 321.976 173.768 318.535C176.95 314.208 179.842 309.812 182.735 305.417C181.47 304.489 179.917 303.494 178.743 302.27C173.717 310.604 168.004 318.144 161.895 324.958C162.689 326.41 163.863 327.634 164.748 328.79Z" fill="#7DBBFF"/>
<path d="M133.064 352.79C142.086 347.866 150.507 341.846 158.034 334.661C157.139 333.497 156.044 331.968 154.767 331.034C147.715 337.69 139.678 343.481 131.038 348.175C131.841 349.637 132.644 351.098 133.064 352.79Z" fill="#7DBBFF"/>
<path d="M96.2019 364.778C96.312 365.445 96.4221 366.113 96.6242 366.481C105.36 363.69 114.187 360.599 122.61 356.773C123.291 356.61 123.769 356.079 124.449 355.915C123.641 354.444 123.219 352.741 122.41 351.269C118.346 353.217 114.373 354.864 110.107 356.443C105.16 358.186 100.212 359.929 95.3575 361.372C95.5776 362.707 95.8898 363.742 96.2019 364.778Z" fill="#7DBBFF"/>
<path d="M62.6956 372.546C70.8174 371.85 79.2165 370.25 87.1173 368.212C87.0068 367.541 86.8039 367.171 86.6934 366.5C86.38 365.46 86.3619 364.487 86.0484 363.447C78.1476 365.485 70.524 366.619 62.6051 367.685C62.5308 368.958 62.6594 370.602 62.6956 372.546Z" fill="#7DBBFF"/>
<path d="M37.8198 371.677C38.1159 371.746 38.7081 371.883 39.0042 371.952C43.6307 372.38 48.3499 372.505 53.1618 372.328C53.3288 370.747 53.1998 369.096 53.1634 367.143C50.3133 367.129 47.3706 367.417 44.2245 367.333C42.0593 367.154 39.894 366.974 37.7288 366.795C37.8578 368.445 37.9869 370.095 37.8198 371.677Z" fill="#7DBBFF"/>
<path d="M180.878 166.913C176.985 163.105 172.612 159.832 167.002 158.53C166.927 159.803 166.65 160.707 166.576 161.98C166.686 162.651 166.501 163.253 166.317 163.856C168.291 164.637 170.266 165.418 172.148 166.5C174.529 168.02 176.521 169.773 178.127 171.759C178.514 171.526 178.699 170.924 179.087 170.691C180.047 169.623 180.915 168.857 182.078 168.159C181.58 167.721 181.081 167.282 180.878 166.913Z" fill="#7DBBFF"/>
<path d="M146.105 167.451C149.37 165.007 153.037 163.297 156.631 162.85C156.705 161.587 156.687 160.623 156.76 159.36C156.944 158.762 156.834 158.097 157.018 157.499C150.803 158.299 145.595 160.933 140.808 165.264C141.999 166.5 143.19 167.736 144.18 168.605C144.95 168.143 145.629 167.981 146.105 167.451Z" fill="#7DBBFF"/>
<path d="M143.957 211.327C145.297 210.037 146.251 208.977 147.591 207.686C147.591 207.686 147.591 207.686 147.977 207.455C143.63 204.206 140.531 199.965 138.478 194.366C137.028 194.991 135.193 195.846 133.652 196.77C135.906 202.737 139.115 207.643 143.957 211.327Z" fill="#7DBBFF"/>
<path d="M156.772 217.899C160.24 219.033 163.893 219.559 167.639 219.781C168.196 217.959 168.363 216.371 168.92 214.548C168.03 214.34 167.344 214.506 166.454 214.298C163.987 214.049 161.614 213.496 158.35 212.735C158.053 212.666 157.46 212.527 157.256 212.154C155.995 213.162 155.123 213.935 153.861 214.943C153.472 215.177 152.99 215.716 152.6 215.95C153.898 216.904 155.289 217.553 156.772 217.899Z" fill="#7DBBFF"/>
<path d="M189.313 217.142C189.185 215.511 188.764 213.812 188.342 212.113C185.149 213.295 181.846 213.81 178.542 214.326C177.991 216.12 177.733 217.983 177.476 219.845C180.779 219.329 184.174 218.514 187.569 217.699C187.955 217.468 188.634 217.305 189.313 217.142Z" fill="#7DBBFF"/>
<path d="M313.392 145.159C313.182 145.059 312.867 145.059 312.552 145.059C310.872 144.859 309.192 144.759 307.512 144.759C302.577 144.859 297.957 145.759 293.547 147.859C293.127 148.059 292.812 148.159 292.497 147.859C291.447 147.059 290.187 146.459 288.927 145.859C288.402 145.659 288.192 145.359 288.612 144.859C288.822 144.559 288.927 144.259 289.137 143.959C289.872 142.659 290.817 141.359 291.552 139.959C292.077 138.759 291.762 138.259 290.397 138.059C287.877 137.759 285.252 137.859 282.732 137.859C282.207 137.859 281.787 137.859 281.262 137.959C277.797 138.259 274.542 138.959 271.287 139.859C270.867 139.959 270.552 139.959 270.237 139.559C270.027 139.259 269.712 139.059 269.502 138.859C267.297 136.459 264.987 134.259 262.467 132.159C256.377 127.159 249.552 123.559 242.097 120.859C241.782 120.759 241.467 120.559 241.047 120.559C240.207 120.359 239.682 120.759 239.682 121.559C239.682 121.759 239.682 121.959 239.787 122.159C240.732 125.659 241.257 129.259 242.307 132.759C242.517 133.659 242.937 134.459 242.937 135.459C242.727 135.459 242.622 135.459 242.517 135.359C239.367 133.659 236.007 132.759 232.542 131.859C231.072 131.459 229.497 131.059 228.027 131.059C226.977 131.059 226.662 131.359 226.767 132.359C226.872 132.659 226.977 133.059 227.082 133.359C227.817 135.259 228.657 137.259 229.392 139.159C229.497 139.559 229.812 139.859 229.707 140.359C229.077 140.459 228.657 140.159 228.237 140.059C224.352 138.959 220.467 138.959 216.477 139.559C214.902 139.759 214.587 140.659 215.532 141.859C216.057 142.459 216.372 143.059 216.792 143.659C218.787 146.959 220.992 150.059 223.512 153.059C223.722 153.359 224.247 153.559 224.142 154.059C222.357 154.259 221.832 154.759 221.517 156.359C221.202 157.959 221.202 159.659 221.202 161.259C221.202 162.359 221.832 163.059 222.882 163.459C223.302 163.559 223.722 163.659 224.142 163.759C226.557 164.159 228.972 164.259 231.387 164.359C238.947 164.659 246.507 165.059 253.962 164.959C259.947 164.959 265.827 165.059 271.812 165.159C273.177 165.159 274.542 165.359 275.907 165.359C283.992 165.659 292.077 165.759 300.162 165.659C302.997 165.659 305.937 165.659 308.772 165.459C310.242 165.359 310.767 164.859 310.872 163.559C310.977 161.959 311.082 160.259 310.872 158.659C310.767 157.459 310.347 157.059 309.192 156.659C308.667 156.459 308.142 156.659 307.617 156.159C307.722 155.959 307.827 155.859 307.932 155.659C309.612 153.259 311.187 150.959 312.867 148.559C313.392 147.859 313.812 147.159 314.232 146.359C314.652 145.859 314.442 145.359 313.392 145.159Z" fill="#E9F4A6"/>
<path d="M315.492 154.659C316.017 155.059 316.647 154.959 317.067 155.159C318.222 155.559 318.642 155.959 318.747 157.159C318.852 158.759 318.852 160.459 318.747 162.059C318.642 163.359 318.012 163.859 316.647 163.959C313.812 164.159 310.872 164.159 308.037 164.159C299.952 164.259 291.867 164.159 283.782 163.859C282.417 163.759 281.052 163.659 279.687 163.659C273.702 163.559 267.822 163.359 261.837 163.459C254.277 163.459 246.717 163.059 239.262 162.859C236.847 162.759 234.432 162.659 232.017 162.259C231.597 162.159 231.177 162.059 230.757 161.959C229.707 161.559 229.077 160.859 229.077 159.759C229.077 158.159 229.077 156.459 229.392 154.859C229.707 153.259 230.232 152.759 232.017 152.559C232.122 152.059 231.597 151.859 231.387 151.559C228.867 148.559 226.662 145.459 224.667 142.159C224.247 141.559 223.932 140.959 223.407 140.359C222.357 139.159 222.777 138.359 224.352 138.059C228.342 137.559 232.227 137.459 236.112 138.559C236.532 138.659 236.952 138.959 237.582 138.859C237.687 138.459 237.372 138.059 237.267 137.659C236.532 135.759 235.692 133.759 234.957 131.859C234.852 131.559 234.747 131.259 234.642 130.859C234.432 129.959 234.852 129.559 235.902 129.559C237.477 129.559 238.947 130.059 240.417 130.359C243.882 131.159 247.242 132.159 250.392 133.859C250.497 133.959 250.602 133.959 250.812 133.959C250.812 132.959 250.392 132.159 250.182 131.259C249.132 127.759 248.607 124.159 247.662 120.659C247.662 120.459 247.557 120.259 247.557 120.059C247.557 119.159 248.082 118.859 248.922 119.059C249.237 119.159 249.552 119.259 249.972 119.359C257.427 122.059 264.252 125.759 270.342 130.659C272.862 132.759 275.172 134.959 277.377 137.359C277.587 137.659 277.902 137.859 278.112 138.059C278.427 138.459 278.637 138.459 279.162 138.359C282.417 137.359 285.777 136.659 289.137 136.459C289.662 136.459 290.082 136.359 290.607 136.359C293.127 136.359 295.752 136.159 298.272 136.559C299.637 136.759 300.057 137.259 299.427 138.459C298.797 139.859 297.852 141.059 297.012 142.459C296.802 142.759 296.697 143.059 296.487 143.359C296.172 143.859 296.277 144.059 296.802 144.359C298.062 144.959 299.217 145.559 300.372 146.359C300.792 146.659 301.002 146.559 301.422 146.359C305.832 144.159 310.452 143.359 315.387 143.259C317.067 143.259 318.747 143.359 320.427 143.559C320.742 143.559 320.952 143.559 321.267 143.659C322.212 143.859 322.527 144.359 322.002 145.259C321.582 145.959 321.162 146.759 320.637 147.459C319.062 149.859 317.382 152.159 315.702 154.559C315.702 154.259 315.597 154.459 315.492 154.659ZM286.827 161.759C294.807 162.159 302.682 162.059 310.662 162.159C312.237 162.159 313.812 162.259 315.492 162.059C316.017 161.959 316.332 161.859 316.332 161.359C316.332 160.259 316.437 159.259 316.332 158.159C316.122 157.059 316.227 157.059 315.177 156.959C312.762 156.759 310.347 156.259 307.932 156.359C304.467 156.459 301.002 156.259 297.537 156.159C292.182 155.959 286.722 155.859 281.262 155.959C277.587 156.059 273.912 156.159 270.237 156.059C268.557 155.959 266.772 155.759 265.092 155.759C261.942 155.659 258.792 155.659 255.642 155.659C250.497 155.659 245.457 155.259 240.417 154.859C237.792 154.659 235.167 154.659 232.542 154.559C232.017 154.559 231.807 154.759 231.807 155.259C231.597 156.359 231.387 157.459 231.282 158.659C231.177 159.559 231.282 159.659 232.122 159.759C235.377 160.159 238.737 160.459 241.992 160.759C245.037 160.959 247.977 161.059 251.022 161.159C257.637 161.359 264.252 161.559 270.867 161.559C276.117 161.359 281.472 161.359 286.827 161.759ZM249.447 121.059C250.182 124.659 257.742 151.059 258.477 152.059C263.202 146.259 269.292 142.159 276.222 139.259C272.967 133.359 256.797 122.359 249.447 121.059ZM259.422 153.659C260.052 153.959 260.472 153.859 260.787 153.959C264.462 153.959 268.032 154.159 271.707 154.259C278.322 154.459 285.042 154.559 291.657 154.359C291.972 154.359 292.392 154.359 292.602 154.159C292.707 153.859 292.497 153.659 292.392 153.459C291.132 150.959 289.767 148.559 288.297 146.259C287.877 145.659 287.457 144.959 287.142 144.259C286.827 143.559 287.142 143.059 287.877 142.859C288.087 142.759 288.402 142.759 288.717 142.759C290.397 142.559 291.972 142.759 293.652 143.059C293.967 143.059 294.282 143.259 294.597 142.859C295.542 141.359 296.382 139.859 297.117 138.259C281.577 137.059 269.187 142.359 259.422 153.659ZM237.057 131.259C236.952 131.659 237.162 131.959 237.267 132.259C238.632 135.059 239.682 137.959 240.837 140.859C242.307 144.659 243.987 148.359 245.247 152.159C245.457 152.759 245.772 152.959 246.402 152.959C247.767 153.059 249.237 153.159 250.602 153.259C252.282 153.459 253.962 153.359 255.642 153.459C255.852 152.859 255.642 152.359 255.432 151.859C254.067 147.059 252.807 142.259 251.757 137.459C251.547 136.559 251.022 135.959 250.287 135.559C247.977 134.359 245.562 133.359 242.937 132.559C241.047 131.959 239.157 131.359 237.057 131.259ZM225.507 139.659C225.507 139.759 225.507 139.959 225.612 140.059C228.237 144.059 230.862 148.059 233.802 151.859C234.117 152.259 234.432 152.359 234.957 152.459C237.687 152.859 240.312 152.859 243.042 152.859C243.147 152.859 243.147 152.759 243.252 152.759C243.357 152.459 243.147 152.159 243.042 151.959C241.782 148.859 240.417 145.659 239.262 142.459C238.947 141.659 238.527 141.359 237.687 141.059C235.272 140.359 232.752 139.859 230.337 139.659C228.762 139.359 227.082 139.259 225.507 139.659ZM289.557 144.559C289.452 144.859 289.557 145.059 289.662 145.259C290.922 147.159 292.077 149.159 293.232 151.159C293.757 152.059 294.282 152.959 295.017 153.859C295.227 154.059 295.437 154.259 295.752 154.359C298.167 154.459 300.582 154.559 303.102 154.559C304.047 154.559 304.152 154.359 303.837 153.459C302.892 150.659 300.897 148.659 298.482 147.059C295.752 145.359 292.812 144.459 289.557 144.559ZM302.367 147.459C302.472 147.659 302.577 147.859 302.682 148.059C303.837 149.359 304.677 150.859 305.307 152.459C305.517 152.959 305.622 153.459 305.832 153.859C306.042 154.459 306.462 154.459 306.987 154.059C307.197 153.959 307.302 153.759 307.407 153.559C310.347 150.259 313.812 147.459 317.592 144.959C317.802 144.859 318.222 144.759 318.117 144.259C312.657 144.159 307.407 145.459 302.367 147.459ZM319.482 146.159C316.647 147.259 310.032 152.859 309.297 154.459C310.347 154.559 311.397 154.659 312.447 154.659C313.182 154.659 313.707 154.359 314.127 153.759C315.282 152.159 316.542 150.559 317.697 148.859C318.222 147.959 318.852 147.059 319.482 146.159Z" fill="#282727"/>
<path d="M231.807 165.359C233.172 165.259 234.327 165.859 235.482 166.359C236.112 166.659 236.637 166.959 237.267 167.259C239.787 168.859 242.517 169.059 245.352 168.159C246.402 167.859 247.452 167.459 248.502 167.059C250.497 166.259 252.597 165.659 254.802 165.759C256.167 165.759 257.532 166.059 258.792 166.559C259.632 166.859 260.472 167.259 261.417 167.559C264.147 168.759 266.772 168.759 269.502 167.459C270.552 166.959 271.602 166.459 272.757 165.959C276.642 164.259 280.422 164.159 284.202 166.259C285.252 166.859 286.302 167.259 287.457 167.759C290.817 169.259 294.282 169.059 297.642 167.759C298.587 167.359 299.532 166.959 300.477 166.559C302.787 165.659 305.097 165.659 307.407 166.459C308.457 166.859 309.507 167.159 310.452 167.659C314.757 169.859 319.167 169.659 323.472 167.859C323.787 167.759 324.102 167.559 324.417 167.559C324.942 167.459 325.257 167.659 325.467 168.159C325.572 168.559 325.362 168.859 325.047 169.159C324.942 169.259 324.732 169.359 324.627 169.359C322.107 170.159 319.587 170.959 316.857 171.059C314.757 171.059 312.867 170.559 310.872 169.859C309.402 169.259 308.037 168.659 306.567 168.159C304.257 167.459 302.157 167.659 300.057 168.759C299.217 169.259 298.272 169.559 297.432 169.959C294.072 171.159 290.607 171.059 287.352 169.759C285.987 169.259 284.622 168.659 283.362 168.059C279.897 166.459 276.432 166.559 272.967 168.159C272.022 168.659 270.972 168.959 270.027 169.359C267.402 170.459 264.672 170.359 261.942 169.559C260.682 169.159 259.527 168.759 258.372 168.259C255.747 167.259 253.122 167.359 250.497 168.359C249.027 168.959 247.557 169.559 246.087 170.059C242.937 170.959 239.892 170.759 236.952 169.159C236.112 168.659 235.272 168.259 234.432 167.859C232.752 166.959 231.072 166.959 229.287 167.659C228.867 167.859 228.447 167.959 228.027 168.059C227.607 168.159 227.187 168.059 226.977 167.659C226.767 167.259 226.977 166.959 227.397 166.659C228.552 165.759 230.127 165.359 231.807 165.359Z" fill="#282727"/>
<path d="M38.22 395.427C37.17 393.927 36.015 392.427 34.65 391.227C33.915 390.627 33.18 390.627 32.34 391.227C31.605 391.827 30.87 392.327 30.24 393.027C30.03 393.327 29.82 393.827 29.4 393.627C28.98 393.527 28.77 393.027 28.665 392.627C28.56 392.427 28.665 392.127 28.665 391.827C28.56 390.727 28.56 389.727 28.455 388.627C28.35 387.127 27.615 386.427 26.04 386.127C25.83 386.127 25.62 386.027 25.41 386.027C24.885 386.027 24.78 385.727 24.885 385.327C25.2 384.427 25.305 383.527 25.515 382.627C25.725 381.727 26.145 380.927 27.3 380.627C28.455 380.327 29.505 379.827 30.66 379.327C30.975 379.227 31.395 379.027 31.71 378.727C32.34 378.127 32.13 377.327 31.29 377.027C30.555 376.827 29.925 376.827 29.19 376.827C28.665 376.827 28.035 376.927 27.51 376.627C27.93 376.027 28.245 375.427 28.56 374.927C28.98 374.427 29.295 373.827 29.4 373.227C29.61 372.227 28.98 371.527 27.825 371.627C26.88 371.827 26.04 372.127 25.305 372.727C24.99 373.027 24.57 373.327 24.045 373.427C23.94 372.527 23.94 371.627 23.835 370.727C23.73 370.027 23.73 369.227 22.785 369.027C21.945 368.827 21.63 369.627 21.315 370.227C20.79 371.227 20.37 372.227 19.845 373.127C19.74 373.127 19.53 373.127 19.53 373.027C19.11 372.627 18.69 372.327 18.27 371.927C17.85 371.527 17.43 371.227 16.905 371.027C16.065 370.727 15.645 371.027 15.54 371.827C15.54 372.327 15.645 372.727 15.75 373.227C16.065 374.127 16.275 375.027 16.59 376.127C15.33 375.727 14.7 375.027 14.805 373.827C14.805 372.827 14.805 371.827 14.805 370.827C14.7 367.927 14.595 365.027 14.7 362.127C14.805 360.827 14.91 359.627 15.435 358.427C15.75 357.727 16.17 356.927 15.75 356.127C15.54 355.527 15.645 355.127 15.855 354.527C16.275 353.027 16.59 351.527 16.275 349.927C15.96 348.327 15.33 346.827 14.595 345.427C14.07 344.327 13.23 344.227 12.495 345.227C11.655 346.427 10.92 347.627 10.08 348.927C8.92501 350.727 8.925 352.727 9.45 354.627C9.66 355.127 9.66 355.527 9.345 356.027C8.925 356.727 8.82 357.627 9.345 358.327C9.975 359.327 9.975 360.327 9.975 361.327C9.975 362.027 9.975 362.727 9.975 363.327C10.08 365.927 10.08 368.427 9.45 371.027C8.82 373.527 9.03001 376.027 9.03001 378.627C9.03001 379.127 8.925 379.627 8.715 380.027C8.085 381.227 7.56 382.427 7.35 383.727C7.14 385.027 7.245 386.227 8.4 387.227C9.03 387.827 9.24 388.427 9.24 389.327C9.24 389.827 9.24 390.227 9.345 390.727C9.66 392.827 9.55501 394.927 8.50501 396.927C8.08501 397.827 7.875 398.827 7.665 399.727C7.455 400.327 7.35 401.027 7.665 401.627C8.19 402.627 8.085 403.627 7.77 404.627C7.455 405.827 7.56 407.027 7.875 408.227C8.085 408.927 8.19001 409.727 7.98001 410.427C7.77001 412.127 7.245 413.827 6.825 415.527C6.51 416.927 5.985 418.327 6.09 419.727C6.195 420.927 5.985 422.027 5.775 423.127C4.83 427.327 3.25501 431.327 2.20501 435.427C2.10001 435.927 1.89 436.027 1.47 436.127C0.525002 436.327 0.105006 436.927 0.105006 437.727C0.105006 439.127 0 440.527 0 441.927C0 443.027 0.315002 443.227 1.47 443.527C2.52 443.827 3.675 443.827 4.725 443.927C7.665 444.227 10.605 444.627 13.545 444.927C16.695 445.227 19.74 445.527 22.89 445.927C24.36 446.127 25.935 446.227 27.405 446.127C28.665 446.027 28.98 445.727 29.295 444.527C29.505 443.427 29.715 442.427 29.925 441.327C30.135 440.227 29.82 439.327 28.875 438.627C28.56 438.427 28.56 438.227 28.56 437.927C28.56 436.827 28.56 435.727 28.665 434.627C28.875 432.427 29.19 430.227 29.295 427.927C29.4 425.927 29.715 423.927 29.82 422.027C29.82 421.727 29.925 421.427 30.135 421.227C30.87 420.427 31.08 419.427 31.08 418.427C31.185 414.827 31.08 411.227 30.87 407.627C30.87 407.127 30.87 406.627 31.29 406.127C32.445 404.827 33.495 403.427 34.65 402.027C35.91 400.427 37.17 398.827 38.325 397.227C38.325 396.627 38.535 396.027 38.22 395.427Z" fill="#D5F8B2"/>
<path d="M23.6247 373.627C23.3097 372.627 23.0997 371.627 22.7847 370.727C22.6797 370.227 22.5747 369.827 22.5747 369.327C22.5747 368.527 23.0997 368.227 23.9397 368.527C24.4647 368.727 24.9897 369.027 25.3047 369.427C25.7247 369.827 26.1447 370.127 26.5647 370.527C26.6697 370.527 26.7747 370.527 26.8797 370.627C27.2997 369.627 27.8247 368.627 28.3497 367.727C28.6647 367.127 28.9797 366.427 29.8197 366.527C30.7647 366.727 30.7647 367.527 30.8697 368.227C30.9747 369.127 31.0797 369.927 31.0797 370.927C31.7097 370.927 32.0247 370.527 32.3397 370.227C33.0747 369.627 33.9147 369.327 34.8597 369.127C35.9097 368.927 36.6447 369.627 36.4347 370.727C36.3297 371.327 35.9097 371.927 35.5947 372.427C35.1747 372.927 34.9647 373.527 34.5447 374.127C35.1747 374.427 35.6997 374.327 36.2247 374.327C36.9597 374.327 37.6947 374.327 38.3247 374.527C39.1647 374.727 39.3747 375.527 38.7447 376.227C38.4297 376.527 38.1147 376.627 37.6947 376.827C36.6447 377.227 35.4897 377.827 34.3347 378.127C33.1797 378.427 32.7597 379.127 32.5497 380.127C32.3397 381.027 32.2347 381.927 31.9197 382.827C31.8147 383.227 31.9197 383.527 32.4447 383.527C32.6547 383.527 32.8647 383.627 33.0747 383.627C34.6497 383.927 35.3847 384.627 35.4897 386.127C35.5947 387.127 35.5947 388.227 35.6997 389.327C35.6997 389.627 35.6997 389.827 35.6997 390.127C35.8047 390.527 36.0147 391.027 36.4347 391.127C36.8547 391.227 37.0647 390.727 37.2747 390.527C37.9047 389.827 38.6397 389.327 39.3747 388.727C40.1097 388.127 40.9497 388.027 41.6847 388.727C43.0497 389.927 44.3097 391.427 45.2547 392.927C45.6747 393.527 45.3597 394.127 45.0447 394.727C43.8897 396.427 42.7347 398.027 41.3697 399.527C40.2147 400.927 39.1647 402.327 38.0097 403.627C37.5897 404.127 37.4847 404.627 37.5897 405.127C37.7997 408.727 37.9047 412.327 37.7997 415.927C37.7997 416.927 37.5897 417.927 36.8547 418.727C36.6447 418.927 36.5397 419.227 36.5397 419.527C36.4347 421.527 36.1197 423.427 36.0147 425.427C35.9097 427.627 35.5947 429.827 35.3847 432.127C35.2797 433.227 35.2797 434.327 35.2797 435.427C35.2797 435.727 35.2797 435.927 35.5947 436.127C36.5397 436.727 36.8547 437.727 36.6447 438.827C36.4347 439.927 36.2247 441.027 36.0147 442.027C35.6997 443.227 35.3847 443.527 34.1247 443.627C32.6547 443.827 31.0797 443.627 29.6097 443.427C26.4597 443.027 23.4147 442.727 20.2647 442.427C17.3247 442.127 14.3847 441.827 11.4447 441.427C10.3947 441.327 9.23973 441.327 8.18973 441.027C7.03473 440.727 6.71973 440.427 6.71973 439.427C6.71973 438.027 6.71972 436.627 6.82472 435.227C6.82472 434.327 7.34973 433.827 8.18973 433.627C8.60973 433.527 8.81972 433.327 8.92472 432.927C9.97472 428.727 11.5497 424.727 12.4947 420.627C12.7047 419.527 12.9147 418.427 12.8097 417.227C12.7047 415.727 13.1247 414.427 13.5447 413.027C13.9647 411.327 14.4897 409.727 14.6997 407.927C14.8047 407.127 14.8047 406.427 14.5947 405.727C14.1747 404.527 14.1747 403.327 14.4897 402.127C14.6997 401.127 14.8047 400.127 14.3847 399.127C14.0697 398.527 14.1747 397.827 14.3847 397.227C14.5947 396.327 14.8047 395.327 15.2247 394.427C16.2747 392.427 16.3797 390.427 16.0647 388.227C15.9597 387.727 15.9597 387.327 15.9597 386.827C15.9597 386.027 15.7497 385.327 15.1197 384.727C14.0697 383.727 13.8597 382.527 14.0697 381.227C14.2797 379.927 14.8047 378.727 15.4347 377.527C15.6447 377.027 15.7497 376.627 15.7497 376.127C15.6447 373.627 15.4347 371.027 16.1697 368.527C16.9047 366.027 16.7997 363.427 16.6947 360.827C16.6947 360.127 16.6947 359.427 16.6947 358.827C16.7997 357.727 16.6947 356.727 16.0647 355.827C15.6447 355.127 15.6447 354.227 16.0647 353.527C16.3797 353.027 16.3797 352.627 16.1697 352.127C15.5397 350.127 15.6447 348.227 16.7997 346.427C17.5347 345.227 18.3747 343.927 19.2147 342.727C19.9497 341.727 20.6847 341.727 21.3147 342.927C22.0497 344.427 22.6797 345.827 22.9947 347.427C23.3097 349.027 22.9947 350.527 22.5747 352.027C22.3647 352.527 22.2597 353.027 22.4697 353.627C22.7847 354.427 22.4697 355.227 22.1547 355.927C21.6297 357.127 21.5247 358.327 21.4197 359.627C21.2097 362.527 21.4197 365.427 21.5247 368.327C21.5247 369.327 21.6297 370.327 21.5247 371.327C21.7347 372.527 22.3647 373.227 23.6247 373.627ZM13.9647 425.827C15.0147 425.427 15.7497 425.127 16.5897 424.927C17.1147 424.727 17.5347 424.627 17.3247 423.927C17.2197 423.427 17.6397 423.027 18.0597 422.827C18.4797 422.627 18.8997 422.427 19.3197 422.227C21.2097 421.427 23.2047 420.627 25.0947 419.727C24.5697 418.327 24.7797 418.027 26.0397 417.427C26.2497 417.327 26.3547 417.327 26.5647 417.227C29.3997 416.027 32.2347 414.627 35.1747 413.627C35.6997 413.427 35.9097 413.227 35.9097 412.727C35.9097 411.727 36.0147 410.827 35.9097 409.827C35.6997 407.027 35.4897 404.227 35.2797 401.527C35.0697 398.627 34.8597 395.627 34.4397 392.727C34.4397 392.427 34.5447 392.127 34.0197 392.027C33.8097 392.527 33.5997 393.027 33.3897 393.527C32.3397 395.927 31.2897 398.327 30.0297 400.527C27.9297 404.027 25.8297 407.527 23.4147 410.727C21.2097 413.727 18.8997 416.827 15.9597 419.227C15.8547 419.327 15.7497 419.427 15.6447 419.627C15.3297 421.527 14.5947 423.527 13.9647 425.827ZM15.7497 416.127C16.2747 416.127 16.3797 415.927 16.5897 415.727C17.9547 414.427 19.1097 413.127 20.1597 411.627C22.1547 409.027 23.8347 406.327 25.6197 403.627C28.7697 398.927 31.2897 393.927 33.3897 388.827C33.7047 388.027 33.7047 387.227 33.5997 386.327C33.4947 385.427 33.3897 385.327 32.4447 385.427C32.0247 385.427 31.8147 385.527 31.6047 385.927C31.3947 386.427 31.1847 386.827 30.8697 387.327C26.9847 393.827 22.7847 400.127 18.0597 406.127C17.8497 406.427 17.7447 406.827 17.6397 407.127C17.6397 408.327 17.3247 409.527 17.0097 410.727C16.6947 412.527 16.2747 414.227 15.7497 416.127ZM35.0697 438.127C31.1847 437.627 27.5097 437.227 23.7297 436.827C20.7897 436.527 17.9547 436.127 15.0147 435.827C13.4397 435.627 11.9697 435.527 10.3947 435.427C9.76473 435.327 9.44972 435.527 9.44972 436.127C9.44972 436.927 9.44973 437.827 9.34473 438.627C9.34473 439.227 9.55473 439.327 10.0797 439.427C13.3347 439.727 16.6947 440.227 19.9497 440.427C23.9397 440.727 27.9297 441.227 31.9197 441.427C32.5497 441.427 33.2847 441.527 33.9147 441.627C34.3347 441.727 34.5447 441.527 34.6497 441.127C34.7547 440.127 34.9647 439.127 35.0697 438.127ZM18.8997 392.227C21.6297 390.027 23.9397 387.627 26.3547 385.127C24.9897 384.627 24.8847 383.527 24.8847 382.427C24.8847 381.927 24.9897 381.427 24.2547 381.227C22.6797 380.627 22.1547 379.327 22.3647 377.827C22.3647 377.327 22.4697 376.727 22.4697 376.227C22.5747 375.527 22.1547 375.227 21.6297 374.927C21.1047 374.627 20.8947 375.127 20.6847 375.327C18.7947 376.827 17.5347 378.727 16.6947 380.927C16.2747 381.927 16.3797 382.827 17.2197 383.627C18.0597 384.427 18.3747 385.527 18.3747 386.627C18.3747 387.027 18.4797 387.427 18.4797 387.927C18.6897 389.227 19.0047 390.627 18.8997 392.227ZM27.4047 418.327C28.4547 419.527 28.3497 420.027 27.1947 420.827C26.9847 420.927 26.7747 421.027 26.4597 421.227C25.7247 421.527 24.9897 421.927 24.1497 422.227C23.5197 422.427 23.2047 422.727 23.2047 423.427C23.0997 424.727 22.7847 426.127 22.6797 427.427C22.3647 429.627 22.1547 431.827 21.9447 433.927C21.9447 434.327 21.8397 434.727 22.4697 434.727C23.7297 434.827 24.9897 434.927 26.2497 435.127C26.7747 435.227 27.0897 434.927 27.0897 434.427C27.7197 429.527 28.5597 424.727 28.9797 419.827C29.0847 419.127 29.3997 418.427 29.0847 417.627C28.6647 417.927 28.1397 418.127 27.4047 418.327ZM17.1147 404.127C22.0497 398.227 25.8297 391.927 29.9247 385.627C29.3997 385.627 28.9797 385.627 28.6647 385.627C28.2447 385.527 27.9297 385.727 27.6147 386.027C26.4597 387.727 24.9897 389.027 23.5197 390.527C21.7347 392.227 20.0547 394.027 17.9547 395.427C17.0097 396.027 16.4847 397.827 17.0097 398.827C17.4297 399.627 17.4297 400.327 17.3247 401.127C17.3247 402.027 17.0097 402.927 17.1147 404.127ZM29.3997 383.727C29.7147 383.827 30.0297 383.827 30.3447 383.827C30.7647 383.827 30.9747 383.627 30.9747 383.227C30.8697 381.927 31.2897 380.727 31.6047 379.527C31.7097 378.927 31.6047 378.527 31.1847 378.027C29.5047 375.927 26.7747 375.927 24.6747 376.627C24.4647 376.727 24.3597 376.727 24.3597 376.927C24.0447 377.727 24.5697 379.427 25.5147 379.827C26.7747 380.327 26.8797 381.227 26.9847 382.227C26.9847 382.627 26.7747 383.127 27.0897 383.427C27.4047 383.727 28.0347 383.627 28.4547 383.727C28.7697 383.727 29.0847 383.727 29.3997 383.727ZM37.4847 401.027C37.7997 400.927 37.9047 400.927 37.9047 400.827C39.8997 398.727 41.6847 396.327 43.3647 394.027C43.6797 393.627 43.5747 393.327 43.2597 393.027C42.5247 392.227 41.6847 391.527 40.9497 390.727C40.5297 390.327 40.2147 390.327 39.8997 390.827C39.1647 391.827 38.2197 392.527 37.2747 393.327C36.8547 393.627 36.7497 393.927 36.8547 394.427C36.9597 394.927 36.9597 395.527 37.0647 396.027C37.1697 397.627 37.2747 399.227 37.4847 401.027ZM17.9547 374.427C18.0597 374.527 18.1647 374.527 18.2697 374.627C18.7947 374.127 19.2147 373.527 19.8447 373.127C20.2647 372.827 20.3697 372.427 20.4747 371.927C20.5797 371.127 20.3697 370.427 20.3697 369.627C20.2647 367.327 20.4747 365.027 20.2647 362.627C20.1597 360.727 19.9497 358.727 20.3697 356.827C20.5797 356.027 20.7897 355.327 20.9997 354.527C20.2647 354.227 19.6347 354.327 19.0047 354.327C18.0597 354.327 17.8497 354.627 18.2697 355.327C18.7947 356.127 18.8997 357.027 18.7947 358.027C18.7947 358.627 18.6897 359.227 18.7947 359.827C19.1097 363.727 18.5847 367.527 17.9547 371.327C17.7447 372.327 17.6397 373.427 17.9547 374.427ZM21.2097 423.327C20.3697 423.727 19.4247 423.627 19.7397 424.727C19.8447 425.227 19.3197 425.627 18.8997 425.827C17.6397 426.327 17.1147 427.227 17.2197 428.427C17.2197 428.527 17.2197 428.627 17.1147 428.627C16.9047 430.127 16.5897 431.627 16.3797 433.127C16.2747 434.027 16.3797 434.127 17.2197 434.127C17.8497 434.227 18.4797 434.227 19.1097 434.227C19.9497 434.227 20.0547 434.227 20.1597 433.327C20.3697 431.527 20.5797 429.827 20.7897 428.027C20.7897 426.627 20.9997 425.127 21.2097 423.327ZM35.6997 415.027C35.3847 415.127 35.1747 415.227 34.9647 415.227C34.2297 415.427 33.9147 415.827 33.7047 416.627C33.4947 418.127 33.2847 419.527 33.1797 421.027C32.9697 424.027 32.5497 427.027 32.2347 430.027C32.1297 431.727 31.8147 433.427 31.8147 435.227C31.8147 435.527 31.7097 435.827 32.1297 435.827C32.4447 435.827 32.8647 435.827 32.9697 435.427C32.9697 435.227 32.9697 435.127 33.0747 434.927C33.2847 432.227 33.4947 429.527 33.8097 426.827C34.0197 424.327 34.0197 421.827 34.3347 419.427C34.4397 418.827 34.5447 418.127 34.9647 417.727C35.6997 416.927 35.9097 416.127 35.6997 415.027ZM32.3397 416.427C31.3947 416.627 30.9747 416.927 30.9747 417.827C30.7647 420.227 30.5547 422.627 30.2397 425.027C30.0297 426.727 29.8197 428.427 29.6097 430.127C29.3997 431.627 29.2947 433.227 29.0847 434.727C28.9797 435.227 29.2947 435.427 29.7147 435.527C30.2397 435.527 30.1347 435.127 30.1347 434.927C30.2397 433.927 30.4497 433.027 30.4497 432.027C30.6597 428.027 31.3947 424.027 31.9197 420.027C32.0247 418.827 32.2347 417.727 32.3397 416.427ZM20.3697 344.427C19.6347 345.627 19.1097 346.627 18.6897 347.727C18.2697 349.127 18.2697 350.427 18.5847 351.827C18.6897 352.027 18.5847 352.327 18.8997 352.427C19.8447 352.827 20.8947 352.527 21.1047 351.527C22.0497 349.227 21.6297 346.927 20.3697 344.427ZM15.6447 427.427C15.0147 427.527 14.5947 427.827 14.1747 427.927C13.3347 428.127 13.0197 428.727 12.8097 429.427C12.5997 430.427 12.1797 431.427 11.8647 432.427C11.4447 433.727 11.4447 433.727 12.9147 433.727C13.2297 433.727 13.6497 433.727 13.9647 433.727C14.3847 433.727 14.4897 433.527 14.5947 433.227C15.0147 431.427 15.3297 429.527 15.6447 427.427ZM24.6747 374.827C24.7797 374.827 24.7797 374.927 24.8847 374.927C25.1997 374.827 25.6197 374.827 25.9347 374.727C28.4547 374.227 30.6597 374.727 32.3397 376.827C32.4447 376.927 32.4447 377.027 32.5497 377.127C32.6547 377.327 32.8647 377.427 33.0747 377.327C33.2847 377.227 33.1797 377.027 33.0747 376.827C32.8647 376.227 32.2347 375.927 31.8147 375.527C30.0297 373.927 26.7747 373.627 24.6747 374.827ZM31.0797 373.127C32.2347 373.927 32.2347 374.027 32.6547 373.627C33.2847 372.927 33.9147 372.327 34.3347 371.227C33.0747 371.727 32.2347 372.627 31.0797 373.127ZM29.1897 369.927C28.9797 370.527 28.7697 370.927 28.6647 371.327C28.1397 372.627 28.1397 372.627 29.5047 372.627C29.6097 372.627 29.6097 372.527 29.7147 372.427C29.3997 371.727 29.7147 370.827 29.1897 369.927ZM26.3547 372.327C25.8297 371.927 25.5147 371.427 24.8847 371.227C24.9897 372.627 24.9897 372.727 26.3547 372.327ZM35.8047 376.027C35.3847 375.927 34.9647 375.727 34.5447 376.027C34.5447 376.027 34.5447 376.327 34.6497 376.327C35.1747 376.727 35.4897 376.127 35.8047 376.027Z" fill="#282727"/>
<path d="M261.15 299.76C260.52 298.36 259.785 297.86 258 297.96C254.01 298.06 250.02 298.76 245.925 299.06C241.935 299.36 238.155 300.56 234.375 301.76C230.595 302.86 226.92 304.36 223.245 305.66C221.88 306.16 221.67 306.16 220.725 305.06C219.78 304.06 218.94 302.96 218.1 301.86C216.525 300.06 215.055 298.26 213.165 296.76C212.325 296.16 211.485 295.86 210.435 295.96C209.595 296.06 208.86 295.96 208.02 295.96C207.075 295.96 206.445 295.66 205.92 294.96C203.82 292.06 201.405 289.36 199.095 286.66C198.465 285.96 198.045 285.86 197.1 286.16C196.68 286.26 196.365 286.46 196.05 286.66C193.11 288.26 190.59 290.36 188.175 292.66C183.765 296.86 181.035 301.96 179.46 307.66C179.145 308.76 179.145 309.76 179.67 310.86C180.51 312.56 181.35 314.16 182.19 315.86C182.61 316.56 182.82 317.36 182.505 318.16C182.19 318.96 182.295 319.76 182.61 320.56C183.45 322.66 184.29 324.86 185.34 326.86C185.655 327.46 185.97 328.06 185.655 328.76C185.445 329.46 185.55 330.06 185.76 330.76C187.755 335.76 189.645 340.76 191.955 345.56C192.165 345.96 192.375 346.36 192.69 346.76C193.005 347.26 193.53 347.56 194.16 347.36C194.475 347.26 194.895 347.26 195.21 347.16C200.355 345.96 205.395 344.26 210.435 342.76C212.64 342.06 214.845 341.26 217.155 340.66C220.41 339.66 223.56 338.46 226.815 337.46C229.125 336.76 231.33 335.96 233.64 335.26C237.735 334.06 241.725 332.76 245.715 331.46C248.97 330.36 252.33 329.36 255.48 328.26C259.47 326.76 263.67 325.66 267.66 324.36C268.5 324.06 268.815 323.66 268.605 322.86C268.395 322.06 268.185 321.26 267.87 320.46C267.24 318.16 266.505 315.96 265.875 313.66C265.035 310.66 264.195 307.66 262.935 303.96C262.83 302.76 261.885 301.26 261.15 299.76Z" fill="#E498A0"/>
<path d="M255.69 302.96C256.95 306.56 257.895 309.56 258.63 312.66C259.26 314.96 259.995 317.16 260.625 319.46C260.835 320.26 261.15 321.06 261.36 321.86C261.57 322.66 261.255 323.16 260.415 323.36C256.32 324.66 252.225 325.86 248.235 327.26C244.98 328.46 241.725 329.36 238.47 330.46C234.48 331.76 230.385 333.06 226.395 334.26C224.085 334.96 221.88 335.76 219.57 336.46C216.315 337.46 213.165 338.66 209.91 339.66C207.705 340.36 205.5 341.16 203.19 341.76C198.15 343.36 193.11 344.96 187.965 346.16C187.65 346.26 187.23 346.26 186.915 346.36C186.285 346.56 185.76 346.26 185.445 345.76C185.235 345.36 184.92 344.96 184.71 344.56C182.505 339.66 180.51 334.66 178.515 329.76C178.305 329.06 178.095 328.46 178.41 327.76C178.725 327.06 178.41 326.46 178.095 325.86C177.045 323.86 176.205 321.66 175.365 319.56C175.05 318.76 175.05 317.96 175.26 317.16C175.575 316.36 175.365 315.56 174.945 314.86C174.105 313.16 173.265 311.46 172.425 309.86C171.9 308.86 171.9 307.76 172.215 306.66C173.79 300.96 176.52 295.86 180.93 291.66C183.345 289.36 185.865 287.26 188.805 285.66C189.12 285.46 189.54 285.26 189.855 285.16C190.8 284.86 191.22 284.96 191.85 285.66C194.16 288.36 196.575 291.06 198.675 293.96C199.2 294.66 199.83 295.06 200.775 294.96C201.615 294.96 202.35 295.06 203.19 294.96C204.24 294.86 205.08 295.16 205.92 295.76C207.81 297.26 209.28 299.06 210.855 300.86C211.8 301.86 212.64 302.96 213.48 304.06C214.425 305.16 214.635 305.16 216 304.66C219.675 303.36 223.35 301.96 227.13 300.76C230.91 299.66 234.69 298.36 238.68 298.06C242.67 297.76 246.66 297.06 250.755 296.96C252.435 296.96 253.17 297.36 253.905 298.76C254.535 300.56 255.375 302.06 255.69 302.96ZM183.03 336.46C185.97 334.66 189.015 333.76 191.955 332.56C194.475 331.46 197.1 330.56 199.725 329.46C205.71 327.16 211.695 325.06 217.68 322.66C220.41 321.56 223.35 320.86 226.08 319.86C228.6 318.96 231.225 318.16 233.745 317.46C237 316.56 240.15 315.66 243.405 314.76C245.505 314.16 247.71 313.66 249.81 313.16C251.595 312.76 253.38 312.56 255.165 312.16C256.215 311.96 256.32 311.86 256.11 310.86C255.165 307.06 253.8 303.46 252.12 299.96C251.595 298.76 251.28 298.76 249.915 298.86C245.505 299.26 241.095 299.96 236.685 300.26C236.055 300.26 235.53 300.46 235.005 300.56C231.12 301.76 227.13 302.96 223.245 304.36C218.94 305.86 214.74 307.36 210.645 309.26C207.075 310.86 203.505 312.46 200.04 314.26C195.525 316.66 191.01 319.16 186.915 322.16C184.815 323.66 182.715 325.06 180.825 326.76C179.985 327.46 179.775 328.26 180.195 329.26C180.51 329.96 180.72 330.76 181.035 331.56C181.77 333.16 182.4 334.76 183.03 336.46ZM234.69 319.06C231.75 319.76 229.02 320.66 226.185 321.56C221.88 323.06 217.575 324.56 213.375 326.26C208.44 328.26 203.4 329.96 198.57 331.86C194.265 333.56 189.96 335.16 185.655 336.86C185.13 337.06 184.71 337.26 184.185 337.46C183.66 337.66 183.555 337.86 183.765 338.36C184.5 340.16 185.235 341.96 186.075 343.76C186.285 344.16 186.495 344.76 186.915 344.96C187.335 345.16 187.86 344.76 188.28 344.66C188.595 344.66 188.91 344.56 189.225 344.46C192.06 343.66 194.895 342.96 197.73 341.96C201.405 340.76 205.185 339.66 208.965 338.46C212.64 337.26 216.315 335.86 219.99 334.66C221.775 334.06 223.665 333.46 225.555 332.86C228.495 331.96 231.435 331.16 234.375 330.16C237.945 328.96 241.41 327.66 244.98 326.46C246.03 326.06 246.975 325.66 248.025 325.36C251.49 324.36 254.85 323.36 258.315 322.46C259.05 322.26 259.26 322.06 259.05 321.36C258.525 318.96 257.685 316.56 256.95 314.16C256.74 313.56 256.425 313.46 255.9 313.56C254.325 313.96 252.855 314.36 251.28 314.66C247.29 315.66 243.3 316.66 239.31 317.66C238.26 317.96 237.105 318.16 236.58 319.46C236.475 319.66 236.265 319.86 236.055 320.06C235.635 320.36 235.11 320.26 234.9 319.76C234.795 319.66 234.795 319.36 234.69 319.06ZM179.88 325.76C184.605 321.46 189.96 318.06 195.42 314.96C200.88 311.76 206.655 309.16 212.43 306.56C212.43 306.36 212.43 306.26 212.325 306.26C210.225 303.36 207.915 300.56 205.5 297.86C205.185 297.56 204.975 297.36 204.66 297.06C204.135 296.66 203.61 296.56 202.98 296.76C199.515 297.76 196.575 299.56 193.635 301.56C189.855 304.16 186.39 307.26 183.03 310.36C180.93 312.36 178.935 314.36 177.255 316.66C176.73 317.36 176.52 318.06 176.73 318.96C177.57 321.26 178.725 323.46 179.88 325.76ZM198.99 296.76C198.255 296.26 197.835 295.86 197.52 295.46C196.26 293.96 195 292.56 193.74 291.06C192.795 289.96 191.85 288.76 190.905 287.66C190.275 286.86 190.065 286.86 189.12 287.36C185.76 289.36 182.61 291.76 180.09 294.76C177.15 298.26 175.155 302.26 173.895 306.56C173.685 307.46 173.79 308.26 174 309.16C174.63 310.86 175.68 312.46 176.31 314.16C176.52 314.76 176.73 314.76 177.255 314.26C179.145 312.06 181.35 310.06 183.555 308.06C188.175 303.86 192.9 299.56 198.99 296.76Z" fill="#282727"/>
<path d="M212.43 322.96C211.17 323.36 209.91 323.76 208.65 324.06C207.285 324.36 206.97 324.16 206.445 322.96C205.71 320.96 205.29 318.76 205.185 316.66C205.08 315.76 205.29 314.86 205.605 314.06C206.655 311.66 209.385 311.66 210.855 312.76C211.695 313.36 212.325 314.16 212.955 315.06C214.005 316.66 214.635 318.46 215.265 320.26C215.685 321.46 215.37 321.96 214.11 322.36C213.585 322.56 213.06 322.76 212.43 322.96ZM212.955 318.26C212.64 317.56 212.43 316.86 212.01 316.16C211.485 315.26 210.96 314.36 210.015 313.86C208.44 312.96 206.97 313.56 206.76 315.26C206.655 315.76 206.655 316.16 206.655 316.66C206.76 318.46 207.18 320.26 207.495 322.06C207.6 322.56 207.81 322.66 208.335 322.56C210.015 322.16 211.59 321.66 213.165 321.06C213.69 320.86 213.795 320.66 213.585 320.16C213.48 319.46 213.165 318.86 212.955 318.26Z" fill="#282727"/>
<path d="M228.075 312.56C228.495 313.56 228.81 314.36 229.02 315.06C229.44 316.06 229.23 316.36 228.285 316.86C226.29 317.86 224.295 318.56 222.195 319.26C221.145 319.56 220.83 319.46 220.515 318.56C219.57 316.36 219.045 314.06 219.255 311.66C219.36 309.96 220.095 308.56 221.775 307.76C223.35 306.86 225.03 307.36 225.975 308.46C226.29 308.86 226.71 309.36 227.025 309.76C227.445 310.76 227.76 311.86 228.075 312.56ZM224.925 316.76C225.66 316.46 226.395 316.26 227.13 315.96C228.075 315.56 228.18 315.46 227.865 314.56C227.445 313.26 226.71 312.06 226.08 310.76C225.87 310.26 225.45 309.76 225.03 309.36C224.19 308.56 223.455 308.46 222.405 309.06C221.145 309.76 220.83 310.96 220.83 312.16C220.83 313.86 221.25 315.56 221.67 317.26C221.775 317.66 221.985 317.76 222.405 317.66C223.35 317.36 224.19 317.06 224.925 316.76Z" fill="#282727"/>
<path d="M198.885 328.159C198.15 328.359 197.52 328.659 196.785 328.859C195.945 329.059 195.42 328.759 195.105 327.959C194.475 325.859 194.16 323.759 194.265 321.559C194.37 320.659 194.685 319.859 195.21 319.059C196.365 317.459 197.73 317.259 199.515 318.159C200.145 318.459 200.775 318.959 201.195 319.559C202.35 321.259 203.295 322.959 203.715 324.959C203.925 325.859 203.82 326.059 202.875 326.359C201.405 326.859 200.25 327.659 198.885 328.159ZM196.47 327.059C196.89 327.159 197.1 327.059 197.415 326.959C198.99 326.559 200.25 325.659 201.825 325.359C202.14 325.259 202.245 325.059 202.14 324.759C201.51 323.159 201.09 321.559 199.935 320.159C199.305 319.359 198.36 318.659 197.31 318.959C196.26 319.259 196.05 320.259 195.84 321.159C195.525 323.259 196.05 325.159 196.47 327.059Z" fill="#282727"/>
<path d="M239.205 313.56C237.315 314.16 235.425 314.76 233.535 315.36C232.59 315.66 232.17 315.46 231.96 314.76C231.225 312.26 230.7 309.66 230.91 307.06C231.015 305.36 233.115 303.66 234.27 303.36C236.055 302.96 237.735 303.66 238.785 305.36C240.045 307.56 240.57 309.96 241.305 312.36C241.41 312.86 241.2 313.06 240.78 313.26C240.255 313.26 239.73 313.36 239.205 313.56ZM233.22 313.76C235.425 313.46 237.42 312.96 239.31 312.16C239.73 311.96 240.045 311.86 239.835 311.36C239.205 309.76 238.89 308.16 238.155 306.56C237.84 305.86 237.42 305.16 236.79 304.56C236.37 304.26 235.95 303.96 235.32 303.96C233.955 304.06 232.695 305.06 232.38 306.36C232.17 307.06 232.17 307.86 232.17 308.66C232.38 310.46 232.695 312.06 233.22 313.76Z" fill="#282727"/>
<path d="M250.439 306.059C250.964 306.959 251.174 308.059 251.489 309.159C251.804 310.059 251.699 310.259 250.754 310.659C249.284 311.259 247.814 311.559 246.344 311.959C243.824 312.659 243.824 312.659 243.299 310.159C242.879 308.459 242.774 306.759 243.089 304.959C243.194 303.859 243.614 302.959 244.559 302.159C245.924 300.959 247.499 301.059 248.654 302.359C249.494 303.459 250.019 304.659 250.439 306.059ZM245.084 310.859C246.659 310.359 248.129 310.159 249.599 309.659C250.544 309.359 250.544 309.259 250.229 308.359C249.809 307.159 249.284 305.859 248.759 304.659C248.549 304.059 248.129 303.559 247.709 303.059C246.974 302.159 246.029 302.259 245.189 303.059C244.769 303.559 244.559 304.059 244.454 304.659C244.139 306.759 244.559 308.759 245.084 310.859Z" fill="#282727"/>
<path d="M189.119 332.36C188.384 332.66 187.754 332.86 187.124 333.06C185.444 333.66 185.129 333.46 184.709 331.86C184.184 330.06 183.764 328.26 184.394 326.36C184.814 325.26 185.444 324.46 186.704 324.16C188.069 323.86 189.224 324.26 189.959 325.26C191.114 326.66 191.849 328.36 192.059 330.06C192.164 330.96 192.059 331.16 191.219 331.46C190.484 331.86 189.749 332.26 189.119 332.36ZM186.179 331.76C187.649 331.26 189.014 330.76 190.379 330.26C190.694 330.16 190.799 329.86 190.694 329.56C190.274 328.66 189.959 327.66 189.539 326.76C189.434 326.46 189.224 326.26 189.014 326.06C188.489 325.56 187.964 325.36 187.229 325.46C186.494 325.66 186.074 326.06 185.969 326.76C185.549 328.46 185.864 330.06 186.179 331.76Z" fill="#282727"/>
<path d="M236.79 327.959C235.11 328.659 233.22 328.959 231.54 329.659C230.595 330.059 230.385 329.859 230.175 328.859C229.755 326.859 229.545 324.859 230.7 322.959C231.54 321.559 232.695 320.559 234.48 320.659C235.845 320.659 236.79 321.259 237.42 322.259C238.155 323.359 238.68 324.559 239.205 325.759C239.625 326.659 239.415 326.859 238.47 327.259C237.945 327.559 237.42 327.759 236.79 327.959ZM231.645 328.459C233.745 327.759 235.635 327.059 237.525 326.459C237.84 326.359 237.945 326.159 237.84 325.759C237.42 324.659 237 323.659 236.265 322.759C235.425 321.859 234.06 321.759 233.01 322.459C232.485 322.859 232.065 323.459 231.75 324.059C231.33 325.459 231.54 326.859 231.645 328.459Z" fill="#282727"/>
<path d="M225.136 331.66C223.456 332.36 221.776 332.56 220.201 333.26C219.466 333.56 219.151 333.36 218.941 332.56C218.521 330.76 218.311 328.86 218.941 327.06C219.361 325.86 220.201 325.06 221.461 324.76C222.931 324.46 224.191 324.76 225.136 325.86C226.186 327.06 226.711 328.46 227.236 329.96C227.446 330.46 227.236 330.96 226.606 331.16C226.081 331.26 225.451 331.46 225.136 331.66ZM225.871 330.06C225.556 328.96 225.241 327.76 224.296 326.76C223.666 326.06 222.931 325.76 221.986 325.96C221.041 326.26 220.411 326.76 220.201 327.76C219.991 328.86 220.096 330.06 220.201 331.16C220.306 331.86 220.411 331.96 221.146 331.66C222.616 331.16 224.191 330.66 225.871 330.06Z" fill="#282727"/>
<path d="M202.77 339.159C201.825 339.459 200.88 339.859 199.935 340.159C199.095 340.459 198.78 340.259 198.57 339.459C198.255 338.059 198.045 336.659 198.15 335.159C198.255 334.059 198.675 333.159 199.62 332.359C200.985 331.259 203.085 331.359 204.24 332.659C205.395 333.859 205.92 335.459 206.445 336.959C206.655 337.559 206.235 337.859 205.71 338.059C204.66 338.559 203.715 338.859 202.77 339.159ZM199.935 338.959C201.51 338.659 202.98 338.059 204.345 337.559C204.765 337.359 204.975 337.159 204.765 336.659C204.345 335.559 203.82 334.559 203.085 333.659C202.245 332.759 200.985 332.759 200.25 333.759C199.935 334.159 199.725 334.659 199.725 335.159C199.515 336.359 199.725 337.559 199.935 338.959Z" fill="#282727"/>
<path d="M255.795 319.359C256.53 321.259 256.425 321.659 254.325 322.159C253.17 322.459 252.015 322.859 250.755 323.159C249.495 323.459 249.075 323.259 248.865 322.059C248.55 320.559 248.55 318.959 249.39 317.459C249.81 316.659 250.44 316.059 251.28 315.759C252.54 315.359 253.695 315.759 254.43 316.759C254.955 317.659 255.48 318.459 255.795 319.359ZM250.545 321.859C251.91 321.659 252.96 321.059 254.22 320.859C254.64 320.759 254.85 320.559 254.64 320.159C254.43 319.459 254.115 318.759 253.8 318.159C253.275 317.359 252.54 316.959 251.805 317.159C250.965 317.359 250.545 318.059 250.44 318.859C250.335 319.859 250.335 320.859 250.545 321.859Z" fill="#282727"/>
<path d="M215.16 332.56C215.265 332.76 215.37 332.96 215.37 333.16C215.895 334.76 215.685 334.76 214.425 335.36C213.165 335.96 211.905 336.26 210.54 336.66C209.595 336.96 209.385 336.86 209.175 336.06C208.545 334.46 208.44 332.76 208.65 331.06C208.65 330.96 208.65 330.86 208.755 330.86C209.07 329.66 209.91 328.86 211.17 328.66C212.43 328.46 213.165 329.26 213.795 330.06C214.32 330.76 214.74 331.66 215.16 332.56ZM212.535 334.86C212.955 334.66 213.48 334.56 213.9 334.36C214.215 334.26 214.32 334.06 214.215 333.76C213.795 332.56 213.375 331.36 212.43 330.46C212.01 330.06 211.59 329.66 210.96 329.96C210.33 330.16 210.015 330.66 210.015 331.36C209.91 332.06 210.015 332.76 210.12 333.46C210.33 335.66 210.435 335.66 212.535 334.86Z" fill="#282727"/>
<path d="M247.185 321.46C247.395 321.96 247.605 322.46 247.815 322.96C248.13 323.86 247.815 324.36 246.87 324.56C245.19 324.96 243.615 325.46 242.04 326.16C241.305 326.46 240.885 326.26 240.675 325.46C240.465 323.96 240.255 322.46 240.465 320.96C240.675 319.76 241.305 318.86 242.355 318.16C243.405 317.56 244.455 317.66 245.4 318.46C246.45 319.26 246.87 320.36 247.185 321.46ZM242.04 324.86C242.88 324.56 243.615 324.26 244.35 324.06C246.87 323.36 247.08 323.86 245.925 321.06C245.82 320.66 245.61 320.26 245.295 319.96C244.35 318.76 242.985 318.86 242.145 320.16C241.83 320.76 241.725 321.46 241.725 322.06C241.83 322.96 241.935 323.76 242.04 324.86Z" fill="#282727"/>
<path d="M194.895 339.46C195 339.76 195.105 339.96 195.21 340.16C195.735 341.56 195.525 341.96 193.95 342.26C193.005 342.46 192.165 342.76 191.325 343.16C191.22 343.16 191.22 343.26 191.115 343.26C189.33 344.16 188.595 343.76 188.28 341.86C188.175 340.96 188.07 340.06 188.07 339.26C188.28 337.86 188.91 336.66 190.275 336.06C191.325 335.56 192.165 335.76 192.9 336.46C193.845 337.36 194.475 338.36 194.895 339.46ZM189.96 342.26C190.905 341.96 191.745 341.76 192.48 341.46C192.795 341.36 193.005 341.26 193.32 341.16C193.845 340.96 193.95 340.66 193.74 340.26C193.425 339.46 193.11 338.66 192.69 337.96C191.64 336.46 190.695 336.56 189.75 338.16C189.645 338.36 189.54 338.66 189.54 338.86C189.435 340.06 189.54 341.16 189.96 342.26Z" fill="#282727"/>
<path d="M199.62 311.259C198.36 311.759 198.045 311.759 197.73 310.759C196.995 308.659 196.575 306.659 197.1 304.459C197.31 303.459 197.835 302.659 198.675 302.059C199.935 301.059 201.195 301.059 202.56 301.959C203.085 302.359 203.61 302.759 203.925 303.359C204.555 304.359 205.185 305.259 205.71 306.259C206.34 307.559 206.13 307.959 204.87 308.659C203.19 309.659 201.3 310.359 199.62 311.259ZM199.095 310.059C200.985 309.359 202.56 308.559 204.24 307.759C204.765 307.459 204.975 307.259 204.66 306.659C204.135 305.459 203.505 304.359 202.56 303.459C201.09 301.959 199.305 302.259 198.57 304.259C198.465 304.559 198.36 304.959 198.36 305.259C198.255 306.959 198.57 308.459 199.095 310.059Z" fill="#282727"/>
<path d="M187.755 315.759C187.23 314.559 187.02 313.26 186.915 312.06C186.81 310.96 186.915 309.96 187.44 308.96C188.595 306.76 191.01 306.159 193.11 307.759C193.74 308.259 194.16 308.759 194.58 309.359C195 310.059 195.525 310.659 195.945 311.359C196.575 312.259 196.47 312.959 195.525 313.659C194.685 314.359 193.74 314.759 192.795 315.259C191.745 315.759 190.8 316.259 189.75 316.859C188.595 317.559 188.28 317.459 187.86 316.159C187.86 316.059 187.755 315.859 187.755 315.759ZM194.685 311.859C194.055 310.659 193.32 309.459 192.165 308.659C190.695 307.659 189.225 308.059 188.595 309.659C188.385 310.059 188.28 310.56 188.28 311.06C188.175 312.46 188.595 313.759 189.015 315.159C189.12 315.659 189.33 315.76 189.855 315.46C191.325 314.76 192.795 314.059 194.265 313.259C194.895 312.859 195 312.459 194.685 311.859Z" fill="#282727"/>
<path d="M179.775 321.559C179.355 320.159 179.04 318.559 179.355 316.959C179.565 315.959 179.88 314.959 180.93 314.659C181.98 314.359 182.925 314.959 183.66 315.659C184.605 316.559 185.34 317.659 185.865 318.859C186.075 319.459 185.97 319.759 185.445 320.159C184.29 320.859 183.24 321.659 182.085 322.459C180.72 323.359 180.405 323.259 179.775 321.559ZM181.245 321.559C182.4 320.859 183.45 320.259 184.395 319.559C184.71 319.359 184.92 319.159 184.71 318.859C184.08 317.959 183.66 316.959 182.82 316.259C181.875 315.459 181.035 315.659 180.825 316.859C180.3 318.459 180.72 319.959 181.245 321.559Z" fill="#282727"/>
<path d="M183.66 299.76C183.45 298.96 183.135 298.26 183.03 297.46C182.715 295.86 183.45 294.66 184.605 293.66C185.235 293.06 186.075 293.06 186.915 293.36C187.65 293.56 188.28 294.06 188.7 294.56C189.855 295.76 190.8 297.06 191.64 298.46C191.955 298.86 192.165 299.36 191.64 299.66C189.96 300.76 188.49 302.26 186.705 303.26C185.865 303.66 185.76 303.66 185.34 302.96C184.605 301.96 183.975 300.96 183.66 299.76ZM186.18 302.26C187.755 301.56 188.805 300.46 189.96 299.56C190.275 299.36 190.275 299.06 190.065 298.76C189.225 297.66 188.595 296.46 187.65 295.46C187.335 295.06 186.915 294.86 186.495 294.66C185.97 294.46 185.55 294.56 185.13 294.86C184.29 295.46 183.975 296.56 184.185 297.46C184.71 299.06 185.445 300.66 186.18 302.26Z" fill="#282727"/>
<path d="M176.415 308.559C175.995 307.559 175.785 306.559 175.68 305.559C175.575 304.759 175.89 303.959 176.415 303.359C177.045 302.659 178.095 302.359 179.04 302.759C179.67 302.959 180.195 303.359 180.72 303.859C181.56 304.659 182.085 305.559 182.82 306.459C183.24 306.959 183.135 307.559 182.715 307.959C181.455 309.059 180.195 310.159 178.83 311.159C178.305 311.559 177.99 311.359 177.675 310.959C177.045 310.059 176.625 309.359 176.415 308.559ZM178.41 309.559C179.46 308.859 180.3 308.159 181.245 307.359C181.665 307.059 181.56 306.759 181.35 306.459C180.93 305.859 180.51 305.159 179.88 304.659C179.145 303.959 178.305 303.659 177.675 303.959C176.835 304.459 176.94 305.259 177.045 305.959C177.36 307.159 177.885 308.359 178.41 309.559Z" fill="#282727"/>
</svg>
