<svg width="294" height="290" viewBox="0 0 294 290" fill="none" xmlns="http://www.w3.org/2000/svg">
<path d="M118.187 151.64C114.895 148.554 110.743 146.478 105.814 146.316C106.233 147.676 106.295 149.147 106.588 150.732C109.503 151.327 111.936 152.256 114.221 153.974C115.417 153.421 116.739 152.643 118.187 151.64Z" fill="#7DBBFF"/>
<path d="M102.409 189.202C101.574 189.643 100.635 189.746 99.8006 190.187C98.0269 190.73 96.2531 191.274 94.4793 191.818C94.5834 192.156 94.4581 192.379 94.5623 192.717C94.8747 193.73 95.1871 194.744 95.4995 195.758C98.567 195.002 101.53 193.909 104.494 192.816C103.722 191.573 102.951 190.331 102.409 189.202Z" fill="#7DBBFF"/>
<path d="M74.9588 200.167C74.8819 199.665 74.805 199.162 74.8983 198.991C74.4042 197.323 74.1734 195.816 74.036 194.138C72.7026 194.009 70.6916 194.273 69.4514 193.973C69.6052 194.978 69.9078 195.865 70.1366 197.317C70.173 198.425 70.5088 199.962 70.8327 201.299C70.9865 202.304 71.4038 203.469 71.5576 204.474C72.0517 206.142 72.5459 207.81 73.04 209.478C74.4666 209.436 75.8933 209.394 77.3199 209.351C76.5018 206.347 75.6837 203.343 74.9588 200.167Z" fill="#7DBBFF"/>
<path d="M90.0827 194.628C89.9627 194.056 89.6477 193.651 89.5276 193.079C85.3435 193.969 81.3544 194.691 77.0877 194.639C76.5855 196.083 76.2782 197.36 75.6185 198.601C75.4236 198.769 75.4236 198.769 75.3861 199.138C80.7101 199.296 85.9515 198.512 91.0354 197.525C90.6378 196.178 90.3602 195.403 90.0827 194.628Z" fill="#7DBBFF"/>
<path d="M94.7353 225.889C91.9907 223.942 89.372 221.771 86.7532 219.599C84.9306 218.113 83.2338 216.402 81.537 214.691C80.4466 215.584 79.7126 216.367 78.6222 217.259C78.4964 217.484 78.4963 217.484 78.14 217.593C79.6063 219.189 81.0725 220.784 82.8952 222.271C85.6186 224.782 88.4678 227.069 91.4429 229.131C92.8897 228.129 93.7496 227.122 94.7353 225.889Z" fill="#7DBBFF"/>
<path d="M117.252 238.328C111.811 235.891 106.266 233.114 101.205 230.001C100.216 231.239 99.5855 232.367 98.3663 233.489C103.659 236.717 109.204 239.494 115.106 242.162C115.737 241.034 116.494 239.681 117.252 238.328Z" fill="#7DBBFF"/>
<path d="M139.501 245.849C137.404 245.376 135.078 244.788 132.981 244.315C130.193 243.497 127.405 242.678 124.743 241.634C123.988 242.983 123.358 244.106 122.603 245.454C128.053 247.316 133.629 248.954 139.1 250.251C139.038 248.782 139.332 247.203 139.501 245.849Z" fill="#7DBBFF"/>
<path d="M190.569 246.403C185.138 247.697 179.727 248.43 174.442 248.94C174.504 250.401 174.566 251.863 174.398 253.211C180.498 252.822 186.389 251.757 192.175 250.353C191.758 249 190.986 247.756 190.569 246.403Z" fill="#7DBBFF"/>
<path d="M212.95 238.753C208.654 241.178 204.026 243.151 199.064 244.671C198.71 244.78 198.481 244.666 198.356 244.889C198.772 246.239 199.313 247.366 199.958 248.83C205.045 247.087 210.257 245.12 214.907 242.586C214.261 241.122 213.72 239.995 212.95 238.753Z" fill="#7DBBFF"/>
<path d="M234.864 242.999C234.094 241.758 233.199 240.741 232.658 239.615C232.179 239.946 231.575 240.5 230.867 240.718C229.43 241.712 228.346 242.598 227.034 243.369C227.804 244.609 228.219 245.958 228.989 247.199C230.781 246.096 232.697 244.77 234.26 243.553C234.385 243.33 234.739 243.222 234.864 242.999Z" fill="#7DBBFF"/>
<path d="M166.312 248.867C160.095 248.918 153.775 248.629 147.246 247.662C147.077 249.013 146.909 250.363 146.846 252.053C153.145 252.905 159.57 253.532 166.142 253.373C166.435 251.798 166.373 250.332 166.312 248.867Z" fill="#7DBBFF"/>
<path d="M54.7318 197.885C58.689 198.714 62.4159 199.428 66.3943 199.693C65.9762 198.336 65.684 196.754 65.6219 195.288C61.9996 194.913 58.2727 194.2 54.9018 193.377C54.6078 194.952 54.6698 196.419 54.7318 197.885Z" fill="#7DBBFF"/>
<path d="M30.6533 189.433C32.0381 190.125 33.4228 190.818 34.9336 191.286C38.7524 192.909 42.9279 194.422 46.9988 195.594C46.9366 194.122 47.2313 192.541 47.4 191.185C42.406 189.55 37.7688 187.806 33.153 185.497C32.1659 186.732 31.4096 188.082 30.6533 189.433Z" fill="#7DBBFF"/>
<path d="M5.49241 174.603C8.80799 177.128 12.1236 179.652 15.7961 182.067C18.3143 183.904 20.7278 185.4 23.4981 186.786C24.2546 185.435 24.8851 184.309 25.8724 183.073C24.949 182.611 24.0255 182.149 22.9973 181.346C18.1704 178.354 13.4697 175.136 8.89497 171.693C7.80281 172.588 6.71065 173.483 5.49241 174.603Z" fill="#7DBBFF"/>
<path d="M-21.4159 108.328C-19.3019 111.395 -17.062 114.238 -14.8222 117.081C-11.8912 120.27 -8.83445 123.234 -5.77768 126.198C-4.6879 125.306 -3.47231 124.19 -2.15216 123.413C-8.05659 118.164 -13.1228 112.473 -17.4768 106.562C-18.9015 106.999 -20.2216 107.776 -21.4159 108.328Z" fill="#7DBBFF"/>
<path d="M113.021 188.744C117.074 186.212 120.794 183.229 123.165 179.002C122.126 178.768 121.441 178.425 120.402 178.191C119.82 178.185 119.363 177.957 118.907 177.729C117.805 179.172 116.703 180.615 115.373 181.944C113.564 183.604 111.652 184.927 109.637 185.914C109.74 186.251 110.197 186.479 110.301 186.815C110.965 187.717 111.401 188.504 111.712 189.514C112.19 189.184 112.668 188.853 113.021 188.744Z" fill="#7DBBFF"/>
<path d="M119.893 161.611C121.183 164.541 121.765 167.688 121.305 170.6C122.347 170.835 123.16 170.955 124.203 171.19C124.661 171.419 125.245 171.424 125.703 171.653C126.477 166.613 125.479 162.116 122.959 157.715C121.645 158.487 120.332 159.26 119.372 159.923C119.58 160.598 119.559 161.159 119.893 161.611Z" fill="#7DBBFF"/>
<path d="M82.7495 152.589C83.5199 153.831 84.1863 154.735 84.9567 155.976C84.9567 155.976 84.9567 155.976 85.0607 156.313C88.7928 153.323 93.066 151.459 98.2348 150.613C98.048 149.378 97.7571 147.805 97.341 146.455C91.8178 147.409 86.9611 149.267 82.7495 152.589Z" fill="#7DBBFF"/>
<path d="M74.71 161.375C72.9899 163.925 71.7253 166.703 70.6883 169.596C72.0546 170.279 73.3175 170.626 74.6838 171.31C75.0569 170.644 75.0779 170.086 75.451 169.42C76.2182 167.53 77.2131 165.754 78.5811 163.311C78.7055 163.089 78.9542 162.645 79.3063 162.537C78.7686 161.416 78.3341 160.63 77.7964 159.508C77.693 159.172 77.362 158.722 77.2586 158.386C76.1814 159.269 75.3318 160.265 74.71 161.375Z" fill="#7DBBFF"/>
<path d="M68.4689 186.861C69.865 186.987 71.3863 186.89 72.9075 186.793C72.659 184.099 72.9939 181.411 73.3288 178.723C71.9538 178.037 70.4537 177.573 68.9536 177.11C68.6187 179.798 68.5129 182.6 68.4072 185.403C68.5112 185.74 68.4901 186.301 68.4689 186.861Z" fill="#7DBBFF"/>
<path d="M292.49 241.384C290.81 241.084 289.025 241.184 287.345 240.984C286.4 240.884 286.4 240.884 286.4 240.084C286.295 238.184 286.4 236.184 286.19 234.284C285.98 233.084 285.875 232.984 284.615 232.784C282.2 232.484 279.89 232.084 277.475 231.884C276.215 231.784 275.48 231.284 275.165 230.284C275.06 229.984 274.955 229.784 274.85 229.484C274.115 227.984 273.59 226.284 272.75 224.784C272.435 224.284 272.12 223.884 271.49 223.884C268.13 223.784 264.77 223.484 261.41 223.484C258.26 223.484 255.11 223.384 251.96 223.384C250.805 223.384 250.805 223.384 250.385 222.284C249.755 220.584 249.125 218.984 248.285 217.384C247.97 216.884 247.655 216.584 247.13 216.484C244.82 215.984 242.405 215.684 239.99 215.784C238.31 215.884 237.995 216.184 237.89 217.784C237.68 219.084 237.68 220.484 237.47 221.784C237.365 222.784 237.365 222.784 236.315 222.784C234.32 222.784 232.22 222.884 230.225 222.784C229.28 222.684 228.755 223.084 228.755 223.984C228.755 225.884 228.335 227.784 228.44 229.684C228.44 230.184 228.44 230.484 227.81 230.484C227.18 230.484 226.445 230.484 225.815 230.584C224.135 230.684 222.35 230.784 220.67 230.984C219.725 231.084 219.41 231.384 219.2 232.384C219.095 232.684 219.095 233.084 219.095 233.384C219.095 234.484 219.095 235.484 219.095 236.584C219.095 237.784 219.095 237.784 217.94 237.884C217.73 237.884 217.52 237.884 217.31 237.884C215.84 237.884 214.37 237.884 212.9 237.984C211.535 237.984 211.22 238.484 211.325 239.784C211.43 240.584 211.535 241.284 211.64 242.084C211.85 243.684 212.165 245.184 212.9 246.584C214.16 248.984 216.155 250.484 218.675 251.684C220.985 252.784 223.505 253.184 226.13 253.484C234.635 254.384 243.14 254.784 251.75 255.084C258.995 255.284 266.135 255.484 273.38 255.384C276.635 255.284 279.89 255.284 283.145 254.584C285.35 254.084 287.24 253.084 288.92 251.584C291.44 249.384 292.91 246.584 293.96 243.484C294.065 242.084 293.75 241.584 292.49 241.384Z" fill="#D5F8B2"/>
<path d="M205.13 247.083C205.025 246.283 204.815 245.583 204.815 244.783C204.71 243.483 205.13 243.083 206.39 242.983C207.86 242.983 209.33 242.983 210.8 242.883C211.01 242.883 211.22 242.883 211.43 242.883C212.585 242.783 212.69 242.783 212.585 241.583C212.585 240.483 212.585 239.483 212.585 238.383C212.585 238.083 212.585 237.683 212.69 237.383C212.9 236.483 213.215 236.083 214.16 235.983C215.84 235.783 217.625 235.683 219.305 235.583C219.935 235.583 220.67 235.483 221.3 235.483C221.93 235.483 222.035 235.183 221.93 234.683C221.825 232.783 222.245 230.883 222.245 228.983C222.245 228.083 222.77 227.683 223.715 227.783C225.71 227.883 227.81 227.783 229.805 227.783C230.855 227.783 230.855 227.783 230.96 226.783C231.065 225.483 231.17 224.083 231.38 222.783C231.59 221.183 231.8 220.883 233.48 220.783C235.895 220.683 238.205 220.883 240.62 221.483C241.145 221.583 241.565 221.983 241.775 222.383C242.615 223.983 243.245 225.683 243.875 227.283C244.295 228.283 244.295 228.283 245.45 228.383C248.6 228.483 251.75 228.483 254.9 228.483C258.26 228.483 261.62 228.783 264.98 228.883C265.715 228.883 266.03 229.283 266.24 229.783C267.08 231.283 267.605 232.883 268.34 234.483C268.445 234.783 268.655 234.983 268.655 235.283C269.075 236.383 269.81 236.783 270.965 236.883C273.38 237.083 275.69 237.483 278.105 237.783C279.365 237.983 279.47 238.083 279.68 239.283C279.995 241.183 279.89 243.183 279.89 245.083C279.89 245.883 279.89 245.883 280.835 245.983C282.515 246.083 284.3 246.083 285.98 246.383C287.24 246.583 287.66 246.983 287.24 248.183C286.19 251.283 284.825 254.083 282.2 256.283C280.52 257.783 278.63 258.783 276.425 259.283C273.17 259.983 269.915 260.083 266.66 260.083C259.415 260.183 252.275 260.083 245.03 259.783C236.525 259.483 227.915 259.083 219.41 258.183C216.89 257.883 214.37 257.483 211.955 256.383C209.54 255.283 207.44 253.683 206.18 251.283C205.655 250.183 205.34 248.583 205.13 247.083ZM285.455 248.283C283.67 247.983 282.095 247.683 280.415 247.583C277.37 247.383 274.43 247.183 271.385 246.983C263.825 246.583 256.265 246.183 248.705 245.983C237.68 245.583 226.655 244.783 215.63 244.783C213.005 244.783 210.275 244.683 207.65 244.683C206.6 244.683 206.495 244.783 206.705 245.783C206.81 246.583 206.915 247.383 207.125 248.183C207.755 250.883 209.12 252.983 211.64 254.483C213.95 255.783 216.365 256.483 218.885 256.783C226.445 257.583 234.11 257.983 241.67 258.283C249.335 258.683 257.105 258.883 264.77 258.783C268.025 258.783 271.28 258.683 274.43 258.183C275.9 257.983 277.37 257.683 278.735 256.883C282.2 254.883 284.3 251.983 285.455 248.283ZM278.21 245.983C278.315 244.083 278.21 242.083 278.105 240.183C278.105 239.483 277.58 239.383 277.055 239.283C274.745 238.983 272.435 238.683 270.23 238.483C268.865 238.383 268.025 237.783 267.605 236.583C266.87 234.783 265.925 232.983 265.085 231.083C264.875 230.583 264.56 230.283 263.93 230.283C262.67 230.283 261.41 230.183 260.045 230.083C255.005 229.883 250.07 229.783 245.03 229.583C239.465 229.383 233.9 229.083 228.335 229.083C227.18 229.083 226.025 229.183 224.87 229.183C224.45 229.183 224.24 229.383 224.24 229.783C224.03 231.583 223.715 233.483 223.505 235.283C223.4 236.483 223.295 236.683 222.14 236.883C221.72 236.983 221.3 236.983 220.775 236.983C218.99 237.083 217.205 237.283 215.315 237.383C214.685 237.383 214.37 237.683 214.37 238.283C214.265 239.383 214.16 240.583 214.265 241.683C214.265 242.583 214.265 242.583 215.21 242.583C218.045 242.583 220.775 242.583 223.61 242.683C231.59 242.883 239.57 243.283 247.55 243.683C257.21 244.183 266.975 244.583 276.635 245.583C276.95 246.083 277.58 246.183 278.21 245.983ZM242.51 228.483C241.775 226.883 241.46 225.483 240.935 223.983C240.725 223.483 240.62 223.083 239.99 222.983C237.89 222.683 235.895 222.583 233.795 222.583C233.375 222.583 233.165 222.783 233.06 223.183C232.85 224.583 232.64 225.983 232.64 227.483C232.64 227.883 232.745 228.083 233.27 228.083C236.315 228.283 239.255 228.383 242.51 228.483Z" fill="#282727"/>
<path d="M242.301 250.783C242.091 249.183 243.456 247.483 245.031 247.283C246.921 247.083 248.811 248.383 249.021 250.083C249.231 251.683 247.866 253.283 246.081 253.583C244.191 253.783 242.616 252.583 242.301 250.783ZM247.656 249.883C247.446 248.983 246.501 248.383 245.241 248.683C244.086 248.883 243.666 249.583 243.876 250.683C244.086 251.683 244.821 252.183 245.976 251.983C247.026 251.783 247.866 250.783 247.656 249.883Z" fill="#282727"/>
<path d="M234.005 252.884C232.22 253.184 230.75 252.284 230.435 250.784C230.12 249.084 231.275 247.184 232.85 246.884C234.53 246.584 236.525 247.984 236.84 249.584C237.155 251.184 235.895 252.584 234.005 252.884ZM233.69 251.584C234.53 251.584 235.475 250.584 235.475 249.784C235.475 249.084 234.215 248.184 233.375 248.184C232.64 248.184 232.01 249.184 232.01 250.284C232.115 251.184 232.745 251.684 233.69 251.584Z" fill="#282727"/>
<path d="M217.1 249.983C216.68 248.483 218.255 246.783 219.725 246.583C221.405 246.383 223.295 247.483 223.505 248.983C223.82 250.683 222.56 252.283 220.565 252.583C218.885 252.883 217.31 251.783 217.1 249.983ZM218.57 249.983C218.78 250.883 219.62 251.483 220.46 251.383C221.51 251.183 222.245 250.183 222.035 249.283C221.93 248.483 220.985 247.983 219.935 248.183C219.095 248.283 218.36 249.083 218.57 249.983Z" fill="#282727"/>
<path d="M258.051 253.683C256.371 253.883 255.111 252.983 255.006 251.583C254.796 250.083 256.161 247.883 257.841 247.783C259.416 247.683 261.096 248.883 261.306 250.383C261.411 251.883 259.941 253.483 258.051 253.683ZM258.156 252.183C259.206 252.083 259.941 251.283 259.941 250.483C259.941 249.883 258.786 249.083 258.156 249.083C257.316 249.183 256.581 250.283 256.686 251.283C256.686 251.983 257.211 252.283 258.156 252.183Z" fill="#282727"/>
<path d="M272.75 250.484C272.96 251.884 271.7 253.384 270.125 253.584C268.445 253.884 266.975 252.784 266.765 251.284C266.555 249.984 267.71 248.584 269.18 248.384C270.755 248.184 272.54 249.184 272.75 250.484ZM270.02 252.384C270.86 252.284 271.595 251.384 271.49 250.684C271.385 250.084 270.44 249.584 269.6 249.684C268.865 249.784 268.13 250.684 268.235 251.284C268.34 251.984 269.18 252.484 270.02 252.384Z" fill="#282727"/>
<path d="M260.99 237.283C259.73 237.283 258.47 237.283 257.21 237.083C256.58 236.983 256.16 236.583 256.16 235.983C256.055 234.683 256.16 233.483 256.475 232.283C256.58 231.683 257.105 231.483 257.735 231.483C259.1 231.483 260.465 231.683 261.83 231.983C262.46 232.083 262.775 232.483 262.775 232.983C262.88 234.083 262.775 235.183 262.565 236.183C262.25 237.083 261.725 237.283 260.99 237.283ZM260.675 236.283C260.885 236.283 260.99 236.083 261.095 235.883C261.2 235.483 261.305 235.183 261.305 234.783C261.515 233.183 261.515 233.183 259.835 233.083C259.1 233.083 258.155 232.583 257.735 233.083C257.315 233.583 257.42 234.483 257.315 235.283C257.315 235.383 257.315 235.483 257.315 235.583C257.315 235.783 257.42 235.983 257.63 235.983C258.785 236.083 259.73 236.183 260.675 236.283Z" fill="#282727"/>
<path d="M248.075 242.583C247.97 241.283 248.18 240.083 248.39 238.983C248.495 238.483 248.81 238.183 249.23 238.183C250.805 237.983 252.275 238.383 253.745 238.783C254.27 238.883 254.375 239.383 254.375 239.783C254.375 240.683 254.375 241.583 254.165 242.383C254.06 243.283 253.535 243.683 252.485 243.683C251.435 243.683 250.28 243.583 249.23 243.483C248.285 243.483 248.075 243.183 248.075 242.583ZM253.115 240.483C253.115 239.983 252.905 239.783 252.59 239.783C252.38 239.783 252.065 239.683 251.855 239.683C249.23 239.483 249.65 239.083 249.335 241.783C249.335 242.183 249.44 242.383 249.86 242.483C250.7 242.583 251.435 242.583 252.275 242.683C252.59 242.683 252.8 242.583 252.905 242.283C252.905 241.583 253.01 240.983 253.115 240.483Z" fill="#282727"/>
<path d="M258.05 242.683C257.945 241.583 258.155 240.583 258.365 239.483C258.47 238.983 258.89 238.783 259.31 238.883C260.465 238.983 261.725 238.983 262.88 239.183C263.72 239.283 264.14 239.683 264.035 240.583C264.035 241.483 263.825 242.383 263.72 243.383C263.615 243.983 263.3 244.283 262.67 244.283C261.515 244.283 260.465 244.283 259.31 244.183C258.47 243.883 258.155 243.483 258.05 242.683ZM261.935 242.883C262.145 242.883 262.355 242.883 262.46 242.583C262.565 241.883 262.88 241.183 262.67 240.583C262.565 240.183 261.83 240.383 261.305 240.283C261.095 240.283 260.78 240.183 260.465 240.183C259.52 240.083 259.52 240.183 259.415 240.983C259.205 242.583 259.205 242.683 260.99 242.783C261.305 242.983 261.62 242.883 261.935 242.883Z" fill="#282727"/>
<path d="M244.611 239.283C244.821 240.483 244.716 241.283 244.506 242.183C244.401 242.683 243.981 243.083 243.351 243.083C242.091 243.183 240.831 243.283 239.571 242.983C238.626 242.783 238.311 242.483 238.311 241.583C238.311 240.783 238.416 239.883 238.626 239.083C238.836 238.083 239.256 237.783 240.306 237.883C241.251 237.883 242.196 237.983 243.036 238.083C244.401 238.283 244.506 238.383 244.611 239.283ZM242.301 242.183C242.616 242.083 243.036 242.283 243.141 241.883C243.351 241.183 243.561 240.383 243.246 239.683C243.036 239.183 242.301 239.483 241.776 239.383C241.461 239.383 241.146 239.383 240.831 239.283C240.201 239.183 239.781 239.383 239.781 240.183C239.571 242.083 239.466 242.083 241.566 242.183C241.776 242.183 242.091 242.183 242.301 242.183Z" fill="#282727"/>
<path d="M232.851 232.283C232.851 232.983 232.746 233.783 232.641 234.683C232.536 235.683 232.011 236.083 230.961 236.083C230.016 236.083 229.071 236.083 228.021 235.983C227.181 235.883 226.971 235.583 226.971 234.783C226.971 233.983 226.971 233.083 226.971 232.283C226.971 231.383 227.601 230.883 228.441 230.783C229.491 230.783 230.436 230.783 231.486 230.783C232.431 230.883 232.746 231.183 232.851 232.283ZM230.646 235.083C231.066 235.183 231.276 234.983 231.381 234.583C231.486 233.983 231.486 233.383 231.591 232.783C231.591 232.383 231.381 232.283 231.066 232.283C230.331 232.283 229.701 232.283 228.966 232.283C228.336 232.283 228.231 232.683 228.231 233.183C228.231 233.783 227.706 234.483 228.441 235.083C228.546 235.183 228.756 235.083 228.966 235.183C229.491 235.083 230.121 235.083 230.646 235.083Z" fill="#282727"/>
<path d="M241.25 236.484C239.99 236.484 239.045 236.584 238.1 236.384C237.155 236.184 236.84 235.884 236.84 234.984C236.84 234.184 236.84 233.284 237.05 232.484C237.26 231.584 237.785 231.084 238.625 231.184C239.57 231.184 240.62 231.284 241.565 231.484C242.615 231.684 242.825 231.884 242.72 232.984C242.615 233.784 242.615 234.684 242.3 235.484C242.195 236.084 241.67 236.484 241.25 236.484ZM241.565 232.984C240.935 232.784 239.36 232.584 238.94 232.684C238.73 232.684 238.415 232.684 238.415 232.984C238.31 233.684 237.995 234.584 238.31 235.184C238.625 235.784 239.57 235.384 240.2 235.484C240.83 235.584 241.25 235.284 241.355 234.684C241.355 234.084 241.46 233.584 241.565 232.984Z" fill="#282727"/>
<path d="M250.281 236.883C249.546 236.883 248.601 236.883 247.551 236.783C246.501 236.683 246.081 236.183 246.186 235.183C246.291 234.383 246.396 233.483 246.501 232.683C246.606 231.983 247.026 231.683 247.656 231.783C248.916 231.883 250.071 231.983 251.331 232.183C251.961 232.283 252.276 232.683 252.276 233.283C252.276 234.083 252.171 234.883 252.171 235.683C251.856 236.483 251.541 236.683 250.281 236.883ZM249.861 235.883C250.281 235.883 250.491 235.783 250.596 235.283C251.121 233.383 251.016 233.283 249.021 233.083C248.706 233.083 248.286 233.083 247.971 232.983C247.656 232.883 247.551 233.083 247.446 233.383C246.816 235.183 247.236 235.683 249.231 235.783C249.441 235.783 249.651 235.883 249.861 235.883Z" fill="#282727"/>
<path d="M272.12 244.683C271.175 244.683 270.23 244.683 269.39 244.583C268.34 244.483 268.025 244.183 268.13 243.183C268.235 242.383 268.235 241.683 268.445 240.883C268.655 239.783 269.18 239.483 270.335 239.583C271.07 239.683 271.7 239.683 272.435 239.783C273.485 239.983 273.8 240.383 273.695 241.283C273.59 242.083 273.485 242.783 273.38 243.583C273.17 244.383 272.75 244.683 272.12 244.683ZM271.385 243.583C271.805 243.683 272.015 243.483 272.12 243.083C272.435 240.983 272.75 241.283 270.755 241.183C270.545 241.183 270.44 241.183 270.23 241.183C270.02 241.183 269.915 241.283 269.81 241.583C269.075 243.283 269.285 243.583 271.175 243.683C271.175 243.583 271.28 243.583 271.385 243.583Z" fill="#282727"/>
<path d="M228.125 241.283C228.125 240.383 228.02 239.383 228.545 238.383C228.755 237.983 228.965 237.683 229.49 237.683C230.96 237.583 232.325 237.783 233.69 238.083C234.32 238.183 234.53 238.683 234.53 239.183C234.53 239.983 234.425 240.883 234.215 241.683C234.11 242.183 233.69 242.483 233.165 242.483C231.905 242.483 230.645 242.583 229.385 242.583C228.545 242.583 228.23 242.183 228.125 241.283ZM232.43 241.683C232.745 241.583 233.165 241.683 233.165 241.283C233.27 240.683 233.585 239.983 233.27 239.383C233.06 238.883 232.325 239.083 231.8 238.983C231.695 238.983 231.59 238.983 231.38 238.883C229.07 238.683 229.385 238.483 229.175 240.783C229.07 241.383 229.28 241.583 229.805 241.583C230.855 241.683 231.695 241.683 232.43 241.683Z" fill="#282727"/>
<path d="M223.61 242.183C222.56 242.183 221.405 242.283 220.355 242.183C219.41 242.083 219.2 241.883 219.2 240.983C219.2 240.283 219.2 239.583 219.41 238.983C219.725 238.083 220.04 237.983 220.985 237.983C221.825 238.083 222.665 238.083 223.505 238.083C224.765 238.083 224.975 238.383 225.08 239.583C225.08 240.083 225.08 240.583 224.975 241.083C224.765 241.883 224.45 242.083 223.61 242.183ZM221.195 239.283C220.88 239.283 220.565 239.283 220.46 239.483C220.25 239.883 220.145 240.383 220.25 240.783C220.355 241.283 220.775 241.083 221.09 241.083C221.72 241.183 222.35 241.283 223.085 241.283C223.715 241.283 223.82 240.983 223.925 240.083C223.925 239.583 223.82 239.283 223.19 239.283C222.455 239.283 221.825 239.083 221.195 239.283Z" fill="#282727"/>
</svg>
