<svg width="109" height="54" viewBox="0 0 109 54" fill="none" xmlns="http://www.w3.org/2000/svg">
<path d="M86.3059 19.0541C85.5709 18.7541 84.8359 18.6541 84.1009 18.4541C83.4709 18.2541 82.7359 18.5541 82.3159 18.0541C81.8959 17.4541 82.5259 16.8541 82.7359 16.3541C83.3659 14.0541 82.9459 13.3541 80.6359 12.5541C78.0109 11.5541 75.2809 10.9541 72.6559 10.3541C66.8809 9.0541 61.3159 6.8541 55.3309 5.8541C53.5459 5.5541 51.9709 4.8541 50.2909 4.4541C46.8259 3.4541 43.2559 2.5541 39.7909 1.8541C37.9009 1.4541 36.0109 0.954102 34.0159 0.954102C31.3909 0.954102 29.1859 2.0541 29.2909 5.3541C29.2909 5.4541 29.2909 5.55408 29.2909 5.55408C29.5009 6.25408 29.2909 6.7541 28.4509 6.9541C27.9259 7.0541 27.6109 7.55408 27.2959 8.05408C26.5609 9.05408 26.1409 10.2541 25.7209 11.3541C24.4609 14.6541 23.5159 18.1541 22.3609 21.4541C21.8359 23.1541 21.2059 24.7541 20.9959 26.4541C20.7859 27.8541 21.3109 28.8541 22.6759 29.4541C23.5159 29.8541 24.4609 30.2541 25.4059 30.5541C26.4559 30.9541 27.5059 30.7541 28.4509 30.2541C29.6059 29.5541 30.3409 28.6541 30.8659 27.6541C33.5959 22.6541 35.8009 17.5541 37.7959 12.2541C38.0059 11.7541 37.7959 11.0541 38.3209 10.8541C38.8459 10.6541 39.4759 10.9541 40.0009 11.1541C40.2109 11.2541 40.3159 11.2541 40.4209 11.4541C39.8959 12.3541 39.3709 13.3541 38.9509 14.4541C37.9009 17.1541 36.9559 19.9541 35.8009 22.6541C34.9609 24.5541 34.2259 26.4541 33.7009 28.3541C33.1759 30.3541 33.7009 31.7541 35.3809 32.8541C36.3259 33.4541 37.2709 33.6541 38.3209 33.9541C40.1059 34.3541 41.5759 33.9541 42.8359 32.7541C43.8859 31.7541 44.6209 30.5541 45.2509 29.2541C46.6159 26.5541 47.5609 23.6541 48.6109 20.8541C49.4509 18.6541 50.5009 16.4541 50.5009 14.0541C50.5009 13.5541 50.8159 13.6541 51.1309 13.6541C52.9159 13.9541 54.5959 14.3541 56.3809 14.8541C55.8559 15.9541 55.4359 16.8541 55.1209 17.9541C53.8609 21.6541 53.0209 25.5541 51.9709 29.3541C51.5509 30.7541 51.1309 32.2541 51.1309 33.6541C51.0259 35.4541 51.6559 36.3541 53.5459 36.9541C55.5409 37.6541 57.5359 37.9541 59.6359 38.1541C60.7909 38.2541 61.8409 37.8541 62.4709 36.8541C63.1009 36.0541 63.5209 35.1541 63.8359 34.2541C64.6759 32.1541 65.3059 29.9541 65.8309 27.8541C66.6709 24.6541 67.8259 21.5541 68.2459 18.2541C68.3509 17.3541 68.4559 17.2541 69.4009 17.4541C71.6059 17.9541 73.7059 18.3541 75.9109 18.6541C76.3309 18.7541 76.7509 18.8541 77.2759 19.0541C76.8559 19.8541 76.4359 20.6541 76.1209 21.4541C74.1259 26.6541 72.4459 31.9541 71.0809 37.3541C70.5559 39.7541 71.2909 41.1541 73.7059 41.8541C75.0709 42.2541 76.4359 42.6541 77.8009 43.0541C80.0059 43.5541 81.4759 43.0541 82.7359 41.2541C83.5759 40.1541 84.1009 38.8541 84.5209 37.5541C85.8859 33.1541 87.1459 28.7541 87.9859 24.3541C88.0909 23.6541 88.1959 22.9541 88.1959 22.2541C88.5109 20.6541 87.7759 19.5541 86.3059 19.0541Z" fill="#77DBE0"/>
<path d="M106.466 25.1542C106.361 25.1542 106.361 25.0542 106.256 25.0542C104.051 24.1542 101.846 23.3542 99.431 23.1542C98.171 23.0542 97.121 23.5542 96.281 24.4542C95.546 25.2542 95.126 26.1542 94.811 27.1542C93.446 30.8542 92.186 34.5542 90.926 38.3542C90.296 40.3542 89.561 42.2542 89.246 44.3542C89.036 45.7542 89.456 46.4542 90.926 47.0542C91.661 47.3542 92.396 47.5542 93.236 47.7542C95.336 48.2542 97.331 49.1542 99.536 49.0542C101.111 49.0542 102.371 48.4542 103.211 47.1542C103.946 46.1542 104.366 44.9542 104.681 43.7542C105.626 40.5542 106.676 37.3542 107.621 34.1542C108.146 32.5542 108.566 30.8542 108.776 29.2542C109.091 27.1542 108.461 26.3542 106.466 25.1542Z" fill="#77DBE0"/>
<path d="M22.5705 7.25417C22.7805 5.75417 22.0455 4.75416 20.6805 4.05416C20.0505 3.75416 19.3155 3.55417 18.5805 3.35417C16.3755 2.85417 15.4305 3.15418 14.1705 4.95418C13.9605 5.25418 13.8555 5.55417 13.6455 5.85417C12.0705 8.95417 10.9155 12.1542 9.86548 15.4542C9.23548 17.4542 8.50048 19.4542 8.29048 21.5542C7.97548 23.4542 8.50048 24.3542 10.3905 25.1542C11.4405 25.6542 12.7005 25.8542 13.8555 26.1542C15.4305 26.5542 16.7955 26.0542 17.6355 24.7542C18.1605 23.9542 18.4755 23.0542 18.7905 22.0542C19.4205 19.7542 20.0505 17.3542 20.6805 15.0542C21.3105 12.7542 22.1505 10.4542 22.5705 7.75417C22.4655 7.85417 22.4655 7.55417 22.5705 7.25417Z" fill="#77DBE0"/>
<path d="M70.2407 23.4544C69.7157 23.2544 69.2957 23.0543 68.8757 23.0543C66.6707 22.7543 64.4657 22.3544 62.3657 21.8544C61.4207 21.6544 61.2107 21.6543 61.2107 22.6543C60.8957 25.9543 59.7407 29.0543 58.7957 32.2544C58.1657 34.4544 57.5357 36.5543 56.8007 38.6543C56.4857 39.5543 55.9607 40.4544 55.4357 41.2544C54.7007 42.1544 53.7557 42.6543 52.6007 42.5543C50.5007 42.3543 48.5057 42.0544 46.5107 41.3544C44.7257 40.7544 44.0957 39.8543 44.0957 38.0543C44.0957 36.5543 44.6207 35.1544 44.9357 33.7544C45.9857 29.9544 46.8257 26.1544 48.0857 22.3544C48.4007 21.3544 48.8207 20.3544 49.3457 19.2544C47.5607 18.8544 45.8807 18.3543 44.0957 18.0543C43.7807 18.0543 43.4657 17.9544 43.4657 18.4544C43.3607 20.8544 42.3107 23.0543 41.5757 25.2544C40.5257 28.0543 39.5807 30.9543 38.2157 33.6543C37.5857 34.9543 36.9557 36.1543 35.8007 37.1543C34.5407 38.3543 33.0707 38.7544 31.2857 38.3544C30.2357 38.0544 29.1857 37.8544 28.3457 37.2544C26.6657 36.1544 26.0357 34.7544 26.6657 32.7544C27.1907 30.7544 27.9257 28.8543 28.7657 27.0543C29.9207 24.3543 30.8657 21.5544 31.9157 18.8544C32.3357 17.8544 32.8607 16.8544 33.3857 15.8544C33.2807 15.6544 33.0707 15.6543 32.9657 15.5543C32.4407 15.3543 31.8107 15.0544 31.2857 15.2544C30.7607 15.4544 30.9707 16.1543 30.7607 16.6543C28.7657 21.9543 26.5607 27.0543 23.8307 32.0543C23.3057 33.1543 22.4657 34.0543 21.4157 34.6543C20.4707 35.2543 19.4207 35.3544 18.3707 34.9544C17.4257 34.6544 16.5857 34.2544 15.6407 33.8544C14.2757 33.2544 13.7507 32.2544 13.9607 30.8544C14.1707 29.1544 14.8007 27.4544 15.3257 25.8544C16.4807 22.4544 17.4257 19.0544 18.6857 15.7544C19.1057 14.5544 19.5257 13.4544 20.2607 12.4544C20.5757 12.0544 20.8907 11.5544 21.4157 11.3544C22.2557 11.1544 22.3607 10.6544 22.2557 9.95436C22.2557 9.85436 22.2557 9.75435 22.2557 9.75435C22.0457 6.45435 24.3557 5.25436 26.9807 5.35436C28.9757 5.35436 30.8657 5.85435 32.7557 6.25435C36.3257 7.05435 39.7907 7.85436 43.2557 8.85436C44.9357 9.35436 46.6157 10.0544 48.2957 10.2544C54.1757 11.2544 59.7407 13.3544 65.6207 14.7544C68.3507 15.3544 71.0807 15.9544 73.6007 16.9544C75.9107 17.8544 76.3307 18.5544 75.7007 20.7544C75.4907 21.3544 74.8607 21.9544 75.2807 22.4544C75.5957 22.9544 76.4357 22.7544 77.0657 22.8544C77.8007 23.0544 78.5357 23.2544 79.2707 23.4544C80.7407 23.9544 81.4757 25.0543 81.5807 26.5543C81.5807 27.2543 81.5807 27.9543 81.3707 28.6543C80.5307 33.1543 79.2707 37.5544 77.9057 41.8544C77.4857 43.1544 76.9607 44.3543 76.1207 45.5543C74.8607 47.3543 73.2857 47.8544 71.1857 47.3544C69.8207 47.0544 68.4557 46.6543 67.0907 46.1543C64.6757 45.3543 63.9407 43.9543 64.4657 41.6543C65.8307 36.2543 67.5107 30.9543 69.5057 25.7544C69.4007 25.0543 69.8207 24.2544 70.2407 23.4544ZM28.8707 6.85436C28.0307 6.75436 27.2957 6.65435 26.4557 6.65435C25.0907 6.65435 24.2507 7.25436 23.9357 8.45436C23.6207 9.65436 23.9357 10.4543 25.1957 11.0543C26.4557 11.6543 27.7157 12.1543 29.0807 12.6543C31.6007 13.4543 34.2257 14.0543 36.7457 14.6543C40.2107 15.4543 43.5707 16.2544 47.1407 16.8544C49.0307 17.1544 50.9207 17.5544 52.8107 17.9544C55.0157 18.3544 57.1157 18.8544 59.3207 19.2544C61.4207 19.6544 63.4157 20.1543 65.5157 20.5543C67.4057 20.9543 69.2957 21.4543 71.2907 21.5543C72.4457 21.6543 72.5507 21.5543 72.9707 20.5543C73.7057 18.7543 73.7057 18.7543 71.7107 18.0543C65.5157 15.9543 59.2157 14.3543 52.9157 12.5543C51.0257 11.9543 49.0307 11.7544 47.1407 11.2544C43.8857 10.4544 40.7357 9.35434 37.4807 8.65435C34.6457 8.15435 31.8107 7.25436 28.8707 6.85436ZM45.9857 36.4544C45.9857 36.8544 45.8807 37.2543 45.8807 37.5543C45.7757 38.8543 45.8807 39.1543 47.0357 39.6543C48.6107 40.3543 50.3957 40.7543 52.0757 41.0543C53.0207 41.2543 53.7557 40.8543 54.2807 40.0543C54.8057 39.1543 55.2257 38.1543 55.5407 37.1543C56.2757 34.5543 57.1157 31.8544 57.8507 29.2544C58.4807 27.1544 59.0057 25.1543 59.6357 23.0543C59.9507 21.8543 59.7407 21.4543 58.4807 21.1543C56.2757 20.7543 54.1757 20.2544 51.9707 19.7544C51.2357 19.5544 50.9207 19.7544 50.6057 20.3544C50.3957 20.9544 50.0807 21.4544 49.8707 21.9544C48.9257 24.5544 48.2957 27.2544 47.5607 29.8544C46.9307 32.0544 46.3007 34.1544 45.9857 36.4544ZM79.2707 28.2544C79.2707 27.9544 79.2707 27.6544 79.2707 27.3544C79.4807 25.6544 79.1657 25.1543 77.3807 24.6543C76.3307 24.3543 75.1757 24.0544 74.0207 23.8544C72.3407 23.5544 71.7107 23.8544 70.9757 25.3544C70.8707 25.5544 70.7657 25.8543 70.6607 26.0543C69.1907 29.8543 68.1407 33.6543 66.9857 37.5543C66.4607 39.2543 65.8307 40.8543 65.7257 42.5543C65.6207 43.6543 65.6207 43.7543 66.7757 44.1543C68.1407 44.7543 69.6107 45.2543 71.1857 45.6543C72.5507 46.0543 73.0757 45.8544 73.9157 44.8544C74.6507 43.9544 75.1757 42.7544 75.5957 41.7544C76.5407 39.4544 77.1707 37.0543 77.6957 34.7544C78.3257 32.6544 78.8507 30.4544 79.2707 28.2544ZM41.5757 19.6543C41.6807 18.5543 41.6807 18.3544 40.7357 17.9544C39.2657 17.3544 37.6907 17.1544 36.1157 16.7544C34.7507 16.4544 34.7507 16.3543 34.2257 17.6543C34.1207 17.8543 34.0157 18.1544 34.0157 18.3544C32.8607 22.2544 31.4957 25.9543 29.8157 29.6543C29.3957 30.6543 29.0807 31.6543 28.6607 32.6543C28.1357 34.3543 28.4507 35.0544 30.1307 35.8544C30.6557 36.0544 31.0757 36.2544 31.6007 36.4544C33.2807 37.0544 33.9107 36.8543 34.9607 35.5543C36.0107 34.3543 36.6407 32.9543 37.2707 31.5543C38.4257 28.6543 39.5807 25.6543 40.7357 22.6543C41.0507 21.6543 41.2607 20.5543 41.5757 19.6543ZM23.4107 12.4544C22.4657 12.3544 21.8357 12.6544 21.4157 13.4544C20.8907 14.4544 20.3657 15.4543 19.9457 16.5543C18.3707 21.1543 17.0057 25.7544 15.7457 30.3544C15.4307 31.3544 15.6407 31.6543 16.5857 32.1543C17.2157 32.4543 17.9507 32.7543 18.6857 33.0543C19.7357 33.4543 20.2607 33.3543 20.9957 32.5543C21.6257 31.9543 22.0457 31.1544 22.3607 30.3544C24.4607 25.8544 26.3507 21.2543 28.1357 16.6543C28.3457 16.1543 28.5557 15.5544 28.6607 14.9544C28.6607 14.5544 28.5557 14.3543 28.1357 14.1543C26.7707 13.7543 25.5107 13.2543 24.2507 12.5543C24.0407 12.5543 23.7257 12.5544 23.4107 12.4544Z" fill="#282727"/>
<path d="M101.32 33.6546C101.005 35.3546 100.585 36.9546 100.165 38.5546C99.2199 41.7546 98.1699 44.9546 97.2249 48.1546C96.9099 49.3546 96.4899 50.4546 95.7549 51.5546C94.9149 52.8546 93.6549 53.3546 92.0799 53.4546C89.8749 53.5546 87.8799 52.6546 85.7799 52.1546C85.0449 51.9546 84.2049 51.7546 83.4699 51.4546C82.1049 50.9546 81.6849 50.1546 81.8949 48.7546C82.2099 46.6546 82.9449 44.7546 83.5749 42.7546C84.8349 39.0546 86.1999 35.3546 87.4599 31.5546C87.7749 30.5546 88.1949 29.6546 88.9299 28.8546C89.7699 27.9546 90.8199 27.4546 92.0799 27.5546C94.4949 27.7546 96.6999 28.5546 98.9049 29.4546C99.0099 29.4546 99.1149 29.5546 99.1149 29.5546C101.11 30.7546 101.635 31.5546 101.32 33.6546ZM91.5549 52.0546C93.2349 52.2546 93.7599 51.9546 94.5999 50.4546C94.8099 50.0546 95.0199 49.5546 95.1249 49.0546C96.1749 45.5546 97.2249 42.0546 98.2749 38.6546C98.7999 36.8546 99.3249 34.9546 99.6399 33.1546C99.8499 32.0546 99.6399 31.6546 98.5899 31.2546C96.6999 30.3546 94.5999 29.8546 92.4999 29.4546C91.0299 29.1546 90.0849 29.7546 89.4549 30.9546C88.6149 32.4546 87.8799 33.8546 87.3549 35.4546C86.6199 37.5546 85.9899 39.6546 85.2549 41.7546C84.5199 43.9546 83.7849 46.1546 83.2599 48.4546C83.0499 49.5546 83.1549 49.7546 84.2049 50.1546C85.4649 50.5546 86.7249 50.9546 87.9849 51.3546C89.2449 51.5546 90.2949 51.9546 91.5549 52.0546Z" fill="#282727"/>
<path d="M15.1154 12.2542C14.6954 14.9542 13.8554 17.2542 13.2254 19.5542C12.5954 21.8542 11.9654 24.1542 11.3354 26.5542C11.1254 27.4542 10.7054 28.4542 10.1804 29.2542C9.3404 30.5542 7.97542 31.0542 6.40042 30.6542C5.24542 30.3542 4.09041 30.1542 2.93541 29.6542C1.04541 28.8542 0.520406 27.9542 0.835406 26.0542C1.15041 23.9542 1.78041 21.9542 2.41041 19.9542C3.46041 16.6542 4.61541 13.4542 6.19041 10.3542C6.40041 10.0542 6.50541 9.75418 6.71541 9.45418C7.97541 7.65418 8.92042 7.35417 11.1254 7.85417C11.8604 8.05417 12.5954 8.25416 13.2254 8.55416C14.5904 9.25416 15.3254 10.1542 15.1154 11.7542C15.1154 11.9542 15.1154 12.2542 15.1154 12.2542ZM13.2254 12.8542C13.2254 12.5542 13.3304 12.3542 13.3304 12.0542C13.5404 10.8542 13.3304 10.6542 12.1754 10.1542C11.3354 9.75416 10.3904 9.75418 9.55042 9.45418C9.13042 9.25418 8.9204 9.55417 8.6054 9.85417C7.9754 10.5542 7.45041 11.3542 7.13541 12.2542C5.56041 15.9542 4.40541 19.8542 3.04041 23.6542C2.72541 24.5542 2.51541 25.5542 2.41041 26.4542C2.30541 27.0542 2.62042 27.5542 3.14542 27.8542C3.77542 28.1542 4.51042 28.4542 5.24542 28.7542C7.76542 29.6542 8.2904 29.4542 9.1304 27.0542C10.7054 22.3542 11.9654 17.5542 13.2254 12.8542Z" fill="#282727"/>
</svg>
