<svg width="255" height="51" viewBox="0 0 255 51" fill="none" xmlns="http://www.w3.org/2000/svg">
<rect width="254" height="51" transform="translate(0.595703)" fill="#240F6E"/>
<path d="M100.729 27.985V18.187C101.962 20.0018 107.334 28.0572 107.334 28.0572H110.748V12.6714H106.902V22.4693C105.669 20.5823 100.443 12.7445 100.443 12.7445H96.8828V27.985H100.729ZM80.9916 24.1388H86.2896L87.8859 28.0582H92.2404L85.4915 12.8177H83.0932L76.1989 28.0582H79.247L80.9916 24.1388ZM83.7489 17.825L85.4183 21.8888H82.0034L83.7489 17.825ZM72.7898 25.4452H67.4235V12.6714H63.6436V27.985H72.7879L72.7898 25.4452ZM11.6085 12.6714H7.32617V27.985H11.6085V12.6714ZM30.5478 24.1388H35.8459L37.4421 28.0582H41.7967L35.0478 12.8177H32.7256L25.8313 28.0582H28.8794L30.5478 24.1388ZM33.3052 17.825L34.9746 21.8888H31.5596L33.3052 17.825ZM50.7956 22.6147H52.6104C53.496 22.6503 54.3809 22.5274 55.2233 22.2518C56.1669 21.8889 56.9813 21.2535 57.5628 20.4265C58.1443 19.5995 58.4667 18.6182 58.489 17.6074C58.5333 16.4577 58.1755 15.3284 57.4772 14.414C56.4585 13.1846 54.7901 12.5992 52.2494 12.5992H47.0245V27.985H50.7985V22.6186L50.7956 22.6147ZM50.7956 15.2121H51.8181C53.7051 15.2121 54.5754 15.938 54.5754 17.6074C54.5892 17.9937 54.5257 18.3788 54.3886 18.7402C54.2516 19.1016 54.0437 19.432 53.7773 19.712C53.4144 20.075 52.906 20.1472 51.6005 20.1472H50.7253V15.2121H50.7956ZM22.9296 27.985L17.9945 20.3648H16.6929L21.1196 12.6723H17.8491L13.3501 20.437L18.213 27.985H22.9296Z" fill="white"/>
<path d="M116.985 5.05029H114.3C120.544 8.75112 124.388 13.1057 124.388 17.8232C124.388 31.7572 94.7772 42.0625 58.7085 42.0625C37.8802 42.0625 19.3009 38.4339 7.25391 32.8461V35.8219C19.6638 41.5552 38.0978 45.1116 58.7085 45.1116C97.7531 44.9662 126.348 33.1368 126.348 18.475C126.348 13.5399 122.933 8.96773 116.981 5.04834" fill="white"/>
<path d="M140.862 21.0895C140.79 19.4933 140.79 18.622 140.79 17.0257C140.79 15.2841 140.79 14.3406 140.862 12.6712H139.266C139.338 14.4128 139.338 15.3563 139.338 17.0257C139.338 18.622 139.338 19.5625 139.266 21.0895H140.862Z" fill="white"/>
<path d="M149.427 21.0895H150.879C150.807 19.4933 150.807 18.622 150.807 17.0257C150.807 15.2841 150.807 14.3406 150.879 12.6712H149.501C149.573 14.7036 149.573 16.2998 149.573 18.9157C148.557 17.3194 146.888 14.9241 145.291 12.6712H143.621C143.693 14.4128 143.693 15.3563 143.693 17.0257C143.693 18.622 143.693 19.5625 143.621 21.0895H145C144.928 18.8396 144.928 17.3155 144.928 14.4128C146.089 16.1544 147.903 18.7674 149.427 21.0895Z" fill="white"/>
<path d="M157.337 21.0895C157.265 19.3479 157.265 18.4044 157.265 16.735C157.265 15.5739 157.265 14.7758 157.337 13.7591C158.352 13.7591 159.514 13.7591 160.166 13.8313V12.6712H153.199L152.764 13.8323C153.635 13.7601 154.505 13.7601 155.74 13.7601C155.812 14.7758 155.812 15.6471 155.812 16.7359C155.812 18.4776 155.812 19.4211 155.74 21.0905L157.337 21.0895Z" fill="white"/>
<path d="M166.99 21.0899L167.425 19.9288C166.554 20.001 164.888 20.001 163.651 20.001C163.651 19.1297 163.579 18.2593 163.579 17.2436C164.74 17.2436 166.046 17.2436 166.844 17.3158V16.1587C166.046 16.2309 164.74 16.2309 163.579 16.2309C163.579 15.3596 163.579 14.5614 163.651 13.694C164.884 13.694 166.336 13.694 167.066 13.7662V12.7437H162.127C162.199 14.4853 162.199 15.4288 162.199 17.0983C162.199 18.6945 162.199 19.6351 162.127 21.1621L166.99 21.0899Z" fill="white"/>
<path d="M175.48 14.9933C175.48 13.3971 174.174 12.6712 172.065 12.6712H169.674C169.746 14.3406 169.746 15.3563 169.746 17.0257C169.746 18.622 169.746 19.5625 169.674 21.0895H171.27C171.198 20.0738 171.198 18.8396 171.198 17.6063H172.503C173.089 18.7674 173.81 20.2914 174.463 21.3803L176.059 20.7949C175.264 19.6279 174.538 18.4164 173.882 17.1662C174.339 17.0108 174.737 16.7192 175.022 16.3307C175.308 15.9422 175.468 15.4755 175.48 14.9933ZM171.852 16.5896H171.126C171.126 15.8637 171.126 14.485 171.198 13.7601H171.924C173.23 13.7601 174.028 14.2684 174.028 15.2119C173.956 16.0861 173.23 16.5906 171.851 16.5906L171.852 16.5896Z" fill="white"/>
<path d="M185.423 17.0257C185.423 15.2841 185.423 14.3406 185.496 12.6712H184.117C184.189 14.7036 184.189 16.2998 184.189 18.9157C183.173 17.3194 181.504 14.9241 179.907 12.6712H178.238C178.31 14.4128 178.31 15.3563 178.31 17.0257C178.31 18.622 178.31 19.5625 178.238 21.0895H179.617C179.545 18.8396 179.545 17.3155 179.545 14.4128C180.778 16.1544 182.521 18.7674 184.117 21.0895H185.569C185.447 19.7386 185.398 18.382 185.423 17.0257Z" fill="white"/>
<path d="M192.609 12.5992H191.157C190.14 15.136 188.399 19.0583 187.311 21.0877H188.762C189.125 20.3618 189.415 19.5637 189.778 18.6924H193.335C193.627 19.4905 193.987 20.3618 194.206 21.0877H195.947C194.859 18.4777 193.479 15.0667 192.609 12.5992ZM190.286 17.6796C190.795 16.3732 191.375 15.0667 191.738 14.051C192.101 15.0667 192.61 16.4463 193.045 17.6796H190.286Z" fill="white"/>
<path d="M195.584 13.8326C196.455 13.7604 197.326 13.7604 198.56 13.7604C198.632 14.7761 198.632 15.6474 198.632 16.7363C198.632 18.4779 198.632 19.4214 198.56 21.0908H200.156C200.084 19.3492 200.084 18.4057 200.084 16.7363C200.084 15.5752 200.084 14.7771 200.156 13.7604C201.172 13.7604 202.333 13.7604 202.986 13.8326V12.7437H196.018L195.584 13.8326Z" fill="white"/>
<path d="M206.542 21.0895C206.469 19.4933 206.469 18.622 206.469 17.0257C206.469 15.2841 206.469 14.3406 206.542 12.6712H204.945C205.018 14.4128 205.018 15.3563 205.018 17.0257C205.018 18.622 205.018 19.5625 204.945 21.0895H206.542Z" fill="white"/>
<path d="M213.364 21.2351C213.962 21.2629 214.56 21.1655 215.118 20.9492C215.677 20.7329 216.184 20.4024 216.608 19.9789C217.031 19.5553 217.362 19.0481 217.578 18.4895C217.794 17.931 217.892 17.3335 217.864 16.7351C217.881 16.1495 217.774 15.5668 217.551 15.025C217.328 14.4833 216.993 13.9945 216.569 13.5906C216.144 13.1867 215.64 12.8766 215.088 12.6806C214.535 12.4846 213.948 12.407 213.364 12.4528C212.767 12.4312 212.173 12.5329 211.617 12.7514C211.061 12.9699 210.556 13.3006 210.134 13.7228C209.712 14.145 209.381 14.6498 209.163 15.2055C208.944 15.7612 208.843 16.356 208.864 16.9527C208.864 19.5657 210.679 21.2351 213.364 21.2351ZM213.364 13.5427C215.106 13.5427 216.194 14.8491 216.194 16.8815C216.194 18.9139 215.105 20.2204 213.364 20.2204C211.623 20.2204 210.535 18.9139 210.535 16.8815C210.534 14.9213 211.621 13.5427 213.364 13.5427Z" fill="white"/>
<path d="M226.138 12.6712C226.211 14.7036 226.211 16.2998 226.211 18.9157C225.195 17.3194 223.525 14.9241 221.929 12.6712H220.26C220.332 14.4128 220.332 15.3563 220.332 17.0257C220.332 18.622 220.332 19.5625 220.26 21.0895H221.638C221.566 18.8396 221.566 17.3155 221.566 14.4128C222.8 16.1544 224.542 18.7674 226.138 21.0895H227.59C227.518 19.4933 227.518 18.622 227.518 17.0257C227.518 15.2841 227.518 14.3406 227.59 12.6712H226.138Z" fill="white"/>
<path d="M233.249 12.5992C232.232 15.136 230.491 19.0583 229.402 21.0877H230.854C231.217 20.3618 231.507 19.5637 231.87 18.6924H235.426C235.719 19.4905 236.079 20.3618 236.298 21.0877H238.039C236.878 18.4026 235.502 14.9916 234.556 12.5992H233.25H233.249ZM232.305 17.6796C232.813 16.3732 233.394 15.0667 233.757 14.051C234.12 15.0667 234.628 16.4463 235.063 17.6796H232.305Z" fill="white"/>
<path d="M241.522 20.0016C241.522 18.9859 241.45 18.1146 241.45 17.0257C241.45 15.2841 241.45 14.3406 241.522 12.6712H239.926C239.998 14.4128 239.998 15.3563 239.998 17.0257C239.998 18.622 239.998 19.5625 239.926 21.0895H244.861L245.296 19.9284C244.498 20.0016 242.828 20.0016 241.522 20.0016Z" fill="white"/>
<path d="M140.862 29.4357C140.862 27.6941 140.862 26.7506 140.934 25.0812H139.338C139.41 26.8228 139.41 27.7663 139.41 29.4357C139.41 31.032 139.41 31.9725 139.338 33.4995H144.273L144.708 32.3384C143.837 32.4106 142.171 32.4106 140.862 32.4106C140.862 31.4681 140.862 30.5968 140.862 29.4357Z" fill="white"/>
<path d="M149.717 25.0092C148.702 27.546 146.96 31.4683 145.871 33.4978H147.323C147.686 32.7719 147.976 31.9737 148.339 31.1024H151.895C152.188 31.9006 152.548 32.7719 152.766 33.4978H154.508C153.347 30.8127 151.971 27.4016 151.025 25.0092H149.717ZM148.701 30.0897C149.209 28.7832 149.79 27.4767 150.152 26.461C150.515 27.4767 151.024 28.8564 151.459 30.0897H148.701Z" fill="white"/>
<path d="M162.343 25.0812C162.416 27.1136 162.416 28.7098 162.416 31.3257C161.4 29.7294 159.731 27.3341 158.133 25.0812H156.465C156.537 26.8228 156.537 27.7663 156.537 29.4357C156.537 31.032 156.537 31.9725 156.465 33.4995H157.844C157.771 31.2496 157.771 29.7255 157.771 26.8228C159.005 28.5644 160.747 31.1774 162.343 33.4995H163.795C163.723 31.9033 163.723 31.032 163.723 29.4357C163.723 27.6941 163.723 26.7506 163.795 25.0812H162.343Z" fill="white"/>
<path d="M172.213 29.7985C172.276 30.2553 172.3 30.7164 172.286 31.1772C172.3 31.614 172.276 32.0511 172.213 32.4837C171.784 32.5761 171.346 32.6248 170.907 32.629C170.477 32.6318 170.052 32.5457 169.658 32.376C169.263 32.2063 168.908 31.9568 168.615 31.6431C168.322 31.3295 168.096 30.9585 167.953 30.5535C167.811 30.1486 167.753 29.7185 167.785 29.2902C167.785 27.2578 168.946 26.0245 171.2 26.0245C171.953 26.0383 172.695 26.2115 173.376 26.5329L173.739 25.5172C172.886 25.1749 171.974 25.0022 171.054 25.0088C168.078 25.0088 166.119 26.8958 166.119 29.6532C166.143 30.217 166.279 30.7704 166.519 31.2812C166.759 31.7919 167.099 32.2498 167.518 32.628C167.936 33.0063 168.426 33.2974 168.959 33.4843C169.491 33.6713 170.056 33.7503 170.619 33.7169C171.684 33.7624 172.746 33.5894 173.741 33.2086C173.681 32.6057 173.657 31.9996 173.669 31.3938C173.657 30.8364 173.681 30.2787 173.741 29.7244L172.217 29.7966L172.213 29.7985Z" fill="white"/>
<path d="M182.23 25.0812C182.302 26.8228 182.302 28.42 182.302 30.0885C182.302 31.9755 181.431 32.4838 180.198 32.4838C178.891 32.4838 178.021 31.8311 178.021 30.0885C178.021 28.3459 178.021 26.6735 178.093 25.0812H176.424C176.496 26.4598 176.496 27.5487 176.496 28.5644V30.5968C176.496 32.7014 178.02 33.7191 180.052 33.7191C182.157 33.7191 183.609 32.6302 183.609 30.5968C183.609 29.9441 183.537 29.2903 183.537 28.6376C183.537 27.5487 183.537 26.3876 183.609 25.1544L182.23 25.0812Z" fill="white"/>
<path d="M188.762 25.0092C187.747 27.546 186.005 31.4683 184.916 33.4978H186.368C186.731 32.7719 187.021 31.9737 187.384 31.1024H190.94C191.233 31.9006 191.593 32.7719 191.811 33.4978H193.553C192.392 30.8127 191.016 27.4016 190.07 25.0092H188.762ZM187.819 30.0897C188.327 28.7832 188.908 27.4767 189.271 26.461C189.634 27.4767 190.142 28.8564 190.577 30.0897H187.819Z" fill="white"/>
<path d="M200.881 29.7985C200.943 30.2553 200.968 30.7164 200.954 31.1772C200.968 31.614 200.944 32.0511 200.881 32.4837C200.452 32.5761 200.014 32.6248 199.575 32.629C199.145 32.6318 198.72 32.5456 198.326 32.376C197.931 32.2063 197.576 31.9568 197.283 31.6431C196.99 31.3295 196.764 30.9585 196.621 30.5535C196.479 30.1486 196.421 29.7185 196.453 29.2902C196.453 27.2578 197.614 26.0245 199.868 26.0245C200.621 26.0383 201.363 26.2115 202.044 26.5329L202.407 25.5172C201.554 25.1749 200.642 25.0022 199.722 25.0088C196.746 25.0088 194.787 26.8958 194.787 29.6532C194.811 30.217 194.947 30.7704 195.187 31.2812C195.427 31.7919 195.767 32.2498 196.185 32.628C196.604 33.0063 197.094 33.2974 197.627 33.4843C198.159 33.6713 198.724 33.7503 199.287 33.7169C200.352 33.7624 201.414 33.5894 202.409 33.2086C202.349 32.6057 202.325 31.9996 202.337 31.3938C202.325 30.8363 202.349 30.2787 202.409 29.7244L200.885 29.7966L200.881 29.7985Z" fill="white"/>
<path d="M206.614 29.7259C207.775 29.7259 209.081 29.7258 209.88 29.7981V28.637C209.081 28.7092 207.775 28.7092 206.614 28.7092C206.614 27.8379 206.614 27.0397 206.686 26.1723C207.919 26.1723 209.371 26.1723 210.101 26.2446V25.1537H205.162C205.234 26.8953 205.234 27.8388 205.234 29.5083C205.234 31.1045 205.234 32.0451 205.162 33.5721H210.025L210.46 32.411C209.589 32.4832 207.923 32.4832 206.686 32.4832C206.614 31.6129 206.614 30.7416 206.614 29.7259Z" fill="white"/>
<path d="M216.339 28.783L215.469 28.4239C214.38 27.9156 214.09 27.5526 214.09 27.0452C214.09 26.3925 214.599 26.0295 215.686 26.0295C216.338 26.0454 216.98 26.1934 217.573 26.4647L218.009 25.449C217.262 25.0971 216.436 24.9471 215.613 25.0138C213.798 25.0138 212.565 26.0295 212.565 27.2638C212.577 27.784 212.752 28.2875 213.064 28.7038C213.376 29.1201 213.811 29.4286 214.307 29.586L215.323 30.0211C216.338 30.5295 216.629 30.8192 216.629 31.473C216.629 32.1267 216.044 32.634 215.033 32.634C214.234 32.6122 213.446 32.4397 212.711 32.1257L212.275 33.1414C213.142 33.5303 214.082 33.7298 215.033 33.7268C216.774 33.7268 218.155 32.7111 218.155 31.3315C218.169 30.7673 218 30.2136 217.673 29.7539C217.345 29.2943 216.877 28.9535 216.339 28.783Z" fill="white"/>
</svg>
