<svg width="129" height="51" viewBox="0 0 129 51" fill="none" xmlns="http://www.w3.org/2000/svg">
<g clip-path="url(#clip0_2305_393)">
<rect width="128.609" height="51" fill="#240F6E"/>
<path d="M100.536 27.9854V18.1874C101.769 20.0023 107.14 28.0576 107.14 28.0576H110.555V12.6718H106.709V22.4698C105.476 20.5828 100.25 12.745 100.25 12.745H96.6894V27.9854H100.536ZM80.7982 24.1392H86.0963L87.6925 28.0586H92.0471L85.2981 12.8182H82.8999L76.0056 28.0586H79.0536L80.7982 24.1392ZM83.5555 17.8255L85.225 21.8893H81.81L83.5555 17.8255ZM72.5965 25.4457H67.2301V12.6718H63.4502V27.9854H72.5945L72.5965 25.4457ZM11.4152 12.6718H7.13281V27.9854H11.4152V12.6718ZM30.3545 24.1392H35.6525L37.2488 28.0586H41.6033L34.8544 12.8182H32.5322L25.6379 28.0586H28.686L30.3545 24.1392ZM33.1118 17.8255L34.7812 21.8893H31.3663L33.1118 17.8255ZM50.6022 22.6152H52.417C53.3027 22.6508 54.1875 22.5279 55.0299 22.2522C55.9736 21.8893 56.7879 21.254 57.3695 20.4269C57.951 19.5999 58.2734 18.6186 58.2956 17.6079C58.3399 16.4581 57.9821 15.3289 57.2838 14.4144C56.2652 13.185 54.5967 12.5996 52.056 12.5996H46.8311V27.9854H50.6051V22.6191L50.6022 22.6152ZM50.6022 15.2125H51.6248C53.5118 15.2125 54.3821 15.9385 54.3821 17.6079C54.3958 17.9941 54.3323 18.3793 54.1952 18.7407C54.0582 19.102 53.8504 19.4324 53.584 19.7125C53.221 20.0754 52.7127 20.1476 51.4072 20.1476H50.532V15.2125H50.6022ZM22.7362 27.9854L17.8011 20.3652H16.4995L20.9263 12.6728H17.6557L13.1568 20.4374L18.0197 27.9854H22.7362Z" fill="white"/>
<path d="M116.793 5.05078H114.108C120.352 8.75161 124.195 13.1062 124.195 17.8237C124.195 31.7577 94.5848 42.063 58.5161 42.063C37.6878 42.063 19.1085 38.4344 7.06152 32.8465V35.8224C19.4715 41.5556 37.9054 45.1121 58.5161 45.1121C97.5607 44.9667 126.156 33.1373 126.156 18.4754C126.156 13.5403 122.741 8.96822 116.789 5.04883" fill="white"/>
</g>
<defs>
<clipPath id="clip0_2305_393">
<rect width="128.609" height="51" fill="white"/>
</clipPath>
</defs>
</svg>
