<svg width="148" height="229" viewBox="0 0 148 229" fill="none" xmlns="http://www.w3.org/2000/svg">
<path d="M43.9999 37C74.4999 60.5 133 81.5001 80.9999 127C23.7859 177.062 83.9033 186.354 146.752 206.249" stroke="#7DBBFF" stroke-width="4" stroke-dasharray="8 8"/>
<path d="M99.2484 35.8001C98.0484 35.7001 96.9484 35.5001 95.7484 35.3001C94.6484 35.1001 94.6484 35.1001 94.5484 34.0001C94.4484 32.6001 94.4484 31.1001 94.4484 29.7001C94.4484 28.2001 94.1484 27.9001 92.6484 27.7001C91.5484 27.5001 90.4484 27.3001 89.3484 27.3001C88.6484 27.3001 88.4484 26.9001 88.6484 26.3001C89.0484 25.0001 88.6484 23.7001 88.7484 22.4001C88.8484 21.5001 88.4484 21.2001 87.5484 21.1001C86.7484 21.0001 85.8484 20.8001 85.0484 20.8001C84.3484 20.8001 84.1484 20.5001 84.2484 19.8001C84.3484 18.9001 84.3484 17.9001 84.3484 17.0001C84.3484 16.3001 83.9484 15.9001 83.2484 15.8001C82.3484 15.7001 81.4484 15.6001 80.6484 15.5001C80.0484 15.5001 79.7484 15.3001 79.7484 14.6001C79.6484 12.1001 79.5484 12.1001 77.2484 11.6001C75.8484 11.3001 75.8484 11.3001 75.9484 10.0001C76.0484 8.9001 76.1484 7.80011 76.0484 6.60011C75.9484 5.50011 75.5484 5.20011 74.5484 5.10011C71.1484 4.80011 67.7484 4.50011 64.3484 4.10011C63.9484 4.10011 63.5484 4.00011 63.2484 4.10011C62.5484 4.10011 62.0484 4.4001 61.7484 5.2001C61.4484 6.2001 61.0484 7.20011 60.8484 8.30011C60.6484 9.40011 60.6484 9.40011 59.5484 9.30011C58.2484 9.30011 57.7484 9.50011 57.3484 10.8001C57.1484 11.2001 57.0484 11.7001 56.9484 12.1001C56.7484 12.7001 56.3484 13.0001 55.6484 12.9001C55.1484 12.8001 54.6484 12.7001 54.1484 12.6001C52.7484 12.4001 51.6484 12.8001 51.3484 14.2001C51.1484 15.0001 50.8484 15.7001 50.5484 16.4001C50.1484 17.5001 50.1484 17.5001 48.9484 17.4001C48.2484 17.4001 47.4484 17.3001 46.7484 17.2001C44.8484 17.1001 44.3484 17.4001 43.6484 19.3001C43.3484 20.2001 43.0484 21.1001 42.6484 21.9001C42.1484 23.0001 42.1484 23.0001 40.9484 22.8001C40.1484 22.7001 39.2484 22.6001 38.4484 22.5001C37.2484 22.3001 36.3484 22.8001 35.8484 24.0001C35.3484 25.3001 34.6484 26.5001 34.0484 27.8001C33.7484 28.6001 33.2484 28.9001 32.4484 28.7001C31.4484 28.5001 30.3484 28.5001 29.3484 28.4001C28.1484 28.2001 27.3484 28.5001 26.9484 29.7001C26.7484 30.2001 26.4484 30.6001 26.1484 31.0001C25.4484 32.3001 24.6484 33.6001 24.1484 35.0001C23.7484 36.3001 24.0484 36.9001 25.4484 37.0001C28.4484 37.4001 31.3484 37.8001 34.3484 38.1001C37.0484 38.4001 39.7484 38.6001 42.4484 38.8001C46.8484 39.1001 51.2484 39.6001 55.5484 40.1001C59.9484 40.7001 64.4484 41.0001 68.8484 41.6001C71.9484 42.0001 75.1484 42.1001 78.2484 42.5001C83.6484 43.1001 88.9484 43.5001 94.3484 43.9001C95.8484 44.0001 97.3484 44.1001 98.8484 44.2001C100.248 44.3001 100.948 43.6001 101.048 42.4001C101.148 40.9001 101.248 39.3001 101.348 37.8001C101.048 36.4001 100.748 36.0001 99.2484 35.8001Z" fill="#7DBBFF"/>
<path d="M83.3485 39.8C77.9485 39.3 72.5485 39 67.2485 38.4C64.1485 38.1 60.9485 37.9 57.8485 37.5C53.4485 37 48.9485 36.6 44.5485 36C40.1485 35.4 35.8485 35 31.4485 34.7C28.7485 34.5 26.0485 34.3 23.3485 34C20.3485 33.7 17.4485 33.3 14.4485 32.9C13.1485 32.7 12.7485 32.2 13.1485 30.9C13.6485 29.5 14.4485 28.2 15.1485 26.9C15.3485 26.4 15.7485 26 15.9485 25.6C16.3485 24.4 17.2485 24.1 18.3485 24.3C19.3485 24.4 20.4485 24.5 21.4485 24.6C22.2485 24.7 22.7485 24.5 23.0485 23.7C23.5485 22.4 24.2485 21.2 24.8485 19.9C25.3485 18.7 26.1485 18.3 27.4485 18.4C28.2485 18.5 29.1485 18.6 29.9485 18.7C31.1485 18.8 31.1485 18.9 31.6485 17.8C32.0485 16.9 32.3485 16.1 32.6485 15.2C33.3485 13.3 33.8485 13 35.7485 13.1C36.4485 13.1 37.2485 13.2 37.9485 13.3C39.1485 13.4 39.1485 13.4 39.5485 12.3C39.8485 11.6 40.2485 10.8 40.3485 10.1C40.6485 8.70001 41.8485 8.3 43.1485 8.5C43.6485 8.6 44.1485 8.7 44.6485 8.8C45.3485 8.9 45.7485 8.7 45.9485 8C46.0485 7.6 46.2485 7.1 46.3485 6.7C46.8485 5.5 47.2485 5.2 48.5485 5.2C49.6485 5.2 49.6485 5.2 49.8485 4.2C50.0485 3.1 50.4485 2.10001 50.7485 1.10001C50.9485 0.400006 51.5485 0.1 52.2485 0C52.6485 0 53.0485 0 53.3485 0C56.7485 0.3 60.1485 0.6 63.5485 1C64.5485 1.1 64.9485 1.5 65.0485 2.5C65.1485 3.6 65.0485 4.69999 64.9485 5.89999C64.8485 7.19999 64.8484 7.2 66.2485 7.5C68.6485 8 68.6485 8 68.7485 10.5C68.7485 11.2 69.0485 11.4 69.6485 11.4C70.5485 11.5 71.4485 11.6 72.2485 11.7C72.9485 11.8 73.3485 12.1 73.3485 12.9C73.3485 13.8 73.3484 14.8 73.2485 15.7C73.1485 16.4 73.4485 16.6 74.0485 16.7C74.8485 16.8 75.7485 16.9 76.5485 17C77.5485 17.1 77.8484 17.4 77.7485 18.3C77.6485 19.6 77.9485 20.9 77.6485 22.2C77.4485 22.9 77.7485 23.2 78.3485 23.2C79.4485 23.2 80.5485 23.5 81.6485 23.6C83.0485 23.8 83.3485 24.1 83.4485 25.6C83.4485 27 83.4485 28.5 83.5485 29.9C83.6485 31 83.6485 31 84.7485 31.2C85.8484 31.4 87.0485 31.6 88.2485 31.7C89.7485 31.9 90.1485 32.3 90.0485 33.8C89.9485 35.3 89.8484 36.9 89.7485 38.4C89.6485 39.6 88.8485 40.3 87.5485 40.2C86.3485 40 84.8485 39.9 83.3485 39.8ZM59.8485 35.5C59.8485 35.2 59.8485 35 59.8485 34.9C59.8485 32.6 59.7485 30.3 59.7485 28C59.7485 25.5 59.9485 23 59.8485 20.6C59.7485 17.1 59.7485 13.6 59.8485 10.1C59.8485 8.90001 59.7485 7.7 59.7485 6.5C59.7485 5.7 59.4485 5.5 58.7485 5.5C57.7485 5.5 56.6485 5.4 55.6485 5.3C55.0485 5.3 54.8485 5.4 54.6485 6C51.8485 13.7 49.6485 21.6 46.8485 29.3C46.2485 30.9 45.8485 32.6 45.3485 34.3C50.1485 34.8 54.9485 35.1 59.8485 35.5ZM14.8485 31.2C15.1485 31.3 15.2485 31.4 15.3485 31.4C19.2485 32 23.1485 32.2 27.0485 32.6C30.3485 32.9 33.5485 33.1 36.8485 33.3C37.8485 33.4 38.9485 33.9 39.7485 33.4C40.4485 32.9 40.5485 31.6 40.8485 30.7C41.4485 29.3 41.3485 29.3 39.9485 29C39.5485 28.9 39.1485 28.8 38.7485 28.8C35.5485 28.4 32.3485 28 29.1485 27.5C25.7485 26.9 22.4485 26.6 19.0485 26.3C18.8485 26.3 18.5485 26.3 18.3485 26.2C17.8485 26.1 17.4485 26.3 17.1485 26.8C16.3485 28.2 15.5485 29.7 14.8485 31.2ZM80.4485 37.5C82.9485 37.7 85.0485 37.8 87.0485 37.9C88.0485 38 88.0485 37.9 88.1485 36.9C88.2485 36.1 88.2485 35.2 88.3485 34.4C88.4485 33.8 88.2485 33.5 87.5485 33.4C86.0485 33.3 84.4485 33 82.9485 32.8C79.3485 32.4 75.7485 32 72.1485 31.7C70.2485 31.6 68.3485 31.2 66.4485 31.1C65.7485 31.1 65.5485 31.2 65.5485 31.9C65.6485 33 65.6485 34 65.6485 35.1C65.6485 35.7 65.9485 36 66.5485 36.1C71.3485 36.6 76.1485 37.1 80.4485 37.5ZM24.5485 24.9C26.2485 25.4 27.8485 25.6 29.4485 25.8C32.1485 26.2 34.9485 26.4 37.6485 26.9C38.7485 27.1 39.9485 27.3 41.0485 27.5C41.4485 27.6 41.9485 27.6 42.0485 27.1C42.5485 25.4 43.3485 23.7 43.6485 21.9C43.3485 21.8 43.1485 21.8 43.0485 21.8C39.5485 21.4 36.0485 21.1 32.5485 20.7C30.8485 20.5 29.2485 20.2 27.5485 20.2C26.4485 20.2 26.2485 20.3 25.8485 21.3C25.4485 22.4 25.0485 23.6 24.5485 24.9ZM73.2485 24.6C71.0485 24.5 68.7485 24.2 66.5485 24.3C65.6485 24.3 65.4485 24.4 65.5485 25.2C65.6485 26.3 65.6485 27.4 65.5485 28.6C65.5485 29.1 65.6485 29.4 66.2485 29.4C66.9485 29.4 67.5485 29.6 68.2485 29.6C69.4485 29.7 70.6485 29.7 71.7485 29.9C74.9485 30.4 78.1485 30.3 81.2485 30.8C81.8484 30.9 82.0485 30.6 82.0485 30C82.0485 28.9 82.1485 27.8 82.2485 26.8C82.3484 25.6 82.2485 25.6 81.0485 25.4C78.4485 24.9 75.8484 24.7 73.2485 24.6ZM60.9485 8C60.9485 10.1 60.8485 12.1 60.8485 14.2C60.9485 17.5 61.1485 20.7 61.1485 24C61.1485 27.6 61.2485 31.2 61.6485 34.8C61.7485 35.9 61.8485 36 63.0485 36C63.6485 36 63.9485 35.8 63.8485 35.2C63.6485 34.1 63.8485 33 63.8485 32C63.7485 27.1 63.8485 22.2 63.6485 17.3C63.5485 13.8 63.4485 10.2 63.2485 6.7C63.2485 6.1 63.0485 5.9 62.4485 5.8C61.0485 5.6 60.9485 5.70001 60.9485 7.10001C60.9485 7.30001 60.9485 7.7 60.9485 8ZM37.8485 19.6C39.5485 19.9 41.2485 19.8 43.0485 20.2C44.3485 20.5 44.4485 20.4 44.8485 19.1C45.0485 18.6 45.2485 18.1 45.4485 17.5C46.0485 15.3 46.6485 15.6 43.9485 15.3C41.2485 15 38.4485 15.3 35.7485 14.8C34.8485 14.6 34.5485 14.9 34.2485 15.9C33.9485 16.7 33.6485 17.6 33.3485 18.4C33.1485 19.2 33.1485 19.2 34.0485 19.3C35.1485 19.4 36.5485 19.5 37.8485 19.6ZM65.5485 17.5C65.5485 19 65.4485 20.4 65.5485 21.8C65.6485 22.3 65.7485 22.4 66.2485 22.4C67.9485 22.4 69.6485 22.6 71.3485 22.6C72.6485 22.6 73.9485 22.7 75.2485 22.7C75.6485 22.7 76.0485 22.8 76.0485 22.3C76.0485 21.2 76.1485 20.2 76.2485 19.1C76.3484 18.6 76.0485 18.5 75.5485 18.4C74.9485 18.4 74.3484 18.4 73.7485 18.2C71.1485 17.7 68.4485 17.9 65.5485 17.5ZM52.7485 5.10001C51.7485 5.00001 51.6485 5.00001 51.4485 5.60001C50.9485 6.90001 50.4485 8.20001 49.9485 9.60001C48.0485 14.7 46.5485 19.9 44.8485 25C43.9485 27.7 43.0485 30.3 42.2485 33C42.1485 33.3 41.9485 33.6 42.3485 33.9C42.6485 34.1 42.9485 34.1 43.3485 33.9C43.6485 33.8 43.6485 33.5 43.7485 33.2C43.9485 32.4 44.1485 31.7 44.3485 30.9C45.3485 28 46.3485 25.1 47.3485 22.1C48.6485 18.1 49.7485 14 51.1485 10.1C51.7485 8.50001 52.3484 6.90001 52.7485 5.10001ZM68.6485 12.4C67.7485 12.3 66.8485 12.2 65.9485 12.2C65.6485 12.2 65.2485 12.2 65.2485 12.7C65.2485 13.5 65.3485 14.3 65.3485 15.1C65.3485 15.5 65.5485 15.8 66.1485 15.9C67.7485 16 69.4485 16.1 71.0485 16.3C71.5485 16.3 71.7485 16.2 71.7485 15.7C71.7485 15 71.8485 14.3 71.8485 13.6C71.8485 12.7 71.7485 12.6 70.9485 12.6C70.1485 12.5 69.3485 12.5 68.6485 12.4ZM47.4485 10.7C46.7485 10.5 46.1485 10.4 45.4485 10.3C44.3485 10.2 43.0485 9.7 42.1485 10.2C41.2485 10.7 41.3485 12.1 40.9485 13.1C40.9485 13.2 40.9485 13.4 40.9485 13.7C42.2485 13.8 43.5485 13.8 44.8485 14C46.5485 14.2 46.5485 14.2 47.0485 12.5C47.2485 11.9 47.5485 11.4 47.4485 10.7ZM57.1485 3.39999C58.6485 3.59999 60.5485 3.50001 62.4485 3.60001C62.8485 3.60001 63.1485 3.60001 63.2485 3.10001C63.2485 2.60001 63.0485 2.39999 62.6485 2.39999C59.6485 2.09999 56.7485 1.70001 53.7485 1.60001C53.6485 1.60001 53.4485 1.60001 53.3485 1.60001C52.7485 1.70001 52.7485 2.2 52.6485 2.7C52.5485 3.2 53.0485 3.2 53.3485 3.2C54.4485 3.2 55.5485 3.29999 57.1485 3.39999ZM66.1485 10.8C67.1485 10.9 67.2485 10.8 67.2485 9.7C67.2485 8.8 67.0485 8.6 65.9485 8.5C65.3485 8.4 65.0485 8.6 65.0485 9.2C65.0485 10.4 65.2485 10.8 66.1485 10.8ZM47.1485 9.2C47.6485 9.3 48.0485 9.39999 48.1485 8.89999C48.3485 8.39999 48.5485 7.9 48.6485 7.5C48.7485 7.3 48.7485 6.99999 48.5485 6.89999C48.2485 6.79999 48.0485 6.9 47.8485 7.2C47.6485 7.8 47.3485 8.4 47.1485 9.2Z" fill="#282727"/>
<path d="M53.4765 148.183C53.1485 148.152 52.8102 148.23 52.4223 148.249C51.368 148.316 50.4231 148.393 49.3791 148.35C47.3406 148.324 45.4628 147.762 43.5149 147.359C40.9109 146.894 38.6366 145.853 36.7725 143.968C36.4154 143.659 36.1078 143.41 35.7507 143.1C35.4432 142.851 35.0861 142.542 34.6487 142.501C34.2112 142.46 34.0728 142.171 33.9942 141.833C33.7585 140.818 33.4731 139.743 33.2374 138.728C33.1485 138.499 33.1195 138.22 33.0306 137.991C32.9418 137.762 32.7333 137.633 32.5044 137.721C32.2258 137.75 32.096 137.959 32.0157 138.227C31.9456 138.386 32.0447 138.506 32.084 138.675C32.2993 139.909 32.5743 141.093 32.7896 142.326C32.8186 142.605 32.9075 142.834 32.7776 143.042C32.0292 143.965 31.7079 145.038 31.3867 146.111C30.7544 148.148 29.6454 149.974 27.9709 151.362C24.9105 153.998 21.6623 156.286 17.9288 157.866C17.6998 157.955 17.5204 158.104 17.2316 158.242C16.883 158.43 16.584 158.678 16.6523 159.126C16.7207 159.573 17.1581 159.614 17.5357 159.705C19.4836 160.108 21.4725 160.074 23.4717 159.931C24.6353 159.874 25.7596 159.649 27.0531 159.384C27.2359 161.552 27.6476 163.632 28.1192 165.662C28.2371 166.169 28.1072 166.378 27.6493 166.555C26.7932 166.861 26.0363 167.287 25.2297 167.652C23.8559 168.185 22.571 168.947 21.2177 169.262C19.8644 169.576 18.4906 170.109 17.098 170.254C16.3718 170.352 16.1804 171.216 16.6862 171.705C16.8844 171.944 17.2022 172.084 17.4602 172.274C18.8101 173.173 20.2898 173.863 21.79 174.335C23.4987 174.936 25.2176 175.429 27.0271 175.543C27.4645 175.584 27.673 175.714 27.6319 176.151C27.6712 176.321 27.7105 176.49 27.7003 176.599C27.8335 178.708 28.2453 180.787 28.7168 182.817C28.8637 183.603 28.9133 183.663 28.0777 183.75C25.9487 184.102 23.8299 184.344 21.7009 184.696C21.1439 184.754 20.5373 184.753 20.0298 184.871C19.184 185.067 19.0233 185.604 19.6282 186.212C20.3817 187 21.2651 187.579 22.1485 188.158C23.5479 189.117 25.1865 189.877 26.7055 190.737C28.1749 191.536 29.6854 191.899 31.3463 191.834C32.122 191.796 32.0622 191.846 32.2689 192.582C32.6328 193.995 32.937 195.458 33.3504 196.931C33.5572 197.667 33.6067 197.727 32.9694 198.053C32.3816 198.44 32.1116 198.966 32.1098 199.572C32.1081 200.179 32.2157 200.796 32.3832 201.363C32.6087 202.488 32.9556 202.906 34.4285 202.493C35.6724 202.168 36.9266 201.734 38.1705 201.409C39.4743 201.035 40.8173 200.83 42.0817 200.287C43.1172 199.832 43.4863 199.426 43.201 198.351C42.6987 196.649 43.0712 195.029 43.0661 193.319C43.0576 192.822 43.2968 192.624 43.7445 192.555C44.3613 192.448 44.9884 192.231 45.5557 192.063C46.2921 191.856 46.3417 191.916 46.5484 192.653C46.8628 194.006 47.4659 195.221 47.5018 196.603C47.4813 196.822 47.6197 197.111 47.6487 197.389C47.8947 198.295 48.3612 198.614 49.2566 198.478C49.8734 198.37 50.4902 198.262 51.1173 198.045C53.3267 197.425 55.4967 196.636 57.7847 196.354C58.4015 196.246 59.0884 195.98 59.666 195.703C60.1837 195.476 60.3939 194.999 60.4947 194.512C60.5562 193.856 60.3888 193.289 60.2812 192.672C60.1735 192.055 59.7566 191.795 59.1603 191.684C58.7229 191.643 58.335 191.662 57.8873 191.73C57.4994 191.749 57.2312 191.669 57.1628 191.221C56.8399 189.371 56.4572 187.57 56.0745 185.769C56.0062 185.321 56.1361 185.112 56.4846 184.925C58.7247 183.976 60.5189 182.49 62.2738 180.834C63.6698 179.476 64.748 177.977 65.628 176.239C65.8878 175.823 65.8194 175.375 65.5221 175.016C65.2744 174.717 64.8968 174.626 64.5089 174.645C64.0014 174.763 63.4939 174.881 62.9762 175.108C61.722 175.542 60.4678 175.976 59.2239 176.301C57.5323 176.694 55.8014 176.918 54.12 177.201C53.2742 177.398 53.2246 177.338 53.0282 176.492C52.654 175.188 52.3892 173.895 51.9655 172.531C51.7587 171.795 51.6118 171.009 51.4649 170.223C51.3863 169.885 51.4068 169.666 51.6956 169.527C52.9002 169.034 53.9664 168.251 55.0822 167.528C56.198 166.806 57.1054 165.953 57.864 164.921C58.363 164.306 58.7133 163.511 58.8449 162.696C58.9662 161.991 58.5596 161.621 57.9325 161.838C57.7633 161.878 57.5839 162.026 57.4147 162.066C56.7278 162.332 56.0409 162.599 55.354 162.865C53.1242 163.704 50.7576 163.648 48.4014 163.482C47.7452 163.42 47.5573 163.072 47.4889 162.624C46.9183 160.475 46.5168 158.286 45.8864 156.186C45.7582 155.788 45.3721 155.2 45.6215 154.892C45.871 154.585 46.4879 154.477 46.9953 154.359C49.7122 153.621 51.9045 152.007 53.8592 149.983C54.0489 149.725 54.2984 149.418 54.4385 149.1C54.5889 148.673 54.3018 148.205 53.4765 148.183Z" fill="#77DBE0"/>
<path d="M32.6948 161.568C31.4013 161.833 30.277 162.058 29.1134 162.115C27.1142 162.258 25.1253 162.292 23.1774 161.889C22.7998 161.798 22.3624 161.757 22.294 161.31C22.2257 160.862 22.5247 160.614 22.8733 160.426C23.0527 160.278 23.2817 160.189 23.5704 160.05C27.304 158.47 30.5522 156.182 33.6126 153.546C35.2871 152.158 36.3961 150.332 37.0284 148.295C37.3496 147.222 37.6709 146.149 38.4193 145.226C38.609 144.968 38.5201 144.739 38.4313 144.51C38.216 143.277 37.9409 142.092 37.7257 140.859C37.6864 140.69 37.6471 140.52 37.6573 140.411C37.7377 140.143 37.8675 139.934 38.146 139.905C38.4246 139.876 38.633 140.006 38.6723 140.175C38.7612 140.404 38.85 140.633 38.879 140.912C39.1148 141.927 39.4001 143.002 39.6359 144.016C39.7145 144.355 39.8529 144.644 40.2903 144.685C40.7277 144.726 41.0353 144.975 41.3924 145.284C41.7495 145.594 42.0571 145.843 42.4142 146.152C44.3381 147.988 46.5526 149.078 49.1566 149.543C51.1045 149.946 52.9823 150.508 55.0208 150.534C56.0152 150.517 57.0097 150.5 58.064 150.433C58.4518 150.414 58.7303 150.385 59.1182 150.366C59.9435 150.389 60.2306 150.857 59.8905 151.542C59.7504 151.86 59.5607 152.118 59.3112 152.425C57.3565 154.448 55.1642 156.063 52.4473 156.801C51.9399 156.919 51.323 157.027 51.0735 157.334C50.8241 157.642 51.2102 158.23 51.3384 158.628C51.9688 160.728 52.4301 162.867 52.9409 165.066C53.0588 165.574 53.2468 165.922 53.8534 165.924C56.2096 166.09 58.5266 166.086 60.806 165.307C61.4929 165.041 62.1798 164.774 62.8667 164.508C63.0359 164.468 63.2153 164.32 63.3845 164.28C64.0611 164.123 64.4182 164.433 64.2969 165.138C64.1653 165.953 63.815 166.748 63.3161 167.363C62.5574 168.395 61.5902 169.297 60.5342 169.97C59.4184 170.693 58.3522 171.476 57.1476 171.969C56.7494 172.097 56.7785 172.376 56.9169 172.665C57.0638 173.451 57.2107 174.237 57.4175 174.973C57.8514 176.227 58.106 177.63 58.4802 178.934C58.6767 179.78 58.7262 179.84 59.572 179.643C61.2636 179.25 62.9843 179.136 64.6759 178.743C65.9694 178.478 67.174 177.984 68.4282 177.55C68.8861 177.372 69.4534 177.205 69.9609 177.087C70.359 176.959 70.7366 177.05 70.9741 177.458C71.2116 177.866 71.28 178.314 71.08 178.681C70.1505 180.359 69.1218 181.918 67.6762 183.216C65.9214 184.872 64.1272 186.358 61.8871 187.307C61.5385 187.495 61.4087 187.703 61.477 188.151C61.8597 189.952 62.2424 191.753 62.5653 193.603C62.6336 194.051 62.9019 194.131 63.2898 194.112C63.6776 194.094 64.1253 194.025 64.5627 194.066C65.1591 194.177 65.576 194.437 65.6836 195.054C65.7912 195.671 66.0082 196.298 65.8972 196.894C65.8459 197.441 65.5862 197.858 65.0684 198.085C64.4909 198.362 63.8535 198.688 63.1871 198.736C60.8992 199.018 58.7291 199.807 56.5198 200.428C55.9525 200.595 55.2759 200.752 54.659 200.86C53.7637 200.996 53.2972 200.677 53.0512 199.771C52.9623 199.542 52.9333 199.264 52.9042 198.985C52.8684 197.603 52.3251 196.339 51.9509 195.035C51.7442 194.298 51.6946 194.239 50.9582 194.445C50.3413 194.553 49.7142 194.77 49.1469 194.937C48.7488 195.065 48.5096 195.264 48.4686 195.701C48.5335 197.362 48.1011 199.031 48.6034 200.733C48.8888 201.808 48.5692 202.274 47.4842 202.669C46.2197 203.212 44.8767 203.417 43.573 203.792C42.329 204.116 41.0749 204.55 39.8309 204.875C38.2982 205.338 38.0112 204.87 37.7856 203.745C37.6182 203.178 37.5106 202.561 37.5123 201.955C37.5243 201.239 37.7345 200.762 38.3718 200.436C39.0194 200 38.9596 200.049 38.7529 199.313C38.389 197.9 38.0848 196.437 37.6714 194.964C37.4646 194.228 37.4646 194.228 36.7487 194.216C35.0879 194.281 33.5774 193.919 32.1079 193.119C30.5889 192.259 28.9999 191.559 27.5509 190.54C26.6676 189.961 25.7842 189.382 25.0307 188.594C24.4258 187.986 24.5864 187.449 25.4322 187.253C25.9995 187.085 26.5463 187.137 27.1033 187.079C29.1726 186.776 31.3512 186.484 33.4802 186.132C34.3157 186.045 34.326 185.936 34.1193 185.199C33.6477 183.169 33.236 181.09 33.1027 178.981C33.0635 178.812 33.0241 178.643 33.0344 178.534C33.0754 178.096 32.8174 177.906 32.4295 177.925C30.6201 177.811 28.9011 177.319 27.1925 176.717C25.6427 176.186 24.2125 175.555 22.8627 174.656C22.6047 174.467 22.3467 174.277 22.0887 174.087C21.5829 173.599 21.7743 172.734 22.5005 172.637C23.8931 172.491 25.2669 171.958 26.6202 171.644C28.0828 171.34 29.308 170.627 30.6322 170.034C31.4387 169.669 32.2452 169.303 33.0517 168.938C33.5097 168.76 33.59 168.492 33.5216 168.044C33.3987 165.826 32.9271 163.796 32.6948 161.568ZM57.2188 195.915C58.4524 195.7 59.7066 195.266 60.9506 194.941C61.6272 194.784 61.6272 194.784 61.47 194.107C61.1556 192.754 60.831 191.51 60.6858 190.117C60.5679 189.61 60.5594 189.113 60.4415 188.605C60.4227 188.217 60.2741 188.038 59.8161 188.216C59.3582 188.393 58.8507 188.511 58.3928 188.689C56.1834 189.309 53.9844 189.82 51.775 190.44C51.0386 190.647 50.3124 190.744 49.5759 190.951C47.5357 191.532 45.5451 192.173 43.5545 192.813C42.3601 193.198 41.1161 193.522 39.932 193.797C39.5339 193.926 39.4143 194.025 39.4826 194.472C39.826 196.104 40.2292 197.686 40.3539 199.298C40.3727 199.686 40.5812 199.815 40.969 199.797C41.5261 199.739 42.0728 199.79 42.5308 199.612C43.8448 199.129 45.0887 198.804 46.4915 198.549C46.9392 198.481 47.0195 198.213 47.0007 197.825C47.023 197 47.105 196.125 47.1871 195.25C47.2691 194.375 47.7578 193.869 48.554 193.613C49.5793 193.268 50.6438 193.092 51.7476 193.085C52.5233 193.048 52.93 193.417 53.2068 193.994C53.4836 194.572 53.5912 195.189 53.6989 195.805C53.856 196.482 53.9056 196.542 54.572 196.494C55.4673 196.357 56.3131 196.161 57.2188 195.915ZM66.2137 179.99C65.2688 180.067 64.3734 180.204 63.5276 180.4C60.1649 180.967 56.8517 181.594 53.5386 182.221C51.7974 182.555 50.0272 182.609 48.2587 182.057C47.295 181.746 46.5706 181.237 46.046 180.36C45.8085 179.952 45.571 179.544 45.284 179.075C45.2242 179.125 45.1644 179.175 45.1644 179.175C45.1541 179.284 45.0841 179.443 45.0242 179.492C44.2108 182.284 42.5346 184.278 39.8861 185.464C37.8151 186.373 35.7647 187.063 33.5365 187.296C32.9795 187.354 32.3524 187.571 31.6758 187.728C32.9761 188.567 34.8044 189.069 36.4549 189.114C37.9364 189.198 39.3888 189.003 40.8514 188.699C45.916 187.629 50.9908 186.45 55.9273 184.983C58.3656 184.274 60.715 183.336 63.0355 182.119C64.2504 181.516 65.3063 180.843 66.2137 179.99ZM29.1439 172.377C30.1076 172.688 30.9226 172.82 31.7479 172.842C34.0546 172.948 36.3323 172.775 38.581 172.324C41.2277 171.745 43.9343 171.116 46.6204 170.706C48.9186 170.315 51.2373 169.705 53.4176 168.806C54.1643 168.49 54.9605 168.234 55.6184 167.689C55.4698 167.51 55.3604 167.499 55.251 167.489C52.9341 167.492 50.7076 167.118 48.4419 166.575C46.8819 166.153 45.4518 165.522 44.172 164.464C43.5073 163.906 42.6735 163.386 42.0293 162.609C41.7781 163.523 41.2792 164.138 40.7802 164.753C39.8814 166.103 38.7844 167.214 37.4892 168.085C35.6062 169.343 33.6241 170.48 31.4541 171.27C30.7672 171.536 29.9709 171.793 29.1439 172.377ZM52.5107 152.008C52.4816 151.73 52.3125 151.769 52.2031 151.759C51.0498 151.706 49.8571 151.484 48.7242 151.212C46.0211 150.628 43.5982 149.407 41.6948 147.354C41.2984 146.875 40.8319 146.556 40.3757 146.127C39.8597 145.747 39.5214 145.826 39.1916 146.402C38.8721 146.868 38.7712 147.355 38.6106 147.892C37.9869 150.426 36.6882 152.51 34.7147 154.145C33.3989 155.236 32.073 156.435 30.6581 157.406C30.5385 157.505 30.26 157.534 30.3882 157.932C37.9201 156.432 45.3632 154.703 52.5107 152.008ZM38.8746 184.487C39.6008 184.389 40.2381 184.063 40.7661 183.726C42.5295 182.568 43.4095 180.83 44.0315 178.903C44.1921 178.366 44.3528 177.83 44.5134 177.293C44.6638 176.866 45.0124 176.678 45.46 176.61C45.8479 176.591 45.976 176.989 46.1144 177.278C46.381 177.965 46.7073 178.602 46.9739 179.289C47.29 180.036 47.8453 180.584 48.7099 180.776C50.2203 181.138 51.712 181.112 53.2242 180.868C53.5625 180.79 53.6821 180.69 53.6036 180.352C53.0227 178.312 52.9988 176.214 52.4674 174.233C52.2607 173.497 52.2607 173.497 51.5242 173.704C49.0466 174.243 46.5588 174.893 44.0709 175.542C42.1999 176.083 40.1802 176.446 38.2596 176.927C37.583 177.085 37.583 177.085 37.6906 177.702C37.9059 178.935 38.0613 180.218 38.2766 181.452C38.5226 182.358 38.5892 183.412 38.8746 184.487ZM69.6379 178.767C69.2005 178.726 68.9613 178.924 68.881 179.192C68.6503 179.888 68.0522 180.383 67.514 180.829C65.5797 182.633 63.2798 183.631 60.8705 184.619C57.7846 185.764 54.6201 186.57 51.5051 187.436C47.7135 188.46 43.9424 189.264 40.1713 190.069C37.4152 190.638 34.7804 190.501 32.2584 189.162C31.7321 188.892 31.1956 188.731 30.7291 188.411C29.7962 187.772 28.8804 188.128 27.9747 188.374C28.0533 188.712 28.272 188.733 28.4805 188.862C29.6219 189.631 30.9427 190.252 32.1439 190.971C32.9282 191.431 33.7124 191.89 34.5668 192.191C36.067 192.663 37.5091 192.577 39.0811 192.283C42.2251 191.696 45.241 190.71 48.3559 189.844C50.7943 189.135 53.371 188.714 55.8093 188.005C57.342 187.542 58.9738 187.199 60.5167 186.627C62.627 185.887 64.6381 185.027 66.0752 183.232C66.3247 182.924 66.6237 182.676 66.9227 182.428C67.8506 181.357 68.8382 180.236 69.6379 178.767ZM61.8363 166.673C59.7569 167.084 57.797 167.397 56.1327 168.675C55.8935 168.873 55.4953 169.001 55.2066 169.14C52.9562 170.197 50.5777 170.857 48.2094 171.407C45.3235 172.184 42.4187 172.574 39.5036 173.073C37.484 173.435 35.425 173.628 33.4258 173.771C31.7547 173.946 30.0443 173.951 28.5151 173.201C27.671 172.79 26.8952 172.828 26.0887 173.194C25.7401 173.382 25.4018 173.46 25.0037 173.588C25.1421 173.877 25.4702 173.908 25.6786 174.038C27.0387 174.827 28.5492 175.19 29.9999 175.601C30.8046 175.842 31.6197 175.974 32.4552 175.887C35.3002 175.547 38.1452 175.207 40.9116 174.529C43.9667 173.712 47.0612 173.064 50.1163 172.248C51.7584 171.795 53.45 171.402 55.0425 170.889C55.8986 170.584 56.9033 170.457 57.6705 169.922C59.0853 168.952 60.5497 168.041 61.8363 166.673ZM58.0007 151.696C56.8371 151.752 55.6444 151.53 54.6175 152.482C54.4381 152.63 54.2091 152.719 54.0399 152.758C52.7755 153.302 51.4222 153.616 50.1082 154.1C47.1522 155.036 44.1961 155.972 41.211 156.63C40.425 156.777 39.6886 156.984 38.9026 157.131C37.6586 157.455 36.3652 157.72 35.1212 158.045C33.3596 158.597 31.4988 159.029 29.6585 159.242C28.0968 159.427 26.6239 159.84 25.3184 160.821C25.4671 161 25.6362 160.961 25.8549 160.982C27.0578 161.095 28.1719 160.978 29.356 160.703C31.2664 160.331 33.1562 160.177 34.9777 159.576C35.6645 159.309 36.3805 159.321 37.1067 159.224C38.7385 158.88 40.2712 158.417 41.903 158.074C45.0675 157.267 48.2816 156.521 51.4461 155.714C53.7648 155.105 55.7964 154.026 57.5411 152.48C57.6812 152.162 58.0195 152.084 58.0007 151.696ZM48.3668 165.023C48.5462 164.875 48.4967 164.815 48.5069 164.705C47.9858 162.616 47.4545 160.635 46.9334 158.546C46.8052 158.148 46.5865 158.127 46.2977 158.265C44.8846 158.629 43.4818 158.884 42.0687 159.248C40.4267 159.701 38.8939 160.164 37.2126 160.447C36.5359 160.604 36.536 160.604 36.6931 161.281C36.9579 162.574 37.2228 163.868 37.4876 165.161C37.5269 165.331 37.3868 165.648 37.7148 165.679C37.9335 165.7 38.0036 165.541 38.183 165.392C39.28 164.282 40.1088 163.091 40.5804 161.59C40.8213 160.786 41.6176 160.529 42.2327 161.028C43.4629 162.026 44.753 162.975 46.043 163.923C46.6974 164.591 47.562 164.782 48.3668 165.023ZM60.5626 198.49C61.7467 198.215 62.871 197.989 64.0552 197.714C64.901 197.518 65.1812 196.882 64.995 195.927C64.7883 195.191 64.7387 195.131 63.6742 195.307C63.5648 195.297 63.505 195.346 63.3957 195.336C60.5695 196.064 57.7928 196.851 54.9667 197.579C54.2302 197.786 54.1209 197.776 54.2182 198.502C54.3737 199.785 54.2541 199.884 55.7065 199.689C55.9252 199.71 56.1541 199.621 56.3831 199.532C57.6476 198.989 59.0999 198.794 60.5626 198.49ZM40.3811 203.713C42.4111 203.241 44.412 202.491 46.4915 202.08C47.9541 201.775 47.8447 201.765 47.4415 200.183C47.3629 199.845 47.1545 199.715 46.7564 199.843C46.1293 200.06 45.4031 200.157 44.776 200.374C43.2433 200.837 41.7003 201.41 40.0002 201.305C39.1749 201.283 38.8656 201.64 38.9527 202.476C38.9818 202.754 39.1202 203.043 39.1492 203.322C39.0979 203.868 39.3662 203.949 39.8139 203.88C40.0428 203.792 40.212 203.752 40.3811 203.713ZM36.0176 185.543C36.3952 185.633 36.7541 185.336 37.2017 185.268C37.6494 185.199 37.7793 184.991 37.6614 184.483C37.2992 182.464 36.937 180.444 36.5748 178.424C36.3493 177.3 36.3493 177.3 35.1754 177.466C34.6184 177.524 34.439 177.672 34.5466 178.289C34.6833 179.185 34.7704 180.02 34.9071 180.915C35.3205 182.388 35.6742 183.911 36.0176 185.543ZM54.3452 178.326C54.3742 178.604 54.4631 178.833 54.5416 179.171C54.8355 180.743 54.9944 180.813 56.5271 180.35C56.9252 180.222 56.9953 180.063 56.9167 179.725C56.7988 179.218 56.6211 178.76 56.5032 178.252C56.0505 176.61 55.6473 175.028 55.2441 173.446C55.1159 173.047 54.9673 172.868 54.5691 172.996C54.4598 172.986 54.3402 173.085 54.2308 173.075C53.4944 173.282 53.4448 173.222 53.5917 174.008C54.0155 175.371 54.0411 176.863 54.3452 178.326ZM51.4578 165.589C51.4886 165.261 51.41 164.923 51.3314 164.584C50.9487 162.783 50.2379 160.952 49.915 159.101C49.8467 158.653 49.7681 158.315 49.6997 157.867C49.5716 157.469 49.2828 157.608 49.0043 157.637C48.666 157.715 48.179 157.614 47.9193 158.031C47.9193 158.031 47.9688 158.091 47.909 158.141C48.0953 159.096 48.2217 160.101 48.4677 161.006C48.7137 161.912 48.9598 162.817 49.146 163.773C49.2741 164.171 49.3425 164.618 49.58 165.027C49.6688 165.256 49.8175 165.435 50.0362 165.456C50.583 165.507 50.9503 165.707 51.4578 165.589ZM34.4649 165.043C34.5725 165.66 34.7895 166.287 34.8972 166.904C34.8869 167.014 34.9365 167.073 34.9262 167.183C34.9655 167.352 34.9945 167.63 35.2235 167.542C35.6712 167.473 35.9805 167.116 36.3393 166.819C36.6383 166.571 36.4999 166.282 36.4111 166.053C36.0574 164.531 35.7038 163.008 35.5688 161.507C35.5295 161.337 35.55 161.119 35.3416 160.989C34.9144 160.838 34.5658 161.026 34.1677 161.154C33.7696 161.283 33.908 161.571 33.8772 161.899C33.9934 163.014 34.3983 163.989 34.4649 165.043Z" fill="#282727"/>
</svg>
